<svg xmlns="http://www.w3.org/2000/svg" width="69" height="69" viewBox="0 0 69 69">
    <g fill="none" fill-rule="evenodd">
        <g>
            <g transform="translate(-957 -1982) translate(957 1982)">
                <circle cx="34.5" cy="34.5" r="34.5" fill="#04F" fill-opacity=".1"/>
                <g fill-rule="nonzero">
                    <path fill="#E6E7E8" d="M46.678 20.954h-6.257c.361-.43.646-.923.842-1.46h1.927c1.072 0 1.945-.872 1.945-1.945v-4.818c0-1.886-1.274-3.534-3.1-4.01l-6.352-1.653-4.237-4.917C30.268.784 28.558 0 26.754 0H16.97c-1.894 0-3.658.85-4.84 2.33L8.367 7.042l-2.47.26c-1.107.117-1.94 1.043-1.94 2.156v8.09c0 1.073.872 1.946 1.945 1.946h2.606c.196.536.48 1.03.842 1.459H2.74c-.653 0-1.183.53-1.183 1.183v12.228c0 .653.53 1.183 1.183 1.183h43.937c.653 0 1.184-.53 1.184-1.183V22.137c0-.653-.531-1.183-1.184-1.183zm-14.541-1.459c.196.536.48 1.03.842 1.459H16.792c.361-.43.646-.923.842-1.459h14.503z" transform="translate(11 16)"/>
                    <g transform="translate(11 16) translate(0 1.528)">
                        <g>
                            <path fill="#0089EF" d="M44.749 13.883H.779c-.43 0-.778-.348-.778-.778V.845C.001.414.35.065.78.065h43.97c.43 0 .778.348.778.778v12.26c0 .43-.348.78-.778.78z" transform="translate(.39 21.305)"/>
                            <g fill="#FFF">
                                <path d="M0 .004L7.57.004 7.57 1.688 0 1.688zM11.343.004L20.875.004 20.875 1.688 11.343 1.688zM24.649.004L34.181.004 34.181 1.688 24.649 1.688zM37.954.004L45.528.004 45.528 1.688 37.954 1.688z" transform="translate(.39 21.305) translate(0 6.129)"/>
                            </g>
                        </g>
                        <path fill="#FA759E" d="M43.19 17.577V12.76c0-1.71-1.155-3.203-2.809-3.633l-6.47-1.685-4.316-5.008C28.492 1.153 26.887.418 25.198.418h-9.783c-1.765 0-3.435.803-4.536 2.183L7.013 7.44 4.38 7.72c-.905.095-1.592.858-1.592 1.768v8.09c0 .86.697 1.557 1.556 1.557h37.288c.86 0 1.557-.697 1.557-1.557z"/>
                        <path fill="#FFF" d="M2.789 9.92v2.452H3.96c.333 0 .602-.27.602-.602v-1.249c0-.332-.27-.601-.602-.601H2.79z"/>
                        <g>
                            <path fill="#D4FBFF" d="M12.939 5.426h9.255l-2.923-3.565C18.326.708 16.914.04 15.423.04H12.94v5.386z" transform="translate(9.339 2.237)"/>
                            <path fill="#FFD7E5" d="M18.313 3.592c-.426 0-.77.345-.77.77v.293c0 .426.344.77.77.77h3.881l-1.503-1.833h-2.378z" transform="translate(9.339 2.237)"/>
                            <path fill="#FFF" d="M12.939 0.04L14.106 0.04 14.106 5.426 12.939 5.426z" transform="translate(9.339 2.237)"/>
                            <path fill="#D4FBFF" d="M9.382.04H6.5c-1.58 0-3.067.75-4.005 2.023L.015 5.426h9.367V.04z" transform="translate(9.339 2.237)"/>
                        </g>
                        <path fill="#FFF" d="M39.99 10.007s-.23-.04-.411-.01c-.173.028-.205.206-.205.286v1.351c0 .407.33.738.738.738h1.902c.18 0 .302-.178.246-.348-.332-1.01-1.183-1.797-2.27-2.017z"/>
                        <circle cx="11.514" cy="17.855" r="4.475" fill="#6DC9F7"/>
                        <circle cx="11.514" cy="17.855" r="1.723" fill="#D4FBFF"/>
                        <circle cx="35.144" cy="17.855" r="4.475" fill="#6DC9F7"/>
                        <circle cx="35.144" cy="17.855" r="1.723" fill="#D4FBFF"/>
                        <g fill="#3A2C60">
                            <path d="M23.68 34.799h-3.723c-.215 0-.389.174-.389.389 0 .214.174.389.39.389h3.722c.215 0 .389-.175.389-.39 0-.214-.174-.388-.39-.388z"/>
                            <path d="M45.122 20.982h-6.257c.361-.43.645-.923.842-1.46h1.926c1.073 0 1.946-.872 1.946-1.945V12.76c0-1.886-1.275-3.534-3.1-4.01l-6.352-1.654L29.89 2.18C28.712.812 27.002.029 25.197.029h-9.782c-1.895 0-3.658.848-4.84 2.328L6.81 7.072l-2.47.26C3.234 7.447 2.4 8.373 2.4 9.486v8.09c0 1.073.873 1.946 1.945 1.946h2.606c.197.536.481 1.03.842 1.459H1.184c-.652 0-1.183.53-1.183 1.183v12.228c0 .653.53 1.184 1.183 1.184h17.184c.215 0 .39-.174.39-.389 0-.215-.175-.39-.39-.39H1.184c-.223 0-.405-.18-.405-.405V22.165c0-.223.182-.406.405-.406h7.442c.81.6 1.806.96 2.889.96 1.082 0 2.079-.36 2.888-.96h17.852c.81.6 1.807.96 2.889.96 1.082 0 2.08-.36 2.888-.96h7.09c.223 0 .405.182.405.406v12.228c0 .223-.182.406-.405.406H25.268c-.215 0-.389.174-.389.389 0 .214.174.389.39.389h19.853c.653 0 1.183-.531 1.183-1.184V22.165c0-.653-.53-1.183-1.183-1.183zM29.3 2.687l4.317 5.009c.052.06.12.102.197.122l6.47 1.685c1.482.386 2.517 1.725 2.517 3.257v4.817c0 .644-.524 1.168-1.167 1.168h-1.711c.054-.289.085-.585.085-.89 0-2.682-2.182-4.863-4.864-4.863s-4.864 2.181-4.864 4.864c0 .304.032.6.085.889h-9.458V.807h4.29c1.578 0 3.073.685 4.103 1.88zM16.078 19.523H30.58c.197.536.481 1.03.842 1.459H15.236c.36-.43.645-.923.842-1.46zm-11.733-.779c-.643 0-1.167-.523-1.167-1.167v-8.09c0-.713.535-1.307 1.244-1.382l2.631-.277c.104-.01.199-.063.264-.144l3.866-4.841C12.216 1.549 13.759.807 15.415.807h4.714v17.938h-3.836c.054-.289.086-.585.086-.89 0-2.682-2.182-4.863-4.864-4.863-2.683 0-4.864 2.181-4.864 4.864 0 .304.031.6.085.889h-2.39zm3.084-.889c0-2.253 1.833-4.085 4.086-4.085s4.085 1.832 4.085 4.085-1.832 4.086-4.085 4.086-4.086-1.833-4.086-4.086zm23.629 0c0-2.253 1.833-4.085 4.086-4.085s4.085 1.832 4.085 4.085-1.832 4.086-4.085 4.086-4.086-1.833-4.086-4.086z"/>
                            <path d="M22.278 8.053h9.255c.151 0 .288-.087.352-.223s.045-.297-.05-.413L28.91 3.852c-1.023-1.248-2.536-1.964-4.15-1.964h-2.484c-.215 0-.389.174-.389.39v5.386c0 .215.175.389.39.389zm5.374-.778c-.21 0-.381-.172-.381-.382V6.6c0-.21.17-.381.38-.381h2.195l.866 1.056h-3.06zm-4.985-4.609h2.095c1.38 0 2.672.612 3.547 1.679l.899 1.096h-1.556c-.64 0-1.16.52-1.16 1.16v.292c0 .135.028.262.07.382h-3.895V2.666zM9.354 8.053h9.367c.215 0 .389-.174.389-.39V2.278c0-.215-.174-.389-.39-.389H15.84c-1.697 0-3.312.816-4.318 2.181L9.04 7.433c-.087.118-.1.276-.034.406.066.131.2.214.347.214zm2.793-3.522c.861-1.168 2.241-1.865 3.692-1.865h2.493v4.609h-8.207l2.022-2.744zM23.537 9.596h-1.26c-.214 0-.388.175-.388.39 0 .214.174.388.389.388h1.26c.214 0 .388-.174.388-.389 0-.214-.174-.389-.389-.389zM18.72 9.596h-1.259c-.215 0-.389.175-.389.39 0 .214.174.388.39.388h1.259c.215 0 .389-.174.389-.389 0-.214-.174-.389-.39-.389zM11.515 15.743c-1.165 0-2.113.948-2.113 2.113 0 1.164.948 2.112 2.113 2.112 1.164 0 2.112-.948 2.112-2.112 0-1.165-.948-2.113-2.112-2.113zm0 3.447c-.736 0-1.335-.599-1.335-1.335s.599-1.334 1.335-1.334c.735 0 1.334.598 1.334 1.334 0 .736-.599 1.335-1.334 1.335zM35.144 15.743c-1.165 0-2.113.948-2.113 2.113 0 1.164.948 2.112 2.113 2.112 1.164 0 2.112-.948 2.112-2.112 0-1.165-.947-2.113-2.112-2.113zm0 3.447c-.736 0-1.335-.599-1.335-1.335s.599-1.334 1.335-1.334 1.334.598 1.334 1.334c0 .736-.598 1.335-1.334 1.335z"/>
                        </g>
                    </g>
                </g>
            </g>
        </g>
    </g>
</svg>
