<svg xmlns="http://www.w3.org/2000/svg" width="69" height="69" viewBox="0 0 69 69">
    <g fill="none" fill-rule="evenodd">
        <g>
            <g transform="translate(-538 -1682) translate(538 1682)">
                <circle cx="34.5" cy="34.5" r="34.5" fill="#04F" fill-opacity=".1"/>
                <g fill-rule="nonzero">
                    <g>
                        <g>
                            <path fill="#EFAFD0" d="M33.483 10.229c1.847-3.191 1.564-7.025-.407-9.866-.12-.173-.313-.282-.523-.3-2.892-.234-5.794.903-7.745 3.154-.206.237-.545.301-.828.167-2.024-.961-4.292-1.493-6.687-1.476-2.307.016-4.496.547-6.457 1.483-.284.135-.625.071-.83-.167C8.054.97 5.149-.17 2.254.064c-.21.017-.403.126-.523.299-1.971 2.841-2.254 6.675-.407 9.866.36.62.78 1.183 1.251 1.686.198.21.27.509.184.785-.446 1.438-.686 2.964-.68 4.543.014 4.378 1.874 8.322 4.844 11.1.159.15.247.359.247.577v7.043c0 .55.447.996.998.996h5.292c.551 0 .998-.446.998-.996v-3.06c0-.363.322-.645.682-.591.739.109 1.494.166 2.263.166.87 0 1.721-.073 2.55-.212.365-.06.695.222.695.59v3.107c0 .55.447.996.999.996h5.291c.551 0 .998-.446.998-.996v-7.33c0-.211.083-.415.233-.563 2.815-2.771 4.56-6.62 4.56-10.877 0-1.567-.237-3.078-.676-4.501-.085-.276-.013-.573.184-.783.468-.501.888-1.062 1.246-1.68z" transform="translate(17 10) translate(.655 .749) translate(0 9.544)"/>
                            <g fill="#EB96C0" transform="translate(17 10) translate(.655 .749) translate(0 9.544) translate(10.573)">
                                <g>
                                    <path d="M4.023 32.478c-.769 0-1.524-.057-2.263-.166-.36-.054-.682.228-.682.59v3.061c0 .55-.447.996-.998.996h2.807c.551 0 .998-.446.998-.996v-3.06c0-.168.07-.317.179-.425h-.04zM22.91 10.229c1.847-3.191 1.564-7.025-.407-9.866-.12-.173-.313-.282-.524-.3-.824-.066-1.65-.021-2.453.129.066.046.123.104.17.17 1.971 2.842 2.254 6.676.407 9.867-.358.618-.778 1.179-1.246 1.68-.197.21-.269.508-.184.783.439 1.423.675 2.934.675 4.5 0 4.257-1.744 8.107-4.559 10.878-.15.148-.233.352-.233.562v7.331c0 .55-.447.996-.998.996h2.807c.551 0 .998-.446.998-.996v-7.33c0-.211.083-.414.233-.562 2.815-2.772 4.56-6.622 4.56-10.878 0-1.567-.237-3.078-.676-4.5-.085-.276-.013-.573.184-.784.468-.501.888-1.062 1.246-1.68z"/>
                                </g>
                                <ellipse cx="6.83" cy="22.62" rx="5.677" ry="3.858"/>
                            </g>
                        </g>
                        <g transform="translate(17 10) translate(.655 .749) translate(8.421)">
                            <ellipse cx="8.982" cy="8.899" fill="#FFE17A" rx="8.922" ry="8.899"/>
                            <path fill="#FCD36A" d="M8.982 0c-.477 0-.946.038-1.403.11 4.26.671 7.519 4.35 7.519 8.79 0 4.438-3.258 8.117-7.52 8.788.458.072.927.11 1.404.11 4.928 0 8.923-3.984 8.923-8.899C17.905 3.984 13.91 0 8.982 0z"/>
                        </g>
                    </g>
                    <g fill="#020203">
                        <path d="M20.35 33.637c.388 0 .703-.314.703-.701 0-.388-.315-.702-.702-.702-.388 0-.702.314-.702.702 0 .387.314.701.702.701zm14.395-12.764c1.915-3.307 1.743-7.475-.437-10.617-.24-.347-.62-.566-1.043-.6-1.964-.16-3.95.282-5.662 1.23.052-.405.08-.819.08-1.238 0-5.294-4.318-9.601-9.625-9.601-1.96 0-3.845.584-5.454 1.69-.319.219-.4.656-.18.975.22.32.656.4.975.18 1.374-.943 2.985-1.442 4.66-1.442 4.532 0 8.22 3.678 8.22 8.198 0 4.52-3.688 8.197-8.22 8.197-4.533 0-8.221-3.677-8.221-8.197 0-1.672.501-3.28 1.45-4.65.22-.32.14-.757-.178-.977-.319-.22-.756-.141-.976.177-1.112 1.607-1.7 3.49-1.7 5.45 0 .42.028.832.08 1.238-1.712-.948-3.697-1.39-5.66-1.23-.424.034-.805.253-1.045.6-2.18 3.142-2.352 7.31-.437 10.616.376.652.83 1.262 1.346 1.815.013.014.04.05.026.097-.478 1.54-.717 3.139-.713 4.754.008 2.239.47 4.403 1.376 6.433.874 1.961 2.116 3.703 3.692 5.177.015.015.024.038.024.064v7.044c0 .936.763 1.697 1.7 1.697h5.292c.937 0 1.7-.761 1.7-1.697v-2.94c1.58.221 3.206.206 4.787-.045v2.985c0 .936.762 1.697 1.7 1.697h5.29c.938 0 1.701-.761 1.701-1.697v-7.331c0-.025.009-.048.024-.062.915-.902 1.72-1.911 2.394-3 .203-.33.101-.763-.229-.966-.33-.204-.762-.102-.965.228-.615.994-1.35 1.915-2.184 2.737-.282.276-.444.664-.444 1.063v7.33c0 .163-.133.295-.296.295h-5.291c-.164 0-.297-.132-.297-.294v-3.108c0-.383-.168-.744-.46-.992-.291-.247-.675-.352-1.052-.29-1.515.254-3.08.268-4.595.044-.373-.056-.75.054-1.036.3-.286.248-.451.607-.451.985v3.06c0 .163-.133.295-.297.295h-5.29c-.164 0-.297-.132-.297-.294v-7.044c0-.413-.172-.81-.47-1.089-2.967-2.775-4.608-6.536-4.622-10.59-.005-1.472.214-2.93.649-4.332.16-.513.029-1.078-.342-1.473-.443-.475-.832-.999-1.156-1.559-1.643-2.838-1.495-6.416.38-9.114 2.159-.175 4.347.495 6.035 1.84 1.338 3.7 4.893 6.353 9.057 6.353 4.165 0 7.72-2.652 9.057-6.353 1.69-1.345 3.878-2.016 6.04-1.84 1.871 2.698 2.019 6.276.376 9.114-.325.56-.712 1.083-1.153 1.554-.368.394-.498.957-.34 1.468.427 1.386.644 2.83.644 4.294 0 1.66-.278 3.289-.825 4.84-.129.366.063.766.429.895.356.126.764-.058.895-.428.6-1.702.905-3.487.905-5.307 0-1.604-.238-3.187-.707-4.707-.01-.034-.001-.07.025-.097.512-.548.964-1.156 1.341-1.808zM15.813 33.59c.387 0 .702-.315.702-.702 0-.388-.315-.702-.702-.702-.388 0-.702.314-.702.702 0 .387.314.702.702.702zm-2.164 2.63c1.188.807 2.754 1.251 4.41 1.251 1.655 0 3.221-.444 4.408-1.251 1.271-.864 1.97-2.039 1.97-3.309s-.699-2.445-1.97-3.308c-1.187-.807-2.753-1.252-4.409-1.252-1.655 0-3.221.445-4.409 1.252-1.27.863-1.97 2.038-1.97 3.308s.7 2.445 1.97 3.309zm4.41-6.465c2.697 0 4.975 1.445 4.975 3.156s-2.278 3.156-4.976 3.156c-2.697 0-4.975-1.445-4.975-3.156 0-1.71 2.278-3.156 4.975-3.156zM17.02 13.6c-.47 0-.853-.468-.853-1.043 0-.388-.315-.702-.702-.702-.388 0-.702.314-.702.702 0 1.35 1.013 2.447 2.257 2.447h.336v.62c0 .387.314.701.701.701.388 0 .702-.314.702-.701v-.62h.335c1.245 0 2.258-1.098 2.258-2.447v-1.164c0-1.35-1.013-2.447-2.258-2.447h-.335V5.695h.335c.471 0 .854.468.854 1.044 0 .387.314.701.702.701.388 0 .702-.314.702-.701 0-1.35-1.013-2.448-2.258-2.448h-.335v-.62c0-.387-.314-.701-.702-.701-.387 0-.701.314-.701.702v.62h-.336c-1.244 0-2.257 1.097-2.257 2.447v1.163c0 .639.225 1.243.634 1.701.428.481 1.005.746 1.623.746h.336V13.6h-.336zm1.74-3.25h.334c.471 0 .854.467.854 1.043v1.164c0 .575-.383 1.043-.854 1.043h-.335v-3.25zm-1.74-1.404c-.212 0-.417-.098-.576-.277-.179-.2-.277-.473-.277-.767V6.74c0-.576.383-1.044.853-1.044h.336v3.25h-.336z" transform="translate(17 10)"/>
                        <g>
                            <path d="M.806 3.38c-.412 0-.75-.338-.75-.75V.752c0-.413.338-.75.75-.75s.75.337.75.75V2.63c0 .412-.338.75-.75.75zM16.223 3.38c-.412 0-.749-.338-.749-.75V.752c0-.413.337-.75.75-.75.412 0 .749.337.749.75V2.63c0 .412-.337.75-.75.75z" transform="translate(17 10) translate(9.544 20.865)"/>
                        </g>
                    </g>
                </g>
            </g>
        </g>
    </g>
</svg>
