<svg xmlns="http://www.w3.org/2000/svg" xmlns:xlink="http://www.w3.org/1999/xlink" width="279" height="250" viewBox="0 0 279 250">
    <defs>
        <path id="fb22o3ue4a" d="M0.372 0.186L4.678 0.186 4.678 4.642 0.372 4.642z"/>
        <path id="nenyk8v8yc" d="M0.063 0.186L5.087 0.186 5.087 4.642 0.063 4.642z"/>
        <path id="pbvigmzw1e" d="M0.48 0.186L4.786 0.186 4.786 4.642 0.48 4.642z"/>
        <path id="28su3y5d5g" d="M0.162 0.186L4.468 0.186 4.468 4.642 0.162 4.642z"/>
        <path id="j5ox1v1lhi" d="M0.059 0.186L5.083 0.186 5.083 4.642 0.059 4.642z"/>
        <path id="3nhtl8l0uk" d="M0.476 0.186L4.782 0.186 4.782 4.642 0.476 4.642z"/>
        <path id="gxx7q5421m" d="M0.159 0.186L4.465 0.186 4.465 4.642 0.159 4.642z"/>
        <path id="f2mwzjiz0o" d="M0.584 0.186L4.89 0.186 4.89 4.642 0.584 4.642z"/>
        <path id="y0cm7nyvnq" d="M0.534 0L4.84 0 4.84 5.199 0.534 5.199z"/>
        <path id="vutl6c2c6s" d="M0.534 0.297L4.84 0.297 4.84 4.753 0.534 4.753z"/>
        <path id="yjyn3jqzgu" d="M0.534 0.149L4.84 0.149 4.84 4.605 0.534 4.605z"/>
        <path id="xfsbir639w" d="M0.534 0.446L4.84 0.446 4.84 4.902 0.534 4.902z"/>
        <path id="849430ex2y" d="M0.534 0L4.84 0 4.84 5.199 0.534 5.199z"/>
        <path id="thuasuu9nA" d="M0.162 0.186L4.468 0.186 4.468 4.642 0.162 4.642z"/>
        <path id="yd9609e33C" d="M0.588 0.186L4.894 0.186 4.894 4.642 0.588 4.642z"/>
        <path id="vv96ehx97E" d="M0.271 0.186L4.576 0.186 4.576 4.642 0.271 4.642z"/>
        <path id="h2p73in8lG" d="M0.696 0.186L5.002 0.186 5.002 4.642 0.696 4.642z"/>
        <path id="fzrn9s1j7I" d="M0.584 0.186L4.89 0.186 4.89 4.642 0.584 4.642z"/>
        <path id="zxisxfg7rK" d="M0.267 0.186L4.573 0.186 4.573 4.642 0.267 4.642z"/>
        <path id="1fmekd3lfM" d="M0.692 0.186L4.999 0.186 4.999 4.642 0.692 4.642z"/>
        <path id="i89q4qs0vO" d="M0.375 0.186L4.681 0.186 4.681 4.642 0.375 4.642z"/>
    </defs>
    <g fill="none" fill-rule="evenodd" opacity=".147">
        <g>
            <g>
                <g transform="translate(56 -1549) translate(-56 1549)">
                    <mask id="ugn7d5n37b" fill="#fff">
                        <use xlink:href="#fb22o3ue4a"/>
                    </mask>
                    <path fill="#241E1E" fill-rule="nonzero" d="M2.524 4.642c2.869 0 2.873-4.456 0-4.456-2.867 0-2.873 4.456 0 4.456" mask="url(#ugn7d5n37b)"/>
                </g>
                <g transform="translate(56 -1549) translate(-56 1549) translate(16.902)">
                    <mask id="oqdxv8gmed" fill="#fff">
                        <use xlink:href="#nenyk8v8yc"/>
                    </mask>
                    <path fill="#241E1E" fill-rule="nonzero" d="M2.575 4.642c3.347 0 3.352-4.456 0-4.456-3.346 0-3.352 4.456 0 4.456" mask="url(#oqdxv8gmed)"/>
                </g>
                <g transform="translate(56 -1549) translate(-56 1549) translate(35.105)">
                    <mask id="qck82cgu4f" fill="#fff">
                        <use xlink:href="#pbvigmzw1e"/>
                    </mask>
                    <path fill="#241E1E" fill-rule="nonzero" d="M2.633 4.642c2.868 0 2.873-4.456 0-4.456-2.868 0-2.873 4.456 0 4.456" mask="url(#qck82cgu4f)"/>
                </g>
                <g transform="translate(56 -1549) translate(-56 1549) translate(53.307)">
                    <mask id="1qxsqs14fh" fill="#fff">
                        <use xlink:href="#28su3y5d5g"/>
                    </mask>
                    <path fill="#241E1E" fill-rule="nonzero" d="M2.316 4.642c2.867 0 2.873-4.456 0-4.456-2.87 0-2.874 4.456 0 4.456" mask="url(#1qxsqs14fh)"/>
                </g>
                <path fill="#241E1E" fill-rule="nonzero" d="M11.051 15.596c2.599 0 2.603-5.199 0-5.199-2.598 0-2.602 5.2 0 5.2M27.954 15.596c2.598 0 2.602-5.199 0-5.199-2.599 0-2.603 5.2 0 5.2M47.456 15.596c2.599 0 2.603-5.199 0-5.199-2.598 0-2.602 5.2 0 5.2M64.359 15.596c2.598 0 2.602-5.199 0-5.199-2.599 0-2.603 5.2 0 5.2M3.25 24.694c2.599 0 2.603-5.199 0-5.199-2.598 0-2.602 5.199 0 5.199M20.153 24.694c2.598 0 2.602-5.199 0-5.199-2.598 0-2.603 5.199 0 5.199M37.055 24.694c2.598 0 2.602-5.199 0-5.199-2.598 0-2.603 5.199 0 5.199M55.258 24.694c2.597 0 2.602-5.199 0-5.199-2.599 0-2.603 5.199 0 5.199M11.051 36.391c2.599 0 2.603-5.199 0-5.199-2.598 0-2.602 5.199 0 5.199M27.954 36.391c2.598 0 2.602-5.199 0-5.199-2.599 0-2.603 5.199 0 5.199M47.456 36.391c2.599 0 2.603-5.199 0-5.199-2.598 0-2.602 5.199 0 5.199M64.359 36.391c2.598 0 2.602-5.199 0-5.199-2.599 0-2.603 5.199 0 5.199M1.95 46.788c2.599 0 2.603-5.198 0-5.198-2.598 0-2.602 5.198 0 5.198M18.852 46.788c2.599 0 2.603-5.198 0-5.198-2.597 0-2.602 5.198 0 5.198M37.055 46.788c2.598 0 2.602-5.198 0-5.198-2.598 0-2.603 5.198 0 5.198M55.258 46.788c2.597 0 2.602-5.198 0-5.198-2.599 0-2.603 5.198 0 5.198M11.051 57.186c2.599 0 2.603-5.199 0-5.199-2.598 0-2.602 5.199 0 5.199M27.954 57.186c2.598 0 2.602-5.199 0-5.199-2.599 0-2.603 5.199 0 5.199M46.156 57.186c2.599 0 2.603-5.199 0-5.199-2.598 0-2.602 5.199 0 5.199M64.359 57.186c2.598 0 2.602-5.199 0-5.199-2.599 0-2.603 5.199 0 5.199M3.25 67.583c2.599 0 2.603-5.198 0-5.198-2.598 0-2.602 5.198 0 5.198M20.153 67.583c2.598 0 2.602-5.198 0-5.198-2.598 0-2.603 5.198 0 5.198M37.055 67.583c2.598 0 2.602-5.198 0-5.198-2.598 0-2.603 5.198 0 5.198M55.258 67.583c2.597 0 2.602-5.198 0-5.198-2.599 0-2.603 5.198 0 5.198M11.051 77.98c2.599 0 2.603-5.198 0-5.198-2.598 0-2.602 5.199 0 5.199M27.954 77.98c2.598 0 2.602-5.198 0-5.198-2.599 0-2.603 5.199 0 5.199M47.456 77.98c2.599 0 2.603-5.198 0-5.198-2.598 0-2.602 5.199 0 5.199M64.359 77.98c2.598 0 2.602-5.198 0-5.198-2.599 0-2.603 5.199 0 5.199M3.25 88.378c2.599 0 2.603-5.199 0-5.199-2.598 0-2.602 5.2 0 5.2M20.153 88.378c2.598 0 2.602-5.199 0-5.199-2.598 0-2.603 5.2 0 5.2M37.055 88.378c2.598 0 2.602-5.199 0-5.199-2.598 0-2.603 5.2 0 5.2M55.258 88.378c2.597 0 2.602-5.199 0-5.199-2.599 0-2.603 5.2 0 5.2M11.051 100.075c2.599 0 2.603-5.198 0-5.198-2.598 0-2.602 5.198 0 5.198M27.954 100.075c2.598 0 2.602-5.198 0-5.198-2.599 0-2.603 5.198 0 5.198M47.456 100.075c2.599 0 2.603-5.198 0-5.198-2.598 0-2.602 5.198 0 5.198M64.359 100.075c2.598 0 2.602-5.198 0-5.198-2.599 0-2.603 5.198 0 5.198M3.25 109.173c2.599 0 2.603-5.199 0-5.199-2.598 0-2.602 5.199 0 5.199M20.153 109.173c2.598 0 2.602-5.199 0-5.199-2.598 0-2.603 5.199 0 5.199M37.055 109.173c2.598 0 2.602-5.199 0-5.199-2.598 0-2.603 5.199 0 5.199M55.258 109.173c2.597 0 2.602-5.199 0-5.199-2.599 0-2.603 5.199 0 5.199M11.051 120.87c2.599 0 2.603-5.199 0-5.199-2.598 0-2.602 5.2 0 5.2M27.954 120.87c2.598 0 2.602-5.199 0-5.199-2.599 0-2.603 5.2 0 5.2M47.456 120.87c2.599 0 2.603-5.199 0-5.199-2.598 0-2.602 5.2 0 5.2M64.359 120.87c2.598 0 2.602-5.199 0-5.199-2.599 0-2.603 5.2 0 5.2" transform="translate(56 -1549) translate(-56 1549)"/>
                <g transform="translate(56 -1549) translate(-56 1549) translate(70.21)">
                    <mask id="gt13zbphhj" fill="#fff">
                        <use xlink:href="#j5ox1v1lhi"/>
                    </mask>
                    <path fill="#241E1E" fill-rule="nonzero" d="M2.571 4.642c3.346 0 3.352-4.456 0-4.456-3.347 0-3.352 4.456 0 4.456" mask="url(#gt13zbphhj)"/>
                </g>
                <g transform="translate(56 -1549) translate(-56 1549) translate(88.412)">
                    <mask id="juybg0sh1l" fill="#fff">
                        <use xlink:href="#3nhtl8l0uk"/>
                    </mask>
                    <path fill="#241E1E" fill-rule="nonzero" d="M2.63 4.642c2.867 0 2.872-4.456 0-4.456-2.87 0-2.874 4.456 0 4.456" mask="url(#juybg0sh1l)"/>
                </g>
                <g transform="translate(56 -1549) translate(-56 1549) translate(105.314)">
                    <mask id="2pswxw4fzn" fill="#fff">
                        <use xlink:href="#gxx7q5421m"/>
                    </mask>
                    <path fill="#241E1E" fill-rule="nonzero" d="M2.312 4.642c2.868 0 2.873-4.456 0-4.456-2.869 0-2.873 4.456 0 4.456" mask="url(#2pswxw4fzn)"/>
                </g>
                <g transform="translate(56 -1549) translate(-56 1549) translate(122.217)">
                    <mask id="4yh55kwftp" fill="#fff">
                        <use xlink:href="#f2mwzjiz0o"/>
                    </mask>
                    <path fill="#241E1E" fill-rule="nonzero" d="M2.737 4.642c2.869 0 2.873-4.456 0-4.456-2.868 0-2.873 4.456 0 4.456" mask="url(#4yh55kwftp)"/>
                </g>
                <path fill="#241E1E" fill-rule="nonzero" d="M81.261 15.596c2.598 0 2.602-5.199 0-5.199-2.598 0-2.602 5.2 0 5.2M99.463 15.596c2.599 0 2.603-5.199 0-5.199-2.598 0-2.602 5.2 0 5.2M116.366 15.596c2.598 0 2.602-5.199 0-5.199-2.599 0-2.603 5.2 0 5.2M134.568 15.596c2.599 0 2.603-5.199 0-5.199-2.598 0-2.602 5.2 0 5.2M72.16 24.694c2.598 0 2.602-5.199 0-5.199-2.599 0-2.603 5.199 0 5.199M90.362 24.694c2.598 0 2.603-5.199 0-5.199-2.598 0-2.602 5.199 0 5.199M108.565 24.694c2.598 0 2.602-5.199 0-5.199-2.599 0-2.603 5.199 0 5.199M125.467 24.694c2.598 0 2.602-5.199 0-5.199-2.598 0-2.602 5.199 0 5.199M81.261 36.391c2.598 0 2.602-5.199 0-5.199-2.598 0-2.602 5.199 0 5.199M99.463 36.391c2.599 0 2.603-5.199 0-5.199-2.598 0-2.602 5.199 0 5.199M116.366 36.391c2.598 0 2.602-5.199 0-5.199-2.599 0-2.603 5.199 0 5.199M134.568 36.391c2.599 0 2.603-5.199 0-5.199-2.598 0-2.602 5.199 0 5.199M72.16 46.788c2.598 0 2.602-5.198 0-5.198-2.599 0-2.603 5.198 0 5.198M90.362 46.788c2.598 0 2.603-5.198 0-5.198-2.598 0-2.602 5.198 0 5.198M107.265 46.788c2.597 0 2.602-5.198 0-5.198-2.599 0-2.603 5.198 0 5.198M125.467 46.788c2.598 0 2.602-5.198 0-5.198-2.598 0-2.602 5.198 0 5.198M81.261 57.186c2.598 0 2.602-5.199 0-5.199-2.598 0-2.602 5.199 0 5.199M99.463 57.186c2.599 0 2.603-5.199 0-5.199-2.598 0-2.602 5.199 0 5.199M116.366 57.186c2.598 0 2.602-5.199 0-5.199-2.599 0-2.603 5.199 0 5.199M134.568 57.186c2.599 0 2.603-5.199 0-5.199-2.598 0-2.602 5.199 0 5.199M72.16 67.583c2.598 0 2.602-5.198 0-5.198-2.599 0-2.603 5.198 0 5.198M90.362 67.583c2.598 0 2.603-5.198 0-5.198-2.598 0-2.602 5.198 0 5.198M108.565 67.583c2.598 0 2.602-5.198 0-5.198-2.599 0-2.603 5.198 0 5.198M125.467 67.583c2.598 0 2.602-5.198 0-5.198-2.598 0-2.602 5.198 0 5.198M81.261 77.98c2.598 0 2.602-5.198 0-5.198-2.598 0-2.602 5.199 0 5.199M99.463 77.98c2.599 0 2.603-5.198 0-5.198-2.598 0-2.602 5.199 0 5.199M116.366 77.98c2.598 0 2.602-5.198 0-5.198-2.599 0-2.603 5.199 0 5.199M134.568 77.98c2.599 0 2.603-5.198 0-5.198-2.598 0-2.602 5.199 0 5.199M72.16 88.378c2.598 0 2.602-5.199 0-5.199-2.599 0-2.603 5.2 0 5.2M90.362 88.378c2.598 0 2.603-5.199 0-5.199-2.598 0-2.602 5.2 0 5.2M108.565 88.378c2.598 0 2.602-5.199 0-5.199-2.599 0-2.603 5.2 0 5.2M125.467 88.378c2.598 0 2.602-5.199 0-5.199-2.598 0-2.602 5.2 0 5.2M81.261 100.075c2.598 0 2.602-5.198 0-5.198-2.598 0-2.602 5.198 0 5.198M99.463 100.075c2.599 0 2.603-5.198 0-5.198-2.598 0-2.602 5.198 0 5.198M116.366 100.075c2.598 0 2.602-5.198 0-5.198-2.599 0-2.603 5.198 0 5.198M134.568 100.075c2.599 0 2.603-5.198 0-5.198-2.598 0-2.602 5.198 0 5.198M72.16 109.173c2.598 0 2.602-5.199 0-5.199-2.599 0-2.603 5.199 0 5.199M90.362 109.173c2.598 0 2.603-5.199 0-5.199-2.598 0-2.602 5.199 0 5.199M108.565 109.173c2.598 0 2.602-5.199 0-5.199-2.599 0-2.603 5.199 0 5.199M125.467 109.173c2.598 0 2.602-5.199 0-5.199-2.598 0-2.602 5.199 0 5.199M81.261 120.87c2.598 0 2.602-5.199 0-5.199-2.598 0-2.602 5.2 0 5.2M99.463 120.87c2.599 0 2.603-5.199 0-5.199-2.598 0-2.602 5.2 0 5.2M116.366 120.87c2.598 0 2.602-5.199 0-5.199-2.599 0-2.603 5.2 0 5.2M134.568 120.87c2.599 0 2.603-5.199 0-5.199-2.598 0-2.602 5.2 0 5.2M3.25 132.567c2.599 0 2.603-5.199 0-5.199-2.598 0-2.602 5.2 0 5.2M20.153 132.567c2.598 0 2.602-5.199 0-5.199-2.598 0-2.603 5.2 0 5.2M37.055 132.567c2.598 0 2.602-5.199 0-5.199-2.598 0-2.603 5.2 0 5.2M55.258 132.567c2.597 0 2.602-5.199 0-5.199-2.599 0-2.603 5.2 0 5.2M11.051 142.965c2.599 0 2.603-5.2 0-5.2-2.598 0-2.602 5.2 0 5.2M27.954 142.965c2.598 0 2.602-5.2 0-5.2-2.599 0-2.603 5.2 0 5.2M47.456 142.965c2.599 0 2.603-5.2 0-5.2-2.598 0-2.602 5.2 0 5.2M64.359 142.965c2.598 0 2.602-5.2 0-5.2-2.599 0-2.603 5.2 0 5.2M3.25 153.362c2.599 0 2.603-5.199 0-5.199-2.598 0-2.602 5.199 0 5.199M20.153 153.362c2.598 0 2.602-5.199 0-5.199-2.598 0-2.603 5.199 0 5.199M37.055 153.362c2.598 0 2.602-5.199 0-5.199-2.598 0-2.603 5.199 0 5.199M55.258 153.362c2.597 0 2.602-5.199 0-5.199-2.599 0-2.603 5.199 0 5.199M11.051 163.76c2.599 0 2.603-5.2 0-5.2-2.598 0-2.602 5.2 0 5.2M27.954 163.76c2.598 0 2.602-5.2 0-5.2-2.599 0-2.603 5.2 0 5.2M47.456 163.76c2.599 0 2.603-5.2 0-5.2-2.598 0-2.602 5.2 0 5.2M64.359 163.76c2.598 0 2.602-5.2 0-5.2-2.599 0-2.603 5.2 0 5.2M1.95 175.457c2.599 0 2.603-5.2 0-5.2-2.598 0-2.602 5.2 0 5.2M18.852 175.457c2.599 0 2.603-5.2 0-5.2-2.597 0-2.602 5.2 0 5.2M37.055 175.457c2.598 0 2.602-5.2 0-5.2-2.598 0-2.603 5.2 0 5.2M55.258 175.457c2.597 0 2.602-5.2 0-5.2-2.599 0-2.603 5.2 0 5.2M11.051 184.554c2.599 0 2.603-5.198 0-5.198-2.598 0-2.602 5.198 0 5.198M27.954 184.554c2.598 0 2.602-5.198 0-5.198-2.599 0-2.603 5.198 0 5.198M46.156 184.554c2.599 0 2.603-5.198 0-5.198-2.598 0-2.602 5.198 0 5.198M64.359 184.554c2.598 0 2.602-5.198 0-5.198-2.599 0-2.603 5.198 0 5.198M3.25 194.952c2.599 0 2.603-5.199 0-5.199-2.598 0-2.602 5.199 0 5.199M20.153 194.952c2.598 0 2.602-5.199 0-5.199-2.598 0-2.603 5.199 0 5.199M37.055 194.952c2.598 0 2.602-5.199 0-5.199-2.598 0-2.603 5.199 0 5.199M55.258 194.952c2.597 0 2.602-5.199 0-5.199-2.599 0-2.603 5.199 0 5.199M11.051 206.649c2.599 0 2.603-5.199 0-5.199-2.598 0-2.602 5.199 0 5.199M27.954 206.649c2.598 0 2.602-5.199 0-5.199-2.599 0-2.603 5.199 0 5.199M47.456 206.649c2.599 0 2.603-5.199 0-5.199-2.598 0-2.602 5.199 0 5.199M64.359 206.649c2.598 0 2.602-5.199 0-5.199-2.599 0-2.603 5.199 0 5.199M3.25 215.747c2.599 0 2.603-5.2 0-5.2-2.598 0-2.602 5.2 0 5.2M20.153 215.747c2.598 0 2.602-5.2 0-5.2-2.598 0-2.603 5.2 0 5.2M37.055 215.747c2.598 0 2.602-5.2 0-5.2-2.598 0-2.603 5.2 0 5.2M55.258 215.747c2.597 0 2.602-5.2 0-5.2-2.599 0-2.603 5.2 0 5.2M11.051 227.444c2.599 0 2.603-5.199 0-5.199-2.598 0-2.602 5.199 0 5.199M27.954 227.444c2.598 0 2.602-5.199 0-5.199-2.599 0-2.603 5.199 0 5.199M47.456 227.444c2.599 0 2.603-5.199 0-5.199-2.598 0-2.602 5.199 0 5.199M64.359 227.444c2.598 0 2.602-5.199 0-5.199-2.599 0-2.603 5.199 0 5.199M3.25 237.841c2.599 0 2.603-5.199 0-5.199-2.598 0-2.602 5.2 0 5.2M20.153 237.841c2.598 0 2.602-5.199 0-5.199-2.598 0-2.603 5.2 0 5.2M37.055 237.841c2.598 0 2.602-5.199 0-5.199-2.598 0-2.603 5.2 0 5.2M55.258 237.841c2.597 0 2.602-5.199 0-5.199-2.599 0-2.603 5.2 0 5.2M11.051 248.239c2.599 0 2.603-5.2 0-5.2-2.598 0-2.602 5.2 0 5.2M27.954 248.239c2.598 0 2.602-5.2 0-5.2-2.599 0-2.603 5.2 0 5.2M47.456 248.239c2.599 0 2.603-5.2 0-5.2-2.598 0-2.602 5.2 0 5.2M64.359 248.239c2.598 0 2.602-5.2 0-5.2-2.599 0-2.603 5.2 0 5.2M72.16 132.567c2.598 0 2.602-5.199 0-5.199-2.599 0-2.603 5.2 0 5.2M90.362 132.567c2.598 0 2.603-5.199 0-5.199-2.598 0-2.602 5.2 0 5.2M108.565 132.567c2.598 0 2.602-5.199 0-5.199-2.599 0-2.603 5.2 0 5.2M125.467 132.567c2.598 0 2.602-5.199 0-5.199-2.598 0-2.602 5.2 0 5.2M81.261 142.965c2.598 0 2.602-5.2 0-5.2-2.598 0-2.602 5.2 0 5.2M99.463 142.965c2.599 0 2.603-5.2 0-5.2-2.598 0-2.602 5.2 0 5.2M116.366 142.965c2.598 0 2.602-5.2 0-5.2-2.599 0-2.603 5.2 0 5.2M134.568 142.965c2.599 0 2.603-5.2 0-5.2-2.598 0-2.602 5.2 0 5.2M72.16 153.362c2.598 0 2.602-5.199 0-5.199-2.599 0-2.603 5.199 0 5.199M90.362 153.362c2.598 0 2.603-5.199 0-5.199-2.598 0-2.602 5.199 0 5.199M108.565 153.362c2.598 0 2.602-5.199 0-5.199-2.599 0-2.603 5.199 0 5.199M125.467 153.362c2.598 0 2.602-5.199 0-5.199-2.598 0-2.602 5.199 0 5.199M81.261 163.76c2.598 0 2.602-5.2 0-5.2-2.598 0-2.602 5.2 0 5.2M99.463 163.76c2.599 0 2.603-5.2 0-5.2-2.598 0-2.602 5.2 0 5.2M116.366 163.76c2.598 0 2.602-5.2 0-5.2-2.599 0-2.603 5.2 0 5.2M134.568 163.76c2.599 0 2.603-5.2 0-5.2-2.598 0-2.602 5.2 0 5.2M72.16 175.457c2.598 0 2.602-5.2 0-5.2-2.599 0-2.603 5.2 0 5.2M90.362 175.457c2.598 0 2.603-5.2 0-5.2-2.598 0-2.602 5.2 0 5.2M107.265 175.457c2.597 0 2.602-5.2 0-5.2-2.599 0-2.603 5.2 0 5.2M125.467 175.457c2.598 0 2.602-5.2 0-5.2-2.598 0-2.602 5.2 0 5.2M81.261 184.554c2.598 0 2.602-5.198 0-5.198-2.598 0-2.602 5.198 0 5.198M99.463 184.554c2.599 0 2.603-5.198 0-5.198-2.598 0-2.602 5.198 0 5.198M116.366 184.554c2.598 0 2.602-5.198 0-5.198-2.599 0-2.603 5.198 0 5.198M134.568 184.554c2.599 0 2.603-5.198 0-5.198-2.598 0-2.602 5.198 0 5.198M72.16 194.952c2.598 0 2.602-5.199 0-5.199-2.599 0-2.603 5.199 0 5.199M90.362 194.952c2.598 0 2.603-5.199 0-5.199-2.598 0-2.602 5.199 0 5.199M108.565 194.952c2.598 0 2.602-5.199 0-5.199-2.599 0-2.603 5.199 0 5.199M125.467 194.952c2.598 0 2.602-5.199 0-5.199-2.598 0-2.602 5.199 0 5.199M81.261 206.649c2.598 0 2.602-5.199 0-5.199-2.598 0-2.602 5.199 0 5.199M99.463 206.649c2.599 0 2.603-5.199 0-5.199-2.598 0-2.602 5.199 0 5.199M116.366 206.649c2.598 0 2.602-5.199 0-5.199-2.599 0-2.603 5.199 0 5.199M134.568 206.649c2.599 0 2.603-5.199 0-5.199-2.598 0-2.602 5.199 0 5.199M72.16 215.747c2.598 0 2.602-5.2 0-5.2-2.599 0-2.603 5.2 0 5.2M90.362 215.747c2.598 0 2.603-5.2 0-5.2-2.598 0-2.602 5.2 0 5.2M108.565 215.747c2.598 0 2.602-5.2 0-5.2-2.599 0-2.603 5.2 0 5.2M125.467 215.747c2.598 0 2.602-5.2 0-5.2-2.598 0-2.602 5.2 0 5.2M81.261 227.444c2.598 0 2.602-5.199 0-5.199-2.598 0-2.602 5.199 0 5.199M99.463 227.444c2.599 0 2.603-5.199 0-5.199-2.598 0-2.602 5.199 0 5.199M116.366 227.444c2.598 0 2.602-5.199 0-5.199-2.599 0-2.603 5.199 0 5.199M134.568 227.444c2.599 0 2.603-5.199 0-5.199-2.598 0-2.602 5.199 0 5.199M72.16 237.841c2.598 0 2.602-5.199 0-5.199-2.599 0-2.603 5.2 0 5.2M90.362 237.841c2.598 0 2.603-5.199 0-5.199-2.598 0-2.602 5.2 0 5.2M108.565 237.841c2.598 0 2.602-5.199 0-5.199-2.599 0-2.603 5.2 0 5.2M125.467 237.841c2.598 0 2.602-5.199 0-5.199-2.598 0-2.602 5.2 0 5.2M81.261 248.239c2.598 0 2.602-5.2 0-5.2-2.598 0-2.602 5.2 0 5.2M99.463 248.239c2.599 0 2.603-5.2 0-5.2-2.598 0-2.602 5.2 0 5.2M116.366 248.239c2.598 0 2.602-5.2 0-5.2-2.599 0-2.603 5.2 0 5.2M134.568 248.239c2.599 0 2.603-5.2 0-5.2-2.598 0-2.602 5.2 0 5.2M143.67 132.567c2.598 0 2.602-5.199 0-5.199-2.598 0-2.603 5.2 0 5.2M161.872 132.567c2.598 0 2.602-5.199 0-5.199-2.598 0-2.603 5.2 0 5.2M178.774 132.567c2.599 0 2.603-5.199 0-5.199-2.598 0-2.602 5.2 0 5.2M196.977 132.567c2.598 0 2.602-5.199 0-5.199-2.599 0-2.603 5.2 0 5.2M152.77 142.965c2.599 0 2.603-5.2 0-5.2-2.598 0-2.602 5.2 0 5.2M169.673 142.965c2.598 0 2.602-5.2 0-5.2-2.598 0-2.602 5.2 0 5.2M187.875 142.965c2.599 0 2.603-5.2 0-5.2-2.598 0-2.602 5.2 0 5.2M206.078 142.965c2.598 0 2.602-5.2 0-5.2-2.598 0-2.602 5.2 0 5.2M143.67 153.362c2.598 0 2.602-5.199 0-5.199-2.598 0-2.603 5.199 0 5.199M161.872 153.362c2.598 0 2.602-5.199 0-5.199-2.598 0-2.603 5.199 0 5.199M178.774 153.362c2.599 0 2.603-5.199 0-5.199-2.598 0-2.602 5.199 0 5.199M196.977 153.362c2.598 0 2.602-5.199 0-5.199-2.599 0-2.603 5.199 0 5.199M152.77 163.76c2.599 0 2.603-5.2 0-5.2-2.598 0-2.602 5.2 0 5.2M169.673 163.76c2.598 0 2.602-5.2 0-5.2-2.598 0-2.602 5.2 0 5.2M187.875 163.76c2.599 0 2.603-5.2 0-5.2-2.598 0-2.602 5.2 0 5.2M206.078 163.76c2.598 0 2.602-5.2 0-5.2-2.598 0-2.602 5.2 0 5.2M143.67 175.457c2.598 0 2.602-5.2 0-5.2-2.598 0-2.603 5.2 0 5.2M160.572 175.457c2.598 0 2.602-5.2 0-5.2-2.598 0-2.603 5.2 0 5.2M178.774 175.457c2.599 0 2.603-5.2 0-5.2-2.598 0-2.602 5.2 0 5.2M196.977 175.457c2.598 0 2.602-5.2 0-5.2-2.599 0-2.603 5.2 0 5.2M152.77 184.554c2.599 0 2.603-5.198 0-5.198-2.598 0-2.602 5.198 0 5.198M169.673 184.554c2.598 0 2.602-5.198 0-5.198-2.598 0-2.602 5.198 0 5.198M187.875 184.554c2.599 0 2.603-5.198 0-5.198-2.598 0-2.602 5.198 0 5.198M206.078 184.554c2.598 0 2.602-5.198 0-5.198-2.598 0-2.602 5.198 0 5.198M143.67 194.952c2.598 0 2.602-5.199 0-5.199-2.598 0-2.603 5.199 0 5.199M161.872 194.952c2.598 0 2.602-5.199 0-5.199-2.598 0-2.603 5.199 0 5.199M178.774 194.952c2.599 0 2.603-5.199 0-5.199-2.598 0-2.602 5.199 0 5.199M196.977 194.952c2.598 0 2.602-5.199 0-5.199-2.599 0-2.603 5.199 0 5.199M152.77 206.649c2.599 0 2.603-5.199 0-5.199-2.598 0-2.602 5.199 0 5.199M169.673 206.649c2.598 0 2.602-5.199 0-5.199-2.598 0-2.602 5.199 0 5.199M187.875 206.649c2.599 0 2.603-5.199 0-5.199-2.598 0-2.602 5.199 0 5.199M206.078 206.649c2.598 0 2.602-5.199 0-5.199-2.598 0-2.602 5.199 0 5.199M143.67 215.747c2.598 0 2.602-5.2 0-5.2-2.598 0-2.603 5.2 0 5.2M161.872 215.747c2.598 0 2.602-5.2 0-5.2-2.598 0-2.603 5.2 0 5.2M178.774 215.747c2.599 0 2.603-5.2 0-5.2-2.598 0-2.602 5.2 0 5.2M196.977 215.747c2.598 0 2.602-5.2 0-5.2-2.599 0-2.603 5.2 0 5.2M152.77 227.444c2.599 0 2.603-5.199 0-5.199-2.598 0-2.602 5.199 0 5.199M169.673 227.444c2.598 0 2.602-5.199 0-5.199-2.598 0-2.602 5.199 0 5.199M187.875 227.444c2.599 0 2.603-5.199 0-5.199-2.598 0-2.602 5.199 0 5.199M206.078 227.444c2.598 0 2.602-5.199 0-5.199-2.598 0-2.602 5.199 0 5.199M143.67 237.841c2.598 0 2.602-5.199 0-5.199-2.598 0-2.603 5.2 0 5.2M161.872 237.841c2.598 0 2.602-5.199 0-5.199-2.598 0-2.603 5.2 0 5.2M178.774 237.841c2.599 0 2.603-5.199 0-5.199-2.598 0-2.602 5.2 0 5.2M196.977 237.841c2.598 0 2.602-5.199 0-5.199-2.599 0-2.603 5.2 0 5.2M152.77 248.239c2.599 0 2.603-5.2 0-5.2-2.598 0-2.602 5.2 0 5.2M169.673 248.239c2.598 0 2.602-5.2 0-5.2-2.598 0-2.602 5.2 0 5.2M187.875 248.239c2.599 0 2.603-5.2 0-5.2-2.598 0-2.602 5.2 0 5.2M206.078 248.239c2.598 0 2.602-5.2 0-5.2-2.598 0-2.602 5.2 0 5.2M213.88 132.567c2.597 0 2.602-5.199 0-5.199-2.6 0-2.603 5.2 0 5.2M230.781 132.567c2.598 0 2.603-5.199 0-5.199-2.598 0-2.602 5.2 0 5.2M250.284 132.567c2.598 0 2.603-5.199 0-5.199-2.598 0-2.602 5.2 0 5.2M267.186 132.567c2.599 0 2.603-5.199 0-5.199-2.598 0-2.602 5.2 0 5.2M222.98 142.965c2.599 0 2.603-5.2 0-5.2-2.598 0-2.602 5.2 0 5.2M241.183 142.965c2.598 0 2.602-5.2 0-5.2-2.599 0-2.603 5.2 0 5.2M258.085 142.965c2.598 0 2.602-5.2 0-5.2-2.598 0-2.603 5.2 0 5.2" transform="translate(56 -1549) translate(-56 1549)"/>
                <g transform="translate(56 -1549) translate(-56 1549) translate(273.037 137.766)">
                    <mask id="7vkkvywt2r" fill="#fff">
                        <use xlink:href="#y0cm7nyvnq"/>
                    </mask>
                    <path fill="#241E1E" fill-rule="nonzero" d="M2.687 5.199c2.869 0 2.873-5.2 0-5.2-2.868 0-2.873 5.2 0 5.2" mask="url(#7vkkvywt2r)"/>
                </g>
                <path fill="#241E1E" fill-rule="nonzero" d="M213.88 153.362c2.597 0 2.602-5.199 0-5.199-2.6 0-2.603 5.199 0 5.199M230.781 153.362c2.598 0 2.603-5.199 0-5.199-2.598 0-2.602 5.199 0 5.199M250.284 153.362c2.598 0 2.603-5.199 0-5.199-2.598 0-2.602 5.199 0 5.199M267.186 153.362c2.599 0 2.603-5.199 0-5.199-2.598 0-2.602 5.199 0 5.199M222.98 163.76c2.599 0 2.603-5.2 0-5.2-2.598 0-2.602 5.2 0 5.2M241.183 163.76c2.598 0 2.602-5.2 0-5.2-2.599 0-2.603 5.2 0 5.2M258.085 163.76c2.598 0 2.602-5.2 0-5.2-2.598 0-2.603 5.2 0 5.2" transform="translate(56 -1549) translate(-56 1549)"/>
                <g transform="translate(56 -1549) translate(-56 1549) translate(273.037 158.56)">
                    <mask id="rw557fwmit" fill="#fff">
                        <use xlink:href="#vutl6c2c6s"/>
                    </mask>
                    <path fill="#241E1E" fill-rule="nonzero" d="M2.687 4.753c2.869 0 2.873-4.456 0-4.456-2.868 0-2.873 4.456 0 4.456" mask="url(#rw557fwmit)"/>
                </g>
                <path fill="#241E1E" fill-rule="nonzero" d="M213.88 175.457c2.597 0 2.602-5.2 0-5.2-2.6 0-2.603 5.2 0 5.2M230.781 175.457c2.598 0 2.603-5.2 0-5.2-2.598 0-2.602 5.2 0 5.2M248.984 175.457c2.598 0 2.602-5.2 0-5.2-2.599 0-2.603 5.2 0 5.2M265.886 175.457c2.598 0 2.602-5.2 0-5.2-2.598 0-2.602 5.2 0 5.2M221.68 184.554c2.598 0 2.602-5.198 0-5.198-2.598 0-2.602 5.198 0 5.198M241.183 184.554c2.598 0 2.602-5.198 0-5.198-2.599 0-2.603 5.198 0 5.198M258.085 184.554c2.598 0 2.602-5.198 0-5.198-2.598 0-2.603 5.198 0 5.198M274.987 184.554c2.599 0 2.603-5.198 0-5.198-2.598 0-2.602 5.198 0 5.198M213.88 194.952c2.597 0 2.602-5.199 0-5.199-2.6 0-2.603 5.199 0 5.199M230.781 194.952c2.598 0 2.603-5.199 0-5.199-2.598 0-2.602 5.199 0 5.199M250.284 194.952c2.598 0 2.603-5.199 0-5.199-2.598 0-2.602 5.199 0 5.199M267.186 194.952c2.599 0 2.603-5.199 0-5.199-2.598 0-2.602 5.199 0 5.199M222.98 206.649c2.599 0 2.603-5.199 0-5.199-2.598 0-2.602 5.199 0 5.199M241.183 206.649c2.598 0 2.602-5.199 0-5.199-2.599 0-2.603 5.199 0 5.199M258.085 206.649c2.598 0 2.602-5.199 0-5.199-2.598 0-2.603 5.199 0 5.199" transform="translate(56 -1549) translate(-56 1549)"/>
                <g transform="translate(56 -1549) translate(-56 1549) translate(273.037 201.45)">
                    <mask id="lambbgunwv" fill="#fff">
                        <use xlink:href="#yjyn3jqzgu"/>
                    </mask>
                    <path fill="#241E1E" fill-rule="nonzero" d="M2.687 4.605c2.869 0 2.873-4.456 0-4.456-2.868 0-2.873 4.456 0 4.456" mask="url(#lambbgunwv)"/>
                </g>
                <path fill="#241E1E" fill-rule="nonzero" d="M213.88 215.747c2.597 0 2.602-5.2 0-5.2-2.6 0-2.603 5.2 0 5.2M230.781 215.747c2.598 0 2.603-5.2 0-5.2-2.598 0-2.602 5.2 0 5.2M250.284 215.747c2.598 0 2.603-5.2 0-5.2-2.598 0-2.602 5.2 0 5.2M267.186 215.747c2.599 0 2.603-5.2 0-5.2-2.598 0-2.602 5.2 0 5.2M222.98 227.444c2.599 0 2.603-5.199 0-5.199-2.598 0-2.602 5.199 0 5.199M241.183 227.444c2.598 0 2.602-5.199 0-5.199-2.599 0-2.603 5.199 0 5.199M258.085 227.444c2.598 0 2.602-5.199 0-5.199-2.598 0-2.603 5.199 0 5.199" transform="translate(56 -1549) translate(-56 1549)"/>
                <g transform="translate(56 -1549) translate(-56 1549) translate(273.037 222.245)">
                    <mask id="nahuml5qvx" fill="#fff">
                        <use xlink:href="#xfsbir639w"/>
                    </mask>
                    <path fill="#241E1E" fill-rule="nonzero" d="M2.687 4.902c2.869 0 2.873-4.456 0-4.456-2.868 0-2.873 4.456 0 4.456" mask="url(#nahuml5qvx)"/>
                </g>
                <path fill="#241E1E" fill-rule="nonzero" d="M213.88 237.841c2.597 0 2.602-5.199 0-5.199-2.6 0-2.603 5.2 0 5.2M230.781 237.841c2.598 0 2.603-5.199 0-5.199-2.598 0-2.602 5.2 0 5.2M250.284 237.841c2.598 0 2.603-5.199 0-5.199-2.598 0-2.602 5.2 0 5.2M267.186 237.841c2.599 0 2.603-5.199 0-5.199-2.598 0-2.602 5.2 0 5.2M222.98 248.239c2.599 0 2.603-5.2 0-5.2-2.598 0-2.602 5.2 0 5.2M241.183 248.239c2.598 0 2.602-5.2 0-5.2-2.599 0-2.603 5.2 0 5.2M258.085 248.239c2.598 0 2.602-5.2 0-5.2-2.598 0-2.603 5.2 0 5.2" transform="translate(56 -1549) translate(-56 1549)"/>
                <g transform="translate(56 -1549) translate(-56 1549) translate(273.037 243.04)">
                    <mask id="jkc1d3dnrz" fill="#fff">
                        <use xlink:href="#849430ex2y"/>
                    </mask>
                    <path fill="#241E1E" fill-rule="nonzero" d="M2.687 5.199c2.869 0 2.873-5.2 0-5.2-2.868 0-2.873 5.2 0 5.2" mask="url(#jkc1d3dnrz)"/>
                </g>
                <g transform="translate(56 -1549) translate(-56 1549) translate(140.419)">
                    <mask id="a0we5sf5oB" fill="#fff">
                        <use xlink:href="#thuasuu9nA"/>
                    </mask>
                    <path fill="#241E1E" fill-rule="nonzero" d="M2.316 4.642c2.867 0 2.873-4.456 0-4.456-2.87 0-2.874 4.456 0 4.456" mask="url(#a0we5sf5oB)"/>
                </g>
                <g transform="translate(56 -1549) translate(-56 1549) translate(157.321)">
                    <mask id="7jo40g77kD" fill="#fff">
                        <use xlink:href="#yd9609e33C"/>
                    </mask>
                    <path fill="#241E1E" fill-rule="nonzero" d="M2.741 4.642c2.868 0 2.873-4.456 0-4.456-2.869 0-2.873 4.456 0 4.456" mask="url(#7jo40g77kD)"/>
                </g>
                <g transform="translate(56 -1549) translate(-56 1549) translate(175.524)">
                    <mask id="9ufisn13fF" fill="#fff">
                        <use xlink:href="#vv96ehx97E"/>
                    </mask>
                    <path fill="#241E1E" fill-rule="nonzero" d="M2.424 4.642c2.867 0 2.873-4.456 0-4.456-2.869 0-2.873 4.456 0 4.456" mask="url(#9ufisn13fF)"/>
                </g>
                <g transform="translate(56 -1549) translate(-56 1549) translate(192.426)">
                    <mask id="b0zhdg03vH" fill="#fff">
                        <use xlink:href="#h2p73in8lG"/>
                    </mask>
                    <path fill="#241E1E" fill-rule="nonzero" d="M2.85 4.642c2.868 0 2.872-4.456 0-4.456-2.87 0-2.874 4.456 0 4.456" mask="url(#b0zhdg03vH)"/>
                </g>
                <path fill="#241E1E" fill-rule="nonzero" d="M151.47 15.596c2.599 0 2.603-5.199 0-5.199-2.598 0-2.602 5.2 0 5.2M168.373 15.596c2.598 0 2.602-5.199 0-5.199-2.599 0-2.603 5.2 0 5.2M187.875 15.596c2.599 0 2.603-5.199 0-5.199-2.597 0-2.602 5.2 0 5.2M204.778 15.596c2.598 0 2.602-5.199 0-5.199-2.598 0-2.603 5.2 0 5.2M142.37 24.694c2.597 0 2.602-5.199 0-5.199-2.6 0-2.603 5.199 0 5.199M160.572 24.694c2.598 0 2.602-5.199 0-5.199-2.599 0-2.603 5.199 0 5.199M178.774 24.694c2.598 0 2.603-5.199 0-5.199-2.598 0-2.602 5.199 0 5.199M195.677 24.694c2.598 0 2.602-5.199 0-5.199-2.599 0-2.603 5.199 0 5.199M151.47 36.391c2.599 0 2.603-5.199 0-5.199-2.598 0-2.602 5.199 0 5.199M168.373 36.391c2.598 0 2.602-5.199 0-5.199-2.599 0-2.603 5.199 0 5.199M187.875 36.391c2.599 0 2.603-5.199 0-5.199-2.597 0-2.602 5.199 0 5.199M204.778 36.391c2.598 0 2.602-5.199 0-5.199-2.598 0-2.603 5.199 0 5.199M142.37 46.788c2.597 0 2.602-5.198 0-5.198-2.6 0-2.603 5.198 0 5.198M159.272 46.788c2.598 0 2.602-5.198 0-5.198-2.599 0-2.603 5.198 0 5.198M178.774 46.788c2.598 0 2.603-5.198 0-5.198-2.598 0-2.602 5.198 0 5.198M195.677 46.788c2.598 0 2.602-5.198 0-5.198-2.599 0-2.603 5.198 0 5.198M151.47 57.186c2.599 0 2.603-5.199 0-5.199-2.598 0-2.602 5.199 0 5.199M168.373 57.186c2.598 0 2.602-5.199 0-5.199-2.599 0-2.603 5.199 0 5.199M186.575 57.186c2.599 0 2.603-5.199 0-5.199-2.598 0-2.602 5.199 0 5.199M203.477 57.186c2.599 0 2.603-5.199 0-5.199-2.597 0-2.602 5.199 0 5.199M142.37 67.583c2.597 0 2.602-5.198 0-5.198-2.6 0-2.603 5.198 0 5.198M160.572 67.583c2.598 0 2.602-5.198 0-5.198-2.599 0-2.603 5.198 0 5.198M178.774 67.583c2.598 0 2.603-5.198 0-5.198-2.598 0-2.602 5.198 0 5.198M195.677 67.583c2.598 0 2.602-5.198 0-5.198-2.599 0-2.603 5.198 0 5.198M151.47 77.98c2.599 0 2.603-5.198 0-5.198-2.598 0-2.602 5.199 0 5.199M168.373 77.98c2.598 0 2.602-5.198 0-5.198-2.599 0-2.603 5.199 0 5.199M187.875 77.98c2.599 0 2.603-5.198 0-5.198-2.597 0-2.602 5.199 0 5.199M204.778 77.98c2.598 0 2.602-5.198 0-5.198-2.598 0-2.603 5.199 0 5.199M142.37 88.378c2.597 0 2.602-5.199 0-5.199-2.6 0-2.603 5.2 0 5.2M160.572 88.378c2.598 0 2.602-5.199 0-5.199-2.599 0-2.603 5.2 0 5.2M178.774 88.378c2.598 0 2.603-5.199 0-5.199-2.598 0-2.602 5.2 0 5.2M195.677 88.378c2.598 0 2.602-5.199 0-5.199-2.599 0-2.603 5.2 0 5.2M151.47 100.075c2.599 0 2.603-5.198 0-5.198-2.598 0-2.602 5.198 0 5.198M168.373 100.075c2.598 0 2.602-5.198 0-5.198-2.599 0-2.603 5.198 0 5.198M187.875 100.075c2.599 0 2.603-5.198 0-5.198-2.597 0-2.602 5.198 0 5.198M204.778 100.075c2.598 0 2.602-5.198 0-5.198-2.598 0-2.603 5.198 0 5.198M142.37 109.173c2.597 0 2.602-5.199 0-5.199-2.6 0-2.603 5.199 0 5.199M160.572 109.173c2.598 0 2.602-5.199 0-5.199-2.599 0-2.603 5.199 0 5.199M178.774 109.173c2.598 0 2.603-5.199 0-5.199-2.598 0-2.602 5.199 0 5.199M195.677 109.173c2.598 0 2.602-5.199 0-5.199-2.599 0-2.603 5.199 0 5.199M151.47 120.87c2.599 0 2.603-5.199 0-5.199-2.598 0-2.602 5.2 0 5.2M168.373 120.87c2.598 0 2.602-5.199 0-5.199-2.599 0-2.603 5.2 0 5.2M187.875 120.87c2.599 0 2.603-5.199 0-5.199-2.597 0-2.602 5.2 0 5.2M204.778 120.87c2.598 0 2.602-5.199 0-5.199-2.598 0-2.603 5.2 0 5.2" transform="translate(56 -1549) translate(-56 1549)"/>
                <g transform="translate(56 -1549) translate(-56 1549) translate(210.629)">
                    <mask id="b0w3u4n7uJ" fill="#fff">
                        <use xlink:href="#fzrn9s1j7I"/>
                    </mask>
                    <path fill="#241E1E" fill-rule="nonzero" d="M2.737 4.642c2.869 0 2.873-4.456 0-4.456-2.868 0-2.873 4.456 0 4.456" mask="url(#b0w3u4n7uJ)"/>
                </g>
                <g transform="translate(56 -1549) translate(-56 1549) translate(228.831)">
                    <mask id="hhammaptmL" fill="#fff">
                        <use xlink:href="#zxisxfg7rK"/>
                    </mask>
                    <path fill="#241E1E" fill-rule="nonzero" d="M2.42 4.642c2.869 0 2.873-4.456 0-4.456-2.869 0-2.873 4.456 0 4.456" mask="url(#hhammaptmL)"/>
                </g>
                <g transform="translate(56 -1549) translate(-56 1549) translate(245.733)">
                    <mask id="qifjofmb0N" fill="#fff">
                        <use xlink:href="#1fmekd3lfM"/>
                    </mask>
                    <path fill="#241E1E" fill-rule="nonzero" d="M2.845 4.642c2.869 0 2.873-4.456 0-4.456-2.868 0-2.873 4.456 0 4.456" mask="url(#qifjofmb0N)"/>
                </g>
                <g transform="translate(56 -1549) translate(-56 1549) translate(262.636)">
                    <mask id="676jfzyjqP" fill="#fff">
                        <use xlink:href="#i89q4qs0vO"/>
                    </mask>
                    <path fill="#241E1E" fill-rule="nonzero" d="M2.528 4.642c2.869 0 2.873-4.456 0-4.456-2.868 0-2.873 4.456 0 4.456" mask="url(#676jfzyjqP)"/>
                </g>
                <path fill="#241E1E" fill-rule="nonzero" d="M221.68 15.596c2.598 0 2.602-5.199 0-5.199-2.598 0-2.603 5.2 0 5.2M239.882 15.596c2.599 0 2.603-5.199 0-5.199-2.597 0-2.602 5.2 0 5.2M256.785 15.596c2.598 0 2.602-5.199 0-5.199-2.599 0-2.603 5.2 0 5.2M274.987 15.596c2.598 0 2.603-5.199 0-5.199-2.598 0-2.602 5.2 0 5.2M212.579 24.694c2.598 0 2.602-5.199 0-5.199-2.599 0-2.603 5.199 0 5.199M230.781 24.694c2.599 0 2.603-5.199 0-5.199-2.598 0-2.602 5.199 0 5.199M247.684 24.694c2.598 0 2.602-5.199 0-5.199-2.599 0-2.603 5.199 0 5.199M265.886 24.694c2.598 0 2.602-5.199 0-5.199-2.598 0-2.602 5.199 0 5.199M221.68 36.391c2.598 0 2.602-5.199 0-5.199-2.598 0-2.603 5.199 0 5.199M239.882 36.391c2.599 0 2.603-5.199 0-5.199-2.597 0-2.602 5.199 0 5.199M256.785 36.391c2.598 0 2.602-5.199 0-5.199-2.599 0-2.603 5.199 0 5.199M274.987 36.391c2.598 0 2.603-5.199 0-5.199-2.598 0-2.602 5.199 0 5.199M212.579 46.788c2.598 0 2.602-5.198 0-5.198-2.599 0-2.603 5.198 0 5.198M230.781 46.788c2.599 0 2.603-5.198 0-5.198-2.598 0-2.602 5.198 0 5.198M247.684 46.788c2.598 0 2.602-5.198 0-5.198-2.599 0-2.603 5.198 0 5.198M265.886 46.788c2.598 0 2.602-5.198 0-5.198-2.598 0-2.602 5.198 0 5.198M221.68 57.186c2.598 0 2.602-5.199 0-5.199-2.598 0-2.603 5.199 0 5.199M238.582 57.186c2.599 0 2.603-5.199 0-5.199-2.598 0-2.602 5.199 0 5.199M256.785 57.186c2.598 0 2.602-5.199 0-5.199-2.599 0-2.603 5.199 0 5.199M274.987 57.186c2.598 0 2.603-5.199 0-5.199-2.598 0-2.602 5.199 0 5.199M212.579 67.583c2.598 0 2.602-5.198 0-5.198-2.599 0-2.603 5.198 0 5.198M230.781 67.583c2.599 0 2.603-5.198 0-5.198-2.598 0-2.602 5.198 0 5.198M247.684 67.583c2.598 0 2.602-5.198 0-5.198-2.599 0-2.603 5.198 0 5.198M265.886 67.583c2.598 0 2.602-5.198 0-5.198-2.598 0-2.602 5.198 0 5.198M221.68 77.98c2.598 0 2.602-5.198 0-5.198-2.598 0-2.603 5.199 0 5.199M239.882 77.98c2.599 0 2.603-5.198 0-5.198-2.597 0-2.602 5.199 0 5.199M256.785 77.98c2.598 0 2.602-5.198 0-5.198-2.599 0-2.603 5.199 0 5.199M274.987 77.98c2.598 0 2.603-5.198 0-5.198-2.598 0-2.602 5.199 0 5.199M212.579 88.378c2.598 0 2.602-5.199 0-5.199-2.599 0-2.603 5.2 0 5.2M230.781 88.378c2.599 0 2.603-5.199 0-5.199-2.598 0-2.602 5.2 0 5.2M247.684 88.378c2.598 0 2.602-5.199 0-5.199-2.599 0-2.603 5.2 0 5.2M265.886 88.378c2.598 0 2.602-5.199 0-5.199-2.598 0-2.602 5.2 0 5.2M221.68 100.075c2.598 0 2.602-5.198 0-5.198-2.598 0-2.603 5.198 0 5.198M239.882 100.075c2.599 0 2.603-5.198 0-5.198-2.597 0-2.602 5.198 0 5.198M256.785 100.075c2.598 0 2.602-5.198 0-5.198-2.599 0-2.603 5.198 0 5.198M274.987 100.075c2.598 0 2.603-5.198 0-5.198-2.598 0-2.602 5.198 0 5.198M212.579 109.173c2.598 0 2.602-5.199 0-5.199-2.599 0-2.603 5.199 0 5.199M230.781 109.173c2.599 0 2.603-5.199 0-5.199-2.598 0-2.602 5.199 0 5.199M247.684 109.173c2.598 0 2.602-5.199 0-5.199-2.599 0-2.603 5.199 0 5.199M265.886 109.173c2.598 0 2.602-5.199 0-5.199-2.598 0-2.602 5.199 0 5.199M221.68 120.87c2.598 0 2.602-5.199 0-5.199-2.598 0-2.603 5.2 0 5.2M239.882 120.87c2.599 0 2.603-5.199 0-5.199-2.597 0-2.602 5.2 0 5.2M256.785 120.87c2.598 0 2.602-5.199 0-5.199-2.599 0-2.603 5.2 0 5.2M274.987 120.87c2.598 0 2.603-5.199 0-5.199-2.598 0-2.602 5.2 0 5.2" transform="translate(56 -1549) translate(-56 1549)"/>
            </g>
        </g>
    </g>
</svg>
