<?xml version="1.0" encoding="UTF-8"?>
<svg width="72px" height="72px" viewBox="0 0 72 72" version="1.1" xmlns="http://www.w3.org/2000/svg" xmlns:xlink="http://www.w3.org/1999/xlink">
    <title>Group 24</title>
    <g id="Page-1" stroke="none" stroke-width="1" fill="none" fill-rule="evenodd">
        <g id="Desktop-HD-Copy-2" transform="translate(-112.000000, -4082.000000)">
            <g id="Group-24" transform="translate(112.000000, 4082.000000)">
                <circle id="Oval" fill-opacity="0.1" fill="#0044FF" cx="36" cy="36" r="36"></circle>
                <g id="company-vision" transform="translate(12.000000, 12.000000)" fill-rule="nonzero">
                    <path d="M47.619802,25.9447129 L47.619802,46.5267327 C47.619802,47.0514059 47.1939802,47.4772277 46.6693069,47.4772277 L1.42574257,47.4772277 C0.901069307,47.4772277 0.475247525,47.0514059 0.475247525,46.5267327 L0.475247525,25.9447129 C0.475247525,25.4200396 0.901069307,24.9942178 1.42574257,24.9942178 L46.6693069,24.9942178 C47.1939802,24.9942178 47.619802,25.4200396 47.619802,25.9447129 L47.619802,25.9447129 Z" id="Path" fill="#EFEFEF"></path>
                    <path d="M31.2739485,43.1752871 C31.2739485,43.8052752 30.7633426,44.3158812 30.1333545,44.3158812 L5.03762376,44.3158812 C4.40763564,44.3158812 3.8970297,43.8052752 3.8970297,43.1752871 L3.8970297,31.0811881 C3.8970297,30.4512 4.40763564,29.9405941 5.03762376,29.9405941 C5.66761188,29.9405941 6.17821782,30.4512 6.17821782,31.0811881 L6.17821782,42.0346931 L30.1333545,42.0346931 C30.7633426,42.0346931 31.2739485,42.545299 31.2739485,43.1752871 Z" id="Path" fill="#72C3E9"></path>
                    <path d="M20.3810851,42.0346931 L16.325703,42.0346931 L16.325703,34.1775208 C16.325703,33.6526574 16.7513347,33.2270257 17.276198,33.2270257 L19.4305901,33.2270257 C19.9554535,33.2270257 20.3810851,33.6526574 20.3810851,34.1775208 L20.3810851,42.0346931 Z" id="Path" fill="#F0C020"></path>
                    <path d="M13.9504158,42.0346931 L9.89503366,42.0346931 L9.89503366,36.8206574 C9.89503366,36.2957941 10.3206653,35.8701624 10.8455287,35.8701624 L12.9999208,35.8701624 C13.5247842,35.8701624 13.9504158,36.2957941 13.9504158,36.8206574 L13.9504158,42.0346931 Z" id="Path" fill="#FC5D3D"></path>
                    <path d="M26.8117545,42.0346931 L22.7563723,42.0346931 L22.7563723,31.9841584 C22.7563723,31.459295 23.182004,31.0336634 23.7068673,31.0336634 L25.8612594,31.0336634 C26.3861228,31.0336634 26.8117545,31.459295 26.8117545,31.9841584 L26.8117545,42.0346931 Z" id="Path" fill="#13BF6D"></path>
                    <polygon id="Path" fill="#72C2E9" points="42.7399604 10.6778614 42.7399604 24.9942178 5.54518812 24.9942178 5.54518812 10.6778614 13.6072871 10.6778614 13.6072871 3.64419802 34.4877624 3.64419802 34.4877624 10.6778614"></polygon>
                    <polygon id="Path" fill="#4BA5C8" points="42.7399604 11.8184554 42.7399604 10.6778614 34.4877624 10.6778614 34.4877624 23.7148515 13.6072871 23.7148515 13.6072871 10.6778614 5.54518812 10.6778614 5.54518812 11.8184554 12.5465347 11.8184554 12.5465347 23.7148515 5.54518812 23.7148515 5.54518812 24.9942178 42.7399604 24.9942178 42.7399604 23.7148515 35.5485149 23.7148515 35.5485149 11.8184554"></polygon>
                    <path d="M36.0560792,1.42574257 L36.0560792,2.69370297 C36.0560792,3.21856634 35.6304475,3.64419802 35.1055842,3.64419802 L12.9894653,3.64419802 C12.464602,3.64419802 12.0389703,3.21856634 12.0389703,2.69370297 L12.0389703,1.42574257 C12.0389703,0.900879208 12.464602,0.475247525 12.9894653,0.475247525 L35.1055842,0.475247525 C35.6304475,0.475247525 36.0560792,0.900879208 36.0560792,1.42574257 Z" id="Path" fill="#F2E1D7"></path>
                    <path d="M44.3881188,8.45940594 L44.3881188,9.72736634 C44.3881188,10.2520396 43.962297,10.6778614 43.4376238,10.6778614 L34.4877624,10.6778614 L34.4877624,7.50891089 L43.4376238,7.50891089 C43.962297,7.50891089 44.3881188,7.93473267 44.3881188,8.45940594 Z" id="Path" fill="#F2E1D7"></path>
                    <path d="M13.6072871,7.50891089 L13.6072871,10.6778614 L4.65742574,10.6778614 C4.13275248,10.6778614 3.70693069,10.2520396 3.70693069,9.72736634 L3.70693069,8.45940594 C3.70693069,7.93473267 4.13275248,7.50891089 4.65742574,7.50891089 L13.6072871,7.50891089 Z" id="Path" fill="#F2E1D7"></path>
                    <g id="Group" transform="translate(7.984158, 7.223762)" fill="#F0C020">
                        <path d="M11.1899881,3.16381782 L9.19832079,3.16381782 C8.88332673,3.16381782 8.62802376,2.90851485 8.62802376,2.59352079 L8.62802376,0.602043564 C8.62802376,0.287049505 8.88332673,0.0317465347 9.19832079,0.0317465347 L11.1899881,0.0317465347 C11.5049822,0.0317465347 11.7602851,0.287049505 11.7602851,0.602043564 L11.7602851,2.59371089 C11.7602851,2.90851485 11.5049822,3.16381782 11.1899881,3.16381782 L11.1899881,3.16381782 Z" id="Path"></path>
                        <path d="M17.059105,3.16381782 L15.0674376,3.16381782 C14.7524436,3.16381782 14.4971406,2.90851485 14.4971406,2.59352079 L14.4971406,0.602043564 C14.4971406,0.287049505 14.7524436,0.0317465347 15.0674376,0.0317465347 L17.059105,0.0317465347 C17.374099,0.0317465347 17.629402,0.287049505 17.629402,0.602043564 L17.629402,2.59371089 C17.629402,2.90851485 17.374099,3.16381782 17.059105,3.16381782 L17.059105,3.16381782 Z" id="Path"></path>
                        <path d="M11.1899881,8.93028119 L9.19832079,8.93028119 C8.88332673,8.93028119 8.62802376,8.67497822 8.62802376,8.35998416 L8.62802376,6.36831683 C8.62802376,6.05332277 8.88332673,5.7980198 9.19832079,5.7980198 L11.1899881,5.7980198 C11.5049822,5.7980198 11.7602851,6.05332277 11.7602851,6.36831683 L11.7602851,8.35998416 C11.7602851,8.67497822 11.5049822,8.93028119 11.1899881,8.93028119 Z" id="Path"></path>
                        <path d="M17.059105,8.93028119 L15.0674376,8.93028119 C14.7524436,8.93028119 14.4971406,8.67497822 14.4971406,8.35998416 L14.4971406,6.36831683 C14.4971406,6.05332277 14.7524436,5.7980198 15.0674376,5.7980198 L17.059105,5.7980198 C17.374099,5.7980198 17.629402,6.05332277 17.629402,6.36831683 L17.629402,8.35998416 C17.629402,8.67497822 17.374099,8.93028119 17.059105,8.93028119 Z" id="Path"></path>
                        <path d="M22.9284119,3.16381782 L20.9367446,3.16381782 C20.6217505,3.16381782 20.3664475,2.90851485 20.3664475,2.59352079 L20.3664475,0.602043564 C20.3664475,0.287049505 20.6217505,0.0317465347 20.9367446,0.0317465347 L22.9284119,0.0317465347 C23.2434059,0.0317465347 23.4987089,0.287049505 23.4987089,0.602043564 L23.4987089,2.59371089 C23.4987089,2.90851485 23.2434059,3.16381782 22.9284119,3.16381782 L22.9284119,3.16381782 Z" id="Path"></path>
                        <path d="M22.9284119,8.93028119 L20.9367446,8.93028119 C20.6217505,8.93028119 20.3664475,8.67497822 20.3664475,8.35998416 L20.3664475,6.36831683 C20.3664475,6.05332277 20.6217505,5.7980198 20.9367446,5.7980198 L22.9284119,5.7980198 C23.2434059,5.7980198 23.4987089,6.05332277 23.4987089,6.36831683 L23.4987089,8.35998416 C23.4987089,8.67497822 23.2434059,8.93028119 22.9284119,8.93028119 Z" id="Path"></path>
                        <path d="M31.6254416,8.93028119 L29.6337743,8.93028119 C29.3187802,8.93028119 29.0634772,8.67497822 29.0634772,8.35998416 L29.0634772,6.36831683 C29.0634772,6.05332277 29.3187802,5.7980198 29.6337743,5.7980198 L31.6254416,5.7980198 C31.9404356,5.7980198 32.1957386,6.05332277 32.1957386,6.36831683 L32.1957386,8.35998416 C32.1957386,8.67497822 31.9404356,8.93028119 31.6254416,8.93028119 Z" id="Path"></path>
                        <path d="M31.6254416,14.6965545 L29.6337743,14.6965545 C29.3187802,14.6965545 29.0634772,14.4412515 29.0634772,14.1262574 L29.0634772,12.1345901 C29.0634772,11.819596 29.3187802,11.5642931 29.6337743,11.5642931 L31.6254416,11.5642931 C31.9404356,11.5642931 32.1957386,11.819596 32.1957386,12.1345901 L32.1957386,14.1262574 C32.1957386,14.4412515 31.9404356,14.6965545 31.6254416,14.6965545 Z" id="Path"></path>
                        <path d="M2.58781782,8.93028119 L0.596340594,8.93028119 C0.281346535,8.93028119 0.0260435644,8.67497822 0.0260435644,8.35998416 L0.0260435644,6.36831683 C0.0260435644,6.05332277 0.281346535,5.7980198 0.596340594,5.7980198 L2.58800792,5.7980198 C2.90300198,5.7980198 3.15830495,6.05332277 3.15830495,6.36831683 L3.15830495,8.35998416 C3.15811485,8.67497822 2.90281188,8.93028119 2.58781782,8.93028119 L2.58781782,8.93028119 Z" id="Path"></path>
                        <path d="M2.58781782,14.6965545 L0.596340594,14.6965545 C0.281346535,14.6965545 0.0260435644,14.4412515 0.0260435644,14.1262574 L0.0260435644,12.1345901 C0.0260435644,11.819596 0.281346535,11.5642931 0.596340594,11.5642931 L2.58800792,11.5642931 C2.90300198,11.5642931 3.15830495,11.819596 3.15830495,12.1345901 L3.15830495,14.1262574 C3.15811485,14.4412515 2.90281188,14.6965545 2.58781782,14.6965545 L2.58781782,14.6965545 Z" id="Path"></path>
                        <path d="M11.2453069,14.6965545 L8.62802376,14.6965545 L8.62802376,12.8729347 C8.62802376,12.1501782 9.21390891,11.5642931 9.93666535,11.5642931 C10.6594218,11.5642931 11.2453069,12.1501782 11.2453069,12.8729347 L11.2453069,14.6965545 Z" id="Path"></path>
                        <path d="M18.5023366,12.1340198 L18.5023366,17.7704554 L13.624396,17.7704554 L13.624396,12.1340198 C13.624396,11.8203564 13.8791287,11.5637228 14.1946931,11.5637228 L17.9320396,11.5637228 C18.247604,11.5637228 18.5023366,11.8203564 18.5023366,12.1340198 L18.5023366,12.1340198 Z" id="Path"></path>
                    </g>
                    <polygon id="Path" fill="#E8A51F" points="21.6085545 23.7148515 26.486495 23.7148515 26.486495 24.9942178 21.6085545 24.9942178"></polygon>
                    <path d="M31.4828673,21.9203168 L28.8655842,21.9203168 L28.8655842,20.096697 C28.8655842,19.3739406 29.4514693,18.7880554 30.1742257,18.7880554 C30.8969822,18.7880554 31.4828673,19.3739406 31.4828673,20.096697 L31.4828673,21.9203168 Z" id="Path" fill="#F0C020"></path>
                    <polygon id="Path" fill="#D6C0B3" points="12.5465347 7.50891089 13.6072871 7.50891089 13.6072871 10.6778614 12.5465347 10.6778614"></polygon>
                    <polygon id="Path" fill="#D6C0B3" points="34.4877624 7.50891089 35.5485149 7.50891089 35.5485149 10.6778614 34.4877624 10.6778614"></polygon>
                    <polygon id="Path" fill="#4BA5C8" points="13.6072871 3.64419802 34.4877624 3.64419802 34.4877624 4.78479208 13.6072871 4.78479208"></polygon>
                    <path d="M15.6432475,30.3261149 C14.8649822,30.0689109 14.0612436,29.8442139 13.6099485,27.9004515 C13.1943921,29.690804 12.5284752,30.0116911 11.5766495,30.3261149 C13.128998,30.839002 13.3632,31.6883644 13.6099485,32.7517782 C14.0353901,30.9184634 14.7389465,30.6247604 15.6432475,30.3261149 Z" id="Path" fill="#F0C020"></path>
                    <path d="M35.5817822,38.9524277 C34.8035168,38.6952238 33.9997782,38.4705267 33.5484832,36.5267644 C33.1329267,38.3171168 32.4670099,38.638004 31.5151842,38.9524277 C33.0675327,39.4653149 33.3017347,40.3146772 33.5484832,41.3780911 C33.9739248,39.5447762 34.6774812,39.2512634 35.5817822,38.9524277 Z" id="Path" fill="#F0C020"></path>
                    <path d="M45.9089109,46.2415842 L45.0376871,46.2415842 C44.7751604,46.2415842 44.5624396,46.0288634 44.5624396,45.7663366 C44.5624396,45.5038099 44.7751604,45.2910891 45.0376871,45.2910891 L45.9089109,45.2910891 C46.1714376,45.2910891 46.3841584,45.5038099 46.3841584,45.7663366 C46.3841584,46.0288634 46.1714376,46.2415842 45.9089109,46.2415842 Z M43.136697,46.2415842 L2.18613861,46.2415842 C1.92361188,46.2415842 1.71089109,46.0288634 1.71089109,45.7663366 L1.71089109,28.736697 C1.71089109,28.4741703 1.92361188,28.2614495 2.18613861,28.2614495 C2.44866535,28.2614495 2.66138614,28.4741703 2.66138614,28.736697 L2.66138614,45.2910891 L43.136697,45.2910891 C43.3992238,45.2910891 43.6119446,45.5038099 43.6119446,45.7663366 C43.6119446,46.0288634 43.3992238,46.2415842 43.136697,46.2415842 Z" id="Shape" fill="#FFFFFF"></path>
                    <path d="M18.939604,42.5099406 C18.663404,42.5099406 18.439604,42.2972198 18.439604,42.0346931 L18.439604,37.2594059 C18.439604,36.9968792 18.663404,36.7841584 18.939604,36.7841584 C19.215804,36.7841584 19.439604,36.9968792 19.439604,37.2594059 L19.439604,42.0346931 C19.439604,42.2972198 19.215804,42.5099406 18.939604,42.5099406 Z M18.939604,35.8336634 C18.663404,35.8336634 18.439604,35.6209426 18.439604,35.3584158 L18.439604,34.9782178 C18.439604,34.7156911 18.663404,34.5029703 18.939604,34.5029703 C19.215804,34.5029703 19.439604,34.7156911 19.439604,34.9782178 L19.439604,35.3584158 C19.439604,35.6209426 19.215804,35.8336634 18.939604,35.8336634 Z" id="Shape" fill="#F8E5B0"></path>
                    <path d="M12.6030337,42.5099406 C12.3268337,42.5099406 12.1030337,42.2972198 12.1030337,42.0346931 L12.1030337,39.9120475 C12.1030337,39.6495208 12.3268337,39.4368 12.6030337,39.4368 C12.8792337,39.4368 13.1030337,39.6495208 13.1030337,39.9120475 L13.1030337,42.0346931 C13.1030337,42.2972198 12.8792337,42.5099406 12.6030337,42.5099406 Z M12.6030337,38.486305 C12.3268337,38.486305 12.1030337,38.2735842 12.1030337,38.0110574 L12.1030337,37.6308594 C12.1030337,37.3683327 12.3268337,37.1556119 12.6030337,37.1556119 C12.8792337,37.1556119 13.1030337,37.3683327 13.1030337,37.6308594 L13.1030337,38.0110574 C13.1030337,38.2735842 12.8792337,38.486305 12.6030337,38.486305 Z" id="Shape" fill="#FFCBC3"></path>
                    <path d="M25.4347168,42.5099406 C25.1585168,42.5099406 24.9347168,42.2972198 24.9347168,42.0346931 L24.9347168,35.3584158 C24.9347168,35.0958891 25.1585168,34.8831683 25.4347168,34.8831683 C25.7109168,34.8831683 25.9347168,35.0958891 25.9347168,35.3584158 L25.9347168,42.0346931 C25.9347168,42.2972198 25.7109168,42.5099406 25.4347168,42.5099406 Z M25.4347168,33.9326733 C25.1585168,33.9326733 24.9347168,33.7199525 24.9347168,33.4574257 L24.9347168,33.0772277 C24.9347168,32.814701 25.1585168,32.6019802 25.4347168,32.6019802 C25.7109168,32.6019802 25.9347168,32.814701 25.9347168,33.0772277 L25.9347168,33.4574257 C25.9347168,33.7199525 25.7109168,33.9326733 25.4347168,33.9326733 Z" id="Shape" fill="#76FFBB"></path>
                    <path d="M43.6277228,31.9524119 L35.3266693,31.9524119 C35.2500594,31.9524119 35.1742099,31.9710416 35.1063446,32.0065901 L29.4142099,34.9848713 C29.1815287,35.1065347 29.091802,35.3935842 29.2134653,35.6262653 C29.3353188,35.8593267 29.6229386,35.9486733 29.8548594,35.8270099 L35.4433901,32.9029069 L43.6277228,32.9029069 C43.8902495,32.9029069 44.1029703,32.6901861 44.1029703,32.4276594 C44.1029703,32.1651327 43.8902495,31.9524119 43.6277228,31.9524119 L43.6277228,31.9524119 Z" id="Path" fill="#000000"></path>
                    <path d="M43.6277228,34.2970931 L36.7524119,34.2970931 C36.4898851,34.2970931 36.2771644,34.5098139 36.2771644,34.7723406 C36.2771644,35.0348673 36.4898851,35.2475881 36.7524119,35.2475881 L43.6277228,35.2475881 C43.8902495,35.2475881 44.1029703,35.0348673 44.1029703,34.7723406 C44.1029703,34.5098139 43.8902495,34.2970931 43.6277228,34.2970931 Z" id="Path" fill="#000000"></path>
                    <path d="M43.6277228,36.6415842 L36.7524119,36.6415842 C36.4898851,36.6415842 36.2771644,36.854305 36.2771644,37.1168317 C36.2771644,37.3793584 36.4898851,37.5920792 36.7524119,37.5920792 L43.6277228,37.5920792 C43.8902495,37.5920792 44.1029703,37.3793584 44.1029703,37.1168317 C44.1029703,36.854305 43.8902495,36.6415842 43.6277228,36.6415842 Z" id="Path" fill="#000000"></path>
                    <path d="M43.6277228,42.5346535 L36.7524119,42.5346535 C36.4898851,42.5346535 36.2771644,42.7473743 36.2771644,43.009901 C36.2771644,43.2724277 36.4898851,43.4851485 36.7524119,43.4851485 L43.6277228,43.4851485 C43.8902495,43.4851485 44.1029703,43.2724277 44.1029703,43.009901 C44.1029703,42.7473743 43.8902495,42.5346535 43.6277228,42.5346535 Z" id="Path" fill="#000000"></path>
                    <path d="M46.6693069,24.5187802 L43.2152079,24.5187802 L43.2152079,22.0836119 C43.2152079,21.8212752 43.002297,21.6083644 42.7399604,21.6083644 C42.4795248,21.6083644 42.2666139,21.8193743 42.2647129,22.0817109 L42.2647129,22.0836119 L42.2647129,24.5187802 L34.9630099,24.5187802 L34.9630099,11.1531089 L42.2647129,11.1531089 L42.2647129,18.2818218 C42.2647129,18.5441584 42.4776238,18.7570693 42.7399604,18.7570693 C43.002297,18.7570693 43.2152079,18.5441584 43.2152079,18.2818218 L43.2152079,11.1531089 L43.4376238,11.1531089 C44.2238733,11.1531089 44.8633663,10.5136158 44.8633663,9.72736634 L44.8633663,8.45940594 C44.8633663,7.67315644 44.2238733,7.03366337 43.4376238,7.03366337 L34.9630099,7.03366337 L34.9630099,4.11944554 L35.1055842,4.11944554 C35.8918337,4.11944554 36.5313267,3.47995248 36.5313267,2.69370297 L36.5313267,1.42574257 C36.5313267,0.639493069 35.8918337,2.70146941e-15 35.1055842,2.70146941e-15 L12.9894653,2.70146941e-15 C12.2032158,2.70146941e-15 11.5637228,0.639493069 11.5637228,1.42574257 L11.5637228,2.69370297 C11.5637228,3.47995248 12.2032158,4.11944554 12.9894653,4.11944554 L13.1320396,4.11944554 L13.1320396,7.03366337 L10.7158812,7.03366337 C10.4535446,7.03366337 10.2406337,7.24657426 10.2406337,7.50891089 C10.2406337,7.77124752 10.4535446,7.98415842 10.7158812,7.98415842 L13.1320396,7.98415842 L13.1320396,10.2026139 C12.2313505,10.2026139 5.60906139,10.2026139 4.65742574,10.2026139 C4.39508911,10.2026139 4.18217822,9.98970297 4.18217822,9.72736634 L4.18217822,8.45940594 C4.18217822,8.19706931 4.39508911,7.98415842 4.65742574,7.98415842 L6.91390099,7.98415842 C7.17623762,7.98415842 7.38914851,7.77124752 7.38914851,7.50891089 C7.38914851,7.24657426 7.17623762,7.03366337 6.91390099,7.03366337 L4.65742574,7.03366337 C3.87231683,7.03366337 3.23168317,7.67429703 3.23168317,8.45940594 L3.23168317,9.72736634 C3.23168317,10.5124752 3.87231683,11.1531089 4.65742574,11.1531089 L5.06994059,11.1531089 L5.06994059,24.5189703 L1.42574257,24.5189703 C0.640633663,24.5189703 -8.10440823e-15,25.159604 -8.10440823e-15,25.9447129 L-8.10440823e-15,46.5267327 C-8.10440823e-15,47.3118416 0.640633663,47.9524752 1.42574257,47.9524752 L31.6153663,47.9524752 C31.877703,47.9524752 32.0906139,47.7395644 32.0906139,47.4772277 C32.0906139,47.2148911 31.877703,47.0019802 31.6153663,47.0019802 L1.42574257,47.0019802 C1.16530693,47.0019802 0.95049505,46.7890693 0.95049505,46.5267327 L0.95049505,25.9445228 C0.95049505,25.6821861 1.16530693,25.4692752 1.42574257,25.4692752 L46.6693069,25.4692752 C46.9316436,25.4692752 47.1445545,25.6821861 47.1445545,25.9445228 L47.1445545,46.5267327 C47.1445545,46.7890693 46.9316436,47.0019802 46.6693069,47.0019802 L35.4173465,47.0019802 C35.1550099,47.0019802 34.942099,47.2148911 34.942099,47.4772277 C34.942099,47.7395644 35.1550099,47.9524752 35.4173465,47.9524752 L46.6693069,47.9524752 C47.4544158,47.9524752 48.0950495,47.3118416 48.0950495,46.5267327 L48.0950495,25.9445228 C48.0950495,25.159604 47.4544158,24.5187802 46.6693069,24.5187802 L46.6693069,24.5187802 Z M26.0112475,24.5187802 L22.081901,24.5187802 L22.083802,19.3577822 C22.083802,19.3062653 22.1256238,19.2627327 22.1788515,19.2627327 L25.916198,19.2627327 C25.9692356,19.2627327 26.0112475,19.3062653 26.0112475,19.3577822 L26.0112475,24.5187802 Z M43.4376238,7.98415842 C43.6997703,7.98415842 43.9128713,8.19725941 43.9128713,8.45940594 L43.9128713,9.72736634 C43.9128713,9.98951287 43.6997703,10.2026139 43.4376238,10.2026139 C40.5905109,10.2026139 37.7916832,10.2026139 34.9630099,10.2026139 L34.9630099,7.98415842 L43.4376238,7.98415842 Z M12.5142178,2.69370297 L12.5142178,1.42574257 C12.5142178,1.16359604 12.7273188,0.95049505 12.9894653,0.95049505 L35.1055842,0.95049505 C35.3677307,0.95049505 35.5808317,1.16359604 35.5808317,1.42574257 L35.5808317,2.69370297 C35.5808317,2.9558495 35.3677307,3.1689505 35.1055842,3.1689505 C33.8300198,3.1689505 13.7354139,3.1689505 12.9894653,3.1689505 C12.7273188,3.1689505 12.5142178,2.9558495 12.5142178,2.69370297 Z M34.0125149,4.11925545 L34.0125149,24.5189703 L26.9617426,24.5189703 L26.9617426,19.3577822 C26.9617426,18.7817822 26.4920079,18.3122376 25.916198,18.3122376 L22.1788515,18.3122376 C21.6009505,18.3122376 21.1333069,18.7817822 21.1333069,19.3577822 L21.1333069,24.5189703 L14.0825347,24.5189703 C14.0825347,22.3240871 14.0825347,7.42697822 14.0825347,4.11925545 L34.0125149,4.11925545 L34.0125149,4.11925545 Z M6.02043564,11.1531089 L13.1320396,11.1531089 L13.1320396,24.5189703 L6.02043564,24.5189703 L6.02043564,11.1531089 Z" id="Shape" fill="#000000"></path>
                    <circle id="Oval" fill="#000000" cx="33.5163564" cy="47.4772277" r="1"></circle>
                    <path d="M5.03762376,29.4653465 C4.1466297,29.4653465 3.42178218,30.1901941 3.42178218,31.0811881 L3.42178218,43.1752871 C3.42178218,44.0662812 4.1466297,44.7911287 5.03762376,44.7911287 L30.1335446,44.7911287 C31.0245386,44.7911287 31.7493861,44.0662812 31.7493861,43.1752871 C31.7493861,42.2842931 31.0245386,41.5594455 30.1335446,41.5594455 L27.287002,41.5594455 L27.287002,31.9841584 C27.287002,31.1979089 26.6475089,30.5584158 25.8612594,30.5584158 L23.7068673,30.5584158 C22.9206178,30.5584158 22.2811248,31.1979089 22.2811248,31.9841584 L22.2811248,41.5594455 L20.8563327,41.5594455 L20.8563327,34.1775208 C20.8563327,33.3912713 20.2168396,32.7517782 19.4305901,32.7517782 L17.276198,32.7517782 C16.4899485,32.7517782 15.8504554,33.3912713 15.8504554,34.1775208 L15.8504554,41.5594455 L14.4256634,41.5594455 L14.4256634,36.8206574 C14.4256634,36.0344079 13.7861703,35.3949149 12.9999208,35.3949149 L10.8455287,35.3949149 C10.0592792,35.3949149 9.41978614,36.0344079 9.41978614,36.8206574 L9.41978614,41.5594455 L6.65346535,41.5594455 L6.65346535,31.0811881 C6.65346535,30.1901941 5.92861782,29.4653465 5.03762376,29.4653465 Z M23.2316198,31.9841584 C23.2316198,31.7220119 23.4447208,31.5089109 23.7068673,31.5089109 L25.8612594,31.5089109 C26.1234059,31.5089109 26.3365069,31.7220119 26.3365069,31.9841584 L26.3365069,41.5594455 L23.2316198,41.5594455 L23.2316198,31.9841584 Z M16.8009505,34.1775208 C16.8009505,33.9153743 17.0140515,33.7022733 17.276198,33.7022733 L19.4305901,33.7022733 C19.6927366,33.7022733 19.9058376,33.9153743 19.9058376,34.1775208 L19.9058376,41.5594455 L16.8009505,41.5594455 L16.8009505,34.1775208 Z M10.3702812,36.8206574 C10.3702812,36.5585109 10.5833822,36.3454099 10.8455287,36.3454099 L12.9999208,36.3454099 C13.2620673,36.3454099 13.4751683,36.5585109 13.4751683,36.8206574 L13.4751683,41.5594455 L10.3702812,41.5594455 L10.3702812,36.8206574 Z M30.1335446,42.5099406 C30.5004356,42.5099406 30.7988911,42.808396 30.7988911,43.1752871 C30.7988911,43.5421782 30.5004356,43.8406337 30.1335446,43.8406337 L5.03762376,43.8406337 C4.67073267,43.8406337 4.37227723,43.5421782 4.37227723,43.1752871 L4.37227723,31.0811881 C4.37227723,30.714297 4.67073267,30.4158416 5.03762376,30.4158416 C5.40451485,30.4158416 5.7029703,30.714297 5.7029703,31.0811881 L5.7029703,42.0346931 C5.7029703,42.2972198 5.91569109,42.5099406 6.17821782,42.5099406 L30.1335446,42.5099406 Z" id="Shape" fill="#000000"></path>
                    <circle id="Oval" fill="#000000" cx="42.7399604" cy="20.1828119" r="1"></circle>
                    <circle id="Oval" fill="#000000" cx="8.81489109" cy="7.50891089" r="1"></circle>
                    <path d="M17.1830495,10.8622574 L19.1733861,10.8622574 C19.7512871,10.8622574 20.2189307,10.3946139 20.2189307,9.81671287 L20.2189307,7.82637624 C20.2189307,7.25037624 19.7512871,6.78083168 19.1733861,6.78083168 L17.1830495,6.78083168 C16.6070495,6.78083168 16.137505,7.25037624 16.137505,7.82637624 L16.137505,9.81671287 C16.137505,10.3946139 16.6068594,10.8622574 17.1830495,10.8622574 Z M17.088,7.82637624 C17.088,7.77314851 17.1298218,7.73132673 17.1830495,7.73132673 L19.1733861,7.73132673 C19.2266139,7.73132673 19.2684356,7.77314851 19.2684356,7.82637624 L19.2684356,9.81671287 C19.2684356,9.86994059 19.2266139,9.91176238 19.1733861,9.91176238 L17.1830495,9.91176238 C17.1298218,9.91176238 17.088,9.86994059 17.088,9.81671287 L17.088,7.82637624 Z" id="Shape" fill="#000000"></path>
                    <path d="M23.0514059,10.8622574 L25.0436436,10.8622574 C25.6194535,10.8622574 26.0891881,10.3927129 26.0891881,9.81671287 L26.0891881,7.82637624 C26.0891881,7.25037624 25.6194535,6.78083168 25.0436436,6.78083168 L23.0514059,6.78083168 C22.4754059,6.78083168 22.0058614,7.25037624 22.0058614,7.82637624 L22.0058614,9.81671287 C22.0058614,10.3927129 22.4752158,10.8622574 23.0514059,10.8622574 Z M22.9563564,7.82637624 C22.9563564,7.77314851 22.9981782,7.73132673 23.0514059,7.73132673 L25.0436436,7.73132673 C25.0949703,7.73132673 25.1386931,7.77314851 25.1386931,7.82637624 L25.1386931,9.81671287 C25.1386931,9.86994059 25.0949703,9.91176238 25.0436436,9.91176238 L23.0514059,9.91176238 C23.0000792,9.91176238 22.9563564,9.86994059 22.9563564,9.81671287 L22.9563564,7.82637624 Z" id="Shape" fill="#000000"></path>
                    <path d="M17.1830495,16.6296713 L19.1733861,16.6296713 C19.7512871,16.6277703 20.2189307,16.1601267 20.2189307,15.5841267 L20.2189307,13.5920792 C20.2189307,13.0160792 19.7512871,12.5465347 19.1733861,12.5465347 L17.1830495,12.5465347 C16.6070495,12.5465347 16.137505,13.0160792 16.137505,13.5920792 L16.137505,15.5841267 C16.137505,16.1603168 16.6068594,16.6279604 17.1830495,16.6296713 Z M17.088,13.5920792 C17.088,13.5405624 17.1298218,13.4970297 17.1830495,13.4970297 L19.1733861,13.4970297 C19.2266139,13.4970297 19.2684356,13.5405624 19.2684356,13.5920792 L19.2684356,15.5841267 C19.2684356,15.6356436 19.2266139,15.6791762 19.1733861,15.6791762 L17.1830495,15.6791762 C17.1298218,15.6791762 17.088,15.6356436 17.088,15.5841267 L17.088,13.5920792 Z" id="Shape" fill="#000000"></path>
                    <path d="M23.0514059,16.6296713 L25.0436436,16.6296713 C25.6194535,16.6296713 26.0891881,16.1601267 26.0891881,15.5841267 L26.0891881,13.5920792 C26.0891881,13.0160792 25.6194535,12.5465347 25.0436436,12.5465347 L23.0514059,12.5465347 C22.4754059,12.5465347 22.0058614,13.0160792 22.0058614,13.5920792 L22.0058614,15.5841267 C22.0058614,16.1603168 22.4752158,16.6296713 23.0514059,16.6296713 Z M22.9563564,13.5920792 C22.9563564,13.5388515 23.0000792,13.4970297 23.0514059,13.4970297 L25.0436436,13.4970297 C25.0949703,13.4970297 25.1386931,13.5388515 25.1386931,13.5920792 L25.1386931,15.5841267 C25.1386931,15.6356436 25.0949703,15.6791762 25.0436436,15.6791762 L23.0514059,15.6791762 C23.0000792,15.6791762 22.9563564,15.6356436 22.9563564,15.5841267 L22.9563564,13.5920792 Z" id="Shape" fill="#000000"></path>
                    <path d="M28.9216634,10.8622574 L30.912,10.8622574 C31.488,10.8622574 31.9575446,10.3927129 31.9575446,9.81671287 L31.9575446,7.82637624 C31.9575446,7.24847525 31.488,6.78083168 30.912,6.78083168 L28.9216634,6.78083168 C28.3456634,6.78083168 27.8761188,7.24847525 27.8761188,7.82637624 L27.8761188,9.81671287 C27.8761188,10.3927129 28.3454733,10.8622574 28.9216634,10.8622574 Z M28.8247129,7.82637624 C28.8247129,7.77314851 28.8682455,7.73132673 28.9216634,7.73132673 L30.912,7.73132673 C30.9652277,7.73132673 31.0070495,7.77314851 31.0070495,7.82637624 L31.0070495,9.81671287 C31.0070495,9.86994059 30.9652277,9.91176238 30.912,9.91176238 L28.9216634,9.91176238 C28.8684356,9.91176238 28.8247129,9.86994059 28.8247129,9.81671287 L28.8247129,7.82637624 Z" id="Shape" fill="#000000"></path>
                    <path d="M28.9216634,16.6296713 L30.912,16.6296713 C31.488,16.6296713 31.9575446,16.1601267 31.9575446,15.5841267 L31.9575446,13.5920792 C31.9575446,13.0160792 31.488,12.5465347 30.912,12.5465347 L28.9216634,12.5465347 C28.3456634,12.5465347 27.8761188,13.0160792 27.8761188,13.5920792 L27.8761188,15.5841267 C27.8761188,16.1603168 28.3454733,16.6296713 28.9216634,16.6296713 Z M28.8247129,13.5920792 C28.8247129,13.5405624 28.8682455,13.4970297 28.9216634,13.4970297 L30.912,13.4970297 C30.9652277,13.4970297 31.0070495,13.5405624 31.0070495,13.5920792 L31.0070495,15.5841267 C31.0070495,15.6356436 30.9652277,15.6791762 30.912,15.6791762 L28.9216634,15.6791762 C28.8684356,15.6791762 28.8247129,15.6356436 28.8247129,15.5841267 L28.8247129,13.5920792 Z" id="Shape" fill="#000000"></path>
                    <path d="M40.6543842,13.5920792 C40.6543842,13.0160792 40.1867406,12.5465347 39.6088396,12.5465347 L37.618503,12.5465347 C37.042503,12.5465347 36.5729584,13.0160792 36.5729584,13.5920792 L36.5729584,15.5841267 C36.5729584,16.1601267 37.042503,16.6277703 37.618503,16.6296713 L39.6088396,16.6296713 C40.1867406,16.6277703 40.6543842,16.1601267 40.6543842,15.5841267 L40.6543842,13.5920792 Z M39.7038891,15.5841267 C39.7038891,15.6356436 39.6620673,15.6791762 39.6088396,15.6791762 L37.618503,15.6791762 C37.5652752,15.6791762 37.5234535,15.6356436 37.5234535,15.5841267 L37.5234535,13.5920792 C37.5234535,13.5405624 37.5652752,13.4970297 37.618503,13.4970297 L39.6088396,13.4970297 C39.6620673,13.4970297 39.7038891,13.5405624 39.7038891,13.5920792 L39.7038891,15.5841267 Z" id="Shape" fill="#000000"></path>
                    <path d="M39.6088396,18.3122376 L37.618503,18.3122376 C37.042503,18.3141386 36.5729584,18.7817822 36.5729584,19.3577822 L36.5729584,21.3498297 C36.5729584,21.9258297 37.042503,22.3953743 37.618503,22.3953743 L39.6088396,22.3953743 C40.1867406,22.3953743 40.6543842,21.9258297 40.6543842,21.3498297 L40.6543842,19.3577822 C40.6543842,18.7817822 40.1867406,18.3141386 39.6088396,18.3122376 Z M39.7038891,21.3500198 C39.7038891,21.4015366 39.6620673,21.4450693 39.6088396,21.4450693 L37.618503,21.4450693 C37.5652752,21.4450693 37.5234535,21.4015366 37.5234535,21.3500198 L37.5234535,19.3577822 C37.5234535,19.3062653 37.5652752,19.2627327 37.618503,19.2627327 L39.6088396,19.2627327 C39.6620673,19.2627327 39.7038891,19.3062653 39.7038891,19.3577822 L39.7038891,21.3500198 Z" id="Shape" fill="#000000"></path>
                    <path d="M10.5712158,12.5465347 L8.58106931,12.5465347 C8.00316832,12.5465347 7.53552475,13.0160792 7.53552475,13.5920792 L7.53552475,15.5841267 C7.53552475,16.1601267 8.00316832,16.6277703 8.58106931,16.6296713 L10.5714059,16.6296713 C11.1493069,16.6277703 11.6169505,16.1601267 11.6169505,15.5841267 L11.6169505,13.5920792 C11.6167604,13.0160792 11.1474059,12.5465347 10.5712158,12.5465347 Z M10.6662653,15.5841267 C10.6662653,15.6356436 10.6244436,15.6791762 10.5712158,15.6791762 L8.58106931,15.6791762 C8.52784158,15.6791762 8.4860198,15.6356436 8.4860198,15.5841267 L8.4860198,13.5920792 C8.4860198,13.5388515 8.52784158,13.4970297 8.58106931,13.4970297 L10.5714059,13.4970297 C10.6246337,13.4970297 10.6664554,13.5388515 10.6664554,13.5920792 L10.6664554,15.5841267 L10.6662653,15.5841267 Z" id="Shape" fill="#000000"></path>
                    <path d="M10.5712158,18.3122376 L8.58106931,18.3122376 C8.00316832,18.3122376 7.53552475,18.7817822 7.53552475,19.3577822 L7.53552475,21.3498297 C7.53552475,21.9258297 8.00316832,22.3953743 8.58106931,22.3953743 L10.5714059,22.3953743 C11.1493069,22.3953743 11.6169505,21.9258297 11.6169505,21.3498297 L11.6169505,19.3577822 C11.6167604,18.7817822 11.1491168,18.3122376 10.5712158,18.3122376 Z M10.6662653,21.3500198 C10.6662653,21.4032475 10.6244436,21.4450693 10.5712158,21.4450693 L8.58106931,21.4450693 C8.52784158,21.4450693 8.4860198,21.4032475 8.4860198,21.3500198 L8.4860198,19.3577822 C8.4860198,19.3062653 8.52784158,19.2627327 8.58106931,19.2627327 L10.5714059,19.2627327 C10.6246337,19.2627327 10.6664554,19.3062653 10.6664554,19.3577822 L10.6664554,21.3500198 L10.6662653,21.3500198 Z" id="Shape" fill="#000000"></path>
                    <path d="M16.6127525,22.3955644 L19.2306059,22.3955644 C19.4874297,22.3955644 19.7058535,22.1870257 19.7058535,21.9203168 L19.7058535,20.0972673 C19.7037624,19.1125545 18.9034455,18.3122376 17.9206337,18.3122376 C16.9378218,18.3122376 16.137505,19.1125545 16.137505,20.0972673 L16.137505,21.9203168 C16.137505,22.1818931 16.3469941,22.3955644 16.6127525,22.3955644 Z M17.086099,20.0972673 C17.088,19.6391287 17.462305,19.2646337 17.9206337,19.2627327 C18.3806733,19.2646337 18.7532673,19.6389386 18.7532673,20.0972673 L18.7532673,21.4450693 L17.086099,21.4450693 L17.086099,20.0972673 Z" id="Shape" fill="#000000"></path>
                    <path d="M30.1742257,18.3122376 C29.1895129,18.3122376 28.391097,19.1125545 28.391097,20.0972673 L28.391097,21.9203168 C28.391097,22.1830337 28.6028673,22.3955644 28.8644436,22.3955644 L31.4821069,22.3955644 C31.747105,22.3955644 31.9573545,22.1832238 31.9573545,21.9203168 L31.9573545,20.0972673 C31.9573545,19.1125545 31.1570376,18.3122376 30.1742257,18.3122376 L30.1742257,18.3122376 Z M31.0068594,21.4450693 L29.3396911,21.4450693 L29.3396911,20.0972673 C29.3415921,19.6372277 29.7141861,19.2646337 30.1742257,19.2627327 C30.6323644,19.2646337 31.0068594,19.6372277 31.0068594,20.0972673 L31.0068594,21.4450693 Z" id="Shape" fill="#000000"></path>
                    <path d="M13.1470574,32.8591842 C13.1970535,33.0745663 13.3888634,33.2270257 13.6101386,33.2270257 C13.8314139,33.2270257 14.0230337,33.0745663 14.0732198,32.8591842 C14.4534178,31.2197703 15.0151604,31.0342337 15.7924752,30.7772198 C16.2262812,30.6340752 16.225901,30.0179644 15.7924752,29.8748198 C15.0480475,29.6290218 14.4627327,29.4718099 14.0730297,27.7926653 C13.9593505,27.3025901 13.2607366,27.3029703 13.1472475,27.7926653 C12.7666693,29.4322693 12.2049267,29.617996 11.427802,29.8746297 C10.993996,30.0179644 10.9943762,30.6342653 11.427802,30.7772198 C12.7666693,31.2197703 12.9179881,31.872 13.1470574,32.8591842 L13.1470574,32.8591842 Z M13.6118495,29.3256238 C13.8694337,29.8162693 14.1697901,30.122899 14.4788911,30.3312475 C14.1538218,30.5472 13.8650614,30.8454653 13.6211644,31.3018931 C13.4272634,30.9517307 13.1474376,30.6209584 12.7155327,30.337901 C13.0567604,30.1168158 13.3586376,29.808095 13.6118495,29.3256238 Z" id="Shape" fill="#000000"></path>
                    <path d="M33.0855921,41.485497 C33.1355881,41.7008792 33.327398,41.8533386 33.5486733,41.8533386 C33.7699485,41.8533386 33.9615683,41.7008792 34.0117545,41.485497 C34.3919525,39.8460832 34.953695,39.6605465 35.7310099,39.4035327 C36.1648158,39.2603881 36.1644356,38.6442772 35.7310099,38.5011327 C34.9865822,38.2553347 34.4012673,38.0981228 34.0115644,36.4189782 C33.8978851,35.928903 33.1992713,35.9292832 33.0857822,36.4189782 C32.705204,38.0585822 32.1434614,38.2443089 31.3663366,38.5009426 C30.9323406,38.6442772 30.9329109,39.2605782 31.3663366,39.4035327 C32.7053941,39.8460832 32.8565228,40.4983129 33.0855921,41.485497 L33.0855921,41.485497 Z M33.5503842,37.9519366 C33.8079683,38.4425822 34.1083248,38.7492119 34.4174257,38.9575604 C34.0923564,39.1735129 33.803596,39.4717782 33.559699,39.9282059 C33.365798,39.5780436 33.0859723,39.2472713 32.6540673,38.9642139 C32.995295,38.7431287 33.2973624,38.434598 33.5503842,37.9519366 Z" id="Shape" fill="#000000"></path>
                </g>
            </g>
        </g>
    </g>
</svg>