<svg xmlns="http://www.w3.org/2000/svg" width="96" height="116" viewBox="0 0 96 116">
    <g fill="none" fill-rule="evenodd">
        <g fill-rule="nonzero">
            <g>
                <path fill="#E6E7E8" d="M87.568 4H42.892c-4.098 0-7.431 3.354-7.431 7.476V32.31C17.372 37.137 4 53.747 4 73.444 4 96.909 22.975 116 46.298 116s42.298-19.09 42.298-42.556c0-10.616-3.892-20.327-10.304-27.79h9.277c4.098 0 7.431-3.353 7.431-7.475V11.475C94.999 7.354 91.666 4 87.568 4z" transform="translate(-209 -1917) translate(209 1917)"/>
                <g>
                    <path fill="#6DC9F7" d="M67.931 40.713V51.65l-12.39-10.936h-16.14c-3.595 0-6.509-2.91-6.509-6.501v-5.116c-18.2 4.455-31.71 20.85-31.71 40.406 0 22.98 18.648 41.608 41.651 41.608 23.003 0 41.65-18.628 41.65-41.608 0-11.175-4.418-21.314-11.595-28.789h-4.957z" transform="translate(-209 -1917) translate(209 1917)"/>
                    <g transform="translate(-209 -1917) translate(209 1917) translate(17.64 46.014)">
                        <path fill="#FA759E" d="M36.474 31.398c-3.065 2.527-6.995 4.044-11.28 4.044-4.285 0-8.214-1.517-11.28-4.044-7.6.275-13.68 6.5-13.68 14.159v11.242c6.955 5.21 15.597 8.298 24.96 8.298 9.363 0 18.005-3.088 24.96-8.298V45.557c0-7.66-6.08-13.884-13.68-14.159z"/>
                        <ellipse cx="25.194" cy="17.724" fill="#FFD7E5" rx="17.736" ry="17.718"/>
                        <path fill="#FFF" d="M25.194 3.817c9.15 0 16.679 6.924 17.63 15.813.068-.626.106-1.26.106-1.906C42.93 7.94 34.99.006 25.194.006 15.4.006 7.458 7.939 7.458 17.724c0 .644.04 1.28.106 1.906.951-8.89 8.479-15.813 17.63-15.813z"/>
                    </g>
                    <path fill="#D4FBFF" d="M39.401.987H84.43c3.594 0 6.508 2.91 6.508 6.501v26.723c0 3.59-2.914 6.501-6.508 6.501H67.93v10.936l-12.39-10.936h-16.14c-3.595 0-6.509-2.91-6.509-6.501V7.488c0-3.59 2.915-6.501 6.51-6.501z" transform="translate(-209 -1917) translate(209 1917)"/>
                    <path fill="#FA759E" d="M73.887 11.338c-2.934-2.931-7.69-2.931-10.624 0l-1.348 1.346-1.347-1.346c-2.935-2.931-7.69-2.931-10.625 0-2.934 2.931-2.934 7.682 0 10.613l1.348 1.347 8.955 8.946c.922.921 2.417.921 3.338 0l8.955-8.946 1.348-1.347c2.934-2.93 2.934-7.682 0-10.613z" transform="translate(-209 -1917) translate(209 1917)"/>
                    <g fill="#3A2C60">
                        <path d="M84.43.008H68.477c-.542 0-.98.438-.98.979 0 .54.438.979.98.979H84.43c3.048 0 5.528 2.478 5.528 5.522v26.723c0 3.044-2.48 5.522-5.528 5.522H67.932c-.542 0-.98.439-.98.98v8.764l-10.761-9.498c-.18-.159-.41-.245-.649-.245h-16.14c-3.049 0-5.529-2.478-5.529-5.522V7.488c0-3.044 2.48-5.522 5.528-5.522h8.7c.543 0 .98-.439.98-.98 0-.54-.437-.978-.98-.978h-8.7c-4.128 0-7.488 3.356-7.488 7.48v20.864C13.683 33.185.203 49.792.203 69.502c0 23.482 19.125 42.586 42.631 42.586 23.507 0 42.63-19.104 42.63-42.587 0-10.623-3.924-20.342-10.387-27.81h9.353c4.129 0 7.488-3.356 7.488-7.48V7.488c0-4.124-3.36-7.48-7.488-7.48zm-65.577 102.28V91.57c0-7.009 5.5-12.744 12.411-13.165 3.188 2.516 7.202 4.03 11.571 4.03 4.368 0 8.382-1.514 11.57-4.03 6.912.421 12.411 6.156 12.411 13.165v10.719c-6.729 4.925-15.02 7.842-23.982 7.842-8.963 0-17.252-2.917-23.98-7.842zm23.981-21.811c-9.24 0-16.757-7.509-16.757-16.74 0-9.23 7.518-16.74 16.757-16.74 9.24 0 16.756 7.51 16.756 16.74 0 9.231-7.516 16.74-16.756 16.74zm40.67-10.975c0 12.561-5.737 23.807-14.729 31.265V91.57c0-7.429-5.378-13.618-12.448-14.908 3.227-3.361 5.223-7.91 5.223-12.924 0-10.31-8.395-18.698-18.716-18.698-10.32 0-18.717 8.387-18.717 18.698 0 5.013 1.996 9.563 5.224 12.924-7.07 1.29-12.449 7.479-12.449 14.908v9.198C7.9 93.31 2.162 82.063 2.162 69.502c0-18.624 12.614-34.348 29.75-39.127v3.837c0 4.124 3.36 7.48 7.488 7.48h15.77l12.113 10.69c.183.162.414.245.648.245.138 0 .274-.028.403-.086.351-.159.577-.508.577-.893v-9.956h3.53c6.85 7.274 11.063 17.057 11.063 27.81z" transform="translate(-209 -1917) translate(209 1917)"/>
                        <path d="M52.47 1.966h11.76c.543 0 .98-.439.98-.98 0-.54-.437-.978-.98-.978H52.47c-.541 0-.98.438-.98.979 0 .54.44.979.98.979zM49.25 22.644l10.303 10.292c.631.63 1.47.978 2.362.978.893 0 1.732-.346 2.362-.978L74.58 22.644c1.604-1.603 2.488-3.733 2.488-5.999 0-2.266-.884-4.397-2.488-6-1.605-1.602-3.736-2.484-6.005-2.484-2.269 0-4.401.882-6.005 2.485l-.655.654-.655-.654c-3.31-3.307-8.698-3.308-12.01 0-3.311 3.308-3.311 8.69 0 11.998zm1.385-10.614c1.274-1.272 2.947-1.908 4.62-1.908s3.346.636 4.62 1.908l1.347 1.346c.368.367 1.018.367 1.386 0l1.347-1.346c1.234-1.232 2.876-1.91 4.62-1.91 1.745 0 3.385.678 4.619 1.91 1.234 1.233 1.914 2.872 1.914 4.615 0 1.743-.68 3.382-1.914 4.614L62.891 31.552c-.522.52-1.43.52-1.952 0L50.635 21.259c-2.546-2.544-2.546-6.684 0-9.229z" transform="translate(-209 -1917) translate(209 1917)"/>
                    </g>
                </g>
            </g>
        </g>
    </g>
</svg>
