<svg xmlns="http://www.w3.org/2000/svg" width="74" height="78" viewBox="0 0 74 78">
    <g fill="none" fill-rule="evenodd">
        <g fill-rule="nonzero">
            <g>
                <g fill="#E6E7E8" transform="translate(-766 -2976) translate(766 2976) translate(0 2.525)">
                    <path d="M70.396 65.98l-6.417-7.336c-.174-.198-.452-.268-.697-.176-.246.092-.409.328-.409.592v2.987h-5.268c6.746-6.015 11.063-14.634 11.222-24.195.15-9.051-3.258-17.586-9.599-24.034C53.035 7.52 44.806 3.986 36 3.825V.743c0-.25-.148-.478-.378-.578-.229-.1-.496-.056-.681.114l-4.185 3.86c-7.286.997-13.997 4.342-19.246 9.68-6.34 6.446-9.75 14.982-9.6 24.033.16 9.561 4.477 18.18 11.222 24.195H2.03c-1.045 0-1.893.848-1.893 1.894v4.91c0 1.046.848 1.894 1.893 1.894h60.842v2.988c0 .263.164.498.41.59.071.028.146.04.222.04.178 0 .352-.075.475-.215l6.417-7.337c.208-.237.208-.592 0-.83zm-52.69-11.584c-4.692-4.773-7.213-11.006-7.099-17.55.21-12.14 9.326-22.23 21.002-24.04l3.333 3.074c.185.171.451.215.68.115.23-.1.379-.328.379-.579v-2.892c13.136.336 23.902 11.118 24.13 24.322.114 6.544-2.407 12.777-7.098 17.55-4.66 4.741-11.074 7.503-17.663 7.639-6.592-.136-13.005-2.898-17.664-7.639z"/>
                    <circle cx="35.344" cy="37.238" r="19.528"/>
                </g>
                <g transform="translate(-766 -2976) translate(766 2976) translate(2.525)">
                    <path fill="#6DC9F7" d="M69.921 66.396l-6.417-7.337v3.62h-7.575c7.321-5.89 12.1-14.78 12.267-24.838.306-18.389-14.507-33.39-32.827-33.39V.741L31.03 4.744C14.771 6.892 2.261 20.93 2.541 37.841 2.71 47.9 7.488 56.79 14.81 62.68H2.03c-.697 0-1.262.565-1.262 1.262v4.91c0 .697.565 1.263 1.263 1.263h61.473v3.62l6.418-7.338zM9.976 36.835c.218-12.6 9.654-22.984 21.84-24.697l3.554 3.278v-3.531c14.198 0 25.707 11.702 25.39 25.971-.304 13.713-11.72 24.543-25.382 24.81-13.993-.268-25.646-11.785-25.402-25.831z"/>
                    <circle cx="35.344" cy="37.238" r="18.897" fill="#FA759E"/>
                    <circle cx="35.344" cy="37.238" r="13.688" fill="#FFD7E5"/>
                    <path fill="#FFF" d="M35.344 25.443c7.241 0 13.165 5.624 13.653 12.741.021-.313.036-.628.036-.946 0-7.56-6.129-13.689-13.689-13.689-7.56 0-13.688 6.129-13.688 13.689 0 .318.014.633.036.946.487-7.118 6.411-12.741 13.652-12.741z"/>
                    <g fill="#3A2C60">
                        <path d="M70.396 65.98l-6.417-7.336c-.174-.198-.453-.269-.697-.176-.246.092-.409.328-.409.592v2.988h-5.268c6.746-6.015 11.063-14.634 11.222-24.196.15-9.051-3.258-17.586-9.599-24.034C53.035 7.52 44.806 3.986 36 3.825V.743c0-.25-.148-.478-.378-.578-.229-.1-.496-.056-.681.114l-4.188 3.863c-7.284.997-13.995 4.34-19.243 9.677-6.34 6.446-9.75 14.982-9.6 24.033.16 9.568 4.493 18.18 11.248 24.196H2.03c-1.044 0-1.893.85-1.893 1.894v4.91c0 1.043.85 1.893 1.893 1.893h5.933c.35 0 .631-.282.631-.631 0-.35-.282-.632-.63-.632H2.03c-.348 0-.63-.282-.63-.63v-4.91c0-.349.282-.632.63-.632h32.833c14.317 0 26.216-11.412 26.527-25.44.156-7.058-2.479-13.727-7.42-18.779-4.942-5.054-11.549-7.838-18.601-7.838-.35 0-.631.282-.631.632v2.09l-6.391-5.896 6.39-5.895V4.45c0 .35.283.631.632.631 8.703 0 16.857 3.417 22.96 9.622 6.1 6.204 9.38 14.418 9.236 23.128-.29 17.452-14.976 31.651-32.736 31.651H18.587c-.349 0-.63.283-.63.632 0 .349.281.63.63.63h44.285v2.99c0 .262.164.498.41.59.071.028.146.04.222.04.178 0 .352-.075.475-.216l6.417-7.337c.208-.238.208-.592 0-.83zm-35.455-50.1c.185.171.452.215.681.115.23-.1.378-.328.378-.579v-2.892c6.472.16 12.512 2.791 17.068 7.45 4.702 4.807 7.21 11.153 7.06 17.868-.291 13.179-11.347 23.924-24.75 24.193-6.593-.133-13.01-2.895-17.672-7.638-4.691-4.773-7.213-11.006-7.099-17.55.21-12.143 9.333-22.224 21.013-24.03l3.321 3.063zm-7.953-7.337l3.463 3.194C18.648 14.034 9.561 24.404 9.345 36.824c-.119 6.886 2.53 13.441 7.46 18.458 3.096 3.149 6.934 5.453 11.086 6.766h-12.79C7.968 56.238 3.333 47.546 3.172 37.831c-.145-8.71 3.135-16.924 9.237-23.128 4.6-4.677 10.367-7.765 16.656-9.004l-2.078 1.916c-.13.12-.203.288-.203.464 0 .176.074.345.203.464zm37.147 63.51v-1.94c0-.348-.282-.63-.631-.63h-19.5c4.464-1.246 8.571-3.367 12.102-6.173h7.397c.349 0 .631-.282.631-.63v-1.94l4.948 5.657-4.947 5.656z"/>
                        <path d="M15.958 69.482h-5.47c-.35 0-.631.283-.631.632 0 .349.282.63.63.63h5.47c.35 0 .632-.281.632-.63 0-.35-.282-.632-.631-.632zM15.815 37.238c0 10.768 8.76 19.528 19.529 19.528 10.768 0 19.529-8.76 19.529-19.528 0-10.768-8.76-19.53-19.529-19.53-10.768 0-19.529 8.761-19.529 19.53zm19.53-18.267c10.071 0 18.265 8.194 18.265 18.266 0 10.072-8.194 18.267-18.266 18.267-10.072 0-18.266-8.194-18.266-18.266 0-10.072 8.194-18.267 18.266-18.267z"/>
                        <path d="M35.344 51.557c7.897 0 14.32-6.424 14.32-14.32 0-7.895-6.423-14.32-14.32-14.32-7.896 0-14.32 6.424-14.32 14.32 0 7.897 6.424 14.32 14.32 14.32zm0-27.377c7.2 0 13.057 5.858 13.057 13.057 0 7.2-5.857 13.058-13.057 13.058s-13.058-5.858-13.058-13.057c0-7.2 5.859-13.058 13.058-13.058z"/>
                        <path d="M35.325 37.87H43.2c.349 0 .63-.283.63-.632 0-.349-.281-.63-.63-.63h-7.245v-8.454c0-.35-.282-.632-.631-.632-.35 0-.631.283-.631.632v9.084c0 .35.282.631.63.631z"/>
                    </g>
                </g>
            </g>
        </g>
    </g>
</svg>
