<svg xmlns="http://www.w3.org/2000/svg" width="69" height="90" viewBox="0 0 69 90">
    <g fill="none" fill-rule="evenodd">
        <g fill-rule="nonzero">
            <g>
                <path fill="#E6E7E8" d="M65.643 51.637c.688-3.347-.453-6.41-1.532-8.39l-.001-.001c-.868-1.587-9.655-15.834-10.77-17.642V8.133c0-2.813-2.289-5.101-5.101-5.101H5.1C2.288 3.032 0 5.32 0 8.132V81.57c0 2.813 2.288 5.101 5.101 5.101h36.503c.216 1.804 1.739 3.212 3.6 3.212h16.145c2.01 0 3.644-1.635 3.644-3.644v-4.352c0-2.01-1.634-3.644-3.644-3.644h-1.174V73c.363-1.338 4.445-16.387 5.468-21.362z" transform="translate(-222 -2761) translate(222 2761)"/>
                <g transform="translate(-222 -2761) translate(222 2761) translate(2.865)">
                    <g>
                        <path fill="#0089EF" d="M47.56 82.299H4.422C2.007 82.299.05 80.34.05 77.926V4.49C.05 2.074 2.007.117 4.422.117H47.56c2.415 0 4.373 1.957 4.373 4.372v73.437c0 2.415-1.959 4.373-4.373 4.373z" transform="translate(.729 .729)"/>
                        <path fill="#D4FBFF" d="M-5.633 13.591L57.615 13.591 57.615 65.474 -5.633 65.474z" transform="translate(.729 .729) rotate(90 25.991 39.533)"/>
                        <path fill="#FFF" d="M0.05 7.909L51.933 7.909 51.933 10.095 0.05 10.095z" transform="translate(.729 .729)"/>
                        <g>
                            <path fill="#FA759E" d="M41.239 17.864H1.633c-.805 0-1.457-.653-1.457-1.458V1.586C.176.78.828.128 1.633.128h39.605c.805 0 1.458.652 1.458 1.458v14.82c0 .805-.653 1.458-1.457 1.458z" transform="translate(.729 .729) translate(4.555 12.024)"/>
                            <g fill="#6DC9F7">
                                <path d="M17.722 17.745H1.633c-.805 0-1.457-.652-1.457-1.458V1.467C.176.662.828.009 1.633.009h16.089c.805 0 1.457.653 1.457 1.458v14.82c0 .805-.652 1.458-1.457 1.458zM41.239 17.745H25.15c-.805 0-1.457-.652-1.457-1.458V1.467c0-.805.652-1.458 1.457-1.458H41.24c.805 0 1.457.653 1.457 1.458v14.82c0 .805-.653 1.458-1.457 1.458z" transform="translate(.729 .729) translate(4.555 12.024) translate(0 21.498)"/>
                            </g>
                        </g>
                        <g fill="#6DC9F7" transform="translate(.729 .729) translate(18.765 3.097)">
                            <path d="M13.523 1.842H.928c-.466 0-.847-.38-.847-.847C.08.528.462.147.928.147h12.595c.467 0 .848.381.848.848 0 .466-.381.847-.848.847z"/>
                            <circle cx="17.762" cy=".995" r="1"/>
                            <path d="M11.344 75.215H3.108c-1.132 0-2.059-.926-2.059-2.058 0-1.133.927-2.06 2.06-2.06h8.235c1.132 0 2.058.927 2.058 2.06 0 1.132-.927 2.058-2.058 2.058z"/>
                        </g>
                    </g>
                    <path fill="#FFD7E5" d="M63.52 40.68c-.908-1.66-10.86-17.784-10.86-17.784V36.27c-1.128.312-2.05 1.216-2.302 2.44l-1.73 8.413c-.44 2.142-1.185 4.211-2.21 6.144l-.98 1.847c-.877 1.646-1.485 3.427-1.699 5.277-.719 6.146 3.386 9.597 3.386 9.597v6.07h12.37v-6.07s4.41-16.194 5.484-21.413c.651-3.165-.474-6.09-1.459-7.894z"/>
                    <path fill="#6DC9F7" d="M61.398 86.239H45.254c-1.61 0-2.915-1.305-2.915-2.915v-4.352c0-1.61 1.305-2.915 2.915-2.915h16.145c1.61 0 2.915 1.305 2.915 2.915v4.352c0 1.61-1.305 2.915-2.916 2.915z"/>
                    <circle cx="57.875" cy="81.149" r="1.464" fill="#D4FBFF"/>
                    <g fill="#3A2C60">
                        <path d="M6.172 56.724H23.75c.402 0 .728-.326.728-.729 0-.402-.326-.728-.728-.728H6.17c-.402 0-.728.326-.728.728 0 .403.326.729.729.729zM6.172 61.713H23.75c.402 0 .728-.326.728-.729 0-.402-.326-.728-.728-.728H6.17c-.402 0-.728.326-.728.728 0 .403.326.729.729.729zM6.172 66.701H23.75c.402 0 .728-.326.728-.728 0-.403-.326-.73-.728-.73H6.17c-.402 0-.728.327-.728.73 0 .402.326.728.729.728zM.778 44.97c.403 0 .729-.327.729-.73v-7.074c0-.402-.326-.729-.729-.729-.402 0-.728.327-.728.729v7.075c0 .402.326.728.728.728z"/>
                        <path d="M65.693 48.722c.688-3.347-.454-6.41-1.533-8.39v-.002c-.87-1.586-9.655-15.833-10.77-17.64V5.218c0-2.813-2.289-5.102-5.102-5.102H5.151C2.338.117.05 2.406.05 5.22V34.26c0 .403.326.73.728.73.403 0 .729-.327.729-.73V9.367h50.426v26.39c-1.172.508-2.028 1.543-2.288 2.807l-1.73 8.412c-.427 2.077-1.147 4.078-2.141 5.95l-.98 1.846c-.087.164-.155.33-.236.495H29.689c-.402 0-.729.326-.729.728 0 .403.327.729.73.729H43.92c-.446 1.169-.755 2.35-.896 3.53H29.69c-.402 0-.729.327-.729.73 0 .402.327.728.73.728h13.245c-.013 1.317.175 2.496.479 3.531H29.689c-.402 0-.729.327-.729.729 0 .402.327.729.73.729h14.253c.833 1.888 1.95 3.116 2.454 3.605v.85H1.507v-23.97c0-.403-.326-.73-.729-.73-.402 0-.728.327-.728.73v31.469c0 2.813 2.288 5.101 5.1 5.101h36.504c.216 1.804 1.738 3.212 3.6 3.212h16.145c2.01 0 3.644-1.635 3.644-3.644v-4.352c0-2.01-1.635-3.644-3.644-3.644h-1.174v-5.243c.363-1.339 4.445-16.388 5.468-21.363zM1.507 7.908v-2.69c0-2.009 1.635-3.643 3.644-3.643h43.138c2.009 0 3.644 1.634 3.644 3.644v2.69H1.507zM41.61 78.973v3.326H5.15c-2.008 0-3.643-1.635-3.643-3.644v-6.04h44.89v2.714h-1.143c-2.01 0-3.644 1.634-3.644 3.644zm21.974 0v4.352c0 1.205-.98 2.186-2.186 2.186H45.254c-1.206 0-2.187-.981-2.187-2.186v-4.352c0-1.206.981-2.187 2.187-2.187h16.144c1.206 0 2.186.98 2.186 2.187zm-15.73-3.644v-5.341c0-.214-.095-.418-.257-.557-.156-.132-3.796-3.296-3.133-8.956.193-1.68.738-3.368 1.617-5.019l.98-1.847c1.06-1.995 1.826-4.128 2.282-6.339l1.73-8.412c.187-.91.87-1.634 1.782-1.885.378-.104.767-.116 1.154-.036 1.344.276 2.213 1.595 1.936 2.94L52.86 54.88c-.081.394.172.78.566.86.05.01.1.016.148.016.34 0 .642-.238.714-.582l3.085-15.003c.213-1.033.01-2.086-.57-2.966-.58-.88-1.467-1.482-2.5-1.695-.3-.062-.607-.087-.912-.078v-9.965c2.75 4.464 8.8 14.3 9.49 15.562.964 1.766 1.985 4.483 1.385 7.398-1.057 5.138-5.429 21.207-5.473 21.369-.017.061-.026.126-.026.191v5.341H47.854z"/>
                        <path d="M59.062 79.304c-.492-.317-1.078-.424-1.651-.299-.573.124-1.063.465-1.38.957-.316.492-.423 1.078-.298 1.65.124.574.464 1.063.956 1.38.359.23.766.35 1.183.35.156 0 .312-.017.468-.05.573-.125 1.063-.464 1.38-.957.317-.493.423-1.078.299-1.651-.125-.573-.464-1.063-.957-1.38zm-.568 2.243c-.22.34-.675.44-1.016.22-.166-.107-.28-.27-.321-.462-.042-.192-.007-.389.1-.554.107-.166.27-.28.463-.32.052-.013.104-.018.157-.018.14 0 .276.04.396.118.341.218.44.675.221 1.016z"/>
                    </g>
                </g>
            </g>
        </g>
    </g>
</svg>
