<svg xmlns="http://www.w3.org/2000/svg" width="70" height="96" viewBox="0 0 70 96">
    <g fill="none" fill-rule="evenodd">
        <g fill-rule="nonzero">
            <g>
                <path fill="#E6E7E8" d="M69.087 54.361c.75-3.644-.494-6.978-1.669-9.134v-.001C66.471 43.5 56.906 27.988 55.691 26.02V9.548c0-3.515-2.86-6.374-6.376-6.374H9.656c-3.516 0-6.376 2.859-6.376 6.374v80.077C3.28 93.141 6.14 96 9.656 96H64.41c2.188 0 3.967-1.78 3.967-3.967v-4.738c0-2.187-1.78-3.967-3.967-3.967h-1.278V77.62c.396-1.458 4.84-17.842 5.954-23.259z" transform="translate(-214 -3162) translate(214 3162)"/>
                <g>
                    <g>
                        <path fill="#6DC9F7" d="M39.694 88.066v-4.738c0-1.753 1.421-3.174 3.174-3.174h2.038v-6.608S40.436 69.79 41.22 63.1c.232-2.014.894-3.953 1.848-5.745l1.067-2.011c1.117-2.104 1.928-4.357 2.408-6.69l1.883-9.157c.275-1.334 1.278-2.319 2.506-2.658V5.58C50.932 2.5 48.433 0 45.351 0H5.689C2.605 0 .107 2.5.107 5.581v80.076c0 3.083 2.5 5.582 5.582 5.582h37.178c-1.753 0-3.173-1.42-3.173-3.173z" transform="translate(-214 -3162) translate(214 3162) translate(.793 .793)"/>
                        <path fill="#D4FBFF" d="M44.906 73.546S40.436 69.79 41.22 63.1c.232-2.014.894-3.953 1.848-5.745l1.067-2.011c1.117-2.104 1.928-4.357 2.408-6.69l1.883-9.157c.275-1.334 1.278-2.319 2.506-2.658V8.65H.108v70.22h44.798v-5.324z" transform="translate(-214 -3162) translate(214 3162) translate(.793 .793)"/>
                        <path fill="#FFF" d="M0.107 76.381L44.906 76.381 44.906 78.869 0.107 78.869z" transform="translate(-214 -3162) translate(214 3162) translate(.793 .793)"/>
                        <g fill="#0089EF" transform="translate(-214 -3162) translate(214 3162) translate(.793 .793) translate(17.455 3.372)">
                            <path d="M15.184 1.983H.946c-.448 0-.814-.367-.814-.814V.914C.132.467.498.1.946.1h14.238c.447 0 .814.367.814.814v.255c0 .447-.367.814-.814.814z"/>
                            <circle cx="19.763" cy="1.041" r="1.033"/>
                            <path d="M12.945 83.442h-9.76c-1.087 0-1.977-.89-1.977-1.977v-.618c0-1.087.889-1.977 1.977-1.977h9.76c1.088 0 1.978.89 1.978 1.977v.618c-.001 1.087-.89 1.977-1.978 1.977z"/>
                        </g>
                    </g>
                    <g transform="translate(-214 -3162) translate(214 3162) translate(40.463 23.008)">
                        <path fill="#FFD7E5" d="M23.085 19.425C22.095 17.618 11.262.063 11.262.063v14.56c-1.228.34-2.232 1.325-2.506 2.659L6.872 26.44c-.48 2.332-1.29 4.585-2.407 6.689L3.398 35.14c-.954 1.791-1.616 3.73-1.849 5.745-.783 6.691 3.687 10.448 3.687 10.448v6.608h13.467v-6.608s4.8-17.63 5.97-23.312c.71-3.447-.516-6.63-1.588-8.596z"/>
                        <path fill="#6DC9F7" d="M20.775 69.025H3.198c-1.752 0-3.173-1.421-3.173-3.174v-4.738c0-1.752 1.42-3.173 3.173-3.173h17.578c1.752 0 3.173 1.42 3.173 3.173v4.738c0 1.753-1.42 3.174-3.174 3.174z"/>
                        <circle cx="16.94" cy="63.482" r="1.594" fill="#D4FBFF"/>
                    </g>
                    <path fill="#0089EF" d="M20.907 57.231c-.035 0-.07 0-.105-.002-1.102-.03-2.138-.533-2.844-1.38L8.359 44.333c-1.357-1.63-1.137-4.05.492-5.407 1.628-1.358 4.05-1.138 5.407.491l6.808 8.17 17.762-19.078c1.444-1.551 3.874-1.64 5.426-.194 1.551 1.445 1.639 3.875.194 5.426L23.717 56.008c-.727.782-1.746 1.223-2.81 1.223z" transform="translate(-214 -3162) translate(214 3162)"/>
                    <g fill="#3A2C60">
                        <path d="M.9 29.752c.438 0 .794-.355.794-.793v-6.68c0-.44-.356-.794-.794-.794-.437 0-.793.355-.793.793v6.68c0 .44.356.794.793.794z" transform="translate(-214 -3162) translate(214 3162)"/>
                        <path d="M65.913 51.188c.75-3.645-.493-6.979-1.668-9.134l-.001-.002c-.945-1.726-10.513-17.24-11.726-19.206V6.375C52.518 2.859 49.66 0 46.143 0H6.482C2.966 0 .106 2.86.106 6.375V19.24c0 .438.356.793.794.793.438 0 .793-.355.793-.793v-9.003h49.238v26.835c-1.275.554-2.207 1.68-2.49 3.057l-1.884 9.158c-.464 2.26-1.249 4.439-2.331 6.477l-1.066 2.009c-1.052 1.972-1.704 4.001-1.937 6.027-.716 6.11 2.654 9.89 3.68 10.887v4.182H1.693V32.132c0-.439-.355-.793-.793-.793-.437 0-.793.354-.793.793v54.32c0 3.515 2.86 6.374 6.376 6.374h54.755c2.188 0 3.967-1.78 3.967-3.966V84.12c0-2.187-1.78-3.967-3.967-3.967H59.96v-5.708c.395-1.458 4.84-17.842 5.953-23.258zM1.693 8.65V6.375c0-2.64 2.15-4.788 4.79-4.788h39.66c2.64 0 4.789 2.147 4.789 4.788V8.65H1.694zm0 77.802v-5.996h40.46c-1.441.595-2.46 2.012-2.46 3.665v4.739c0 .896.31 1.715.814 2.38H6.482c-2.64 0-4.788-2.148-4.788-4.788zm61.926-2.33v4.738c0 1.312-1.068 2.38-2.38 2.38H43.66c-1.312 0-2.38-1.068-2.38-2.38V84.12c0-1.312 1.068-2.38 2.38-2.38h17.577c1.313 0 2.38 1.068 2.38 2.38zm-17.126-3.968V74.34c0-.233-.104-.456-.281-.606-.17-.145-4.132-3.589-3.41-9.751.21-1.829.803-3.666 1.761-5.464l1.067-2.01c1.153-2.172 1.988-4.494 2.483-6.902l1.885-9.158c.204-.992.947-1.778 1.94-2.053.411-.113.834-.125 1.256-.039.709.146 1.319.559 1.716 1.163.399.605.538 1.328.392 2.037l-3.36 16.334c-.088.43.188.848.618.937.054.011.108.017.16.017.37 0 .7-.258.777-.634l3.36-16.334c.231-1.124.01-2.271-.62-3.23-.632-.957-1.6-1.612-2.724-1.843-.33-.069-.663-.097-.993-.088V25.871c2.993 4.86 9.58 15.568 10.333 16.942 1.048 1.922 2.16 4.88 1.507 8.055-1.15 5.593-5.91 23.088-5.958 23.263-.018.068-.028.138-.028.209v5.814H46.493z" transform="translate(-214 -3162) translate(214 3162)"/>
                        <path d="M58.695 84.482c-1.108-.712-2.587-.39-3.3.716-.711 1.108-.39 2.588.717 3.3.398.256.845.379 1.286.379.787 0 1.556-.386 2.013-1.095.711-1.107.39-2.587-.716-3.3zm-.619 2.442c-.239.37-.735.48-1.107.24-.371-.238-.479-.735-.24-1.107.153-.237.412-.366.675-.366.148 0 .298.041.432.126.37.24.479.736.24 1.107zM20.785 58.024l.122.001c1.282 0 2.517-.538 3.39-1.475L45.03 34.282c1.74-1.869 1.636-4.807-.233-6.547-.907-.844-2.09-1.283-3.324-1.24-1.237.045-2.381.568-3.224 1.474L21.1 46.387l-6.232-7.48c-.792-.95-1.907-1.535-3.14-1.646-1.232-.115-2.435.262-3.385 1.054-1.962 1.636-2.228 4.562-.593 6.526l9.598 11.518c.852 1.02 2.103 1.628 3.437 1.665zM9.36 39.534c.552-.46 1.234-.706 1.944-.706.094 0 .187.004.281.012.81.074 1.543.459 2.065 1.084l6.809 8.171c.146.175.36.28.587.285.231.009.447-.086.603-.252l17.763-19.08c.554-.595 1.306-.939 2.119-.968.815-.042 1.59.26 2.185.814 1.229 1.145 1.298 3.076.153 4.305L23.137 55.467c-.575.616-1.387.97-2.23.97h-.083c-.874-.025-1.696-.424-2.256-1.096L8.969 43.824c-1.075-1.29-.9-3.214.39-4.29z" transform="translate(-214 -3162) translate(214 3162)"/>
                    </g>
                </g>
            </g>
        </g>
    </g>
</svg>
