<svg xmlns="http://www.w3.org/2000/svg" width="96" height="86" viewBox="0 0 96 86">
    <g fill="none" fill-rule="evenodd">
        <g fill-rule="nonzero">
            <g>
                <path fill="#E6E7E8" d="M93.397 15.47H21.988V7.943c0-.19-.063-.374-.182-.525-1.97-2.51-4.923-3.948-8.1-3.948-5.33 0-9.736 3.997-10.253 9.38v60.14c0 7.026 5.716 12.743 12.743 12.743h77.202c1.405 0 2.548-1.143 2.548-2.549V18.018c0-1.405-1.143-2.548-2.549-2.548z" transform="translate(-201 -2331) translate(201 2331)"/>
                <g>
                    <path fill="#D4FBFF" d="M89.999 81.486H12.798C6.229 81.486.904 76.161.904 69.592V12.921h89.095c.938 0 1.699.76 1.699 1.699v65.166c0 .939-.76 1.7-1.7 1.7z" transform="translate(-201 -2331) translate(201 2331)"/>
                    <g>
                        <path fill="#FA759E" d="M.158 25.575L19.698 25.575 19.698 45.115.158 45.115zM27.344 25.575L46.884 25.575 46.884 45.115 27.344 45.115z" transform="translate(-201 -2331) translate(201 2331) translate(31.009 19.327)"/>
                        <path fill="#FFD7E5" d="M0.158 0.088L46.884 0.088 46.884 19.416 0.158 19.416z" transform="translate(-201 -2331) translate(201 2331) translate(31.009 19.327)"/>
                    </g>
                    <path fill="#FFF" d="M89.999 12.92h-72.26v2.55H90c.938 0 1.699.76 1.699 1.699V14.62c0-.938-.76-1.7-1.7-1.7z" transform="translate(-201 -2331) translate(201 2331)"/>
                    <path fill="#6DC9F7" d="M10.309.92C5.399.92 1.367 4.665.904 9.452v60.07c.415-4.837 4.46-8.637 9.405-8.637 3.019 0 5.7 1.42 7.43 3.625V4.546C16.01 2.342 13.329.921 10.31.921z" transform="translate(-201 -2331) translate(201 2331)"/>
                    <g fill="#3A2C60">
                        <path d="M51.556 44.903c0-.47-.38-.85-.85-.85h-19.54c-.469 0-.849.38-.849.85v19.54c0 .468.38.849.85.849h19.54c.47 0 .85-.38.85-.85v-19.54zm-19.54 2.05l7.72 7.72-7.72 7.719V46.953zm1.202-1.2h15.438l-7.72 7.718-7.718-7.719zm7.719 10.12l7.719 7.72H33.218l7.719-7.72zm1.201-1.2l7.72-7.72v15.439l-7.72-7.72zM50.707 69.044h-19.54c-.47 0-.85.381-.85.85s.38.85.85.85h19.54c.47 0 .85-.381.85-.85s-.381-.85-.85-.85zM50.707 74.142h-19.54c-.47 0-.85.38-.85.85 0 .468.38.849.85.849h19.54c.47 0 .85-.38.85-.85 0-.469-.381-.85-.85-.85zM78.742 44.903c0-.47-.38-.85-.85-.85h-19.54c-.47 0-.849.38-.849.85v19.54c0 .468.38.849.85.849h19.54c.47 0 .85-.38.85-.85v-19.54zm-19.54 2.05l7.72 7.72-7.72 7.719V46.953zm1.202-1.2h15.438l-7.72 7.718-7.718-7.719zm7.719 10.12l7.719 7.72H60.404l7.719-7.72zm1.2-1.2l7.72-7.72v15.439l-7.72-7.72zM77.893 69.044h-19.54c-.47 0-.85.381-.85.85s.38.85.85.85h19.54c.47 0 .85-.381.85-.85s-.382-.85-.85-.85zM77.893 74.142h-19.54c-.47 0-.85.38-.85.85 0 .468.38.849.85.849h19.54c.47 0 .85-.38.85-.85 0-.469-.382-.85-.85-.85zM78.742 19.416c0-.47-.38-.85-.85-.85H31.168c-.47 0-.85.38-.85.85v19.327c0 .47.38.85.85.85h46.726c.47 0 .85-.38.85-.85V19.416zm-46.726 1.27l20.292 8.394-20.292 8.393V20.686zm3.426-.42h38.174L54.529 28.16l-19.087-7.895zm19.088 9.733l19.087 7.895H35.442l19.088-7.895zm2.221-.92l20.292-8.393v16.786L56.751 29.08zM91.698 52.992c-.47 0-.85.38-.85.85v8.637c0 .469.38.85.85.85s.85-.381.85-.85v-8.637c0-.47-.381-.85-.85-.85z" transform="translate(-201 -2331) translate(201 2331)"/>
                        <path d="M89.999 12.071h-71.41V4.545c0-.19-.064-.375-.182-.525C16.438 1.51 13.485.071 10.31.071 4.979.071.572 4.07.054 9.451V69.591c0 7.027 5.717 12.744 12.744 12.744h77.2c1.406 0 2.55-1.144 2.55-2.549V65.877c0-.469-.38-.85-.85-.85s-.85.381-.85.85v13.91c0 .468-.38.85-.85.85h-77.2c-6.09 0-11.045-4.955-11.045-11.045v-.023c.39-4.395 4.143-7.835 8.556-7.835 2.651 0 5.116 1.203 6.763 3.3.222.284.605.395.945.278.342-.119.572-.44.572-.803V13.77H90c.469 0 .85.382.85.85v35.681c0 .47.379.85.849.85s.85-.38.85-.85V14.62c0-1.405-1.144-2.549-2.55-2.549zM16.89 62.416c-1.832-1.532-4.14-2.382-6.581-2.382-3.523 0-6.693 1.83-8.556 4.607v-21.56l-.001-.008-.003-33.54c.43-4.425 4.109-7.763 8.56-7.763 2.556 0 4.938 1.118 6.581 3.077v57.57z" transform="translate(-201 -2331) translate(201 2331)"/>
                    </g>
                </g>
            </g>
        </g>
    </g>
</svg>
