<svg xmlns="http://www.w3.org/2000/svg" width="97" height="77" viewBox="0 0 97 77">
    <g fill="none" fill-rule="evenodd">
        <g fill-rule="nonzero">
            <g>
                <g fill="#E6E7E8">
                    <path d="M47.213 25.446V8.906c0-.434-.352-.787-.787-.787-.434 0-.787.353-.787.787v3.837c-.85-1.884-2.14-3.813-4.106-5.064-4.909-3.123-11.884-.674-12.178-.569-.339.121-.551.456-.518.814.03.312.766 7.667 5.676 10.79 1.896 1.208 4.1 1.582 6.11 1.582 2.06 0 3.912-.395 5.016-.692v5.842c-3.77-2.907-13.265-8.62-21.722-.505-4.686 4.498-6.643 11.044-5.508 18.434 1.422 9.254 7.34 17.931 14.728 21.591 3.185 1.579 5.795 2.11 7.866 2.11 2.692 0 4.473-.899 5.422-1.564 1.678 1.177 5.962 3.083 13.288-.546 7.387-3.66 13.306-12.338 14.727-21.591 1.135-7.39-.82-13.935-5.507-18.433-8.454-8.114-17.95-2.402-21.72.504zM12.687 17.418c.746-1.042 2.285-3.64 1.568-6.551C13.02 5.849 7.55.537 7.315.314c-.24-.231-.601-.286-.901-.135-.298.15-.47.475-.424.806.12.89.27 3.488-.464 4.818-.351.636-1 1.199-1.688 1.795-1.107.96-2.361 2.048-2.823 3.813-.592 2.258.787 4.738 1.606 5.952L.172 27.687c-.017.076-.024.154-.02.232l2.551 40.523c.164 2.604 2.336 4.644 4.946 4.644 2.609 0 4.78-2.04 4.944-4.644l2.55-40.524c.005-.078-.001-.156-.02-.231l-2.436-10.27zM92.585 12.88L85.89 1.979c-.286-.466-1.055-.466-1.342 0l-6.69 10.903c-.075.123-.116.265-.116.411v56.545c0 1.79 1.458 3.248 3.249 3.248h8.462c1.79 0 3.248-1.457 3.248-3.248V13.292c0-.145-.04-.287-.117-.411z" transform="translate(-744 -2561) translate(744 2561) translate(3.148 3.148)"/>
                </g>
                <g>
                    <g>
                        <path fill="#FA759E" d="M49.504 18.624c-9.318-8.942-20.155-.009-21.963 1.606-1.807-1.615-12.645-10.548-21.963-1.607C-5.95 29.687 2.036 51.15 14.602 57.375c7.855 3.892 11.912 1.15 12.939.256 1.027.895 5.084 3.636 12.939-.255 12.566-6.226 20.552-27.688 9.024-38.752z" transform="translate(-744 -2561) translate(744 2561) translate(18.885 6.885)"/>
                        <path fill="#FFF" d="M49.504 18.624c-3.507-3.366-7.23-4.198-10.604-3.842 2.577.277 5.258 1.378 7.825 3.842 11.528 11.064 3.542 32.526-9.024 38.752-2.375 1.176-4.396 1.74-6.098 1.938 2.114.276 5.04-.037 8.877-1.938 12.566-6.226 20.552-27.688 9.024-38.752z" transform="translate(-744 -2561) translate(744 2561) translate(18.885 6.885)"/>
                        <path fill="#6DC9F7" d="M27.541 11.658s-6.85 2.46-11.49-.493c-4.642-2.952-5.316-10.2-5.316-10.2s6.85-2.46 11.49.493c4.642 2.952 5.316 10.2 5.316 10.2z" transform="translate(-744 -2561) translate(744 2561) translate(18.885 6.885)"/>
                    </g>
                    <g>
                        <path fill="#0089EF" d="M6.86 71.512c-2.2 0-4.02-1.71-4.159-3.906L.151 27.082h13.42l-2.55 40.524c-.138 2.196-1.96 3.906-4.16 3.906z" transform="translate(-744 -2561) translate(744 2561) translate(.787 .787)"/>
                        <path fill="#6DC9F7" d="M2.681 16.417L0.151 27.082 13.571 27.082 11.04 16.417z" transform="translate(-744 -2561) translate(744 2561) translate(.787 .787)"/>
                        <path fill="#FFD7E5" d="M11.08 16.417c.555-.715 2.33-3.285 1.625-6.149C11.51 5.414 5.985.094 5.985.094s.465 3.452-.555 5.302C4.409 7.246 1.669 8.232.99 10.823c-.578 2.209 1.165 4.86 1.692 5.593h8.398z" transform="translate(-744 -2561) translate(744 2561) translate(.787 .787)"/>
                    </g>
                    <path fill="#FFD7E5" d="M78.53 13.292L85.22 2.39l6.694 10.902v56.546c0 1.36-1.102 2.461-2.46 2.461H80.99c-1.36 0-2.461-1.102-2.461-2.461V13.292z" transform="translate(-744 -2561) translate(744 2561)"/>
                    <path fill="#0089EF" d="M78.53 13.292h13.384v56.546c0 1.36-1.102 2.461-2.46 2.461H80.99c-1.36 0-2.461-1.102-2.461-2.461V13.292z" transform="translate(-744 -2561) translate(744 2561)"/>
                    <path fill="#FA759E" d="M78.53 66.58v3.258c0 1.36 1.102 2.461 2.461 2.461h8.462c1.36 0 2.461-1.102 2.461-2.461V66.58H78.53z" transform="translate(-744 -2561) translate(744 2561)"/>
                    <g fill="#3A2C60">
                        <path d="M47.213 25.446V8.906c0-.434-.352-.787-.787-.787-.434 0-.787.353-.787.787v3.837c-.85-1.884-2.14-3.813-4.106-5.064-4.909-3.123-11.884-.674-12.178-.569-.339.121-.551.456-.518.814.03.312.766 7.667 5.676 10.79 1.896 1.208 4.1 1.582 6.11 1.582 2.06 0 3.912-.395 5.016-.692v5.842c-3.77-2.907-13.265-8.62-21.722-.505-4.686 4.498-6.643 11.044-5.508 18.434 1.422 9.254 7.34 17.931 14.728 21.591 3.185 1.579 5.795 2.11 7.866 2.11 2.692 0 4.473-.899 5.422-1.564 1.678 1.177 5.962 3.083 13.288-.546 7.387-3.66 13.306-12.338 14.727-21.591 1.135-7.39-.82-13.935-5.507-18.433-8.454-8.114-17.95-2.402-21.72.504zm-11.855-8.06c-3.492-2.221-4.584-7.223-4.868-8.983 1.713-.49 6.699-1.622 10.199.604 3.491 2.222 4.584 7.223 4.868 8.984-1.714.488-6.707 1.617-10.2-.605zm37.528 25.75c-1.327 8.634-7.03 17.03-13.87 20.42-7.39 3.66-11.11 1.206-12.073.367-.296-.258-.738-.258-1.033 0-.964.84-4.683 3.294-12.072-.367-6.842-3.39-12.545-11.787-13.872-20.42-1.055-6.868.736-12.927 5.042-17.06 2.85-2.734 5.85-3.7 8.67-3.7 5.843 0 10.907 4.148 12.224 5.326.298.266.75.266 1.048 0 1.954-1.745 12.143-10.025 20.894-1.625 4.306 4.132 6.097 10.19 5.042 17.058z" transform="translate(-744 -2561) translate(744 2561)"/>
                        <path d="M65.515 37.839c.027 0 .054 0 .081-.004.432-.044.747-.43.703-.862-.376-3.688-1.607-6.957-3.659-9.718-.26-.349-.753-.422-1.1-.163-.35.26-.422.753-.163 1.101 1.88 2.53 3.01 5.538 3.357 8.94.04.404.382.706.781.706zM65.62 40.431c-.437-.035-.81.293-.843.725-.065.872-.18 1.76-.337 2.644-.078.427.207.836.635.913.048.009.094.013.14.013.374 0 .706-.267.774-.648.168-.935.289-1.879.358-2.804.032-.433-.293-.81-.726-.843zM12.687 17.418c.746-1.042 2.285-3.64 1.568-6.551C13.02 5.849 7.55.537 7.315.314c-.24-.231-.601-.286-.901-.135-.298.15-.47.475-.424.806.12.89.27 3.488-.464 4.818-.351.636-1 1.199-1.688 1.795-1.107.96-2.361 2.048-2.823 3.813-.592 2.258.787 4.738 1.606 5.952L.172 27.687c-.017.076-.024.154-.02.232l2.551 40.523c.164 2.604 2.336 4.644 4.946 4.644 2.609 0 4.78-2.04 4.944-4.644l2.55-40.524c.005-.078-.001-.156-.02-.231l-2.436-10.27zm-8.597.573h7.115l2.157 9.091H1.933l2.157-9.091zM2.538 11.81c.338-1.294 1.307-2.134 2.332-3.023.761-.66 1.549-1.343 2.034-2.224.565-1.023.733-2.428.756-3.597 1.675 1.881 4.312 5.213 5.067 8.277.545 2.211-.625 4.268-1.258 5.174H3.88c-.92-1.388-1.702-3.235-1.343-4.607zm8.484 56.533c-.112 1.777-1.594 3.17-3.374 3.17-1.781 0-3.263-1.393-3.375-3.17L1.775 28.656H13.52l-2.497 39.687zM92.647 13.021l-.03-.07c-.012-.023-.018-.048-.031-.07L85.892 1.978c-.286-.466-1.055-.466-1.342 0l-6.69 10.903c-.076.123-.116.265-.116.411v56.545c0 1.79 1.458 3.248 3.249 3.248h8.462c1.79 0 3.248-1.457 3.248-3.248v-25.64c0-.435-.353-.788-.787-.788-.434 0-.787.353-.787.787v21.597H79.318V14.079h11.811v14.773c0 .434.353.787.787.787.434 0 .787-.353.787-.787v-15.56c-.002-.093-.024-.183-.056-.27zm-6.21-7.144l4.07 6.629H79.937l4.067-6.629h2.435zm4.69 61.49v2.47c0 .924-.75 1.675-1.674 1.675h-8.462c-.923 0-1.675-.751-1.675-1.674v-2.47h11.812z" transform="translate(-744 -2561) translate(744 2561)"/>
                        <path d="M91.914 31.6c-.434 0-.786.353-.786.787v8.042c0 .434.352.786.786.786.435 0 .787-.352.787-.786v-8.042c0-.434-.351-.786-.787-.786z" transform="translate(-744 -2561) translate(744 2561)"/>
                    </g>
                </g>
            </g>
        </g>
    </g>
</svg>
