<svg xmlns="http://www.w3.org/2000/svg" width="97" height="116" viewBox="0 0 97 116">
    <g fill="none" fill-rule="evenodd">
        <g fill-rule="nonzero">
            <g>
                <g fill="#E6E7E8">
                    <path d="M82.308 67.267c2.2-2.881 3.523-6.465 3.523-10.362 0-9.445-7.683-17.128-17.127-17.128-7.792 0-14.372 5.235-16.44 12.368-1.885-.714-3.917-1.123-6.049-1.123-2.131 0-4.164.408-6.048 1.123-2.068-7.133-8.65-12.368-16.44-12.368-9.444 0-17.127 7.683-17.127 17.128 0 3.896 1.323 7.481 3.523 10.362C4.25 69.227 0 74.767 0 81.29V98.13c0 1.53 1.244 2.773 2.773 2.773h19.715v8.472c0 1.528 1.244 2.772 2.773 2.772H67.17c1.529 0 2.773-1.244 2.773-2.772v-8.472h19.715c1.53 0 2.773-1.244 2.773-2.773V81.29c0-6.523-4.25-12.062-10.122-14.023z" transform="translate(-744 -2124) translate(744 2124) translate(3.697 3.697)"/>
                    <path d="M22.486 36.385H40.24l5.224 7.303c.174.242.454.386.751.386.298 0 .579-.144.752-.386l5.224-7.303h17.752c3.585 0 6.264-3.67 6.264-6.952V6.418c0-3.454-2.81-6.264-6.264-6.264H22.486c-3.454 0-6.264 2.811-6.264 6.264v23.015c0 3.282 2.68 6.952 6.264 6.952z" transform="translate(-744 -2124) translate(744 2124) translate(3.697 3.697)"/>
                </g>
                <g>
                    <g>
                        <g>
                            <path fill="#FFD7E5" d="M28.01 27.104c-2.964 3.269-7.232 5.334-11.992 5.334-2.386 0-4.648-.52-6.684-1.449-.623 2.79-1.955 5.313-3.811 7.36 6.186 1.391 10.81 6.909 10.81 13.515v7.447h20.64c1.02 0 1.848-.828 1.848-1.849V40.62c0-6.606-4.625-12.123-10.81-13.516z" transform="translate(-744 -2124) translate(744 2124) translate(.924 40.67) translate(51.761)"/>
                            <path fill="#FFF" d="M16.018.032C8.275.032 1.811 5.467.207 12.728c5.614 2.545 9.527 8.185 9.527 14.752 0 1.206-.147 2.374-.399 3.504 2.04.926 4.298 1.454 6.684 1.454 8.95 0 16.203-7.254 16.203-16.203 0-8.948-7.256-16.203-16.204-16.203z" transform="translate(-744 -2124) translate(744 2124) translate(.924 40.67) translate(51.761)"/>
                        </g>
                        <g>
                            <path fill="#FFD7E5" d="M22.488 51.864c0-6.606 4.625-12.124 10.81-13.516-1.855-2.046-3.188-4.568-3.81-7.359-2.036.93-4.299 1.45-6.685 1.45-4.76 0-9.027-2.066-11.991-5.335C4.624 28.497 0 34.014 0 40.62v16.842c0 1.021.827 1.849 1.849 1.849h20.64v-7.447z" transform="translate(-744 -2124) translate(744 2124) translate(.924 40.67)"/>
                            <path fill="#FFF" d="M29.486 30.984c-.251-1.13-.398-2.298-.398-3.504 0-6.566 3.912-12.207 9.527-14.752C37.01 5.468 30.546.032 22.803.032 13.854.032 6.6 7.286 6.6 16.235c0 8.95 7.254 16.203 16.203 16.203 2.386 0 4.644-.528 6.683-1.454z" transform="translate(-744 -2124) translate(744 2124) translate(.924 40.67)"/>
                        </g>
                        <g>
                            <path fill="#FA759E" d="M34.868 27.257c-2.964 3.269-7.231 5.334-11.992 5.334-4.76 0-9.027-2.066-11.991-5.334C4.698 28.649.074 34.166.074 40.773v16.842c0 1.02.827 1.848 1.849 1.848H43.83c1.022 0 1.849-.828 1.849-1.848V40.773c0-6.606-4.624-12.123-10.81-13.516z" transform="translate(-744 -2124) translate(744 2124) translate(.924 40.67) translate(22.414 11.092)"/>
                            <g fill="#FFF" transform="translate(-744 -2124) translate(744 2124) translate(.924 40.67) translate(22.414 11.092)">
                                <path d="M43.83 56.69H1.923c-1.022 0-1.85-.827-1.85-1.848v2.773c0 1.02.828 1.848 1.85 1.848H43.83c1.022 0 1.849-.827 1.849-1.848v-2.773c0 1.021-.827 1.848-1.849 1.848z"/>
                                <circle cx="22.876" cy="16.388" r="16.203"/>
                            </g>
                        </g>
                    </g>
                    <path fill="#6DC9F7" d="M22.486 1.079h47.458c2.95 0 5.34 2.39 5.34 5.34v23.014c0 2.95-2.392 6.028-5.34 6.028H51.717l-5.502 7.69-5.501-7.69H22.486c-2.949 0-5.34-3.078-5.34-6.027V6.42c0-2.95 2.391-5.34 5.34-5.34z" transform="translate(-744 -2124) translate(744 2124)"/>
                    <g fill="#3A2C60">
                        <path d="M82.298 67.28c2.205-2.883 3.532-6.473 3.532-10.375 0-9.444-7.683-17.128-17.127-17.128-7.79 0-14.356 5.24-16.424 12.373-1.889-.718-3.927-1.13-6.064-1.13s-4.175.412-6.063 1.13c-2.069-7.133-8.634-12.373-16.425-12.373-9.444 0-17.127 7.683-17.127 17.128 0 3.902 1.327 7.491 3.532 10.375C4.256 69.237 0 74.765 0 81.29V98.13c0 1.53 1.244 2.773 2.773 2.773h19.715v8.472c0 1.528 1.244 2.772 2.773 2.772H67.17c1.529 0 2.773-1.244 2.773-2.772v-8.472h19.715c1.53 0 2.773-1.244 2.773-2.773V81.29c0-6.525-4.256-12.053-10.132-14.01zM68.703 41.627c8.425 0 15.278 6.854 15.278 15.279s-6.853 15.278-15.278 15.278c-1.993 0-3.883-.414-5.629-1.114.165-.951.268-1.923.268-2.92 0-6.652-3.818-12.415-9.371-15.251 1.766-6.486 7.695-11.272 14.732-11.272zm-7.21 26.522c0 8.425-6.853 15.279-15.278 15.279s-15.279-6.854-15.279-15.28c0-8.424 6.854-15.278 15.28-15.278 8.424 0 15.278 6.855 15.278 15.279zM23.728 41.627c7.037 0 12.966 4.787 14.732 11.272-5.553 2.836-9.371 8.6-9.371 15.25 0 .998.103 1.97.268 2.92-1.746.701-3.635 1.115-5.63 1.115-8.423 0-15.277-6.853-15.277-15.278s6.854-15.28 15.278-15.28zM2.773 99.056c-.51 0-.924-.415-.924-.925V81.29c0-5.975 4.074-11.004 9.586-12.485 3.116 3.217 7.47 5.227 12.292 5.227 2.132 0 4.161-.419 6.044-1.136.597 2.064 1.574 3.963 2.849 5.628-5.875 1.957-10.132 7.485-10.132 14.01v6.522H2.773zm65.32 10.32c0 .509-.414.924-.924.924H25.261c-.51 0-.924-.415-.924-.924V92.534c0-5.975 4.073-11.004 9.587-12.485 3.116 3.217 7.47 5.227 12.291 5.227 4.821 0 9.177-2.01 12.292-5.227 5.512 1.482 9.586 6.511 9.586 12.485v16.842zM90.582 98.13c0 .51-.414.925-.925.925H69.942v-6.522c0-6.525-4.256-12.053-10.131-14.01 1.273-1.665 2.251-3.564 2.848-5.628 1.884.717 3.913 1.136 6.044 1.136 4.822 0 9.176-2.01 12.292-5.227 5.512 1.48 9.587 6.51 9.587 12.485V98.13z" transform="translate(-744 -2124) translate(744 2124)"/>
                        <path d="M22.486 36.385H40.24l5.224 7.303c.174.242.454.386.751.386.298 0 .579-.144.752-.386l5.224-7.303h17.752c3.585 0 6.264-3.67 6.264-6.952V6.418c0-3.454-2.81-6.264-6.264-6.264h-14.6c-.51 0-.924.414-.924.925 0 .51.413.924.925.924h14.6c2.435 0 4.416 1.98 4.416 4.415v23.015c0 2.36-1.929 5.103-4.415 5.103H51.717c-.298 0-.579.144-.752.386l-4.75 6.64-4.75-6.64c-.174-.241-.454-.385-.751-.385H22.486c-2.486 0-4.415-2.744-4.415-5.104V6.418c0-2.434 1.982-4.415 4.415-4.415h14.717c.511 0 .924-.414.924-.924s-.413-.925-.924-.925H22.486c-3.454 0-6.264 2.811-6.264 6.264v23.015c0 3.282 2.68 6.952 6.264 6.952z" transform="translate(-744 -2124) translate(744 2124)"/>
                        <path d="M41.247 2.003h10.052c.51 0 .924-.414.924-.924S51.81.154 51.3.154H41.247c-.511 0-.924.414-.924.925 0 .51.413.924.924.924z" transform="translate(-744 -2124) translate(744 2124)"/>
                    </g>
                    <g fill="#FFF" transform="translate(-744 -2124) translate(744 2124) translate(27.267 13.633)">
                        <circle cx="4.478" cy="4.626" r="4.478"/>
                        <circle cx="18.948" cy="4.626" r="4.478"/>
                        <circle cx="33.418" cy="4.626" r="4.478"/>
                    </g>
                </g>
            </g>
        </g>
    </g>
</svg>
