<svg xmlns="http://www.w3.org/2000/svg" width="69" height="69" viewBox="0 0 69 69">
    <g fill="none" fill-rule="evenodd">
        <g>
            <g transform="translate(-117 -1682) translate(117 1682)">
                <circle cx="34.5" cy="34.5" r="34.5" fill="#04F" fill-opacity=".1"/>
                <g fill-rule="nonzero" transform="translate(11 10)">
                    <path fill="#E6E7E8" d="M42.442 24.89H27.71c-.518 0-1.018.082-1.488.23v-4.33c0-.204-.016-.403-.04-.6h1.699v3.842c0 .152.088.291.226.356.053.025.11.037.167.037.09 0 .18-.03.251-.09l5.006-4.145h7.299c2.728 0 4.948-2.22 4.948-4.948V6.608c0-2.729-2.22-4.948-4.948-4.948H26.097c-2.728 0-4.948 2.22-4.948 4.948v8.634c0 .203.016.402.04.6H6.542c-2.729 0-4.949 2.22-4.949 4.948v8.634c0 2.729 2.22 4.948 4.949 4.948h7.667l4.697 4.826c.076.077.178.119.282.119.046 0 .093-.009.137-.025.146-.054.246-.189.256-.345l.278-4.574h1.414c.518 0 1.018-.081 1.488-.23v4.33c0 2.73 2.22 4.949 4.948 4.949h1.39v4.1c0 .154.09.294.231.358.052.023.107.035.162.035.094 0 .187-.034.26-.098l5.003-4.395h7.685c2.729 0 4.949-2.22 4.949-4.948v-8.635c.001-2.729-2.219-4.948-4.947-4.948z"/>
                    <path fill="#D4FBFF" d="M40.868 23.71H26.136c-.671 0-1.307.15-1.881.41v3.73c0 1.844-1.098 3.428-2.673 4.145V36.9c0 2.516 2.039 4.555 4.554 4.555h1.784v4.493l5.115-4.493h7.833c2.516 0 4.555-2.039 4.555-4.555v-8.634c0-2.515-2.04-4.555-4.555-4.555z"/>
                    <path fill="#3A2C60" d="M39.284 32.739c.946-2.178.877-4.292-.395-5.565-1.274-1.273-3.39-1.341-5.57-.393-2.179-.948-4.295-.88-5.568.393-1.272 1.273-1.341 3.387-.395 5.565-.199.455-.358.912-.467 1.363-.416 1.73-.107 3.222.872 4.2.681.682 1.63 1.042 2.745 1.042.496 0 1.024-.071 1.57-.212.413-.106.83-.252 1.244-.431.415.18.83.325 1.244.431.546.14 1.074.212 1.57.212 1.114 0 2.064-.36 2.745-1.042.978-.977 1.288-2.469.872-4.2-.109-.451-.268-.908-.467-1.363zm-3.17-5.839c.885 0 1.657.269 2.219.83.931.932 1.055 2.444.487 4.089-.512-.904-1.182-1.787-1.99-2.595-.819-.818-1.696-1.48-2.582-1.98.652-.225 1.283-.344 1.865-.344zm2.31 5.854c-.488.995-1.206 2.007-2.142 2.942-.912.913-1.93 1.639-2.962 2.135-1.033-.496-2.05-1.223-2.963-2.135-.935-.935-1.653-1.946-2.141-2.942.496-1.03 1.227-2.05 2.15-2.974.939-.938 1.955-1.663 2.954-2.15.998.487 2.014 1.212 2.953 2.15.924.924 1.655 1.944 2.151 2.974zM28.307 27.73c.562-.561 1.335-.83 2.22-.83.582 0 1.213.12 1.865.344-.886.501-1.763 1.162-2.582 1.98-.808.809-1.478 1.691-1.99 2.595-.568-1.644-.444-3.157.487-4.089zm3.572 10.64c-1.492.386-2.778.16-3.562-.624-.777-.777-1.012-2.006-.663-3.46.048-.199.107-.399.175-.6.5.88 1.158 1.753 1.972 2.567.795.795 1.67 1.458 2.571 1.968-.164.055-.329.107-.493.15zm6.444-.624c-.783.784-2.07 1.01-3.562.624-.164-.042-.328-.094-.493-.149.9-.51 1.776-1.173 2.571-1.968.813-.814 1.472-1.686 1.972-2.566.068.2.127.4.175.6.35 1.453.114 2.682-.663 3.46z"/>
                    <path fill="#0089EF" d="M20.086 14.68c-.128-.01-.256-.018-.386-.018H4.968c-2.515 0-4.555 2.038-4.555 4.554v8.634c0 2.516 2.04 4.555 4.555 4.555h7.833l4.814 4.945.301-4.945H19.7c2.515 0 4.555-2.04 4.555-4.555v-8.634c0-.348-.043-.686-.117-1.012-1.993-.168-3.62-1.618-4.052-3.523z"/>
                    <path fill="#D4FBFF" d="M16.012 23.339c0-2.012-1.614-3.646-3.618-3.678-2.023-.032-3.734 1.648-3.738 3.67-.002 1.146.52 2.168 1.337 2.844.476.393.814.926.993 1.516l.086.284h2.524l.1-.328c.172-.568.5-1.082.96-1.457.828-.674 1.356-1.7 1.356-2.851z"/>
                    <path fill="#6DC9F7" d="M10.858 27.976v1.097c0 .533.38.976.882 1.077v.111c0 .222.18.402.402.402h.384c.222 0 .402-.18.402-.402v-.111c.503-.1.881-.544.881-1.077v-1.097h-2.95z"/>
                    <circle cx="33.317" cy="32.738" r="2.587" fill="#6DC9F7" transform="rotate(-45 33.317 32.738)"/>
                    <circle cx="28.212" cy="27.457" r="1.19" fill="#FA759E"/>
                    <path fill="#0089EF" d="M38.838 26.367c-.602 0-1.09.488-1.09 1.09 0 .601.488 1.09 1.09 1.09.601 0 1.09-.489 1.09-1.09 0-.602-.489-1.09-1.09-1.09zM28.443 36.783c-.657 0-1.19.533-1.19 1.19 0 .658.533 1.19 1.19 1.19.657 0 1.19-.532 1.19-1.19 0-.657-.533-1.19-1.19-1.19z"/>
                    <path fill="#FA759E" d="M38.322 37.034c-.602 0-1.09.487-1.09 1.089s.488 1.09 1.09 1.09c.601 0 1.09-.488 1.09-1.09 0-.602-.488-1.09-1.09-1.09zM39.255.48H24.524c-2.516 0-4.555 2.038-4.555 4.554v8.634c0 2.516 2.039 4.555 4.555 4.555H26.7v4.235l5.114-4.235h7.44c2.516 0 4.555-2.04 4.555-4.555V5.034c0-2.516-2.039-4.555-4.555-4.555z"/>
                    <path fill="#FFF" d="M21.15 13.668V5.034c0-2.516 2.038-4.555 4.554-4.555h-1.18c-2.516 0-4.555 2.04-4.555 4.555v8.634c0 2.516 2.039 4.555 4.555 4.555h1.18c-2.516 0-4.555-2.04-4.555-4.555z"/>
                    <path fill="#6DC9F7" d="M37.741 12.546l-8.622-8.55-3.58-.795.852 3.567 8.622 8.55c.765.753 1.997.744 2.75-.022.753-.765.744-1.996-.022-2.75z"/>
                    <g fill="#3A2C60">
                        <path d="M40.868 23.317H26.136c-.519 0-1.017.083-1.488.233v-4.334c0-.203-.016-.403-.04-.6h1.7v3.842c0 .153.088.292.225.357.054.025.11.037.168.037.09 0 .179-.03.251-.09l5.005-4.145h7.299c2.728 0 4.948-2.22 4.948-4.949V5.034c0-2.728-2.22-4.948-4.948-4.948h-1.518c-.217 0-.393.176-.393.393 0 .217.176.394.393.394h1.518c2.294 0 4.161 1.867 4.161 4.161v8.634c0 2.295-1.867 4.162-4.161 4.162h-7.44c-.092 0-.18.032-.251.09l-4.47 3.702v-3.399c0-.217-.177-.393-.394-.393h-2.177c-2.295 0-4.162-1.867-4.162-4.162V5.034c0-2.294 1.867-4.161 4.162-4.161h6.198c.217 0 .393-.177.393-.394 0-.217-.176-.393-.393-.393h-6.198c-2.73 0-4.949 2.22-4.949 4.948v8.634c0 .204.016.403.04.6H4.968c-2.729 0-4.948 2.22-4.948 4.948v8.634c0 2.73 2.22 4.949 4.948 4.949h7.667l4.698 4.825c.075.077.177.119.281.119.046 0 .093-.008.137-.024.146-.055.247-.19.256-.345l.279-4.575h1.413c.518 0 1.018-.081 1.488-.23v4.33c0 2.73 2.22 4.95 4.948 4.95h1.39v4.098c0 .155.09.295.232.358.052.024.107.035.162.035.093 0 .186-.033.26-.098l5.002-4.394h7.685c2.729 0 4.949-2.22 4.949-4.948v-8.635c.001-2.729-2.218-4.948-4.947-4.948zm-22.952 8.695c-.208 0-.38.161-.392.37l-.248 4.056-4.192-4.307c-.074-.076-.176-.12-.282-.12H4.968c-2.294 0-4.161-1.866-4.161-4.16v-8.635c0-2.295 1.867-4.162 4.161-4.162H19.7c.026 0 .051.005.078.005.537 1.828 2.1 3.215 4.022 3.498.036.215.061.434.061.659v8.634c0 2.294-1.867 4.161-4.161 4.161h-1.784zm27.114 4.887c0 2.295-1.867 4.162-4.162 4.162h-7.833c-.096 0-.188.035-.26.098l-4.461 3.919v-3.624c0-.217-.177-.393-.394-.393h-1.784c-2.294 0-4.161-1.867-4.161-4.162V32.24c1.586-.825 2.673-2.481 2.673-4.39v-3.465c.463-.18.964-.281 1.488-.281h14.732c2.295 0 4.162 1.867 4.162 4.161V36.9z"/>
                        <path d="M12.4 19.268c-1.093-.026-2.118.401-2.909 1.178-.79.777-1.227 1.801-1.229 2.886-.002 1.22.538 2.368 1.48 3.147.38.313.663.739.83 1.23-.065.07-.107.163-.107.267v1.098c0 .603.365 1.139.903 1.37.082.35.398.613.774.613h.384c.376 0 .692-.262.774-.613.538-.232.903-.767.903-1.37v-1.098c0-.105-.042-.2-.11-.27.158-.486.436-.904.812-1.21.953-.778 1.5-1.928 1.5-3.157 0-2.21-1.796-4.036-4.005-4.07zm1.016 9.806c0 .334-.238.625-.565.69-.184.037-.317.199-.317.386l-.008.12-.393-.008v-.112c0-.187-.132-.349-.316-.385-.328-.066-.566-.356-.566-.69v-.705h2.165v.704zm.992-3.189c-.512.418-.889.988-1.09 1.648l-.014.05h-.577v-3.371h.695c.217 0 .393-.177.393-.394 0-.217-.176-.393-.393-.393h-2.057c-.217 0-.393.176-.393.393 0 .217.176.394.393.394h.575v3.37h-.577l-.001-.005c-.207-.682-.593-1.272-1.119-1.705-.761-.629-1.196-1.554-1.195-2.54.002-.871.354-1.697.994-2.325.64-.628 1.478-.966 2.344-.952 1.782.028 3.232 1.501 3.232 3.284 0 .991-.44 1.919-1.21 2.546zM18.43 23.42h-1.155c-.217 0-.393.177-.393.394 0 .217.176.393.393.393h1.154c.217 0 .394-.176.394-.393 0-.217-.176-.394-.394-.394zM7.392 23.42H6.238c-.217 0-.393.177-.393.394 0 .217.176.393.393.393h1.154c.218 0 .394-.176.394-.393 0-.217-.176-.394-.394-.394zM18 20.241c.203-.076.306-.303.229-.507-.076-.204-.304-.306-.507-.23l-1.08.406c-.203.076-.306.304-.23.507.06.158.21.255.369.255.046 0 .093-.008.138-.025l1.08-.406zM8.025 19.91l-1.08-.405c-.202-.076-.43.026-.506.23-.077.203.026.43.23.506l1.08.406c.045.017.092.025.138.025.159 0 .31-.097.368-.255.077-.203-.026-.43-.23-.506zM12.334 18.722c.217 0 .393-.177.393-.394v-.985c0-.218-.176-.394-.393-.394-.217 0-.393.176-.393.394v.985c0 .217.176.394.393.394zM32.59.873h3.377c.217 0 .393-.177.393-.394 0-.217-.176-.393-.393-.393H32.59c-.217 0-.393.176-.393.393 0 .217.176.394.393.394zM29.396 3.716c-.002 0-.003 0-.003-.002-.033-.031-.072-.055-.113-.073l-.038-.015c-.012-.004-.024-.011-.038-.014l-3.466-.77-.938-.954c-.152-.156-.401-.157-.556-.005-.155.152-.157.401-.005.556l.943.96.826 3.46c.003.013.01.025.015.037.004.013.008.024.014.036.02.042.044.082.077.115l8.622 8.55c.047.046.101.08.15.121.007.008.01.017.016.024.024.024.054.038.082.054.413.309.9.472 1.393.472.605 0 1.21-.232 1.666-.696.822-.835.88-2.131.195-3.04-.014-.023-.024-.048-.044-.068-.007-.007-.017-.01-.025-.016-.05-.061-.094-.126-.151-.182l-8.622-8.55zm-1.055.51l-1.732 1.76-.54-2.265 2.272.505zm-1.395 2.538l2.177-2.21 8.247 8.177-2.199 2.19-8.225-8.157zm10.537 8.256c-.445.452-1.1.57-1.658.36l2-1.992c.205.548.094 1.189-.342 1.632z"/>
                    </g>
                </g>
            </g>
        </g>
    </g>
</svg>
