<svg xmlns="http://www.w3.org/2000/svg" width="69" height="69" viewBox="0 0 69 69">
    <g fill="none" fill-rule="evenodd">
        <g>
            <g transform="translate(-115 -1365) translate(115 1365)">
                <circle cx="34.5" cy="34.5" r="34.5" fill="#04F" fill-opacity=".1"/>
                <g fill-rule="nonzero">
                    <g fill="#E6E7E8">
                        <path d="M27.27 32.984l-4.33 3.067c-.398.282-.866.442-1.355.427l-7.466.006c-.06 0-.098-.031-.116-.05-.018-.018-.047-.058-.044-.117.004-.085.074-.152.16-.152l3.364.003h.002c.972 0 1.755-.76 1.783-1.731.028-.973-.74-1.795-1.711-1.834l-6.019-.242c-1.534-.056-3.061.505-4.186 1.554l-6.895 6.47C-.03 40.84-.056 41.61.4 42.097l3.815 4.09c.238.256.562.384.887.384.296 0 .594-.107.828-.325 1.085-1.01 2.131-1.98 3.034-2.803.404-.368.906-.587 1.452-.632 4.633-.382 8.016-.667 9.784-.824 1.005-.089 1.97-.448 2.792-1.037l6.695-4.809c.427-.353.682-.851.718-1.404.035-.553-.153-1.081-.53-1.486-.678-.725-1.798-.839-2.605-.267zM44.345 4.553L40.53.463c-.456-.488-1.225-.516-1.715-.06-1.085 1.012-2.132 1.982-3.034 2.804-.405.369-.906.587-1.452.632-4.631.382-8.015.667-9.784.824-1.006.089-1.971.448-2.792 1.037l-6.695 4.809c-.427.353-.682.851-.718 1.404-.036.553.153 1.08.53 1.486.677.724 1.797.839 2.605.267l4.33-3.067c.395-.28.859-.428 1.344-.428h.011l7.466-.005c.06 0 .099.031.116.05.018.018.047.058.044.117-.004.085-.074.152-.16.152l-3.365-.003h-.002c-.972 0-1.755.76-1.783 1.731-.028.973.74 1.795 1.711 1.834l6.02.242c.075.003.15.005.226.005 1.458 0 2.89-.561 3.96-1.558l6.895-6.47c.487-.457.512-1.225.057-1.713z" transform="translate(11 11) translate(1.524 1.429)"/>
                        <path d="M27.615 14.942c-1.68 0-3.26.655-4.447 1.843l-.796.795-.795-.795c-1.188-1.188-2.767-1.843-4.447-1.843-1.68 0-3.26.655-4.447 1.843-1.188 1.187-1.843 2.767-1.843 4.447 0 1.68.654 3.259 1.843 4.447l8.11 8.11c.436.436 1.007.654 1.58.654.571 0 1.143-.218 1.578-.654l8.11-8.11c1.189-1.188 1.843-2.767 1.843-4.447 0-1.68-.654-3.26-1.842-4.447-1.188-1.188-2.768-1.843-4.447-1.843z" transform="translate(11 11) translate(1.524 1.429)"/>
                    </g>
                    <g>
                        <g fill="#FFD7E5">
                            <path d="M5.315 45.518c1.087-1.012 2.134-1.984 3.037-2.807.463-.421 1.05-.676 1.674-.728 2.109-.174 7.251-.6 9.782-.824.94-.083 1.84-.418 2.606-.968l6.675-4.793c.716-.592.786-1.665.152-2.345-.551-.59-1.454-.683-2.113-.216l-4.33 3.067c-.459.325-1.008.498-1.571.496l-7.467.006c-.306 0-.55-.256-.534-.561.014-.285.249-.51.534-.51l3.366.004c.762 0 1.386-.606 1.409-1.368.022-.771-.58-1.417-1.351-1.448l-6.019-.241c-1.447-.058-2.856.465-3.914 1.452l-6.896 6.47c-.337.316-.354.846-.04 1.183l3.816 4.09c.315.338.846.356 1.184.04zM38.713.225c-1.087 1.012-2.134 1.983-3.038 2.806-.462.422-1.05.677-1.673.729-2.109.174-7.252.6-9.782.823-.94.083-1.84.418-2.606.969l-6.675 4.792c-.717.592-.786 1.666-.152 2.346.55.59 1.454.683 2.113.216l4.33-3.067c.459-.325 1.008-.499 1.57-.497l7.467-.005c.306 0 .55.255.535.56-.014.286-.249.51-.535.51l-3.365-.003c-.762-.001-1.387.605-1.409 1.367-.023.771.58 1.417 1.351 1.448l6.019.242c1.446.057 2.856-.465 3.914-1.453l6.896-6.47c.337-.316.354-.845.039-1.182L39.897.266c-.316-.338-.846-.356-1.184-.041z" transform="translate(11 11) translate(.381 .381)"/>
                        </g>
                        <path fill="#FA759E" d="M31.819 16.977c-2.31-2.31-6.054-2.31-8.363 0l-1.061 1.061-1.061-1.06c-2.31-2.31-6.054-2.31-8.364 0-2.309 2.308-2.309 6.053 0 8.363l1.061 1.06 7.05 7.05c.725.726 1.902.726 2.627 0l7.05-7.05 1.061-1.06c2.31-2.31 2.31-6.054 0-8.364z" transform="translate(11 11)"/>
                        <path fill="#FFF" d="M12.97 18.103c2.31-2.31 6.054-2.31 8.364 0l1.061 1.061 1.061-1.06c2.31-2.31 6.054-2.31 8.363 0 1.012 1.01 1.58 2.297 1.706 3.618.16-1.695-.408-3.447-1.706-4.745-2.309-2.31-6.053-2.31-8.363 0l-1.061 1.061-1.06-1.06c-2.31-2.31-6.055-2.31-8.364 0-1.298 1.297-1.867 3.049-1.705 4.744.125-1.32.693-2.607 1.705-3.619z" transform="translate(11 11)"/>
                        <path fill="#6DC9F7" d="M26.658 22.836h-2.632v-2.632c0-.183-.149-.331-.332-.331h-2.6c-.182 0-.33.148-.33.33v2.633h-2.632c-.183 0-.331.148-.331.33v2.6c0 .183.148.332.33.332h2.633v2.632c0 .182.148.33.33.33h2.6c.183 0 .332-.148.332-.33v-2.632h2.632c.182 0 .33-.149.33-.332v-2.6c0-.182-.148-.33-.33-.33z" transform="translate(11 11)"/>
                        <g fill="#3A2C60">
                            <path d="M27.289 32.907l-4.33 3.067c-.394.279-.857.426-1.34.426h-.011l-7.467.006c-.057 0-.095-.03-.111-.048-.017-.018-.045-.056-.043-.113.004-.083.072-.147.154-.147l3.365.003h.002c.975 0 1.76-.763 1.788-1.737.029-.976-.741-1.801-1.716-1.84l-6.019-.242c-1.536-.06-3.064.505-4.19 1.555l-6.896 6.47c-.488.46-.514 1.23-.057 1.721l3.815 4.09c.222.237.524.375.85.386h.042c.31 0 .603-.115.83-.326 1.086-1.011 2.133-1.982 3.035-2.804.404-.368.904-.585 1.448-.63 4.63-.382 8.014-.667 9.784-.824 1.007-.088 1.973-.448 2.796-1.038l6.694-4.809c.429-.354.685-.854.72-1.409.037-.554-.152-1.083-.531-1.49-.679-.727-1.802-.842-2.612-.267zm1.959 2.563l-6.675 4.793c-.711.51-1.547.82-2.418.898-1.77.156-5.15.44-9.779.823-.703.058-1.377.351-1.899.826-.904.824-1.952 1.797-3.04 2.81-.09.083-.205.132-.328.122-.122-.004-.235-.056-.317-.145L.975 41.508c-.171-.183-.162-.473.022-.645l6.895-6.469c.929-.866 2.174-1.354 3.441-1.354.066 0 .132.001.198.004l6.019.242c.56.022 1.002.496.985 1.056-.016.56-.467.997-1.027.997l-3.366-.003h-.001c-.49 0-.89.382-.915.871-.012.25.08.496.252.676.172.181.414.285.664.285l7.465-.006c.633-.004 1.265-.193 1.793-.567l4.33-3.067c.5-.355 1.195-.284 1.614.166.234.25.35.578.329.92-.023.343-.18.653-.425.856zM44.372 4.476L40.557.386c-.46-.49-1.232-.517-1.723-.059-1.085 1.01-2.132 1.982-3.034 2.804-.404.367-.904.585-1.448.63-3.228.266-7.545.625-9.785.823-1.007.09-1.973.449-2.795 1.039l-6.695 4.809c-.429.354-.684.854-.72 1.408-.036.555.153 1.084.532 1.49.678.726 1.8.841 2.612.267l4.33-3.067c.393-.279.856-.426 1.34-.426h.01l7.467-.006c.058 0 .095.03.112.048.017.018.045.056.042.114-.004.082-.072.146-.154.146l-3.365-.003h-.002c-.975 0-1.76.763-1.789 1.737-.028.976.742 1.801 1.717 1.84l6.019.242c.076.003.151.004.228.004 1.459 0 2.892-.56 3.962-1.56l6.896-6.47c.489-.458.515-1.23.058-1.72zm-.579 1.165l-6.895 6.47c-.977.911-2.308 1.4-3.64 1.35l-6.018-.242c-.56-.022-1.002-.496-.985-1.056.016-.56.467-.997 1.027-.997l3.366.003h.001c.49 0 .89-.383.914-.87.013-.25-.079-.497-.251-.677-.172-.181-.414-.284-.663-.284h-.001l-7.465.005c-.634.004-1.266.193-1.793.566l-4.33 3.067c-.5.356-1.195.284-1.614-.165-.234-.251-.35-.578-.328-.92.022-.343.18-.653.424-.856l6.675-4.792c.71-.51 1.546-.821 2.417-.899 1.772-.156 5.153-.441 9.78-.823.703-.058 1.377-.351 1.899-.826.904-.824 1.953-1.797 3.04-2.81.184-.17.474-.162.646.023l3.815 4.089c.172.183.162.472-.02.644z" transform="translate(11 11)"/>
                            <path d="M27.638 14.864c-1.682 0-3.262.655-4.451 1.844l-.792.791-.792-.791c-1.189-1.19-2.77-1.844-4.45-1.844-1.682 0-3.263.655-4.452 1.844-2.454 2.454-2.454 6.448 0 8.902l8.11 8.11c.437.437 1.01.655 1.584.655.573 0 1.147-.218 1.583-.655l1.775-1.774c.149-.149.149-.39 0-.539-.15-.149-.39-.149-.539 0l-1.774 1.775c-.576.576-1.514.576-2.09 0l-8.11-8.11c-2.157-2.158-2.157-5.668 0-7.826 1.045-1.044 2.435-1.62 3.913-1.62 1.478 0 2.867.576 3.912 1.62l1.061 1.061c.072.072.168.112.27.112.1 0 .198-.04.269-.112l1.061-1.06c1.045-1.045 2.434-1.621 3.912-1.621 1.478 0 2.868.576 3.913 1.62 1.045 1.045 1.62 2.435 1.62 3.913 0 1.478-.575 2.867-1.62 3.913l-1.763 1.763c-.15.149-.15.39 0 .539.149.149.39.149.538 0l1.764-1.764c2.454-2.454 2.454-6.448 0-8.902-1.19-1.19-2.771-1.844-4.452-1.844z" transform="translate(11 11)"/>
                            <path d="M26.61 30.932c.097 0 .194-.038.268-.112l2.229-2.229c.149-.149.149-.39 0-.538-.149-.15-.39-.15-.539 0l-2.228 2.229c-.15.148-.15.39 0 .538.074.074.172.112.27.112zM21.095 29.442h2.6c.393 0 .712-.32.712-.712v-2.251h2.25c.393 0 .713-.32.713-.712v-2.6c0-.392-.32-.711-.712-.711h-2.251v-2.251c0-.393-.32-.712-.712-.712h-2.6c-.393 0-.712.32-.712.712v2.25h-2.25c-.394 0-.713.32-.713.712v2.6c0 .392.32.712.712.712h2.251v2.25c0 .393.32.713.712.713zm-2.913-3.725v-2.5h2.582c.21 0 .381-.17.381-.381v-2.582h2.5v2.582c0 .21.17.38.38.38h2.583v2.5h-2.582c-.21 0-.381.17-.381.382v2.581h-2.5v-2.581c0-.211-.17-.381-.38-.381h-2.583z" transform="translate(11 11)"/>
                        </g>
                    </g>
                </g>
            </g>
        </g>
    </g>
</svg>
