<?xml version="1.0" encoding="iso-8859-1"?>
<!-- Generator: Adobe Illustrator 19.0.0, SVG Export Plug-In . SVG Version: 6.00 Build 0)  -->
<svg version="1.1" id="Capa_1" xmlns="http://www.w3.org/2000/svg" xmlns:xlink="http://www.w3.org/1999/xlink" x="0px" y="0px"
	 viewBox="0 0 512.001 512.001" style="enable-background:new 0 0 512.001 512.001;" xml:space="preserve">
<polygon style="fill:#F2D788;" points="274.009,112.453 155.456,228.705 206.515,284.388 206.515,474.849 431.016,474.849 
	431.016,266.413 "/>
<polyline style="fill:#11AB67;" points="443.876,199.937 443.876,90.447 385.548,90.447 385.548,143.355 "/>
<path d="M393.615,292.119c-2.559,0-5.115-0.973-7.064-2.922c-3.905-3.905-3.919-10.224-0.014-14.129l0.026-0.026
	c3.906-3.905,10.236-3.905,14.143,0c3.905,3.905,3.905,10.237,0,14.143C398.75,291.139,396.182,292.119,393.615,292.119z"/>
<path style="fill:#C49E71;" d="M307.624,474.849h-67.23v-103.04c0-18.565,15.05-33.615,33.615-33.615l0,0
	c18.565,0,33.615,15.05,33.615,33.615L307.624,474.849L307.624,474.849z"/>
<rect x="337.96" y="337.921" style="fill:#53C3C0;" width="57.958" height="63.827"/>
<path d="M395.919,411.743h-57.958c-5.522,0-10-4.477-10-10v-63.827c0-5.523,4.478-10,10-10h57.958c5.522,0,10,4.477,10,10v63.827
	C405.919,407.266,401.441,411.743,395.919,411.743z M347.961,391.743h37.958v-43.827h-37.958V391.743z"/>
<polygon style="fill:#FF6F52;" points="69.582,219.411 10,284.388 10,474.849 206.515,474.849 206.515,284.388 146.933,219.411 "/>
<polygon style="fill:#009797;" points="274.009,37.153 86.13,219.411 146.933,219.411 155.456,228.705 274.009,112.453 
	461.323,296.132 502,258.322 "/>
<circle style="fill:#E7EBEF;" cx="108.26" cy="284.771" r="25.691"/>
<path d="M108.258,320.462c-19.681,0-35.691-16.011-35.691-35.691s16.011-35.691,35.691-35.691s35.691,16.011,35.691,35.691
	S127.938,320.462,108.258,320.462z M108.258,269.079c-8.652,0-15.691,7.039-15.691,15.691s7.039,15.691,15.691,15.691
	s15.691-7.039,15.691-15.691S116.91,269.079,108.258,269.079z"/>
<path style="fill:#34E184;" d="M66.873,368.307C32.805,401.005,46.572,470.63,46.572,470.63s69.002,16.611,103.07-16.087
	s20.301-102.323,20.301-102.323S100.941,335.608,66.873,368.307z"/>
<path d="M508.963,251.145l-55.087-53.439V90.447c0-5.523-4.478-10-10-10h-58.328c-5.522,0-10,4.477-10,10v31.274l-94.576-91.747
	c-3.879-3.763-10.047-3.763-13.926,0L82.076,209.411H69.582c-2.803,0-5.477,1.176-7.37,3.242L2.63,277.63
	C0.938,279.474,0,281.885,0,284.388v190.461c0,5.523,4.478,10,10,10h421.017c5.522,0,10-4.477,10-10V290.225l13.306,13.047
	c1.941,1.904,4.47,2.86,7.002,2.86c2.441,0,4.886-0.89,6.808-2.675l40.677-37.81c2.008-1.867,3.162-4.477,3.19-7.218
	C512.028,255.687,510.931,253.054,508.963,251.145z M395.548,100.447h38.328v77.857l-38.328-37.181V100.447z M73.798,375.521
	L73.798,375.521c24.051-23.082,70.326-17.767,87.333-14.843c2.224,17.123,5.634,63.57-18.414,86.651
	c-14.108,13.542-35.865,17.31-54.874,17.521h-3.471c-6.447-0.07-12.488-0.52-17.694-1.093l21.712-23.243l34.465-3.525
	c5.494-0.562,9.492-5.472,8.931-10.966c-0.562-5.494-5.464-9.484-10.966-8.931l-11.665,1.193l27.216-29.135
	c3.771-4.036,3.555-10.364-0.481-14.134c-4.035-3.771-10.364-3.554-14.134,0.481l-14.29,15.298l-0.732-7.912
	c-0.51-5.499-5.362-9.546-10.879-9.037c-5.499,0.508-9.545,5.379-9.037,10.878l2.37,25.637l-35.126,37.604
	C52.892,426.566,54.747,393.806,73.798,375.521z M156.566,461.758c37.583-36.072,23.792-108.416,23.188-111.478
	c-0.758-3.83-3.675-6.869-7.47-7.783c-3.035-0.73-74.752-17.477-112.336,18.594l0,0c-30.844,29.604-27.085,83.639-24.411,103.757H20
	v-176.57l53.98-58.868h68.555l53.979,58.868v176.57H153.11C154.291,463.864,155.444,462.835,156.566,461.758z M250.395,464.849
	v-93.041c0-13.021,10.594-23.615,23.614-23.615c13.021,0,23.615,10.594,23.615,23.615v93.041L250.395,464.849L250.395,464.849z
	 M421.017,270.613v194.236H317.624v-93.041c0-24.049-19.565-43.615-43.615-43.615c-24.049,0-43.614,19.565-43.614,43.615v93.041
	h-13.88V284.388c0-2.502-0.938-4.914-2.63-6.758l-19.244-20.987l79.368-77.829l88.305,86.59c1.946,1.909,4.474,2.86,7,2.86
	c2.593,0,5.183-1.001,7.141-2.999c3.867-3.943,3.805-10.275-0.139-14.142l-95.306-93.456c-3.889-3.813-10.113-3.813-14.002,0
	l-85.892,84.224l-11.753-12.818l104.646-102.616L421.017,270.613z M461.508,282.307L281.01,105.313
	c-0.243-0.238-0.495-0.462-0.755-0.67c-3.642-2.92-8.849-2.92-12.491,0c-0.26,0.209-0.512,0.432-0.755,0.67l-111.17,109.012
	l-1.534-1.673c-1.894-2.065-4.567-3.242-7.37-3.242H110.8L274.009,51.085l213.47,207.083L461.508,282.307z"/>
<g>
</g>
<g>
</g>
<g>
</g>
<g>
</g>
<g>
</g>
<g>
</g>
<g>
</g>
<g>
</g>
<g>
</g>
<g>
</g>
<g>
</g>
<g>
</g>
<g>
</g>
<g>
</g>
<g>
</g>
</svg>
