<?xml version="1.0"?>
<svg xmlns="http://www.w3.org/2000/svg" id="Layer_1" data-name="Layer 1" viewBox="0 0 512 512" width="512" height="512"><title>Online News paper</title><path d="M466.5,213.65V338.16a37.255,37.255,0,0,1-74.51,0V213.65Z" style="fill:#e48e66"/><path d="M285.5,375.41H212.42a45.921,45.921,0,0,1-45.92-45.92V93.25a15.311,15.311,0,0,1,15.31-15.31H376.68a15.311,15.311,0,0,1,15.31,15.31V338.16a37.255,37.255,0,0,0,37.26,37.25Zm71.62-265.88c2.43,0,3.51-3.1,3.51-4.66,0-4.45-8.84-5.4-12.83-5.4-7.76,0-16.41,3.44-16.41,13.51,0,16,21.68,12.89,21.68,23.02,0,4.05-3.51,5.88-7.56,5.88-6.89,0-8.71-5.2-11.48-5.2-2.1,0-3.85,2.83-3.85,4.73,0,3.91,6.75,8.37,15.6,8.37,9.32,0,16.07-5,16.07-14.66,0-17.48-21.68-14.58-21.68-22.95,0-3.25,2.77-5.2,7.63-5.2C353.47,106.97,355.03,109.53,357.12,109.53ZM349.41,345.3V284.08H288.18V345.3ZM324.44,104.13a3.193,3.193,0,0,0,.13-.81c0-1.96-3.11-3.51-5.6-3.51-1.36,0-2.57.47-2.91,1.75l-10.67,36.6-5.74-23.5c-.4-1.68-2.36-2.43-4.25-2.43-1.96,0-3.92.75-4.32,2.43l-5.74,23.5-10.67-36.6c-.34-1.28-1.56-1.75-2.91-1.75-2.49,0-5.6,1.55-5.6,3.51a3.193,3.193,0,0,0,.13.81l13.37,42.47c.61,2.03,3.18,2.98,5.74,2.98,2.5,0,5.14-.95,5.61-2.98l4.39-18.23,4.32,18.23c.47,2.03,3.11,2.98,5.61,2.98,2.56,0,5.06-.95,5.73-2.98Zm-63.35-.54c0-1.82-.88-3.78-2.77-3.78H234.28c-1.95,0-3.84.94-3.84,2.77V146.4c0,1.83,1.89,2.77,3.84,2.77h24.04c1.89,0,2.77-1.96,2.77-3.78,0-2.09-1.01-3.92-2.77-3.92H239.21V127.9h10.27c1.89,0,2.77-1.82,2.77-3.38,0-1.82-1.02-3.51-2.77-3.51H239.21v-13.5h19.11C260.08,107.51,261.09,105.68,261.09,103.59ZM218.95,146.4V102.51c0-1.89-2.22-2.7-4.39-2.7-2.22,0-4.38.81-4.38,2.7v27.15l-13.04-25.19c-2.09-3.99-3.37-4.66-6.55-4.66-2.23,0-4.39.88-4.39,2.77V146.4c0,1.83,2.16,2.77,4.39,2.77,2.16,0,4.39-.94,4.39-2.77V119.26L209.5,146.4a5.264,5.264,0,0,0,5.06,2.77C216.73,149.17,218.95,148.23,218.95,146.4Z" style="fill:#6fe3ff"/><rect x="288.18" y="284.08" width="61.23" height="61.22" style="fill:#f8ec7d"/><path d="M285.5,399v32a40,40,0,0,1-40,40H85.5a40,40,0,0,1-40-40V399Zm-105,36a15,15,0,1,0-15,15A15.005,15.005,0,0,0,180.5,435Z" style="fill:#e48e66"/><path d="M285.5,375.41V399H45.5V101h121V329.49a45.921,45.921,0,0,0,45.92,45.92Z" style="fill:#f8ec7d"/><path d="M285.38,77.94H181.81A15.311,15.311,0,0,0,166.5,93.25V101H45.5V81a40,40,0,0,1,40-40h160A40,40,0,0,1,285.38,77.94Z" style="fill:#e48e66"/><circle cx="165.5" cy="435" r="15" style="fill:#f8ec7d"/><path d="M340.17,112.17c0-3.25,2.77-5.2,7.63-5.2,5.67,0,7.23,2.56,9.32,2.56,2.43,0,3.51-3.1,3.51-4.66,0-4.45-8.84-5.4-12.83-5.4-7.76,0-16.41,3.44-16.41,13.51,0,16,21.68,12.89,21.68,23.02,0,4.05-3.51,5.88-7.56,5.88-6.89,0-8.71-5.2-11.48-5.2-2.1,0-3.85,2.83-3.85,4.73,0,3.91,6.75,8.37,15.6,8.37,9.32,0,16.07-5,16.07-14.66C361.85,117.64,340.17,120.54,340.17,112.17Z" style="fill:#63316d"/><path d="M279.66,146.6c.61,2.03,3.18,2.98,5.74,2.98,2.5,0,5.14-.95,5.61-2.98l4.39-18.23,4.32,18.23c.47,2.03,3.11,2.98,5.61,2.98,2.56,0,5.06-.95,5.73-2.98l13.38-42.47a3.193,3.193,0,0,0,.13-.81c0-1.96-3.11-3.51-5.6-3.51-1.36,0-2.57.47-2.91,1.75l-10.67,36.6-5.74-23.5c-.4-1.68-2.36-2.43-4.25-2.43-1.96,0-3.92.75-4.32,2.43l-5.74,23.5-10.67-36.6c-.34-1.28-1.56-1.75-2.91-1.75-2.49,0-5.6,1.55-5.6,3.51a3.193,3.193,0,0,0,.13.81Z" style="fill:#63316d"/><path d="M234.28,149.17h24.04c1.89,0,2.77-1.96,2.77-3.78,0-2.09-1.01-3.92-2.77-3.92H239.21V127.9h10.27c1.89,0,2.77-1.82,2.77-3.38,0-1.82-1.02-3.51-2.77-3.51H239.21v-13.5h19.11c1.76,0,2.77-1.83,2.77-3.92,0-1.82-.88-3.78-2.77-3.78H234.28c-1.95,0-3.84.94-3.84,2.77V146.4C230.44,148.23,232.33,149.17,234.28,149.17Z" style="fill:#63316d"/><path d="M194.98,146.4V119.26L209.5,146.4a5.264,5.264,0,0,0,5.06,2.77c2.17,0,4.39-.94,4.39-2.77V102.51c0-1.89-2.22-2.7-4.39-2.7-2.22,0-4.38.81-4.38,2.7v27.15l-13.04-25.19c-2.09-3.99-3.37-4.66-6.55-4.66-2.23,0-4.39.88-4.39,2.77V146.4c0,1.83,2.16,2.77,4.39,2.77C192.75,149.17,194.98,148.23,194.98,146.4Z" style="fill:#63316d"/><path d="M466.5,207.65H397.99V93.25a21.335,21.335,0,0,0-21.31-21.31H290.586A46.21,46.21,0,0,0,245.5,35H85.5a46.052,46.052,0,0,0-46,46V431a46.052,46.052,0,0,0,46,46h160a46.052,46.052,0,0,0,46-46V381.41H433.17a5.98,5.98,0,0,0,2.279-.451,43.312,43.312,0,0,0,37.051-42.8V213.65A6,6,0,0,0,466.5,207.65ZM245.5,465H85.5a34.038,34.038,0,0,1-34-34V405h228v26A34.038,34.038,0,0,1,245.5,465Zm34-72H51.5V107h43a6,6,0,0,0,0-12h-43V81a34.038,34.038,0,0,1,34-34h160a34.168,34.168,0,0,1,32.766,24.94H181.81A21.335,21.335,0,0,0,160.5,93.25V95h-15a6,6,0,0,0,0,12h15V329.49a51.979,51.979,0,0,0,51.92,51.92H279.5Zm-67.08-23.59a39.965,39.965,0,0,1-39.92-39.92V93.25a9.321,9.321,0,0,1,9.31-9.31H376.68a9.321,9.321,0,0,1,9.31,9.31V338.16a43.114,43.114,0,0,0,13.4,31.25ZM460.5,338.16a31.255,31.255,0,0,1-62.51,0V219.65H460.5Z" style="fill:#63316d"/><path d="M349.41,278.08H288.18a6,6,0,0,0-6,6V345.3a6,6,0,0,0,6,6h61.23a6,6,0,0,0,6-6V284.08A6,6,0,0,0,349.41,278.08Zm-6,61.22H294.18V290.08h49.23Z" style="fill:#63316d"/><path d="M349.41,166.34H198.64a6,6,0,0,0,0,12H349.41a6,6,0,0,0,0-12Z" style="fill:#63316d"/><path d="M349.41,239.81H198.64a6,6,0,0,0,0,12H349.41a6,6,0,0,0,0-12Z" style="fill:#63316d"/><path d="M259.87,339.3H198.64a6,6,0,0,0,0,12h61.23a6,6,0,0,0,0-12Z" style="fill:#63316d"/><path d="M259.87,278.08H198.64a6,6,0,0,0,0,12h61.23a6,6,0,0,0,0-12Z" style="fill:#63316d"/><path d="M259.87,308.69H198.64a6,6,0,1,0,0,12h61.23a6,6,0,0,0,0-12Z" style="fill:#63316d"/><path d="M349.41,201.54H198.64a6,6,0,0,0,0,12H349.41a6,6,0,0,0,0-12Z" style="fill:#63316d"/><path d="M125.31,95H114.19a6,6,0,0,0,0,12h11.12a6,6,0,0,0,0-12Z" style="fill:#63316d"/><path d="M165.5,414a21,21,0,1,0,21,21A21.024,21.024,0,0,0,165.5,414Zm0,30a9,9,0,1,1,9-9A9.01,9.01,0,0,1,165.5,444Z" style="fill:#63316d"/></svg>
