<svg xmlns="http://www.w3.org/2000/svg" width="69" height="69" viewBox="0 0 69 69">
    <g fill="none" fill-rule="evenodd">
        <g>
            <g transform="translate(-957 -1682) translate(957 1682)">
                <circle cx="34.5" cy="34.5" r="34.5" fill="#04F" fill-opacity=".1"/>
                <g fill-rule="nonzero">
                    <path fill="#E6E7E8" d="M46.813 24.328h-5.327c.25-.443.415-.94.47-1.47h1.648c1.05 0 1.906-.854 1.906-1.905v-5.5c0-.029-.004-.059-.01-.088l-2.473-10.65h2.678c.578 0 1.05.44 1.112 1.004l-.83.299c-.752.272-1.258.992-1.258 1.792v1.687c0 .633.515 1.148 1.148 1.148h.585c.633 0 1.147-.515 1.147-1.148V5.84c0-1.05-.854-1.906-1.905-1.906h-2.881c-.487-1.376-1.792-2.314-3.275-2.314H21.035c-1.483 0-2.788.938-3.275 2.314H5.373c-1.887 0-3.421 1.535-3.421 3.422v13.597c0 1.051.854 1.906 1.905 1.906h1.649c.054.53.22 1.026.47 1.47H2.748c-.655 0-1.187.531-1.187 1.186v12.263c0 .655.532 1.187 1.187 1.187h44.064c.654 0 1.187-.532 1.187-1.187V25.515c0-.655-.533-1.187-1.187-1.187zm-32.593-1.47c.054.53.22 1.027.47 1.47h-2.094c.25-.443.416-.94.47-1.47h1.154zm7.56 0h12.615c.055.53.22 1.027.47 1.47H21.31c.25-.443.415-.94.47-1.47z" transform="translate(11 15)"/>
                    <g>
                        <g>
                            <path fill="#0089EF" d="M44.878 13.892H.782c-.432 0-.78-.35-.78-.78V.815c0-.431.348-.78.78-.78h44.096c.431 0 .78.349.78.78v12.296c0 .43-.35.78-.78.78z" transform="translate(11 15) translate(.39 23.122)"/>
                            <g fill="#FFF">
                                <path d="M0 .071L7.592.071 7.592 1.76 0 1.76zM11.376.071L20.935.071 20.935 1.76 11.376 1.76zM24.72.071L34.279.071 34.279 1.76 24.72 1.76zM38.063.071L45.659.071 45.659 1.76 38.063 1.76z" transform="translate(11 15) translate(.39 23.122) translate(0 6.049)"/>
                            </g>
                        </g>
                        <g>
                            <path fill="#FFD7E5" d="M15.708 2.373c.35-1.362 1.58-2.314 2.986-2.314h18.513c1.407 0 2.636.952 2.987 2.314H15.708z" transform="translate(11 15) translate(.78 .39)"/>
                            <path fill="#FA759E" d="M0 19.002V5.404c0-1.673 1.357-3.03 3.031-3.03h37.164l2.583 11.128v5.5c0 .837-.678 1.515-1.515 1.515H1.516C.679 20.517 0 19.84 0 19.002z" transform="translate(11 15) translate(.78 .39)"/>
                            <path fill="#D4FBFF" d="M40.669 4.416H3.118c-.419 0-.758.34-.758.758v4.03c0 .417.339.757.758.757h26.038l13.622 3.542-2.11-9.087z" transform="translate(11 15) translate(.78 .39)"/>
                            <g fill="#FFF">
                                <path d="M42.778 3.08h-1.223c-.418 0-.758-.34-.758-.758V.806c0-.418.34-.758.758-.758h1.223V3.08zM0 3.08h1.223c.419 0 .758-.34.758-.758V.806c0-.418-.339-.758-.758-.758H0V3.08z" transform="translate(11 15) translate(.78 .39) translate(0 14.537)"/>
                            </g>
                            <g>
                                <path fill="#6DC9F7" d="M32.322 6.854c1.88 0 3.41-1.53 3.41-3.41 0-1.88-1.53-3.409-3.41-3.409-1.88 0-3.41 1.53-3.41 3.41 0 1.88 1.53 3.41 3.41 3.41z" transform="translate(11 15) translate(.78 .39) translate(3.512 17.073)"/>
                                <path fill="#D4FBFF" d="M32.322 4.808c.752 0 1.364-.612 1.364-1.364 0-.752-.612-1.364-1.364-1.364-.752 0-1.364.612-1.364 1.364 0 .752.612 1.364 1.364 1.364z" transform="translate(11 15) translate(.78 .39) translate(3.512 17.073)"/>
                                <path fill="#6DC9F7" d="M3.432 6.854c1.88 0 3.41-1.53 3.41-3.41 0-1.88-1.53-3.409-3.41-3.409-1.88 0-3.41 1.53-3.41 3.41 0 1.88 1.53 3.41 3.41 3.41z" transform="translate(11 15) translate(.78 .39) translate(3.512 17.073)"/>
                                <path fill="#D4FBFF" d="M3.432 4.808c.752 0 1.364-.612 1.364-1.364 0-.752-.612-1.364-1.364-1.364-.752 0-1.364.612-1.364 1.364 0 .752.612 1.364 1.364 1.364z" transform="translate(11 15) translate(.78 .39) translate(3.512 17.073)"/>
                                <path fill="#6DC9F7" d="M12.146 6.854c1.88 0 3.41-1.53 3.41-3.41 0-1.88-1.53-3.409-3.41-3.409-1.88 0-3.41 1.53-3.41 3.41 0 1.88 1.53 3.41 3.41 3.41z" transform="translate(11 15) translate(.78 .39) translate(3.512 17.073)"/>
                                <path fill="#D4FBFF" d="M12.146 4.808c.752 0 1.364-.612 1.364-1.364 0-.752-.612-1.364-1.364-1.364-.752 0-1.364.612-1.364 1.364 0 .752.612 1.364 1.364 1.364z" transform="translate(11 15) translate(.78 .39) translate(3.512 17.073)"/>
                            </g>
                            <path fill="#FFD7E5" d="M43.536 8.304h.585c.418 0 .758-.34.758-.758V4.037l-1.1.397c-.6.216-1 .786-1 1.425v1.687c0 .419.338.758.757.758z" transform="translate(11 15) translate(.78 .39)"/>
                        </g>
                        <path fill="#FFF" d="M4.311 9.593V5.564c0-.418.34-.758.758-.758h-1.17c-.42 0-.759.34-.759.758v4.03c0 .418.34.757.758.757h1.17c-.417 0-.757-.34-.757-.758z" transform="translate(11 15)"/>
                        <g fill="#3A2C60">
                            <path d="M35.455 36.624h-3.733c-.216 0-.39.175-.39.39 0 .216.174.39.39.39h3.733c.216 0 .39-.174.39-.39 0-.215-.174-.39-.39-.39z" transform="translate(11 15)"/>
                            <path d="M45.252 22.767h-5.327c.25-.443.415-.94.47-1.469h1.648c1.05 0 1.906-.855 1.906-1.906v-5.5c0-.029-.004-.059-.01-.088l-2.473-10.65h2.678c.578 0 1.05.44 1.112 1.004l-.83.299c-.752.272-1.258.992-1.258 1.792v1.688c0 .633.515 1.147 1.148 1.147h.585c.633 0 1.147-.514 1.147-1.147V4.279c0-1.05-.854-1.906-1.905-1.906h-2.881C40.775.997 39.47.06 37.987.06H19.474c-1.483 0-2.788.938-3.275 2.314H3.812C1.925 2.373.39 3.908.39 5.795v13.597c0 1.051.854 1.906 1.905 1.906h1.649c.054.53.22 1.026.47 1.47H1.187C.533 22.767 0 23.3 0 23.953v12.264c0 .654.532 1.187 1.187 1.187h28.94c.216 0 .39-.175.39-.39 0-.216-.174-.39-.39-.39H1.188c-.224 0-.406-.183-.406-.407V23.954c0-.224.182-.407.406-.407h3.81c.69.714 1.657 1.16 2.727 1.16 1.07 0 2.036-.446 2.727-1.16h3.26c.69.714 1.657 1.16 2.727 1.16 1.07 0 2.036-.446 2.727-1.16h14.721c.691.714 1.658 1.16 2.728 1.16 1.07 0 2.036-.446 2.727-1.16h5.91c.224 0 .407.183.407.407v12.263c0 .224-.183.407-.407.407h-8.204c-.216 0-.39.175-.39.39 0 .216.174.39.39.39h8.204c.654 0 1.187-.532 1.187-1.187V23.954c0-.654-.533-1.187-1.187-1.187zm.017-14.83c0 .202-.165.367-.368.367h-.585c-.202 0-.367-.165-.367-.367V6.249c0-.472.3-.898.744-1.058l.576-.208v2.954zM16.688 9.96V5.196h6.039v4.765h-6.04zm-6.82 0V5.196h6.04v4.765h-6.04zm-5.97 0c-.203 0-.367-.165-.367-.368V5.564c0-.202.165-.367.367-.367h5.19V9.96h-5.19zm19.61-4.765h6.038v4.765h-6.039V5.196zm6.819 0h5.944v6.399l-5.944-1.546V5.196zm6.724 0h4.088l1.894 8.157-5.982-1.556v-6.6zM19.474.84h18.514c1.053 0 1.991.61 2.43 1.533H17.044C17.483 1.45 18.421.84 19.474.84zM1.171 19.392V5.795c0-1.456 1.185-2.641 2.64-2.641h36.854l.293 1.262H3.898c-.633 0-1.148.515-1.148 1.148v4.029c0 .633.515 1.148 1.148 1.148h25.988l13.282 3.453v5.198c0 .62-.505 1.125-1.125 1.125h-1.648c-.196-1.913-1.817-3.41-3.78-3.41-1.964 0-3.585 1.497-3.78 3.41H20.218c-.196-1.913-1.817-3.41-3.78-3.41-1.964 0-3.584 1.497-3.78 3.41h-1.154c-.196-1.913-1.816-3.41-3.78-3.41-1.964 0-3.584 1.497-3.78 3.41H2.296c-.62 0-1.125-.504-1.125-1.125zm6.554 4.535c-1.665 0-3.02-1.355-3.02-3.02 0-1.664 1.355-3.019 3.02-3.019s3.02 1.355 3.02 3.02c0 1.664-1.355 3.019-3.02 3.019zm3.31-1.16c.25-.443.416-.94.47-1.469h1.154c.054.53.22 1.026.47 1.47h-2.094zm5.404 1.16c-1.666 0-3.02-1.355-3.02-3.02 0-1.664 1.355-3.019 3.02-3.019 1.664 0 3.019 1.355 3.019 3.02 0 1.664-1.354 3.019-3.02 3.019zm3.31-1.16c.25-.443.415-.94.47-1.469h12.615c.055.53.22 1.026.47 1.47H19.749zm16.866 1.16c-1.666 0-3.02-1.355-3.02-3.02 0-1.664 1.355-3.019 3.02-3.019 1.664 0 3.019 1.355 3.019 3.02 0 1.664-1.354 3.019-3.02 3.019z" transform="translate(11 15)"/>
                            <path d="M36.615 19.154c-.968 0-1.755.787-1.755 1.754s.788 1.754 1.755 1.754c.967 0 1.753-.787 1.753-1.754s-.786-1.754-1.753-1.754zm0 2.727c-.537 0-.974-.436-.974-.973 0-.537.437-.974.974-.974.536 0 .973.437.973.974 0 .537-.437.973-.973.973zM7.725 19.154c-.968 0-1.754.787-1.754 1.754s.787 1.754 1.754 1.754 1.754-.787 1.754-1.754-.787-1.754-1.754-1.754zm0 2.727c-.537 0-.974-.436-.974-.973 0-.537.437-.974.974-.974.537 0 .974.437.974.974 0 .537-.437.973-.974.973zM16.439 19.154c-.968 0-1.755.787-1.755 1.754s.788 1.754 1.755 1.754c.967 0 1.754-.787 1.754-1.754s-.787-1.754-1.754-1.754zm0 2.727c-.537 0-.974-.436-.974-.973 0-.537.437-.974.974-.974.537 0 .973.437.973.974 0 .537-.436.973-.973.973z" transform="translate(11 15)"/>
                        </g>
                    </g>
                </g>
            </g>
        </g>
    </g>
</svg>
