<svg xmlns="http://www.w3.org/2000/svg" width="69" height="69" viewBox="0 0 69 69">
    <g fill="none" fill-rule="evenodd">
        <g>
            <g transform="translate(-117 -1982) translate(117 1982)">
                <circle cx="34.5" cy="34.5" r="34.5" fill="#04F" fill-opacity=".1"/>
                <g fill-rule="nonzero">
                    <g>
                        <path fill="#FF5492" d="M44.654 9.11c-.812 0-1.51.54-1.819 1.314-.308-.774-1.006-1.314-1.818-1.314-1.097 0-1.986.987-1.986 2.204 0 2.786 3.805 4.325 3.805 4.325s3.767-1.56 3.804-4.325c.017-1.217-.89-2.204-1.986-2.204z" transform="translate(11 10) translate(.656 .656)"/>
                        <path fill="#FF91C1" d="M39.567.047c-.516 0-.96.343-1.156.836-.196-.493-.64-.836-1.156-.836-.698 0-1.264.627-1.264 1.402 0 1.772 2.42 2.75 2.42 2.75s2.396-.992 2.42-2.75c.01-.774-.566-1.402-1.264-1.402zM37.458 17.062c-.516 0-.96.343-1.156.836-.196-.493-.64-.836-1.157-.836-.698 0-1.263.627-1.263 1.401 0 1.772 2.42 2.751 2.42 2.751s2.396-.992 2.42-2.75c.01-.775-.566-1.402-1.264-1.402z" transform="translate(11 10) translate(.656 .656)"/>
                        <g>
                            <path fill="#FFF0CA" d="M27.93 10.633c2.202-.095 3.91-1.913 3.817-4.061-.094-2.149-1.954-3.814-4.155-3.72-.143.006-.284.02-.422.04.04-.189.06-.385.052-.587-.057-1.303-1.185-2.313-2.52-2.256-1.332.057-2.365 1.154-2.315 2.452-.465-.573-1.194-.93-2-.895-1.288.056-2.296 1.085-2.313 2.329-.525-.215-1.105-.323-1.712-.297-.333.014-.656.069-.962.157-.138-1.224-1.225-2.151-2.505-2.097-.792.034-1.477.438-1.893 1.031-.748-.655-1.75-1.036-2.834-.99-2.201.095-3.91 1.913-3.816 4.061.008.189.03.373.065.553-.397-.237-.868-.366-1.368-.344C1.714 6.066.677 7.169.734 8.47c.057 1.303 1.185 2.313 2.52 2.256l24.676-.094z" transform="translate(11 10) translate(.656 .656)"/>
                            <g>
                                <g>
                                    <path fill="#FF5492" d="M22.77 28.115H5.4c-1.019 0-1.878-.751-2.006-1.753L.039.033H28.13l-3.355 26.329c-.128 1.002-.987 1.753-2.005 1.753z" transform="translate(11 10) translate(.656 .656) translate(0 9.375) translate(2.156 3.375)"/>
                                    <path fill="#FA3E82" d="M24.381.033l-3.355 26.329c-.128 1.002-.987 1.753-2.005 1.753h3.75c1.018 0 1.877-.751 2.005-1.753L28.131.033h-3.75z" transform="translate(11 10) translate(.656 .656) translate(0 9.375) translate(2.156 3.375)"/>
                                    <path fill="#FF91C1" d="M18.309 28.115L9.861 28.115 7.177 0.033 20.993 0.033z" transform="translate(11 10) translate(.656 .656) translate(0 9.375) translate(2.156 3.375)"/>
                                </g>
                                <path fill="#E0EFFF" d="M30.75 3.42H1.733C.802 3.42.047 2.667.047 1.736S.802.049 1.733.049H30.75c.93 0 1.686.755 1.686 1.686 0 .931-.755 1.686-1.686 1.686z" transform="translate(11 10) translate(.656 .656) translate(0 9.375)"/>
                                <path fill="#D4E8FF" d="M30.75.05H27c.93 0 1.686.754 1.686 1.685S27.93 3.421 27 3.421h3.75c.93 0 1.686-.755 1.686-1.686 0-.931-.755-1.686-1.686-1.686z" transform="translate(11 10) translate(.656 .656) translate(0 9.375)"/>
                            </g>
                            <path fill="#FFF" d="M19.832 19.469c-1.603 0-2.982 1.067-3.59 2.595-.61-1.528-1.988-2.595-3.592-2.595-2.167 0-3.924 1.949-3.924 4.353 0 5.503 7.515 8.542 7.515 8.542s7.441-3.08 7.515-8.542c.033-2.404-1.757-4.353-3.924-4.353z" transform="translate(11 10) translate(.656 .656)"/>
                        </g>
                        <g>
                            <path fill="#54768A" d="M.972 20.435h15.976v-6.24H.972c-.486 0-.879.393-.879.878v4.483c0 .485.393.879.879.879z" transform="translate(11 10) translate(.656 .656) translate(16.313 24.844)"/>
                            <g fill="#395A6E">
                                <path d="M4.127.038L5.533.038 5.533 6.278 4.127 6.278zM.024.038L1.43.038 1.43 6.278.024 6.278z" transform="translate(11 10) translate(.656 .656) translate(16.313 24.844) translate(3.469 14.156)"/>
                            </g>
                            <g>
                                <path fill="#E0EFFF" d="M.053 10.935c0 5.999 4.804 10.862 10.731 10.862s10.732-4.863 10.732-10.862C21.516 4.937 16.71.074 10.784.074S.053 4.937.053 10.935zm7.902 0c0-1.579 1.269-2.863 2.83-2.863 1.56 0 2.829 1.284 2.829 2.863 0 1.58-1.27 2.864-2.83 2.864s-2.83-1.285-2.83-2.864z" transform="translate(11 10) translate(.656 .656) translate(16.313 24.844) translate(8.813)"/>
                                <path fill="#D4E8FF" d="M10.784.074c-.64 0-1.266.057-1.875.165 5.033.898 8.857 5.345 8.857 10.696 0 5.352-3.824 9.799-8.857 10.696.61.109 1.236.166 1.875.166 5.927 0 10.732-4.863 10.732-10.862C21.516 4.937 16.71.074 10.784.074z" transform="translate(11 10) translate(.656 .656) translate(16.313 24.844) translate(8.813)"/>
                                <g fill="#FFF" transform="translate(11 10) translate(.656 .656) translate(16.313 24.844) translate(8.813) translate(2.531 2.625)">
                                    <ellipse cx="8.238" cy="1.452" rx="1.431" ry="1.448"/>
                                    <ellipse cx="13.034" cy="3.451" rx="1.431" ry="1.448"/>
                                    <ellipse cx="15.029" cy="8.296" rx="1.431" ry="1.448"/>
                                    <ellipse cx="13.054" cy="13.149" rx="1.431" ry="1.448"/>
                                    <ellipse cx="8.267" cy="15.168" rx="1.431" ry="1.448"/>
                                    <ellipse cx="3.472" cy="13.17" rx="1.431" ry="1.448"/>
                                    <ellipse cx="1.477" cy="8.325" rx="1.431" ry="1.448"/>
                                    <ellipse cx="3.451" cy="3.471" rx="1.431" ry="1.448"/>
                                </g>
                            </g>
                        </g>
                    </g>
                    <g fill="#000">
                        <path d="M38.984 11.97c0 3.223 4.07 4.907 4.244 4.977.178.069.355.068.533-.002.171-.071 4.195-1.774 4.239-4.965.02-1.5-1.136-2.917-2.69-2.917-.688 0-1.332.282-1.818.763-.487-.481-1.131-.763-1.818-.763-1.483 0-2.69 1.304-2.69 2.907zm3.855-.63c.23.58 1.076.58 1.306 0 .21-.529.668-.87 1.165-.87.777 0 1.293.77 1.284 1.49-.026 1.881-2.31 3.17-3.103 3.56-.795-.388-3.1-1.679-3.1-3.55 0-.827.575-1.5 1.283-1.5.497 0 .954.341 1.165.87zM38.804 5.507c.177.07.355.069.532-.002.116-.048 2.825-1.194 2.854-3.39C42.205 1.029 41.347 0 40.224 0c-.426 0-.828.145-1.157.401C38.738.145 38.337 0 37.911 0c-1.085 0-1.967.944-1.967 2.105 0 2.22 2.743 3.355 2.86 3.402zm-.893-4.1c.21 0 .408.153.503.392.23.58 1.076.58 1.307 0 .095-.239.292-.393.503-.393.364.062.55.292.56.69-.012.908-1.072 1.648-1.715 1.982-.54-.28-1.719-1.002-1.719-1.973 0-.379.257-.699.56-.699zM36.694 22.522c.178.07.356.068.533-.002.115-.048 2.824-1.194 2.854-3.39.015-1.086-.844-2.115-1.967-2.115-.425 0-.827.145-1.156.4-.329-.255-.731-.4-1.156-.4-1.085 0-1.967.944-1.967 2.105 0 2.22 2.743 3.355 2.86 3.402zm-.892-4.101c.21 0 .408.154.503.393.23.579 1.076.579 1.306 0 .095-.239.293-.393.503-.393.365.062.552.291.561.69-.012.908-1.073 1.648-1.715 1.982-.54-.28-1.719-1.002-1.719-1.973 0-.38.257-.699.56-.699z" transform="translate(11 10)"/>
                        <path d="M36.565 24.87c-2.476 0-4.77.801-6.644 2.16l1.641-12.88c1.245-.081 2.233-1.12 2.233-2.384 0-.92-.523-1.72-1.287-2.118.426-.74.636-1.581.598-2.45C33 4.781 31 2.877 28.572 2.803c-.139-1.627-1.57-2.872-3.244-2.801-1.25.053-2.3.828-2.752 1.896-.477-.242-1.015-.363-1.563-.339-1.335.057-2.448.936-2.838 2.128-.517-.109-1.078-.129-1.603-.06-.466-1.207-1.685-2.036-3.05-1.976-.74.032-1.423.31-1.956.786-.817-.526-1.78-.787-2.772-.745-1.249.054-2.403.58-3.25 1.481-.739.786-1.167 1.774-1.234 2.824-.208-.033-.421-.045-.635-.036-.83.036-1.598.386-2.161.985-.568.605-.862 1.39-.826 2.211.012.275.06.542.144.799-.509.438-.832 1.087-.832 1.81 0 1.264.988 2.302 2.233 2.383l3.276 25.707c.172 1.35 1.334 2.367 2.703 2.367h8.147v2.832c0 .872.71 1.582 1.582 1.582h13.245c1.604.869 3.436 1.362 5.38 1.362 1.04 0 2.074-.142 3.07-.423.848-.238.505-1.602-.38-1.353-.873.245-1.778.37-2.69.37-5.53 0-10.029-4.557-10.029-10.159 0-5.601 4.499-10.158 10.028-10.158 5.53 0 10.029 4.557 10.029 10.158 0 3.292-1.586 6.394-4.242 8.298-.716.513.071 1.679.819 1.143C46.195 43.708 48 40.179 48 36.436c0-6.377-5.13-11.565-11.435-11.565zM2.39 12.75c-.542 0-.983-.44-.983-.983 0-.542.441-.982.983-.982h5.58c.387 0 .702-.315.702-.704 0-.388-.315-.703-.703-.703 0 0-5.75.005-5.833.014-.333-1.438 1.353-2.511 2.577-1.779.51.306 1.163-.15 1.051-.735-.186-.974.126-2.018.805-2.74.594-.632 1.406-1.001 2.286-1.039.866-.037 1.697.253 2.341.817.384.267.73.225 1.04-.126.309-.442.8-.709 1.346-.732.9-.04 1.679.609 1.776 1.473.046.407.473.719.894.597.724-.21 1.513-.171 2.213.115.451.184.962-.154.969-.641.012-.879.733-1.597 1.64-1.636.55-.023 1.082.214 1.424.635.417.514 1.275.191 1.249-.47-.035-.91.701-1.682 1.642-1.722.947-.04 1.748.67 1.788 1.584.005.132-.007.266-.038.408-.101.472.312.914.79.844.117-.017.235-.028.35-.033 1.81-.078 3.346 1.29 3.423 3.047.033.774-.218 1.518-.71 2.12H11.715c-.389 0-.703.314-.703.702 0 .389.314.704.703.704h19.691c.542 0 .983.44.983.982s-.441.983-.983.983H2.39zm20.641 1.406l-.55 5.756c-.616-.32-1.294-.49-1.992-.49-1.415 0-2.726.704-3.59 1.866-.866-1.162-2.177-1.865-3.592-1.865-.712 0-1.387.177-1.99.493l-.551-5.76H23.03zM8.212 40.818c-.663 0-1.225-.49-1.308-1.139L3.651 14.155h5.7l.65 6.79c-.817.912-1.322 2.159-1.322 3.533 0 2.075.941 3.81 2.176 5.193-.008.053-.01.108-.004.164l1.05 10.983H8.21zm12.25 4.413H17.94c-.097 0-.176-.078-.176-.175v-4.483c0-.096.079-.175.176-.175h2.52v4.833zm.195-6.24H17.94c-.873 0-1.582.71-1.582 1.582v.245h-3.046l-.927-9.696c1.994 1.62 4.081 2.482 4.248 2.55.177.069.355.068.532-.002.166-.069 2.253-.95 4.247-2.592l-.756 7.913zm-3.763-6.74c-1.29-.588-6.809-3.36-6.809-7.773 0-2.013 1.445-3.65 3.221-3.65 1.264 0 2.417.845 2.938 2.153.23.579 1.076.579 1.306 0 .521-1.308 1.674-2.153 2.938-2.153 1.908 0 3.246 1.846 3.221 3.64-.059 4.375-5.534 7.185-6.815 7.783zm7.67 12.98h-2.696v-4.833h2.696v4.833zm4.587 0h-3.18v-4.448c.696 1.73 1.796 3.253 3.18 4.448zm-.822-16.836l-.002.03c-1.978 2.08-3.196 4.903-3.196 8.01 0 .878.098 1.734.282 2.556h-3.344l.9-9.408c1.202-1.37 2.12-3.074 2.147-5.096.017-1.326-.462-2.61-1.32-3.558l.647-6.774h5.7l-1.814 14.24z" transform="translate(11 10)"/>
                        <path d="M40.098 36.435c0-1.966-1.585-3.566-3.533-3.566s-3.532 1.6-3.532 3.566c0 1.967 1.584 3.567 3.532 3.567s3.533-1.6 3.533-3.567zm-3.533 2.16c-1.172 0-2.126-.968-2.126-2.16 0-1.191.954-2.16 2.126-2.16 1.173 0 2.127.969 2.127 2.16 0 1.192-.954 2.16-2.127 2.16zM38.685 29.577c0-1.186-.957-2.151-2.134-2.151s-2.134.965-2.134 2.151c0 1.187.957 2.152 2.134 2.152s2.134-.965 2.134-2.152zm-2.862 0c0-.41.326-.745.728-.745.401 0 .728.334.728.745s-.327.746-.728.746c-.401 0-.728-.335-.728-.746zM41.346 29.424c-.568 0-1.112.23-1.512.633-.827.837-.827 2.2 0 3.037.816.826 2.207.828 3.025 0 .827-.837.827-2.2 0-3.037-.404-.408-.94-.633-1.513-.633zm.512 2.682c-.34.287-.682.287-1.023 0-.29-.293-.29-.768 0-1.06.34-.287.682-.287 1.023 0 .289.292.289.768 0 1.06zM41.207 36.42c0 1.187.957 2.152 2.134 2.152s2.134-.965 2.134-2.151c0-1.187-.957-2.152-2.134-2.152s-2.134.965-2.134 2.152zm2.134-.745c.402 0 .728.335.728.746 0 .41-.326.745-.728.745-.401 0-.728-.334-.728-.745s.327-.746.728-.746zM42.879 39.756c-.816-.826-2.206-.828-3.024 0-.827.837-.827 2.2 0 3.037.827.837 2.197.837 3.024 0 .827-.838.827-2.2 0-3.037zm-1 2.048c-.341.287-.683.287-1.024 0-.289-.292-.289-.767 0-1.06.341-.287.682-.287 1.024 0 .288.293.288.768 0 1.06zM34.446 43.293c0 1.187.957 2.152 2.134 2.152s2.134-.965 2.134-2.152c0-1.186-.957-2.151-2.134-2.151s-2.134.965-2.134 2.151zm2.862 0c0 .411-.327.746-.728.746-.402 0-.728-.335-.728-.746 0-.41.326-.745.728-.745.401 0 .728.334.728.745zM31.784 43.447c.572 0 1.109-.225 1.512-.634.828-.837.828-2.2 0-3.036-.403-.409-.94-.633-1.512-.633-.568 0-1.112.229-1.512.633-.827.837-.827 2.2 0 3.036.404.409.94.634 1.512.634zm-.511-2.682c.34-.287.682-.287 1.023 0 .289.292.289.768 0 1.06-.26.26-.768.259-1.023 0-.29-.292-.29-.768 0-1.06zM27.655 36.45c0 1.186.958 2.152 2.135 2.152 1.176 0 2.134-.966 2.134-2.152 0-1.186-.958-2.152-2.134-2.152-1.177 0-2.135.966-2.135 2.152zm2.134-.745c.402 0 .728.334.728.745s-.326.745-.728.745c-.4 0-.728-.334-.728-.745 0-.41.327-.745.728-.745zM31.764 33.748c.572 0 1.109-.225 1.512-.633.827-.837.827-2.2 0-3.037-.404-.408-.94-.633-1.512-.633-.568.001-1.113.229-1.512.633-.827.837-.827 2.2 0 3.037.403.408.94.633 1.512.633zm-.512-2.682c.341-.287.682-.287 1.024 0 .288.293.288.768 0 1.06-.342.288-.683.288-1.024 0-.289-.292-.289-.767 0-1.06z" transform="translate(11 10)"/>
                    </g>
                </g>
            </g>
        </g>
    </g>
</svg>
