<?xml version="1.0" encoding="UTF-8"?>
<svg width="72px" height="72px" viewBox="0 0 72 72" version="1.1" xmlns="http://www.w3.org/2000/svg" xmlns:xlink="http://www.w3.org/1999/xlink">
    <title>Group 23</title>
    <g id="Page-1" stroke="none" stroke-width="1" fill="none" fill-rule="evenodd">
        <g id="Desktop-HD-Copy-2" transform="translate(-811.000000, -4087.000000)">
            <g id="Group-23" transform="translate(811.000000, 4087.000000)">
                <circle id="Oval-Copy-6" fill-opacity="0.1" fill="#0044FF" cx="36" cy="36" r="36"></circle>
                <g id="network" transform="translate(12.000000, 12.000000)">
                    <path d="M23.9986875,10.8124688 C20.6237813,10.8124688 17.2487813,12.1013438 14.67375,14.67375 C12.1013438,17.2487812 10.8124688,20.6237812 10.8124688,23.9986875 C10.8124688,27.3735938 12.1013438,30.7485938 14.67375,33.323625 C17.2487812,35.8986563 20.6236875,37.1849062 23.9986875,37.1849062 C27.3736875,37.1849062 30.7485938,35.89875 33.323625,33.323625 C35.8986563,30.7485 37.1849062,27.3736875 37.1849062,23.9986875 C37.1849062,20.6236875 35.89875,17.2487813 33.323625,14.67375 C30.7485,12.1013438 27.3735938,10.8124688 23.9986875,10.8124688 Z M18.8458125,18.8459062 L27.6366563,18.8459062 L29.151375,18.8459062 L29.151375,20.3633438 L29.151375,23.9986875 L29.151375,27.63675 L29.151375,29.1514687 L27.6366563,29.1514687 L23.9985938,29.1514687 L20.36325,29.1514687 L18.8458125,29.1514687 L18.8458125,27.63675 L18.8458125,23.9986875 L18.8458125,20.3633438 L18.8458125,18.8459062 L18.8458125,18.8459062 Z" id="Shape" fill="#BFDBFF"></path>
                    <polygon id="Path" fill="#7DD9C2" points="23.9986875 18.8459062 20.3633437 18.8459062 18.8459062 18.8459062 18.8459062 20.3633437 18.8459062 23.9986875 18.8459062 27.6366562 18.8459062 29.1514687 20.3633437 29.1514687 23.9986875 29.1514687 27.6366562 29.1514687 29.1514687 29.1514687 29.1514687 27.6366562 29.1514687 23.9986875 29.1514687 20.3633437 29.1514687 18.8459062 27.6366562 18.8459062"></polygon>
                    <path d="M10.8683437,7.69265625 C9.99140625,6.81571875 8.5696875,6.81571875 7.69275,7.69265625 C6.8158125,8.56959375 6.8158125,9.9913125 7.69275,10.86825 C8.5696875,11.7451875 9.99140625,11.7451875 10.8683437,10.86825 C11.7452812,9.9913125 11.7452812,8.56959375 10.8683437,7.69265625 Z" id="Path" fill="#FFE6B4"></path>
                    <path d="M23.9986875,0.9375 C22.757625,0.9375 21.7531875,1.94203125 21.7531875,3.183 C21.7531875,4.4240625 22.7577187,5.43121875 23.9986875,5.43121875 C25.23975,5.43121875 26.2469062,4.4240625 26.2469062,3.183 C26.2468125,1.94203125 25.2396562,0.9375 23.9986875,0.9375 Z" id="Path" fill="#FFE6B4"></path>
                    <path d="M40.3073438,7.69265625 C39.4304063,6.81571875 38.0059687,6.81571875 37.1290312,7.69265625 C36.2520938,8.56959375 36.2520938,9.9913125 37.1290312,10.86825 C38.0059687,11.7451875 39.4304063,11.7451875 40.3073438,10.86825 C41.1842812,9.99140625 41.1842812,8.56959375 40.3073438,7.69265625 Z" id="Path" fill="#FFE6B4"></path>
                    <path d="M44.8142813,21.7531875 C43.5732188,21.7531875 42.5687813,22.7577188 42.5687813,23.9986875 C42.5687813,25.23975 43.5733125,26.2469062 44.8142813,26.2469062 C46.052625,26.2469062 47.0545313,25.2450938 47.0625,24.009375 L47.0625,23.9987812 L47.0625,23.9881875 C47.0545313,22.752375 46.0527187,21.7531875 44.8142813,21.7531875 L44.8142813,21.7531875 Z" id="Path" fill="#FFE6B4"></path>
                    <path d="M40.3073438,37.1290312 C39.4304063,36.2520938 38.0059687,36.2520938 37.1290312,37.1290312 C36.2520938,38.0059687 36.2520938,39.4304063 37.1290312,40.3073438 C38.0059687,41.1842812 39.4304063,41.1842812 40.3073438,40.3073438 C41.1842812,39.4304063 41.1842812,38.0059687 40.3073438,37.1290312 Z" id="Path" fill="#FFE6B4"></path>
                    <path d="M23.9986875,42.5687813 C22.757625,42.5687813 21.7531875,43.5733125 21.7531875,44.8142813 C21.7531875,46.0553437 22.7577187,47.0625 23.9986875,47.0625 C25.23975,47.0625 26.2469062,46.0553437 26.2469062,44.8142813 C26.2468125,43.5733125 25.2396562,42.5687813 23.9986875,42.5687813 Z" id="Path" fill="#FFE6B4"></path>
                    <path d="M10.8683437,37.1290312 C9.99140625,36.2520938 8.5696875,36.2520938 7.69275,37.1290312 C6.8158125,38.0059687 6.8158125,39.4304063 7.69275,40.3073438 C8.5696875,41.1842812 9.99140625,41.1842812 10.8683437,40.3073438 C11.7452812,39.4304063 11.7452812,38.0059687 10.8683437,37.1290312 Z" id="Path" fill="#FFE6B4"></path>
                    <path d="M3.183,21.7531875 C1.94203125,21.7531875 0.9375,22.757625 0.9375,23.9986875 C0.9375,25.23975 1.94203125,26.2469062 3.183,26.2469062 C4.42396875,26.2469062 5.43121875,25.23975 5.43121875,23.9986875 C5.43121875,22.757625 4.4240625,21.7531875 3.183,21.7531875 Z" id="Path" fill="#FFE6B4"></path>
                    <g id="Group" fill="#000000" fill-rule="nonzero">
                        <path d="M33.3953438,24.9360938 C33.9130312,24.9360938 34.3328438,24.5162813 34.3328438,23.9985938 C34.3328438,23.4809063 33.9130312,23.0610938 33.3953438,23.0610938 L30.088875,23.0610938 L30.088875,21.3008438 L31.9921875,21.3008438 C32.509875,21.3008438 32.9296875,20.8810312 32.9296875,20.3633438 C32.9296875,19.8456563 32.509875,19.4258438 31.9921875,19.4258438 L30.088875,19.4258438 L30.088875,18.8459062 C30.088875,18.3282188 29.6690625,17.9084062 29.151375,17.9084062 L28.5741563,17.9084062 L28.5741563,16.0078125 C28.5741563,15.490125 28.1543438,15.0703125 27.6366563,15.0703125 C27.1189688,15.0703125 26.6991563,15.490125 26.6991563,16.0078125 L26.6991563,17.9084062 L24.9360938,17.9084062 L24.9360938,14.6046562 C24.9360938,14.0869688 24.5162813,13.6671562 23.9985938,13.6671562 C23.4809063,13.6671562 23.0610938,14.0869688 23.0610938,14.6046562 L23.0610938,17.9084062 L21.3008438,17.9084062 L21.3008438,16.0078125 C21.3008438,15.490125 20.8810312,15.0703125 20.3633438,15.0703125 C19.8456563,15.0703125 19.4258438,15.490125 19.4258438,16.0078125 L19.4258438,17.9084062 L18.8459062,17.9084062 C18.3282188,17.9084062 17.9084062,18.3282188 17.9084062,18.8459062 L17.9084062,19.4258438 L16.0078125,19.4258438 C15.490125,19.4258438 15.0703125,19.8456563 15.0703125,20.3633438 C15.0703125,20.8810312 15.490125,21.3008438 16.0078125,21.3008438 L17.9084062,21.3008438 L17.9084062,23.0610938 L14.6046562,23.0610938 C14.0869688,23.0610938 13.6671562,23.4809063 13.6671562,23.9985938 C13.6671562,24.5162813 14.0869688,24.9360938 14.6046562,24.9360938 L17.9084062,24.9360938 L17.9084062,26.6991563 L16.0078125,26.6991563 C15.490125,26.6991563 15.0703125,27.1189688 15.0703125,27.6366563 C15.0703125,28.1543438 15.490125,28.5741563 16.0078125,28.5741563 L17.9084062,28.5741563 L17.9084062,29.151375 C17.9084062,29.6690625 18.3282188,30.088875 18.8459062,30.088875 L19.4258438,30.088875 L19.4258438,31.9921875 C19.4258438,32.509875 19.8456563,32.9296875 20.3633438,32.9296875 C20.8810312,32.9296875 21.3008438,32.509875 21.3008438,31.9921875 L21.3008438,30.088875 L23.0610938,30.088875 L23.0610938,33.3953438 C23.0610938,33.9130312 23.4809063,34.3328438 23.9985938,34.3328438 C24.5162813,34.3328438 24.9360938,33.9130312 24.9360938,33.3953438 L24.9360938,30.088875 L26.6991563,30.088875 L26.6991563,31.9921875 C26.6991563,32.509875 27.1189688,32.9296875 27.6366563,32.9296875 C28.1543438,32.9296875 28.5741563,32.509875 28.5741563,31.9921875 L28.5741563,30.088875 L29.151375,30.088875 C29.6690625,30.088875 30.088875,29.6690625 30.088875,29.151375 L30.088875,28.5741563 L31.9921875,28.5741563 C32.509875,28.5741563 32.9296875,28.1543438 32.9296875,27.6366563 C32.9296875,27.1189688 32.509875,26.6991563 31.9921875,26.6991563 L30.088875,26.6991563 L30.088875,24.9360938 L33.3953438,24.9360938 Z M19.7834062,28.213875 L19.7834062,19.7834063 L28.213875,19.7834063 L28.213875,28.213875 L19.7834062,28.213875 Z" id="Shape"></path>
                        <path d="M44.814375,20.8155937 C43.3854375,20.8155937 42.1735312,21.7620937 41.772375,23.0610937 L38.0795625,23.0610937 C38.0769375,23.0215312 38.0747812,22.9820625 38.071875,22.9425 C38.0331562,22.426125 37.5834375,22.0395 37.0667812,22.0778437 C36.5505,22.1165625 36.1633125,22.5665625 36.202125,23.0829375 C36.5986875,28.3641563 33.5762812,33.274125 28.6808437,35.3009063 C22.4496562,37.8829688 15.2789062,34.91325 12.6962812,28.6808438 C10.114125,22.4496562 13.0839375,15.279 19.31625,12.6962812 C24.2112187,10.6684687 29.8216875,12.0035625 33.2773125,16.0186875 C33.6150937,16.411125 34.207125,16.4554687 34.5994687,16.1176875 C34.9919062,15.7799062 35.0361562,15.1880625 34.6984687,14.7955312 C34.672125,14.764875 34.645125,14.734875 34.6185,14.7045 L37.2279375,12.0951562 C37.6815,12.3357187 38.1899062,12.4635 38.7181875,12.4635 C39.56925,12.4635 40.3690312,12.1324687 40.9701562,11.53125 C41.571375,10.9300312 41.9024062,10.1307187 41.9024062,9.2805 C41.9024062,8.43028125 41.571375,7.630875 40.9700625,7.02975 C40.3689375,6.42853125 39.5691562,6.0975 38.7180937,6.0975 C37.8670312,6.0975 37.06725,6.42853125 36.466125,7.02975 C35.8648125,7.630875 35.5337812,8.4301875 35.5337812,9.2805 C35.5337812,9.808125 35.6615625,10.3161562 35.9020312,10.7694375 L33.2937187,13.37775 C30.9330937,11.308125 27.9871875,10.1160937 24.9361875,9.915 L24.9361875,6.22771875 C26.2366875,5.82646875 27.1844062,4.6134375 27.1844062,3.183 C27.1844062,1.4278125 25.7552812,-3.33066907e-15 23.9985937,-3.33066907e-15 C22.2434062,-3.33066907e-15 20.8155937,1.4278125 20.8155937,3.183 C20.8155937,4.61315625 21.7620937,5.826 23.0610937,6.22753125 L23.0610937,9.91678125 C21.5565937,10.0185937 20.0503125,10.3628437 18.5985937,10.96425 C17.138625,11.5692187 15.8339062,12.3925312 14.7064687,13.38075 L12.0951562,10.7694375 C12.335625,10.3161562 12.4634062,9.80821875 12.4634062,9.2805 C12.4634062,8.43028125 12.132375,7.630875 11.5311562,7.02975 C10.9299375,6.42853125 10.130625,6.0975 9.28040625,6.0975 C8.4301875,6.0975 7.630875,6.42853125 7.02975,7.02975 C7.02975,7.02975 7.02975,7.02975 7.02965625,7.02984375 C6.4284375,7.63096875 6.09740625,8.43028125 6.09740625,9.2805 C6.09740625,10.1307187 6.4284375,10.9300312 7.02965625,11.5311562 C7.63078125,12.1324687 8.43009375,12.4635 9.28040625,12.4635 C9.80803125,12.4635 10.3160625,12.3357187 10.7693437,12.09525 L13.3830937,14.7089062 C11.3532187,17.0359687 10.1334375,19.9805625 9.92315625,23.061 L6.22753125,23.061 C5.82609375,21.762 4.61325,20.8155 3.183,20.8155 C1.4278125,20.8155937 -1.99840144e-15,22.2435 -1.99840144e-15,23.9985937 C-1.99840144e-15,25.7551875 1.4278125,27.1843125 3.183,27.1843125 C4.6134375,27.1843125 5.82646875,26.2365 6.22771875,24.9360938 L9.9196875,24.9360938 C10.018125,26.4327188 10.3588125,27.9380625 10.9641562,29.3986875 C11.5692187,30.8586563 12.394125,32.1617813 13.38225,33.289125 L10.7694375,35.9020313 C10.3161562,35.6615625 9.80821875,35.5337813 9.2805,35.5337813 C8.43028125,35.5337813 7.630875,35.8648125 7.02975,36.4660313 C6.42853125,37.06725 6.0975,37.8670313 6.0975,38.7180938 C6.0975,39.5690625 6.42853125,40.3688438 7.02975,40.9700625 C7.630875,41.571375 8.4301875,41.9024063 9.2805,41.9024063 C10.130625,41.9024063 10.9300312,41.571375 11.5311562,40.9701563 C12.1324687,40.3690313 12.4635,39.56925 12.4635,38.7181875 C12.4635,38.1899063 12.3357187,37.6815 12.0951562,37.2279375 L14.7091875,34.6138125 C17.03625,36.6437813 19.9804687,37.8639375 23.061,38.0739375 L23.061,41.7722813 C21.762,42.1734375 20.8155,43.38525 20.8155,44.8142813 C20.8155,46.570875 22.2433125,47.9999063 23.9985,47.9999063 C25.7550937,47.9999063 27.1842187,46.570875 27.1842187,44.8142813 C27.1842187,43.3850625 26.2364062,42.1729688 24.936,41.7720938 L24.936,38.07675 C26.4325312,37.9782187 27.9380625,37.638375 29.3983125,37.0332188 C30.8498437,36.4322813 32.158125,35.6110313 33.2937187,34.619625 L35.9020312,37.2279375 C35.6614687,37.6815 35.5336875,38.1899063 35.5336875,38.7181875 C35.5336875,39.56925 35.8647187,40.3690312 36.4659375,40.9701563 C37.0671562,41.571375 37.8669375,41.9024063 38.718,41.9024063 C39.5689687,41.9024063 40.36875,41.571375 40.9699687,40.9701563 C40.9699687,40.9701563 40.9699687,40.9701563 40.9700625,40.9700625 C41.5712812,40.3689375 41.9023125,39.5691563 41.9023125,38.7180938 C41.9023125,37.8670313 41.5712812,37.06725 40.9700625,36.466125 C40.3689375,35.8648125 39.5691562,35.5337813 38.7180937,35.5337813 C38.1898125,35.5337813 37.6814062,35.6615625 37.2278437,35.902125 L34.6209375,33.2952187 C36.6366562,30.995625 37.8767812,28.0692188 38.0815312,24.9360938 L41.772,24.9360938 C42.172875,26.2365937 43.3849687,27.1843125 44.8141875,27.1843125 C46.5707812,27.1843125 47.9998125,25.7551875 47.9998125,23.9985937 C47.9998125,22.2435 46.5709687,20.8155937 44.814375,20.8155937 Z M37.7919375,8.35565625 C38.0390625,8.10853125 38.3680312,7.9725 38.7181875,7.9725 C39.0683437,7.9725 39.3973125,8.10853125 39.6443437,8.3555625 C39.6443437,8.3555625 39.6443437,8.35565625 39.6444375,8.35565625 C39.8914687,8.6026875 40.0275,8.9311875 40.0275,9.2805 C40.0275,9.6298125 39.8914687,9.95821875 39.6443437,10.2054375 C39.3973125,10.4524687 39.0683437,10.5885 38.7181875,10.5885 C38.3680312,10.5885 38.0390625,10.4524687 37.7919375,10.2053437 C37.5448125,9.95821875 37.4087812,9.6298125 37.4087812,9.2805 C37.4087812,8.9311875 37.5449062,8.6026875 37.7919375,8.35565625 Z M22.6905938,3.183 C22.6905938,2.46178125 23.277375,1.875 23.9985938,1.875 C24.7213125,1.875 25.3093125,2.46178125 25.3093125,3.183 C25.3093125,3.90571875 24.7213125,4.493625 23.9985938,4.493625 C23.277375,4.49371875 22.6905938,3.90571875 22.6905938,3.183 L22.6905938,3.183 Z M10.2053437,10.2053437 C9.95821875,10.4524687 9.6298125,10.5885 9.2805,10.5885 C8.9311875,10.5885 8.6026875,10.4524687 8.35565625,10.2053437 C8.10853125,9.95821875 7.9725,9.6298125 7.9725,9.2805 C7.9725,8.9311875 8.10853125,8.6026875 8.3555625,8.35565625 L8.35565625,8.35565625 C8.6026875,8.10853125 8.9311875,7.9725 9.2805,7.9725 C9.6298125,7.9725 9.95821875,8.10853125 10.2054375,8.35565625 C10.4524687,8.6026875 10.5885,8.9311875 10.5885,9.2805 C10.5885,9.6298125 10.4524687,9.9583125 10.2053437,10.2053437 Z M3.183,25.3094063 C2.46178125,25.3094063 1.875,24.7214063 1.875,23.9986875 C1.875,23.2774687 2.46178125,22.6906875 3.183,22.6906875 C3.90571875,22.6906875 4.493625,23.2774688 4.493625,23.9986875 C4.49371875,24.7213125 3.90571875,25.3094063 3.183,25.3094063 Z M10.2053437,39.6443437 C9.95821875,39.8914688 9.6298125,40.0275 9.2805,40.0275 C8.9311875,40.0275 8.6026875,39.8914687 8.35565625,39.6444375 C8.35565625,39.6444375 8.35565625,39.6443437 8.3555625,39.6443437 C8.10853125,39.3973125 7.9725,39.0683437 7.9725,38.7181875 C7.9725,38.3680312 8.10853125,38.0390625 8.35565625,37.7918437 C8.6026875,37.5448125 8.9311875,37.4087812 9.2805,37.4087812 C9.6298125,37.4087812 9.95821875,37.5448125 10.2053437,37.7919375 C10.4524687,38.0390625 10.5885,38.3680312 10.5885,38.7181875 C10.5885,39.0683437 10.4524687,39.3973125 10.2053437,39.6443437 L10.2053437,39.6443437 Z M25.3094062,44.814375 C25.3094062,45.5370937 24.7214062,46.125 23.9986875,46.125 C23.2774687,46.125 22.6906875,45.5370937 22.6906875,44.814375 C22.6906875,44.0931562 23.2774687,43.506375 23.9986875,43.506375 C24.7213125,43.5062813 25.3094062,44.0930625 25.3094062,44.814375 Z M37.7919375,37.7919375 C38.0390625,37.5448125 38.3680312,37.4087812 38.7181875,37.4087812 C39.0683437,37.4087812 39.3973125,37.5448125 39.6443437,37.7919375 C39.8914688,38.0390625 40.0275,38.3680312 40.0275,38.7181875 C40.0275,39.0683437 39.8914687,39.3973125 39.6444375,39.6443437 C39.6443437,39.6443437 39.6443437,39.6443437 39.6443437,39.6443437 C39.3973125,39.8914688 39.0683437,40.0275 38.7181875,40.0275 C38.3680312,40.0275 38.0390625,39.8914687 37.7918437,39.6443437 C37.5448125,39.3973125 37.4087812,39.0683437 37.4087812,38.7181875 C37.4087812,38.3680312 37.5449062,38.0390625 37.7919375,37.7919375 L37.7919375,37.7919375 Z M44.814375,25.3094063 C44.0931562,25.3094063 43.506375,24.7214063 43.506375,23.9986875 C43.506375,23.2774687 44.0931562,22.6906875 44.814375,22.6906875 C45.5370937,22.6906875 46.125,23.2774688 46.125,23.9986875 C46.125,24.7213125 45.5370937,25.3094063 44.814375,25.3094063 Z" id="Shape"></path>
                        <path d="M35.7479062,18.1190625 C35.4084375,18.28875 35.2010625,18.65775 35.2326562,19.0360313 C35.2658437,19.4322187 35.554875,19.7746875 35.9410312,19.8706875 C36.35325,19.9731562 36.7958437,19.776375 36.9947812,19.4015625 C37.1745,19.0628437 37.1280937,18.6374062 36.8780625,18.3462187 C36.6014062,18.0240937 36.1272187,17.9289375 35.7479062,18.1190625 Z" id="Path"></path>
                    </g>
                </g>
            </g>
        </g>
    </g>
</svg>