<svg xmlns="http://www.w3.org/2000/svg" width="1440" height="627" viewBox="0 0 1440 627">
    <g fill="none" fill-rule="evenodd">
        <g>
            <g transform="translate(0 -103) translate(0 103)">
                <g stroke-linecap="round" stroke-linejoin="round">
                    <path stroke="#E1EAF4" d="M1165.062.959c90.593.095 182.239.095 273.368-.432M825.72.959c102.327.091 204.405.091 306.234 0M565.477.832c69.728.218 139.315.257 208.763.116M250.183.527c85.852.527 171.178.527 257.936.274M1.58.527c61.624.527 123.775.527 185.652 0M538.573 64.104c299.935.169 601.208.169 900.9-.358M134.614 63.81c110.829.463 222.49.463 333.265.284M.527 63.746c14.79.506 29.58.506 44.369 0M1277.513 121.865c53.987.359 108.764.359 161.96-.168M112.577 121.697c360.4.527 719.61.527 1080.253.242M5.794 121.697c11.06.527 21.594.527 31.907 0M31.655 63.588L129.337.938M178.183 64.157L251.152.938" transform="translate(0 370.544)"/>
                    <path stroke="#E1EAF4" d="M374.695.369L229.115 178.594 205.234 207.222 613.164 207.222M469.817 60.922c7.374-19.83 15.801-39.849 23.06-59.816M413.46 207.042c18.435-47.94 36.342-95.355 55.114-142.948" transform="translate(0 370.544)"/>
                    <path stroke="#E1EAF4" d="M205.234 207.222l408.31.21c-1.191-55.474.979-110.633.831-165.97M742.174 18.323c-1.243-5.837-4.403-11.105-6.594-17.227M814.806 208.096L810.666 197.275 799.974 169.343 785.227 130.842 768.878 88.138 753.561 48.099 751.844 43.621M865.053 14.94c-5.088-4.562-7.194-10.883-11.271-14.75M1011.792 207.042C969.52 151.568 926.33 95.724 883.91 39.628M994.917 14.846c-4.918-4.879-10.127-9.453-15.601-13.698M1212.992 207.042L1200.467 195.979 1168.296 167.625 1123.98 128.545 1075.26 85.599 1029.963 45.665 1024.96 41.229M1119.861 13.466L1101.647 1.054M1272.74 118.251c-37.764-25.688-75.686-50.975-112.84-77.38M1373.109 187.023c-31.075-21.6-62.677-42.673-93.921-64.357M1435.26 145.931L1222.852 1.012M1439.473 44.78L1366.789.527" transform="translate(0 370.544)"/>
                    <g stroke="#B2D4FF" opacity=".42">
                        <path d="M.653.4L.843 17.501 50.763 17.501M54.387.4L54.577 17.501 104.497 17.501" transform="translate(0 370.544) translate(1189.29 195.98)"/>
                    </g>
                </g>
                <rect width="112.469" height="28.117" x="76.318" y="128.536" fill="#C4D9F9" fill-rule="nonzero" opacity=".57" rx="12"/>
                <circle cx="99.916" cy="138.075" r="4.519" stroke="#0A67DD"/>
                <path stroke="#0A67DD" d="M91.38 150.337c1.716-4.037 4.925-6.739 8.6-6.739s6.725 3.036 8.472 7.03"/>
                <path stroke="#FFF" stroke-linecap="round" stroke-linejoin="round" d="M115.481 137.071L172.72 137.071M115.481 144.1L172.72 144.1"/>
                <path fill="#ECF3FF" fill-rule="nonzero" d="M1057.406 288.201H1125.691V368.536H1057.406z"/>
                <path fill="#BAD8FF" fill-rule="nonzero" d="M1125.69 368.536L1057.406 288.201 1057.406 368.536z"/>
                <path fill="#FFF" fill-rule="nonzero" d="M958.996 238.996H1074.4769999999999V341.423H958.996z"/>
                <path fill="#BAD8FF" fill-rule="nonzero" d="M970.042 251.046H1064.435V292.21799999999996H970.042z"/>
                <circle cx="975.063" cy="308.285" r="5.021" fill="#248AFF" fill-rule="nonzero"/>
                <path fill="#248AFF" fill-rule="nonzero" d="M971.367 320.323L979.624 320.324 979.626 328.582 971.368 328.581z" transform="rotate(-47.22 975.496 324.452)"/>
                <path stroke="#58A3FF" stroke-width="8" d="M991.13 306.778L1046.36 306.778M990.126 324.854L1062.427 324.854"/>
                <path stroke="#BAD8FF" d="M958.996 341.423L1074.477 341.423 1074.477 241.004"/>
                <ellipse cx="99.916" cy="390.628" fill="#B2D4FF" fill-rule="nonzero" opacity=".16" rx="61.757" ry="7.029"/>
                <ellipse cx="942.427" cy="500.586" fill="#B2D4FF" fill-rule="nonzero" opacity=".16" rx="128.033" ry="14.561"/>
                <path stroke="#B2D4FF" d="M1359.665 8.033H1207.98c-5.817 0-10.534 4.717-10.534 10.536v277.09s-29.43.136-45.558.526c-5.714.143-10.272 4.818-10.27 10.536v76.383c0 5.82-4.716 10.536-10.534 10.536H595.973c-5.818 0-10.534-4.717-10.534-10.536v-45.419M119.498 100.307V41.172h102.311c5.813 0 10.525 4.714 10.525 10.53v110.037h33.153c5.812 0 10.525 4.714 10.525 10.53v52.649h102.09v50.543h196.813c5.812 0 10.524 4.714 10.524 10.53v27.314"/>
                <rect width="50.209" height="20.084" x="206.862" y="54.226" fill="#B2D4FF" fill-rule="nonzero" rx="2"/>
                <path stroke="#0A67DD" stroke-linecap="round" stroke-linejoin="round" d="M88.368 108.954L139.582 108.954M88.368 114.979L139.582 114.979"/>
                <path fill="#B2D4FB" fill-rule="nonzero" d="M345.439 228.954L354.477 224.937 345.439 220.921zM330.377 228.954L339.414 224.937 330.377 220.921zM314.31 228.954L323.347 224.937 314.31 220.921zM298.243 228.954L307.28 224.937 298.243 220.921z"/>
                <path fill="#B2D4FF" fill-rule="nonzero" d="M597.49 325.847c.005 6.933-5.61 12.557-12.542 12.563-6.933.006-12.557-5.61-12.563-12.542-.006-6.932 5.61-12.557 12.542-12.563 3.329-.002 6.523 1.317 8.879 3.67 2.356 2.351 3.68 5.543 3.684 8.872zm-24.047 0c-.006 6.348 5.136 11.499 11.484 11.505 6.348.006 11.498-5.136 11.504-11.484.006-6.348-5.135-11.498-11.483-11.504-6.342.006-11.482 5.142-11.494 11.483h-.01z"/>
                <path fill="#B2D4FF" fill-rule="nonzero" d="M585.44 310.293c-1.664 0-3.013 1.349-3.013 3.012 0 1.664 1.349 3.013 3.012 3.013 1.664 0 3.013-1.349 3.013-3.013 0-1.663-1.349-3.012-3.013-3.012zM585.44 334.393c-1.664 0-3.013 1.35-3.013 3.013 0 1.664 1.349 3.012 3.012 3.012 1.664 0 3.013-1.348 3.013-3.012s-1.349-3.013-3.013-3.013z"/>
                <rect width="45.188" height="16.067" x="1345.607" fill="#DCE7F7" fill-rule="nonzero" rx="2"/>
                <path fill="#B2D4FF" fill-rule="nonzero" d="M1197.51 122.51c-9.705.012-17.582-7.846-17.594-17.552-.011-9.705 7.847-17.582 17.552-17.594 9.706-.012 17.583 7.847 17.595 17.552 0 9.7-7.852 17.571-17.552 17.594zm0-34.211c-9.194-.012-16.658 7.433-16.67 16.628-.011 9.194 7.433 16.658 16.628 16.67 9.195.011 16.659-7.433 16.67-16.628.006-9.192-7.435-16.652-16.627-16.67z"/>
                <circle cx="1197.992" cy="104.435" r="9.038" fill="#B2D4FF" fill-rule="nonzero"/>
                <path stroke="#B2D4FF" d="M1125.69 336.904L1141.757 336.904"/>
                <path fill="#F7C4C4" fill-rule="nonzero" d="M447.803 302.26l1.067 28.558s-23.473 26.444-26.673 50.772c-1.067-26.444-7.469-45.483-7.469-45.483l7.469-11.635-1.067-12.693s20.272 0 26.673-9.52z"/>
                <path fill="#000" fill-rule="nonzero" d="M355.737 492.05s-12.65 81.998-8.433 120.895c39.001 4.205 64.3 6.307 64.3 6.307s17.023-71.222 14.757-87.254c-2.425 41.514 1.054 75.69 7.378 94.613 37.948-1.051 66.408-2.103 66.408-2.103s3.162-84.1-2.108-132.458c-63.246 5.256-142.302 0-142.302 0z"/>
                <path fill="#5B57C2" fill-rule="nonzero" d="M399.42 332.385s12.807 21.375-5.982 69.911c-42.96 32.347-73.83 48.579-73.83 48.579s-33.929 1.056-21.732-32.442c2.615-7.026 6.955-13.274 12.617-18.164 40.773-35.812 88.928-67.884 88.928-67.884z"/>
                <path fill="#CCF" fill-rule="nonzero" d="M302.39 392.636c-10.54 9.858-14.669 24.775-10.69 38.636 2.008 6.004 10.02 19.496 26.298 18.556 15.471-.888 27.03-14.494 26.414-29.97-.241-6.097-1.59-13.679-4.635-23.244-4.006 21.334-9.352 41.32-34.72 29.333-1.338-1.316-12.019-6.652-2.667-33.311z"/>
                <path fill="#F7C4C4" fill-rule="nonzero" d="M300.356 394.9l36.615-80.59s1.35 16.112 17.506 10.744c-10.873 46.305-15.218 73.877-16.757 85.243-.762 6.239-3.772 11.988-8.469 16.175-5.04 4.357-13.71 8.02-23.2 2.652-6.718-4.041-12.656-11.418-5.695-34.223z"/>
                <path fill="#F7C4C4" fill-rule="nonzero" d="M336.476 316.796s-1.332 8.662 7.284 11.227c1.321.515 6.347 1.409 14.297-5.488 2.706-1.818 6.473-3.28 7.357-6.086.492-1.586-.28-3.292-1.79-3.953-.903-.335-1.91-.23-2.726.284 2.862-2.891 8.918-12.226 10.801-15.18.544-.818.84-1.78.853-2.765 0-1.051-.28-1.577-1.415-2.723-.39-.563-1.026-.899-1.706-.899-.68 0-1.318.336-1.707.9-1.134 2.291-5.681 10.333-5.681 10.333s0-6.896-6.826-3.448c0-2.302 1.144-4.594-5.682-1.146 0-2.302-2.268-6.896-6.816 0-4.537 12.626-6.243 18.944-6.243 18.944z"/>
                <path stroke="#221F20" stroke-linecap="round" stroke-linejoin="round" d="M359.498 312.301l-7.563.58c-.907-.017-1.783.329-2.437.963-.653.634-1.03 1.504-1.046 2.417v.14c0 1.17.575 2.93 4.069 2.93h6.977"/>
                <path fill="#F7C4C4" fill-rule="nonzero" d="M418.923 274.507s-3.21 18.071-4.102 27.427c-.316 3.075.18 6.178 1.437 9 2.266 4.946 7.512 10.24 27.802-2.748 2.288-1.455 3.671-3.987 3.661-6.704-.01-1.984-.167-3.965-.472-5.926 0 0 5.246 1.053 5.246-6.314 0-4.21 3.147-13.682-8.393-8.42-4.197-7.367-11.026-18.418-25.18-6.315z"/>
                <path stroke="#221F20" stroke-linecap="round" stroke-linejoin="round" d="M349.456 308.285L355.481 299.247M344.435 306.276L349.456 297.238"/>
                <path stroke="#CCF" d="M374.56 492.05s-3.647 28.165-25.104 46.193M420.261 495.063c-1.043.998-3.084 19.034-2.374 31.772.067 1.357.925 2.564 2.219 3.121 2.507 1.062 5.668 2.262 5.668 2.262M429.79 495.063c0 2.112-3.012 44.184-3.012 44.184"/>
                <path fill="#8E8EED" fill-rule="nonzero" d="M399.201 332.754l23.204-8.403c-.623 3.82-.76 7.7-.412 11.553.414 3.341 2.62 6.193 5.758 7.443 3.139 1.25 6.712.7 9.325-1.435 5.505-4.619 9.564-10.713 11.696-17.56 11.655 0 33.751 2.1 33.751 2.1s-14.239 55.14 7.91 84.547c6.329 13.653 8.438 26.256 7.383 79.82-93.869 5.251-138.167 1.05-141.33-10.503 1.044-19.955 18.974-112.378 42.715-147.562z"/>
                <path fill="#5B57C2" fill-rule="nonzero" d="M356.86 474.98s50.55 17.588 132.693 6.207c3.56-.415 7.082-1.107 10.53-2.07 0 0 0 13.12-1.052 12.768-1.054-.352-50.55 9.994-75.824 7.925-25.275-1.035-63.513-3.549-67.726-7.687.07-5.739.53-11.466 1.38-17.144z"/>
                <path stroke="#221F20" stroke-linecap="round" stroke-linejoin="round" d="M362.51 302.259L355.481 311.297"/>
                <path fill="#221F20" fill-rule="nonzero" d="M445.61 282.077s-2.31 11.217 1.808 16.157c0 0 .658 9.4-1.808 11.833 0 .815 2.466 3.29 4.118-2.475 1.359-4.752 6.648-17.922 8.457-22.372.525-1.262.77-2.623.72-3.99-.114-2.809-1.212-6.83-6.71-5.733 0-3.29.418-13.578-17.707-14.403 0 0-15.534-.783-25.474 14.988-.734 1.125-1.179 2.412-1.297 3.75-.209 2.798 1.16 6.569 13.59 1.837.825 0 3.292-1.65 5.77 2.465 2.466 3.29 12.355 7.416 18.533-2.057z"/>
                <path fill="#000" fill-rule="nonzero" d="M357.512 475.234s30.47 10.147 70.103 9.761c8.048 0 38.876.69 70.271-5.073.19-2.588.19-4.445.19-4.445s-42.302 8.534-68.895 7.834c-26.363.111-63.043-6.83-71.448-10.34-.347 2.242-.221 2.263-.221 2.263z" opacity=".1"/>
                <path fill="#F7C4C4" fill-rule="nonzero" d="M442.845 288.888s9.27-5.421 10.042 3.147c0 2.328 0 5.432-6.952 6.208-1.284-3.028-2.317-6.157-3.09-9.355z"/>
                <path stroke="#221F20" d="M438.828 291.213L450.879 285.188"/>
                <circle cx="414.728" cy="293.222" r="6.025" stroke="#221F20"/>
                <circle cx="433.305" cy="294.728" r="6.527" stroke="#221F20"/>
                <path stroke="#221F20" d="M420.753 292.518s6.025-1.36 6.025 1.708"/>
                <path fill="#000" fill-rule="nonzero" d="M421.757 316.447s5.976 2.162 16.067-4.146c-8.149 6.352-9.556 7.645-15.479 9.038-.294-2.808-.588-4.892-.588-4.892z" opacity=".1"/>
                <path fill="#F7C4C4" fill-rule="nonzero" d="M472.97 465.977l.074 58.65s13.037 5.857 13.616 2.575c.58-3.282 11.163-46.02 11.415-68.812-.01 0-16.532-6.469-25.104 7.587z"/>
                <path fill="#5B57C2" fill-rule="nonzero" d="M465.524 440.204l-6.465-81.736c-.574-6.537.543-13.112 3.243-19.08 2.784-5.958 7.56-11.98 15.734-13.541 17.424-3.343 27.79 10.641 28.946 33.95 1.158 23.307-5.766 103.704-5.766 103.704s-16.12 11.654-31.104 5.832c-2.284-10.494-4.588-29.13-4.588-29.13z"/>
                <path fill="#CCF" fill-rule="nonzero" d="M448.041 323.347s-5.956 19.778-18.518 19.778c-4.187-1.038-7.328-4.153-7.328-18.688-2.313 1.007-4.708 1.816-7.16 2.42 0 0-6.448 18.344 9.254 25.612 1.612-2.183 3.36-4.264 5.234-6.23l5.234 6.23s12.258-2.502 17.126-28.24c-1.253-.402-2.538-.697-3.842-.882z"/>
                <path fill="#000" fill-rule="nonzero" d="M336.075 317.322s-1.045 10.3 8.36 10.3c-5.225 3.09-11.046-4.418-11.046-4.418l2.686-5.882z" opacity=".1"/>
                <path fill="#000" fill-rule="nonzero" d="M471.21 504.1s15.63 26.448 20.84 29.622c-11.462 6.347-22.925 2.116-20.84-29.622z"/>
                <path stroke="#CCF" d="M467.95 496.067s14.613 33.614 33.138 47.197"/>
                <path fill="#5B57C2" fill-rule="nonzero" d="M393.64 372.769L394.512 368.536 415.732 373.624 414.637 378.918 402.517 380.586z"/>
                <circle cx="403.18" cy="377.071" r="1.506" fill="#FAF1E1" fill-rule="nonzero"/>
                <path stroke="#8E8EED" d="M483.013 355.481s2.887 40.18 1.925 64.5c-.963 24.318 1.087 38.931 1.087 38.931"/>
                <path fill="#CCF" fill-rule="nonzero" d="M465.952 451.099c.075 2.061.543 4.25.756 6.216.287 2.72.574 5.44.84 8.16.022.881.256 1.745.681 2.518.789.923 1.885 1.531 3.087 1.71 3.88.89 7.853 1.31 11.834 1.254 6.108 0 12.323-.52 18.006-2.783 1.278-.385 2.384-1.2 3.129-2.306.383-.884.562-1.843.521-2.805l.213-7.045c.158-2.738.097-5.484-.181-8.213-.51-3.825-3.99-1.01-5.63 0-4.256 2.741-9.471 3.262-14.409 2.678-2.553-.327-5.069-.896-7.513-1.7-2.671-.861-7.45-4.25-10.11-1.924-.724.692-1.15 1.636-1.192 2.635-.043.534-.053 1.07-.032 1.605z"/>
                <path stroke="#8E8EED" d="M477.992 369.54c1.081-1.004 14.058-1.004 14.058-1.004M478.996 376.569L491.046 377.573"/>
                <path fill="#000" fill-rule="nonzero" d="M317.322 358.494l-16.03 36.308s-4.274 12.174-2.702 22.747c.744 2.448 1.666 10.436 15.002 14.25-6.516-5.657-13.232-11.304-11.178-24.876 1.865-10.934 14.908-48.43 14.908-48.43zM343.27 429.178c.126-.476 25.266-13.446 25.266-13.446l-1.222 5.755-29.908 19.35c2.704-3.457 4.697-7.42 5.864-11.659zM482.008 325.542s22.039-.275 23.14 49.919c-2.752 41.684-3.566 57.87-4.392 72.13 1.916-.55 2.74-2.474 3.566.275.55-14.272 2.476-52.932 3.29-64.18.55-11.798 2.751-40.32-9.606-52.108-4.941-4.387-10.062-6.956-15.998-6.036zM413.384 327.437s-3.878 8.767.19 16.569c2.483 4.695 6.582 8.376 11.571 10.388l4.61-6.919 5.244 7.002s13.319-1.59 18.892-30.126h-1.462s-2.12 11.656-6.357 17.878c-1.791 2.93-5.351 8.695-11.01 10.098-2.214-2.4-5.297-6.233-5.297-6.233l-5.298 6.233s-7.089-2.255-10.002-10.908c-.223-2.264-1.94-7.105.635-14.72-1.155.53-1.716.738-1.716.738zM393.64 372.552L402.556 380.49 414.728 378.797 414.44 379.908 402.203 381.59zM494.176 469.707s-8.15 59.041-8.15 58.49c0-.551 7.237-31.583 8.684-44.104 1.817-9.16 2.361-15.139 2.361-15.139l-2.895.753zM447.866 298.243s5.147-1.63 4.066-9.038c1.21 2.075 1.274 4.66.167 6.796-1.12 1.23-2.615 2.022-4.233 2.242z" opacity=".1"/>
                <path fill="#000" fill-rule="nonzero" d="M301.656 392.636s-14.87 10.479-12.109 34.038c.637 4.23 4.865 22.513 26.428 24.205 2.953-.423 9.932 0 19.65-7.994 3.814-4.843 11.207-11.368 8.042-30.095-.96-4.756-2.162-9.46-3.601-14.095 0 0 10.569 45.025-23.879 47.764-4.652-.423-24.526-1.682-23.464-34.515.637-4.208 1.37-9.368 8.933-19.308zM467.95 466.25s31.865 5.685 37.095-8.342c.125 2.523.054 5.053-.212 7.565 0 0 .138 3.35-6.899 4.657-8.064 2.164-16.505 2.42-24.68.746-2.705-.54-4.85-.562-5.304-4.625zM452.853 274.74c.626-10.366-7.66-12.477-7.66-12.477-12.87-5.721-24.126 1.478-26.089 2.829-11.204 6.967-11.405 14.071-11.405 14.071s11.15-15.834 25.06-16.52c3.045 0 15.256.295 20.094 12.097z" opacity=".1"/>
                <path fill="#000" fill-rule="nonzero" d="M451.883 274.306s7.884 2.832 3.29 16.907c1.765-4.035 4.561-8.283 3.509-12.85-.362-1.672-1.492-4.994-6.8-4.057zM448.796 319.33s-3.675 16.854-18.001 24.101c2.36-.418 7.713-.418 14.133-11.194 1.563-2.785 2.882-5.695 3.942-8.698l-.074-4.208z" opacity=".1"/>
                <path fill="#FFB6B2" fill-rule="nonzero" d="M148.62 174.823l7.22-12.63-3.401-6.091s-.846-2.618 3.401 0c.7-1.422 2.505-6.284 3.13-8.057.206-.587.64-1.06 1.201-1.304.268-.142.58-.169.869-.075.287.094.527.302.665.577l.063.15.427 1.303s1.69-.438 2.39.845c.288.61.38 1.299.26 1.966-.033.359.179.695.512.812.4.157.758.41 1.044.737.448.524.438 1.261-.418 3.911-1.7 6.102-8.515 21.778-8.515 21.778s-4.602-3.922-8.849-3.922z"/>
                <path fill="#CC4E00" fill-rule="nonzero" d="M145.607 178.177l1.748-2.569c.814-1.247 2.255-1.965 3.765-1.877.834.062 1.656.232 2.445.503 1.137.43 2.349.944 3.304 1.374 1.24.545 1.96 1.83 1.759 3.146-.257 1.815-.976 3.539-2.092 5.012-.869-1.74-8.302-5.59-10.93-5.59z"/>
                <path fill="#FFB6B2" fill-rule="nonzero" d="M80.335 376.569H90.377V386.611H80.335z"/>
                <path fill="#F58220" fill-rule="nonzero" d="M79.362 372.361c0 2.418-.44 5.788 1.967 7.323.802.448 1.7.706 2.623.752 1.58.262 3.2.18 4.744-.24 3.719-1.204 4.292-5.417 3.186-8.647 0-.04-11.69 2.407-12.52.812z"/>
                <path fill="#FFB6B2" fill-rule="nonzero" d="M83.649 175.732c.105 3.67.679 7.314 1.707 10.846-10.243 5.003-17.071 4.164-17.071 4.164s2.45-7.684 2.094-12.176c1.75-1.493 13.27-2.834 13.27-2.834z"/>
                <path fill="#FFB6B2" fill-rule="nonzero" d="M69.867 178.745l-2.587-13.716c1.895-2.746 4.617-4.816 7.77-5.909 3.316-1.213 9.25 0 10.284 3.387.465 1.498.95 2.933 1.341 4.073.39 1.14.728 1.962 1.161 2.912.655 1.403 1.68 4.916-3.769 6.33-6.883 1.604-14.2 2.923-14.2 2.923z"/>
                <path fill="#FFE5B2" fill-rule="nonzero" d="M145.336 215.58s-2.571 6.824-8.553 5.966c-7.703-1.706-41.546-11.512-41.546-11.512s10.336 24.176 14.607 31.847c-29.929 1.706-43.634 3.14-43.634 3.14 0-.858-5.804-33.375 2.655-57.206 4.963-1.601 9.214.136 15.898-4.814 4.817 2.91 43.467 15.531 44.317 15.531.85 0 1.71 0 3.421-3.412l7.882-12.14c1.826-2.92 5.163-4.544 8.594-4.186l.63.104c4.282.859 9.445 2.564 7.703 8.53-1.742 5.965-11.974 28.153-11.974 28.153"/>
                <path stroke="#CC4E00" stroke-linecap="round" stroke-linejoin="round" d="M91.381 208.87L102.427 212.887"/>
                <path fill="#FFB6B2" fill-rule="nonzero" d="M103.5 372.552L100.418 379.418 108.619 382.594 112.469 374.198z"/>
                <path fill="#F58220" fill-rule="nonzero" d="M105.31 366.527c.275 1.112-1.516 3.406-1.77 4.507-.56 2.466 1.129 4.042 3.276 5.336 2.148 1.293 5.425 1.97 7.125-.212.519-.657 2.035-6.842 2.544-6.811-5.312-.283-10.625-.566-11.175-2.82z"/>
                <path fill="#CC4E00" fill-rule="nonzero" d="M66.276 248.512s0 43.715 8.62 109.713c.445 3.533.55 7.182 1.598 10.61.764 2.946 3.225 5.153 6.251 5.605 1.7.218 3.425.14 5.098-.231.932-.14 1.836-.427 2.676-.852 2.116-1.146 2.423-3.565 2.486-5.71.391-14.28 5.405-120.618 5.405-120.618l-32.134 1.483z"/>
                <path fill="#CC4E00" fill-rule="nonzero" d="M111.42 245.02l26.8 44.868s5.696 10.017 2.277 19.456c-3.797 9.901-18.304 49.15-21.378 57.462-1.133 3.062-2.675 5.798-6.294 5.746-1.926-.124-3.79-.74-5.412-1.79-1.311-.627-2.391-1.654-3.084-2.935-.986-2.21.168-4.556.524-6.766.231-1.462.483-2.915.745-4.377.66-3.725 1.374-7.45 2.098-11.164 1.657-8.46 3.374-16.903 5.15-25.328 1.161-5.555 2.336-11.111 3.525-16.667.115-.34.19-.694.22-1.052 0 0-34.616-26.6-45.294-54.253l40.123-3.2z"/>
                <path fill="#F58220" fill-rule="nonzero" d="M65.375 245.293s-.418 3.745.43 3.745 45.66-2.04 45.66-2.04l-2.566-4.99-43.524 3.285z"/>
                <path fill="#314351" fill-rule="nonzero" d="M79.33 394.644h18.076c-.856 0-6.888-7.187-6.888-7.187l-.285-2.854H79.669l-.338 10.041zM101.104 377.573L109.898 381.162 108.888 383.104 113.473 394.644 96.402 386.937z"/>
                <path fill="#000" fill-rule="nonzero" d="M83.347 179.214c0-.06-.153-2.478-.153-2.478l-6.876 1.497s5.433 4.945 7.03.981z" opacity=".1"/>
                <path stroke="#FF8880" stroke-linecap="round" stroke-linejoin="round" stroke-width=".5" d="M162.678 148.619L160.669 152.636M164.686 149.623L162.678 154.644M165.69 152.636L164.686 156.653"/>
                <path fill="#314351" fill-rule="nonzero" d="M60.761 214.747c.628 1.318.787 2.815.45 4.238-.68 3.126-1.393 11.455 11.062 9.738 4.85-.699 13.868-1.398 11.093-18.946-.692-6.358-4.19-8.414.691-16.838 1.393-2.808 3.478-14.03-4.85-17.537-3.142-1.568-5.415-2.745-6.41-4.684-.691-1.284-.222-2.892 1.047-3.592.282-.157.592-.258.911-.297.789-.072 1.584-.022 2.357.149.503 0 4.892-1.43 6.348-4.037.412-.759.5-1.654.246-2.48-.255-.826-.832-1.51-1.597-1.897-.139-.074-.282-.138-.43-.19-5.126-1.509-10.651-.61-15.052 2.447-4.414 3.192-6.586 8.693-5.562 14.083.639 3.709.534 8.477-3.373 12.43-4.138 2.988-11.837 7.523-8.799 15.778 1.166 3.062 3.402 5.584 6.285 7.089 2.21 1.187 4.441 2.257 5.583 4.546z"/>
                <circle cx="60.753" cy="162.176" r="7.531" fill="#314351" fill-rule="nonzero"/>
                <path fill="#000" fill-rule="nonzero" d="M60.911 169.707s-10.176-7.249-1.332-14.058c-4.104.612-6.909 4.268-6.265 8.167.022.162.054.322.096.48.27 1.154 1.806 5.411 7.845 5.35M84.317 160.67s.538 2.16-2.639 4.225c-1.17.853-2.482 1.458-3.867 1.783-.64-.065-3.045-.875-4.212 1.254-.36.72-.39 1.576-.081 2.323.75 1.645 2.094 2.896 3.725 3.469-1.188-1.675-3.32-2.605-3.238-4.593.03-.63.329-1.212.812-1.578.768-.487 1.704-.571 2.537-.227.488 0 7.46-.702 6.963-6.657zM106.444 213.969s33.24 8.705 38.1-2.591c3.604-8.076 7.647-15.952 12.109-23.596l-5.386 13.585-6.914 15.549c-1.099 1.915-2.697 3.503-4.626 4.598-1.676.188-2.245.92-6.166-.188-3.92-1.108-27.117-7.357-27.117-7.357zM84.989 182.762s.875 6.205-1.125 9.43c-1.312 2.27-3.604 5.983-2.083 11.075 1.354 4.54 3.385 13.345.812 18.436-1.343 2.345-3.25 5.888-10.414 6.312-3.51.16-6.478.435-8.915-1.496l.27 1.655s15.133 6.874 20.944-6.365c1.036-5.998.759-12.156-.812-18.033-.916-2.981.125-8.805 1.76-11.467.906-2.514 1.719-7.33-.437-9.547zM166.695 155.649L157.657 176.71 158.384 177.741 164.685 162.021zM103.6 368.34s-.999-1.303 0-4.606c.955-6.972 12.347-60.482 12.347-60.482s-28.847-21.486-43.53-49.618c-1.062-2.104-2.124-4.375-2.124-4.375l4.746-.221s20.438 38.586 45.463 52.91c-12.358 38.565-16.138 67.592-16.138 67.592" opacity=".1"/>
                <path stroke="#F58220" stroke-linecap="round" stroke-linejoin="round" d="M96.402 285.188c-9.32-7.458-23.893-32.495-25.105-35.146"/>
                <path fill="#000" fill-rule="nonzero" d="M66.276 249.038s4.674 84.33 9.964 117.344c.934 4.649 3.09 6.17 3.09 6.17L66.277 249.038zM79.575 384.613l-.244 10.031 18.075-.257s-15.949.762-16.321-3.862c-.22-1.966-.29-3.946-.213-5.922l-1.297.01zM101.094 377.573l-4.692 9.364 17.07 7.707s-15.567-7.57-12.733-13.313c.476-1.129 1.028-2.225 1.654-3.28l-1.3-.478zM146.231 177.865s8.185-1.383 11.426 5.069c-.14.317-.345.6-.603.832 0 0-.71-3.242-5.212-4.247-2.154-.552-4.437-1.308-6.235-.681.181-.34.39-.666.624-.973zM65.272 247.69l45.272-1.665s1.225 1.097.848 1.07c-.377-.029-46.078 1.943-46.078 1.943l-.042-1.349zM79.413 373.111l-.082 1.827s7.782 4.371 13.045-1.198c.03-.401-.019-.804-.143-1.188 0 0-.216 1.996-6.744 2.466-2.19.05-4.332-.621-6.076-1.907zM104.67 368.536s1.097 2.037 5.124 3.478c1.588.437 2.9 1.242 5.687.129-.205.576-.358 1.173-.358 1.173-2.275.503-4.66.211-6.733-.825-1.69-.815-3.801-2.425-3.955-3.389.053-.198.132-.388.236-.566zM60.954 174.728s1.832 7.946-4.26 13.1c-1.193.948-8.076 4.067-8.467 11.518-.134 1.496 0 5.522 6.934 10.485 2.058 1.17 5.999 2.877 6.03 6.819.36.621-.432 2.887-.443 3.583-.061 2.697.247 4.932 2.45 6.713.42-2.75-1.338-7.135-.412-10.655.524-3.53-.926-5.964-4.373-7.46-2.645-1.055-8.334-4.47-8.067-8.937.314-4.258 2.993-7.95 6.883-9.485 2.778-1.36 7.707-5.596 3.725-15.681z" opacity=".1"/>
                <path fill="#0A67DD" fill-rule="nonzero" d="M1172.56 257.071h126.177c13.13 0 23.773 10.565 23.773 23.598s-10.643 23.599-23.773 23.599H1172.56c-13.13 0-23.773-10.566-23.773-23.599s10.643-23.598 23.773-23.598z" opacity=".52"/>
                <path stroke="#FFF" stroke-linecap="round" stroke-linejoin="round" d="M1209.038 269.623L1294.393 269.623M1209.038 280.669L1294.393 280.669M1209.038 290.711L1294.393 290.711"/>
                <circle cx="1182.929" cy="280.167" r="16.067" stroke="#ECF3FF" stroke-width="2"/>
                <path stroke="#ECF3FF" stroke-linecap="round" stroke-linejoin="round" stroke-width="2" d="M1174.895 281.886L1178.969 286.192 1190.962 275.146"/>
                <path fill="#B22485" fill-rule="nonzero" d="M1334.875 279.163s1.774 7.156-.367 11.046c-2.69-1.998-4.423-2.933-5.972-10.154 2.135-.076 4.259-.375 6.34-.892z"/>
                <path fill="#F7C4C4" fill-rule="nonzero" d="M1330.378 269.022c-.149-.085-9.791 1.063-9.791 1.063s-3.278-4.495-3.82-4.899c-.544-.403-.959.68-.959 3.4-.127 1.063-.266 2.126-2.181 2.126-1.916 0-9.28.69-9.28.69s-3.821.818-.682 3.262c-1.224.68-1.777 2.593 2.043 3.273-.947.68-1.362 2.454 1.235 2.454-.82.818-1.639 1.902 2.458 1.774 4.364-.138 25.16-2.029 25.16-2.029-.19-1.096-.45-2.178-.777-3.24-.937-2.965-2.278-7.162-3.406-7.874z"/>
                <path fill="#000" fill-rule="nonzero" d="M1315.241 262.266c-.913.492-1.643 1.267-2.08 2.209-.477 1.104 0 2.834-1.143 3.542-.967.584-3.7.052-4.855.136-.956.073-1.913.187-2.87.354-.196-.245-.465-.42-.768-.5-.558-.135-1.145.04-1.54.458-.027.032-.051.067-.072.104-.124.143-.216.31-.27.49h-.115c-1.944.49-1.122 3.511.832 3.021 3.69-.937 7.402-.364 11.04-1.125.932-.128 1.774-.623 2.34-1.375.842-1.282-.395-3.75 1.04-4.647.693-.444.915-1.357.503-2.07-.412-.714-1.312-.977-2.042-.597z" opacity=".1"/>
                <path stroke="#FF8880" stroke-linecap="round" stroke-linejoin="round" stroke-width=".5" d="M1313.473 273.188L1303.431 274.092"/>
                <path fill="#ECF3FF" fill-rule="nonzero" d="M1269.289 91.381H1430.963V253.055H1269.289z"/>
                <path stroke="#FF8880" stroke-linecap="round" stroke-linejoin="round" stroke-width=".5" d="M1313.473 277.155L1305.439 278.159M1313.473 279.238c-.334 0-6.025.854-6.025.854"/>
                <path fill="#F4C6EF" fill-rule="nonzero" d="M1303.431 252.875s4.307-29.377 16.808-56.682c2.03-4.552 4.842-8.707 8.31-12.275 3.718-3.76 8.97-7.468 19.066-9.19-6.681 11.672-21.924 30.338-27.229 78.326-12.322-.37-16.955-.18-16.955-.18z"/>
                <path fill="#F7C4C4" fill-rule="nonzero" d="M1366.115 159.665l4.596 12.398s-4.585 15.314-16.184 16.724c-1.745 0-4.379-2.617-1.849-12.495 1.27-4.634 1.663-6.044 1.663-6.044s8.924-7.39 11.774-10.583z"/>
                <path fill="#F7C4C4" fill-rule="nonzero" d="M1366.695 161.273s-4.474-13.598-5.696-16.2c-14.517-5.41-18.405 5.804-18.405 5.804s1.766 17.309 4.348 19.859c1.557 2.902 10.117-.757 19.753-9.463z"/>
                <path fill="#F4C6EF" fill-rule="nonzero" d="M1370.483 172.021s7.182-1.615 19.207 2.58c0 26.41 2.11 78.453 2.11 78.453l-73.306-.335s.675-46.474 28.921-77.614c4.704-.483 4.683-.546 4.683-.546s-4.767 12.943 3.228 13.635c2.257.378 9.25-2.234 15.157-16.173z"/>
                <path fill="#000" fill-rule="nonzero" d="M1333.556 207.866c-.428.136-19.079 45.032-19.079 45.032l4.997.156 14.082-45.188z" opacity=".1"/>
                <path fill="#F4C6EF" fill-rule="nonzero" d="M1330.544 268.793s38.262-10.08 43.16-15.278c1.228-3.064.615-9.509 0-14.676-1.216-5.81-1.216-43.107-1.216-43.107s0-19.874 16.221-22.008c3.058 0 15.004 4.226 15.872 20.18.868 15.954-.614 60.224-.614 60.224s2.117 17.433-17.755 22.631c-19.597 5.188-51.436 13.45-51.436 13.45s2.804-8.273-4.232-21.416z"/>
                <path fill="#B22485" fill-rule="nonzero" d="M1221.097 148.118l2.122 22.09c.192 2 3.073 2.02 2.88 0l-2.121-22.09c-.192-1.999-3.073-2.02-2.88 0z"/>
                <path stroke="#B22485" stroke-linecap="round" d="M1319.498 253.054c8.075-31.173 14.058-47.196 14.058-47.196"/>
                <path fill="#314351" fill-rule="nonzero" d="M1343.978 163.067s.792 5.889 3.07 8.812c1.336 1.425 3.764 1.235 7.881-2.11l1.7-1.457c2.23-1.877 3.223-4.82 2.578-7.64.01-.039.01-.079 0-.117-1.273-4.791-1.979-8.137-1.979-8.137.578-.528 1.248-.946 1.979-1.235 1.138-.383 2.394.065 3.02 1.079.626 1.013.456 2.32-.41 3.143-.494.413-1.119.64-1.765.644 3.785 3.989 7.614 8.348 7.646 8.305.032-.042-1.144-12.548-3.005-18.447-.44-1.45-1.294-2.743-2.46-3.726-2.139-1.783-5.25-2.47-10.384.063-1.584.641-3.343.727-4.983.243-1.508-.56-6.289-.148-6.278 7.124-.03.805.224 1.595.717 2.237.684.834 1.84 1.267 3.796.327.472-.22.908-.508 1.294-.854 1.433-1.256 2.556-2.544 3.69-3.346.704-.472 1.57-.649 2.407-.49.836.158 1.575.638 2.052 1.334.11.156.203.322.278.496.78 2.171 1.007 4.498.663 6.776-.363 1.92-1.037 8.675-11.507 6.976z"/>
                <path fill="#000" fill-rule="nonzero" d="M1371.534 200.837s1.737 45.412-3.835 52.168c1.951.093 3.906.054 5.853-.116 0 0 .683-2.485-.673-16.917-.472-15.046-1.345-35.135-1.345-35.135zM1367.883 164.686s7.014 13.692-11.23 23.096c1.398-.072 6.401-2.537 10.77-9.414 1.203-2.044 2.3-4.15 3.288-6.308l-2.828-7.374zM1340.631 150.628s.439-7.48 4.644-7.406c2.578.444 4.76 1.058 7.932-.942.657-.392 7.65-3.883 11.48 6.263-.387-1.724-1.044-5.438-4.102-7.205-1.044-.444-2.682-1.555-7.43.222-1.482.55-2.797 1.662-6.262 1.058-2.157-.792-4.554.218-5.52 2.328-.647 1.818-.9 3.756-.742 5.682z" opacity=".1"/>
                <path stroke="#B22485" stroke-linecap="round" stroke-linejoin="round" d="M1372.85 190.795c-1.904 9.141-.893 14.368-.638 21.536l.766 21.22.383 10.6c.118 3.149.864 6.948-.206 9.908"/>
                <path fill="#000" fill-rule="nonzero" d="M1403.818 199.833s1.216 61.404-11.396 68.064c-7.077 3.336-57.534 16.214-57.534 16.214s.66 5.324-1.332 7.102c9.74-3.324 56.214-15.54 56.214-15.54 7.506-3.1 12.696-10.105 13.492-18.213.556-14.783.556-57.627.556-57.627z" opacity=".1"/>
                <path stroke="#B22485" d="M1351.632 263.096c2.902 7 4.26 14.532 3.981 22.092"/>
                <path fill="#000" fill-rule="nonzero" d="M1352.636 173.724s5.628-4.117 6.025-8.034c-.558 1.33-1.424 2.512-2.53 3.452-.943.75-2.584 2.112-2.905 2.333l-.59 2.249zM1342.594 152.617l.115 1.023c1.725-.398 3.313-1.23 4.607-2.415 1.518-1.627 4.512-4.983 7.328-2.046-.409-.71-1.09-1.232-1.893-1.451-.803-.219-1.663-.117-2.389.284l-.23.143c-.576.369-3.015 2.661-3.612 3.244-.481.42-2.596 1.893-3.926 1.218z" opacity=".1"/>
                <path stroke="#B22485" stroke-linecap="round" stroke-linejoin="round" d="M1352.117 174.035s-2.453 6.133-1.062 10.323c.87 2.677 3.451 4.15 6.159 3.066 3.186-1.288 8.496-4.681 13.497-15.709"/>
                <path fill="#ECF3FF" fill-rule="nonzero" d="M1264.268 81.339H1431.967V86.36H1264.268z"/>
                <path stroke="#FFF" d="M1276.318 96.904L1425.941 96.904M1276.318 101.925L1425.941 101.925M1276.318 107.95L1425.941 107.95M1276.318 112.971L1425.941 112.971M1276.318 117.992L1425.941 117.992M1283.849 91.381L1283.849 118.494M1419.414 90.377L1419.414 118.494M1279.833 118.494L1279.833 153.64"/>
                <circle cx="1279.833" cy="154.142" r="1.506" fill="#FFF" fill-rule="nonzero"/>
                <path fill="#B2D4FF" fill-rule="nonzero" d="M798.326 397.657L807.364 393.64 798.326 389.623zM782.259 397.657L791.297 393.64 782.259 389.623zM766.192 397.657L775.23 393.64 766.192 389.623zM751.13 397.657L760.167 393.64 751.13 389.623z"/>
                <path fill="#C4D9F9" fill-rule="nonzero" d="M257.071 264.1H394.644V334.39300000000003H257.071z" opacity=".74"/>
                <path fill="#B2D4FF" fill-rule="nonzero" d="M315.314 264.1L394.644 264.1 394.644 334.393 384.518 334.393z" opacity=".64"/>
                <path fill="#58A3FF" fill-rule="nonzero" d="M260.03 264.716v69.677c0-.453-3.682 0-3.682 0s-.633-70.9 0-70.289h3.736" opacity=".78"/>
                <path fill="#FFF" fill-rule="nonzero" d="M311.297 284.184H384.60200000000003V289.20500000000004H311.297zM311.297 295.23H384.60200000000003V300.25100000000003H311.297z"/>
                <path fill="#0A67DD" fill-rule="nonzero" d="M352.469 305.272H384.603V310.293H352.469z" opacity=".74"/>
                <g stroke="#0A67DD" stroke-width="1.5" opacity=".43">
                    <path d="M0.448 0.568H33.47V21.892000000000003H0.448z" transform="translate(271.13 283.18)"/>
                    <path d="M.459.568L16.964 15.633 33.47.568M.448 21.892L13.401 12.508M33.47 21.892L20.432 12.456" transform="translate(271.13 283.18)"/>
                </g>
                <circle cx="72.803" cy="107.95" r="4.519" stroke="#0A67DD"/>
                <path stroke="#0A67DD" d="M64.268 120.502c1.707-4.2 4.9-7.03 8.556-7.03 3.657 0 6.808 2.786 8.515 6.94"/>
                <rect width="90.377" height="25.105" x="55.23" y="100.418" stroke="#C4D9F9" rx="12"/>
                <path fill="#F7C4C4" fill-rule="nonzero" d="M862.594 482.107l-8.22-2.107s-5.304 5.804-1.38 14.325l5.05.738 4.55-12.956z"/>
                <path fill="#314351" fill-rule="nonzero" d="M854.56 479.35l-9.6-2.363-7.47 26.477c3.494 1.59 7.616.104 9.299-3.352 3.117-6.046 4.561-6.837 5.953-6.681-1.517-1.395-.3-11.22 1.819-14.081z"/>
                <path fill="#427F30" fill-rule="nonzero" d="M904.117 422.713c-.218.076-6.534.357-8.385-2.163.338-1.006 1.971-4.911 9.038-6.826-.479 2.972-.697 5.98-.653 8.989z"/>
                <path fill="#F7C4C4" fill-rule="nonzero" d="M930.879 334.747l-.206 8.666s-14.566.698-17.87-6.646c.943-2.492 1.69-4.205 2.253-5.343.323-.717.714-1.403 1.17-2.052l14.653 5.375z"/>
                <path fill="#B22485" fill-rule="nonzero" d="M904.818 410.711s-6.656 18.904 7.507 39.551c.871 23.836.871 28.515.871 28.515l-50.877 3.168-4.746 13.106 70.615 3.75s10.688 3.495 12.137-14.248c1.449-17.742 2.604-42.444 2.604-42.444s-34.394-30.521-38.111-31.398z"/>
                <path fill="#B22485" fill-rule="nonzero" d="M908.559 410.305s-3.502 4.72-.684 13.888c3.625 11.213 13.533 19.21 25.237 20.37 4.801.486 9.636.546 14.448.179 10.334-.91 20.55-2.863 30.494-5.828l5.195 55.85s11.094 1.148 14.721-1.054c1.704-18.273 3.386-42.751 5.006-56.218 1.503-12.55-5.384-22.793-17.876-24.658-.463-.063-6.404-.411-6.888-.464-19.895-2.107-29.947-.632-29.947-.632s-33.997-8.04-39.706-1.433z"/>
                <path fill="#F7C4C4" fill-rule="nonzero" d="M936.39 317.173l1.472 11.544s.854 6.527-4.785 7.577c-1.492.245-3.022.07-4.424-.504-4.383-1.731-11.833-5.363-11.833-5.363s4.198-15.51 11.823-19.939c1.1-.346 6.39-1.091 7.747 6.685z"/>
                <path fill="#7DCC7A" fill-rule="nonzero" d="M913.518 336.402s3.634 7.338 17.409 7.338c6.266 31.451 17.023 68.563 17.023 68.563s-23.916-3.449-40.73.965c-5.932 1.918-9.18 3.072-11.488 7.485 1.368-11.616 2.904-48.487 17.786-84.351z"/>
                <path fill="#000" fill-rule="nonzero" d="M905.602 413.795s-9.726 32.722 37.327 33.067l-.533-1.702s-15.89 1.817-26.755-8.356c-2.246-2.235-10.875-9.692-8.21-24.084-.654.278-1.269.64-1.829 1.075z" opacity=".1"/>
                <g fill="#DCF5DE" fill-rule="nonzero">
                    <path d="M2.405 66.713c25.62-10.402 54.338-10.236 79.835.462.464.2.675-.567.21-.757-25.633-10.744-54.499-10.91-80.256-.462-.464.189-.263.946.211.757z" transform="translate(886.695 345.44)"/>
                    <path d="M3.524 56.768c9.717-5.256 22.63-5.824 33.465-5.96 11.539-.12 23.041 1.295 34.204 4.204.136.038.282 0 .382-.098.1-.098.14-.243.106-.378-.036-.136-.141-.243-.277-.28-11.873-3.104-24.127-4.52-36.398-4.206-10.382.295-22.588.999-31.883 6.034-.454.242-.053.926.4.684z" transform="translate(886.695 345.44)"/>
                    <path d="M1.055 48.946c24.209-7.744 50.397-6.626 73.852 3.154.464.19.675-.567.211-.767C51.524 41.516 25.191 40.398.844 48.179c-.485.179-.274.915.211.767zM8.24 40.179c19.45-6.056 40.351-5.643 59.546 1.177.485.18.696-.588.21-.757-19.332-6.857-40.378-7.27-59.967-1.177-.475.147-.275.915.21.757z" transform="translate(886.695 345.44)"/>
                    <path d="M9.232 32.2c18.822-5.35 38.954-3.71 56.655 4.615.464.22.865-.463.4-.683-17.883-8.429-38.231-10.095-57.256-4.689-.212.057-.338.272-.285.484.066.203.277.322.486.273zM9.105 25.924c17.882-5.782 37.19-5.449 54.861.946.486.179.686-.589.211-.757-17.8-6.44-37.25-6.773-55.262-.946-.475.147-.274.915.211.757h-.021z" transform="translate(886.695 345.44)"/>
                    <path d="M9.97 19.88c15.844-5.769 33.244-5.65 49.006.336.485.178.686-.579.211-.757-15.899-6.03-33.445-6.154-49.428-.347-.475.179-.264.935.211.767z" transform="translate(886.695 345.44)"/>
                    <path d="M10.255 14.276C27.902 6.759 47.98 7.39 65.116 16c.454.231.855-.452.401-.673-17.384-8.75-37.764-9.385-55.663-1.734-.475.2-.063.872.4.683z" transform="translate(886.695 345.44)"/>
                    <path d="M17.935 5.35C32.6-2.585 48.795 2.997 63.302 8.432c.474.179.686-.578.21-.757-14.685-5.53-31.07-11.049-45.925-3.006-.496.241-.052.925.348.683z" transform="translate(886.695 345.44)"/>
                </g>
                <path fill="#F7C4C4" fill-rule="nonzero" d="M989.64 343.431v.167l-19.673 29.422s-20.285-14.925-31.521-23.648c-10.814-8.734-16.438-3.2-17.727-1.272-7.4 10.87 1.723 16.833 1.723 16.833l2.833 1.407 10.57 5.21 14.25 7.005 13.477 6.639 5.053 2.47c2.463 1.198 4.672 2.606 7.526 1.636 2.26-.94 4.124-2.613 5.285-4.742 1.924-3.127 2.918-6.868 4.229-10.308 1.374-3.669 2.78-7.296 4.143-10.996 1.713-4.617 3.478-9.234 5.053-13.914.507-1.542.91-2.824 1.29-3.908-2.287-.218-4.504-.899-6.512-2.001zM983.096 495.107l.396 6.931s7.264 3.659 14.667-2.631c0-3.808-.096-5.348-.096-5.348l-14.967 1.048z"/>
                <path fill="#314351" fill-rule="nonzero" d="M983.096 501.173l.361 9.957h28.68c.582-3.82-2.063-7.4-5.99-8.109-6.958-1.386-8.158-2.546-8.403-3.942-.977 1.91-11.174 3.367-14.648 2.094zM931.72 315.298c0-.431 3.626 2.651 5.184 2.651-.456-3.642-1.4-7.544-8.024-8.525-3.35-.248-10.176-.97-11.734 6.941-1.442 5.97-1.908 13.946-.403 14.011.859.054 4.791-4.085 6.042-5.68-.149.065-.317.065-.466 0-.314-.04-.614-.15-.88-.323-.456-.356-.34-.873-.191-1.347.292-1.02.87-1.93 1.664-2.62.414-.344 1.06-.786 1.664-.517.454.333.713.876.69 1.445.116 1.713 1.345.57 1.345.57s4.993-3.599 5.11-6.606z"/>
                <path fill="#314351" fill-rule="nonzero" d="M919.446 309.803c.783-2.167.36-4.587-1.114-6.36-.708-.795-1.585-1.421-2.567-1.833-3.108-1.304-9.229-3.095-11.414 2.363-.467 1.675-1.867 5.13 2.525 11.564 2.956 4.343 4.098 9.668 3.182 14.84 1.687-.467 6.067-2.523 7.287-5.692.02-4.096.374-8.184 1.061-12.221.158-.95.512-1.856 1.04-2.66z"/>
                <path fill="#7DCC7A" fill-rule="nonzero" d="M918.379 313.086s-1.908.91-1.502-.972c.406-1.54 2.03-3.277 3.045-2.718.619.279 1.015.558.893 1.25-1.044.532-1.896 1.386-2.436 2.44z"/>
                <path fill="#000" fill-rule="nonzero" d="M930.879 336.495l-.32 3.923s-9.5-4.14-10.726-8.033c3.145 1.553 8.668 3.986 11.046 4.11z" opacity=".1"/>
                <path stroke="#F4C6EF" stroke-width=".5" d="M924.081 410.711s-2.044 12.135 6.007 15.764c6.356 2.702 11.356 2.86 18.157 3.166 4.164.19 10.594-.39 14.832-.517 4.237-.127 9.915-1.414 14.004-1.32 6.6.149 13.518 1.69 14.376 10.057 1.123 11.005.55 22.37.37 33.417-.12 7.491-.296 14.983-.529 22.475v.306M907.097 413.724s-3.13 14.42 10.226 25.193c2.087 1.94 10.361 7.622 25.606 6.873"/>
                <path stroke="#F4C6EF" stroke-width=".5" d="M911.8 432.426l8.651-5.648s9.124 6.875 9.423 12.523c0 1.375-.32 4.39-2.794 4.548M922.845 428.787L914.812 435.816"/>
                <path fill="#000" fill-rule="nonzero" d="M930.879 314.31s2.989 4.518 5.02 5.02c.004-.532-.032-1.063-.106-1.587 0 0 .29.934-4.914-3.433zM917.824 303.665s-1.84-2.925-8.981-3.414c-1.274.104-4.998.593-6.02 5.423-.262 2.538.325 5.089 1.676 7.287.925 1.655 4.55 6.246 4.953 12.096 0 0 .207 3.956-.403 5.32 2.2-4.55 2.2-9.795 0-14.345-2.253-4.393-4.8-8.494-3.472-10.93.718-1.562 3.668-5.923 12.247-1.437zM917.824 313.305s.234-1.112 2.985-2.477c.037-.177.037-.358 0-.535-1.446.601-2.53 1.695-2.985 3.012zM922.56 324.349s-2.195-.654-.593-3.383c.395-.507 1.624-2.255 2.887-1.127-.176-.27-.856-1.128-2.36.27-.864.827-1.445 1.919-1.657 3.112 0 .305.164 1.184 1.723 1.128zM913.808 336.402s-12.25 19.09-18.076 84.351c1.712-2.286 3.19-4.531 6.518-5.527 0-4.532-3.328-32.579 11.558-78.824zM917.842 356.882c-.21 3.43 1.474 6.696 4.377 8.487 5.72 2.98 44.894 22.776 44.894 22.776s5.165 3.713 8.398 2.058c3.075-1.857 4.282-1.857 7.347-9.611 3.065-7.755 11.284-31.136 11.284-31.136s-7.557 23.53-14.307 33.67c-2.15 3.222-6.218 4.511-9.804 3.11-13.645-5.305-49.114-23.71-52.19-29.354z" opacity=".1"/>
                <path fill="#000" fill-rule="nonzero" d="M931.17 345.4s-8.423-3.717-12.74 6.71c-.748 3.108-1.6 7.954 3 12.158 3.749 2.206 16.478 8.284 16.478 8.284s-15.109-5.333-17.12-6.917c-2.01-1.584-7.728-7.249-3.38-16.403 2.275-4.463 7.918-8.253 13.762-3.831z" opacity=".1"/>
                <path fill="#606060" fill-rule="nonzero" d="M997.988 345.46h-.09v.283c.789 4.049-2.752 3.776-2.752 3.776 1.421 1.395 2.255.902 2.797.63 2.12-.923.834-4.678.834-4.71-.248 0-.519.032-.79.021z" opacity=".1"/>
                <path fill="#000" fill-rule="nonzero" d="M857.859 493.828l69.392-.232s10.477.697 14.674-18.617l-1.375 13.535s-1.47 10.386-10.392 10.565c-9.588-.813-72.585-4.057-72.585-4.057l.286-1.194zM978.075 438.828L985.105 494.734 983.112 495.063zM983.103 501.088l.362 10.678h28.753c-.096 0-29.626 3.434-29.115-10.678zM855.565 479.39l-9.989-2.403s-8 27.366-8.086 27.112c-.086-.254 8.648-27.334 18.075-24.708z" opacity=".1"/>
                <path fill="#B22485" fill-rule="nonzero" d="M994.248 326.085c0 .14-.106 1.499-.106 1.499.346.125.662.397.914.784 0-.709.03-1.417.09-2.12l-.4-1.897-.498 1.734z"/>
                <path fill="#F7C4C4" fill-rule="nonzero" d="M994.43 348.35s1.958-4.166 2.938-5.957c1.156-1.98 4.167-6.718 2.083-8.613.063-1.5.083-2.937-2.688-3.875-.52-.687-2.26-2.478-2.916-2.541-.23.312-.167 1.698 1.458 4.29-.333 1.365-.417 4.167-2.469 4.48-.343-1.266-.167-2.615.49-3.75.677-1.208.875-2.635.083-3.124-.677.678-1.437 1.269-2.26 1.76-.482.263-.835.71-.98 1.239-.897 3.46-1.363 7.018-1.385 10.592-.086 1.5-.31 2.988-.667 4.447 0 0 2.542 4.051 6.313 1.052z"/>
                <path fill="#B22485" fill-rule="nonzero" d="M995.146 329.85l-.865 12.014s-.19.744-.745.521c-.247-.215-.395-.563-.398-.935l1.169-14.086c.244.846.524 1.676.84 2.486z"/>
                <path stroke="#FF8880" stroke-linecap="round" stroke-linejoin="round" stroke-width=".2" d="M997.155 329.372c.772.992 1.125 2.305.967 3.605v2.42M999.831 333.389L999.5 337.406"/>
                <path fill="#314351" fill-rule="nonzero" d="M994.438 325.064L994.85 325.115 994.669 324.592z"/>
                <path stroke="#B2D4FF" d="M118.494 41.172h-16.387c-1.487 0-2.693-1.243-2.693-2.776v-8.27"/>
                <rect width="51.213" height="18.075" x="75.314" y="13.054" fill="#DCE7F7" fill-rule="nonzero" rx="2"/>
                <path stroke="#E1EAF4" stroke-linecap="round" stroke-linejoin="round" d="M204.854 577.772L613.556 578.044"/>
            </g>
        </g>
    </g>
</svg>
