<svg xmlns="http://www.w3.org/2000/svg" width="69" height="69" viewBox="0 0 69 69">
    <g fill="none" fill-rule="evenodd">
        <g>
            <g transform="translate(-538 -1982) translate(538 1982)">
                <circle cx="34.5" cy="34.5" r="34.5" fill="#04F" fill-opacity=".1"/>
                <g fill-rule="nonzero" transform="translate(11 11)">
                    <path fill="#E6E7E8" d="M43.074 35.574h-7.191c-2.795 0-5.069 2.27-5.076 5.063h-2.03c-1.881 0-3.41-1.53-3.41-3.41v-4.253h7.254c.237 0 .429-.192.429-.429 0-1.62-1.319-2.94-2.94-2.94h-2.086v-3.469h14.308c1.189 0 2.156-.967 2.156-2.156V3.96c0-1.188-.967-2.155-2.156-2.155H7.543c-1.189 0-2.156.967-2.156 2.156V23.98c0 1.189.967 2.156 2.156 2.156h14.308v3.47h-6.803c-1.01 0-1.985.304-2.818.879l-.281.194-.12-.09c-.851-.634-1.904-.983-2.964-.983H2.206c-.236 0-.428.192-.428.429v16.32c0 .236.192.428.428.428H8.9c.844 0 1.655.255 2.347.738l.447.312c.074.052.16.077.246.077.082 0 .165-.024.237-.071l.557-.37c.675-.449 1.46-.686 2.27-.686h6.669c.236 0 .428-.192.428-.428V32.974h2.408v4.253c0 2.353 1.915 4.267 4.267 4.267h2.03c.008 2.793 2.282 5.063 5.077 5.063h7.19c2.8 0 5.078-2.277 5.078-5.077v-.829c0-2.8-2.278-5.077-5.077-5.077z"/>
                    <path fill="#6DC9F7" d="M20.566 23.993L25.881 23.993 25.881 28.32 20.566 28.32zM40.617 23.993H5.829c-.954 0-1.728-.773-1.728-1.727V2.246c0-.953.774-1.727 1.728-1.727h34.788c.954 0 1.728.774 1.728 1.728v20.019c0 .954-.774 1.727-1.728 1.727z"/>
                    <path fill="#D4FBFF" d="M38.764 2.603H7.683c-.573 0-1.036.464-1.036 1.036v15.46c0 .572.463 1.036 1.036 1.036h31.08c.573 0 1.037-.464 1.037-1.036V3.64c0-.572-.464-1.036-1.036-1.036z"/>
                    <path fill="#FA759E" d="M25.84 9.643l-4.348-3.034c-.513-.357-1.216.01-1.216.635v6.066c0 .625.703.992 1.216.634l4.347-3.033c.441-.308.441-.96 0-1.268z"/>
                    <circle cx="23.223" cy="21.851" r="1" fill="#0089EF"/>
                    <path fill="#6DC9F7" d="M30.906 30.831c0-1.386-1.124-2.51-2.51-2.51h-8.438v2.51h10.948z"/>
                    <path fill="#FFD7E5" d="M46.008 38.937v.829c0 2.567-2.081 4.649-4.649 4.649h-7.19c-2.568 0-4.65-2.082-4.65-4.65v-.828c0-2.567 2.082-4.648 4.65-4.648h7.19c2.567 0 4.649 2.08 4.649 4.648z"/>
                    <path fill="#0089EF" d="M35.304 40.656h-1.976c-.564 0-1.02-.457-1.02-1.02v-.484c0-.564.456-1.021 1.02-1.021h1.976c.564 0 1.021.457 1.021 1.02v.484c0 .564-.457 1.021-1.02 1.021z"/>
                    <path fill="#FA759E" d="M19.958 44.64H13.29c-.892 0-1.763.263-2.507.757l-.557.37-.448-.312c-.76-.53-1.664-.815-2.591-.815H.492V28.32H7.15c.976 0 1.925.315 2.708.898l.367.274.534-.37c.757-.522 1.655-.802 2.575-.802h6.624v16.32z"/>
                    <path fill="#FFF" d="M13.334 28.32c-.92 0-1.818.28-2.575.803l-.534.369-.367-.274c-.782-.583-1.731-.898-2.707-.898H.492v1.286H7.15c.976 0 1.925.315 2.708.898l.367.273.534-.369c.757-.522 1.655-.802 2.575-.802h6.624V28.32h-6.624z"/>
                    <g fill="#3A2C60">
                        <path d="M31.179 23.565c-.237 0-.429.192-.429.428 0 .237.192.429.429.429h3.432c.237 0 .429-.192.429-.429 0-.236-.192-.428-.429-.428h-3.432zM38.06 17.831c0-.236-.191-.428-.428-.428H8.814c-.236 0-.428.192-.428.428 0 .237.192.429.428.429h28.818c.237 0 .429-.192.429-.429z"/>
                        <path d="M41.36 33.86h-7.191c-2.795 0-5.069 2.27-5.077 5.063h-2.03c-1.88 0-3.41-1.53-3.41-3.41V31.26h7.255c.236 0 .428-.192.428-.429 0-1.62-1.318-2.94-2.94-2.94H26.31v-3.47h3.21c.237 0 .429-.191.429-.428 0-.236-.192-.428-.429-.428H5.83c-.716 0-1.299-.583-1.299-1.3V2.248c0-.717.583-1.3 1.299-1.3h34.788c.716 0 1.299.583 1.299 1.3v20.019c0 .716-.583 1.299-1.299 1.299h-4.439c-.236 0-.428.192-.428.428 0 .237.192.429.428.429h4.439c1.189 0 2.156-.968 2.156-2.156V2.246c0-1.188-.967-2.156-2.156-2.156H5.829c-1.189 0-2.156.968-2.156 2.157v20.019c0 1.188.967 2.156 2.156 2.156h14.308v3.47h-6.803c-1.01 0-1.985.303-2.818.878l-.281.195-.121-.09c-.85-.634-1.903-.983-2.964-.983H.492c-.237 0-.429.192-.429.428v16.32c0 .237.192.429.429.429h6.694c.843 0 1.655.255 2.346.738l.448.312c.073.051.16.077.245.077.083 0 .166-.024.238-.071l.556-.37c.675-.449 1.46-.686 2.27-.686h6.67c.236 0 .428-.192.428-.429V31.26h2.408v4.253c0 2.353 1.914 4.267 4.267 4.267h2.03c.008 2.793 2.282 5.063 5.077 5.063h7.19c2.8 0 5.078-2.278 5.078-5.078v-.828c0-2.8-2.278-5.077-5.078-5.077zm-20.366-9.438h4.458v3.47h-4.458v-3.47zM7.186 44.212H.92V28.748h6.23c.877 0 1.747.288 2.45.813l.195.145v15.251c-.784-.487-1.68-.747-2.61-.747zm12.344 0h-6.24c-.938 0-1.845.264-2.636.761V29.717l.349-.242c.688-.475 1.495-.726 2.33-.726h6.197V44.21zm.857-15.463H28.395c1.002 0 1.84.71 2.038 1.653H20.387V28.75zm15.51 10.886c0 .327-.266.592-.593.592h-1.976c-.326 0-.592-.265-.592-.592v-.483c0-.326.266-.592.592-.592h1.976c.327 0 .593.266.593.592v.483zm-1.728-4.918h1.728v3.115c-.182-.082-.381-.13-.593-.13h-1.976c-.72 0-1.315.53-1.426 1.221h-1.953c.008-2.32 1.897-4.206 4.22-4.206zm-4.22 5.063h1.944c.075.73.686 1.304 1.435 1.304h1.976c.212 0 .411-.048.593-.13v3.032h-1.728c-2.323 0-4.212-1.885-4.22-4.206zm15.63-.014c0 2.327-1.893 4.22-4.22 4.22h-4.605V34.717h4.605c2.327 0 4.22 1.893 4.22 4.22v.829z"/>
                        <path d="M12.149 31.2c0 .236.192.428.428.428h4.988c.237 0 .429-.192.429-.428 0-.237-.192-.429-.429-.429h-4.988c-.236 0-.428.192-.428.429zM17.565 33.326h-4.988c-.236 0-.428.192-.428.428 0 .237.192.429.428.429h4.988c.237 0 .429-.192.429-.429 0-.236-.192-.428-.429-.428zM17.565 35.88h-4.988c-.236 0-.428.193-.428.43 0 .236.192.428.428.428h4.988c.237 0 .429-.192.429-.429 0-.236-.192-.428-.429-.428zM17.565 38.436h-4.988c-.236 0-.428.192-.428.428 0 .237.192.429.428.429h4.988c.237 0 .429-.192.429-.429 0-.236-.192-.428-.429-.428zM17.565 40.99h-4.988c-.236 0-.428.193-.428.43 0 .236.192.428.428.428h4.988c.237 0 .429-.192.429-.429 0-.236-.192-.428-.429-.428zM7.873 30.771H2.885c-.237 0-.429.192-.429.429 0 .236.192.428.429.428h4.988c.236 0 .428-.192.428-.428 0-.237-.191-.429-.428-.429zM7.873 33.326H2.885c-.237 0-.429.192-.429.428 0 .237.192.429.429.429h4.988c.236 0 .428-.192.428-.429 0-.236-.191-.428-.428-.428zM7.873 35.88H2.885c-.237 0-.429.193-.429.43 0 .236.192.428.429.428h4.988c.236 0 .428-.192.428-.429 0-.236-.191-.428-.428-.428zM7.873 38.436H2.885c-.237 0-.429.192-.429.428 0 .237.192.429.429.429h4.988c.236 0 .428-.192.428-.429 0-.236-.191-.428-.428-.428zM7.873 40.99H2.885c-.237 0-.429.193-.429.43 0 .236.192.428.429.428h4.988c.236 0 .428-.192.428-.429 0-.236-.191-.428-.428-.428z"/>
                    </g>
                    <path fill="#FA759E" d="M31.893 16.639h-.197c-.237 0-.429.192-.429.428v1.527c0 .237.192.429.429.429h.197c.236 0 .428-.192.428-.429v-1.527c0-.236-.191-.428-.428-.428z"/>
                </g>
            </g>
        </g>
    </g>
</svg>
