<svg xmlns="http://www.w3.org/2000/svg" width="84" height="77" viewBox="0 0 84 77">
    <g fill="none" fill-rule="evenodd">
        <g fill-rule="nonzero">
            <g>
                <path fill="#E6E7E8" d="M82.797 68.634h-6.211V28.218c0-2.665-2.17-4.834-4.834-4.834h-5.577l-2.338-1.513c-1.056-.683-1.494-2.031-1.042-3.206l1.022-2.649c.497-1.289.31-2.724-.502-3.841s-2.118-1.731-3.499-1.666l-2.835.154c-1.243.074-2.402-.765-2.727-1.982l-.73-2.743c-.356-1.335-1.352-2.386-2.665-2.812-1.313-.427-2.738-.162-3.809.708l-2.203 1.79c-.978.794-2.395.794-3.371 0l-2.204-1.79c-1.072-.87-2.497-1.135-3.81-.708-1.312.426-2.308 1.477-2.663 2.81l-.732 2.746c-.323 1.215-1.465 2.05-2.726 1.98l-2.835-.153c-1.385-.064-2.688.549-3.499 1.666-.811 1.117-.998 2.552-.502 3.841l1.022 2.65c.452 1.174.014 2.522-1.042 3.205l-2.338 1.514h-5.576c-2.665 0-4.834 2.169-4.834 4.834v40.416H3.525c-.382 0-.69.309-.69.69v2.717c0 2.645 2.15 4.796 4.795 4.796h71.06c2.645 0 4.797-2.15 4.797-4.796v-2.716c0-.383-.308-.692-.69-.692z" transform="translate(-749 -1240) translate(749 1240)"/>
                <g>
                    <path fill="#0089EF" d="M68.99 21.311h-5.798c1.934 1.362 1.901 4.266-.108 5.566L60.7 28.42c-1.336.865-1.883 2.549-1.31 4.034l1.022 2.649c.877 2.276-.884 4.7-3.32 4.569l-.707-.038L61.732 51.1c.17.364-.15.763-.542.679l-8.703-1.886-4.15 7.88c-.186.353-.698.34-.867-.022l-6.397-13.717c-.445-.092-.901-.092-1.346 0L33.33 57.75c-.169.364-.68.376-.867.021l-4.15-7.879-8.703 1.886c-.392.084-.71-.315-.542-.679l5.347-11.466-.708.038c-2.436.131-4.197-2.293-3.319-4.569l1.022-2.65c.573-1.484.026-3.168-1.31-4.033l-2.384-1.543c-2.01-1.3-2.043-4.204-.109-5.566H11.81c-2.288 0-4.143 1.855-4.143 4.144v41.108h65.466V25.455c0-2.288-1.855-4.144-4.144-4.144z" transform="translate(-749 -1240) translate(749 1240)"/>
                    <path fill="#D4FBFF" d="M66.898 27.415h-4.643l-1.556 1.006c-1.336.865-1.883 2.548-1.31 4.034l1.022 2.649c.878 2.276-.883 4.7-3.32 4.569l-.707-.038L61.731 51.1c.17.363-.15.763-.541.678l-8.704-1.885-4.15 7.879c-.186.354-.698.342-.867-.02l-6.397-13.719c-.444-.09-.9-.09-1.346 0L33.33 57.752c-.17.363-.681.376-.868.02l-4.15-7.878-8.703 1.885c-.391.085-.71-.315-.541-.678l5.346-11.466-.708.038c-2.435.13-4.197-2.293-3.319-4.57l1.022-2.648c.574-1.486.026-3.17-1.31-4.034l-1.555-1.006H13.9c-.763 0-1.381.618-1.381 1.38v37.768H68.28V28.796c0-.763-.619-1.381-1.382-1.381z" transform="translate(-749 -1240) translate(749 1240)"/>
                    <path fill="#FFF" d="M12.519 64.491L68.28 64.491 68.28 66.563 12.519 66.563z" transform="translate(-749 -1240) translate(749 1240)"/>
                    <path fill="#0089EF" d="M.763 66.563v2.716c0 2.267 1.838 4.105 4.106 4.105h71.06c2.267 0 4.105-1.838 4.105-4.105v-2.716H.764z" transform="translate(-749 -1240) translate(749 1240)"/>
                    <path fill="#0089EF" d="M.763 66.563v2.716c0 2.267 1.838 4.105 4.106 4.105h71.06c2.267 0 4.105-1.838 4.105-4.105v-2.716H.764z" transform="translate(-749 -1240) translate(749 1240)"/>
                    <path fill="#6DC9F7" d="M27.243 66.563v1.374c0 1.148.93 2.078 2.078 2.078h22.156c1.147 0 2.078-.93 2.078-2.078v-1.374H27.243z" transform="translate(-749 -1240) translate(749 1240)"/>
                    <g transform="translate(-749 -1240) translate(749 1240) translate(16.056 .69)">
                        <g fill="#FA759E">
                            <path d="M37.393.271L35.265.157c-1.59-.086-3.022.954-3.431 2.493l-.73 2.743c-.629 2.357-3.478 3.283-5.371 1.746l-2.205-1.791c-.432-.35-.93-.572-1.447-.678l6.397 13.717c.169.364.68.376.867.021l4.15-7.879 8.703 1.886c.392.085.71-.315.541-.678L37.393.271zM19.287 5.348l-2.204 1.79c-1.894 1.538-4.743.612-5.37-1.745l-.731-2.743C10.572 1.11 9.14.07 7.55.157L5.422.27.076 11.738c-.17.363.15.763.541.678l8.704-1.886 4.15 7.879c.186.354.698.342.867-.02L20.735 4.67c-.517.105-1.015.326-1.448.677z" transform="translate(2.935 38.673)"/>
                        </g>
                        <path fill="#6DC9F7" d="M26.464 2.707l2.204-1.79c1.894-1.539 4.743-.613 5.37 1.745l.731 2.744c.41 1.539 1.842 2.579 3.432 2.493l2.836-.153c2.435-.132 4.197 2.292 3.318 4.568l-1.022 2.65c-.573 1.486-.025 3.17 1.311 4.034l2.384 1.543c2.048 1.325 2.048 4.321 0 5.647l-2.384 1.542c-1.336.865-1.883 2.549-1.31 4.034l1.021 2.65c.878 2.276-.883 4.7-3.318 4.569l-2.836-.154c-1.59-.085-3.022.955-3.432 2.493l-.73 2.745c-.628 2.357-3.477 3.283-5.37 1.745l-2.205-1.79c-1.236-1.005-3.006-1.005-4.242 0l-2.204 1.79c-1.894 1.538-4.743.612-5.37-1.745l-.731-2.745c-.41-1.538-1.842-2.578-3.432-2.493l-2.835.154c-2.436.132-4.198-2.293-3.32-4.57l1.023-2.649c.573-1.485.025-3.169-1.311-4.034l-2.384-1.542c-2.048-1.326-2.048-4.322 0-5.647l2.384-1.543c1.336-.865 1.883-2.548 1.31-4.034l-1.021-2.65c-.878-2.276.883-4.7 3.319-4.568l2.835.153c1.59.086 3.022-.954 3.432-2.493l.73-2.744c.628-2.357 3.477-3.284 5.37-1.746l2.205 1.791c1.236 1.004 3.006 1.004 4.242 0z"/>
                        <circle cx="24.343" cy="23.364" r="15.883" fill="#FFD7E5"/>
                    </g>
                    <path fill="#0089EF" d="M37.476 31.917l-.055-.001c-.58-.016-1.123-.28-1.493-.724l-5.04-6.048c-.713-.856-.598-2.126.258-2.839.855-.713 2.126-.597 2.839.258l3.574 4.29 9.327-10.018c.757-.815 2.034-.861 2.848-.101.815.758.86 2.033.102 2.848L38.95 31.274c-.38.41-.915.643-1.474.643z" transform="translate(-749 -1240) translate(749 1240)"/>
                    <g fill="#3A2C60">
                        <path d="M12.518 59.647c.382 0 .69-.309.69-.69v-6.732c0-.382-.308-.69-.69-.69-.382 0-.69.308-.69.69v6.731c0 .382.308.691.69.691z" transform="translate(-749 -1240) translate(749 1240)"/>
                        <path d="M80.035 65.872h-6.211V25.456c0-2.665-2.17-4.835-4.834-4.835h-5.577l-2.338-1.513c-1.056-.683-1.494-2.03-1.041-3.205l1.021-2.65c.497-1.288.31-2.724-.502-3.84-.811-1.118-2.12-1.736-3.498-1.666L54.22 7.9c-1.254.062-2.403-.764-2.727-1.98l-.731-2.745C50.406 1.841 49.412.79 48.098.363c-1.314-.427-2.738-.161-3.81.709l-2.204 1.79c-.976.793-2.393.793-3.37 0l-2.204-1.79C35.44.2 34.017-.062 32.701.362c-1.313.427-2.31 1.48-2.665 2.813l-.73 2.745c-.324 1.216-1.458 2.061-2.727 1.98l-2.835-.153c-1.371-.06-2.687.548-3.497 1.666-.813 1.116-1 2.552-.503 3.84l1.021 2.65c.452 1.174.015 2.522-1.042 3.206l-2.338 1.513h-5.576c-2.665 0-4.834 2.17-4.834 4.834v40.417H.763c-.382 0-.69.308-.69.69v2.717c0 2.644 2.15 4.795 4.796 4.795h71.06c2.644 0 4.796-2.15 4.796-4.795v-2.717c0-.382-.309-.691-.69-.691zm-7.592-40.416v40.416h-3.47V28.796c0-1.142-.93-2.072-2.072-2.072h-2.598c.64-.73 1.009-1.669 1.009-2.669 0-.737-.202-1.44-.563-2.052h4.242c1.902 0 3.452 1.549 3.452 3.453zm-51.97-5.188c1.602-1.037 2.267-3.081 1.58-4.862l-1.021-2.65c-.328-.849-.204-1.796.33-2.533.536-.735 1.391-1.142 2.307-1.097l2.836.153c1.892.087 3.644-1.16 4.135-3.006l.73-2.743c.235-.88.892-1.574 1.758-1.855.865-.281 1.804-.107 2.51.468l2.205 1.79c1.482 1.204 3.632 1.203 5.112 0l2.204-1.79c.706-.575 1.645-.75 2.511-.468.866.281 1.522.974 1.756 1.854l.732 2.745c.49 1.843 2.22 3.087 4.136 3.005l2.834-.153c.916-.059 1.772.36 2.308 1.098.534.736.658 1.683.33 2.532l-1.02 2.65c-.689 1.78-.024 3.825 1.578 4.862l2.384 1.543c.764.494 1.221 1.333 1.221 2.243 0 .91-.456 1.749-1.22 2.243l-2.385 1.543c-1.602 1.037-2.266 3.082-1.579 4.862l1.022 2.65c.327.849.203 1.797-.331 2.532-.535.736-1.392 1.143-2.308 1.098l-2.834-.153c-1.891-.087-3.645 1.161-4.137 3.006l-.73 2.744c-.235.88-.89 1.572-1.756 1.854-.867.28-1.805.107-2.512-.467l-2.204-1.791c-.74-.602-1.648-.903-2.556-.903-.907 0-1.816.301-2.556.903l-2.204 1.79c-.706.574-1.646.749-2.511.468-.866-.28-1.523-.974-1.757-1.854l-.73-2.744c-.492-1.845-2.253-3.104-4.136-3.006l-2.836.153c-.916.048-1.77-.36-2.307-1.097-.534-.736-.658-1.684-.33-2.533l1.021-2.65c.687-1.78.022-3.825-1.58-4.862l-2.384-1.543c-.764-.494-1.22-1.333-1.22-2.243 0-.91.456-1.749 1.22-2.243l2.384-1.543zm4.392 20.034l1.714-.093c1.256-.065 2.403.765 2.727 1.98l.73 2.746c.357 1.334 1.352 2.385 2.665 2.812 1.314.427 2.738.162 3.81-.709l1.695-1.378-5.327 11.424-3.957-7.513c-.121-.23-.359-.368-.61-.368-.05 0-.098.005-.147.015l-8.298 1.798 4.998-10.714zm31.067 0l4.997 10.715-8.297-1.8c-.304-.062-.612.08-.757.354l-3.955 7.512-5.327-11.422 1.695 1.377c.735.596 1.634.908 2.55.908.421 0 .847-.066 1.26-.2 1.313-.427 2.308-1.478 2.663-2.812l.73-2.744c.325-1.216 1.465-2.056 2.728-1.98l1.713.092zM8.356 25.456c0-1.904 1.549-3.453 3.453-3.453h4.24c-.359.612-.561 1.315-.561 2.052 0 1 .367 1.94 1.008 2.67h-2.595c-1.142 0-2.071.929-2.071 2.07v20.263c0 .382.308.69.69.69.382 0 .69-.308.69-.69V28.796c0-.381.31-.69.691-.69h4.438l1.384.895c1.056.683 1.494 2.031 1.042 3.206l-1.021 2.649c-.497 1.288-.31 2.724.503 3.84.727 1.002 1.851 1.592 3.07 1.66L18.443 50.81c-.19.407-.134.878.146 1.23.28.35.724.51 1.167.416l8.19-1.775 3.905 7.415c.205.388.602.627 1.039.627h.03c.449-.012.847-.272 1.036-.679l6.236-13.373c.139-.01.276-.01.415 0l6.237 13.373c.189.407.587.668 1.035.679h.03c.438 0 .834-.239 1.039-.627l3.904-7.415 8.192 1.775c.436.096.887-.065 1.166-.418.28-.35.336-.821.147-1.228l-4.875-10.453c1.219-.067 2.345-.658 3.072-1.66.811-1.116.998-2.552.502-3.84l-1.022-2.65c-.452-1.174-.014-2.521 1.042-3.206l1.384-.895h4.442c.38 0 .69.309.69.69v37.076H13.211v-3.578c0-.382-.309-.69-.69-.69-.383 0-.691.308-.691.69v3.578H8.356V25.456zm70.989 43.823c0 1.884-1.533 3.415-3.416 3.415H4.869c-1.884 0-3.415-1.532-3.415-3.415v-2.026h77.89v2.026z" transform="translate(-749 -1240) translate(749 1240)"/>
                        <path d="M40.4 40.628c9.138 0 16.573-7.435 16.573-16.574 0-9.138-7.435-16.574-16.574-16.574-9.138 0-16.574 7.436-16.574 16.574 0 9.139 7.436 16.574 16.574 16.574zm0-31.766c8.377 0 15.192 6.815 15.192 15.192 0 8.378-6.815 15.193-15.193 15.193-8.377 0-15.193-6.815-15.193-15.193 0-8.377 6.816-15.192 15.193-15.192z" transform="translate(-749 -1240) translate(749 1240)"/>
                        <path d="M35.397 31.634c.499.596 1.23.951 1.999.971l.08.002c.75 0 1.47-.315 1.98-.862l10.886-11.693c1.017-1.091.957-2.807-.135-3.824-.53-.493-1.216-.75-1.942-.724-.723.025-1.392.33-1.884.86l-8.792 9.444-3.073-3.688c-.463-.555-1.115-.897-1.834-.963-.725-.065-1.423.154-1.977.617-1.147.954-1.303 2.664-.348 3.813l5.04 6.047zm-3.809-8.8c.24-.2.537-.306.846-.306.04 0 .081.002.122.006.353.031.672.199.899.471l3.575 4.29c.128.152.313.243.511.248.195-.007.39-.074.525-.22l9.326-10.017c.242-.259.569-.409.923-.421.35.004.69.113.95.355.535.498.565 1.338.067 1.873l-10.886 11.69c-.25.27-.603.422-.97.422h-.037c-.38-.01-.737-.184-.981-.476l-5.04-6.047c-.467-.562-.391-1.399.17-1.867z" transform="translate(-749 -1240) translate(749 1240)"/>
                    </g>
                </g>
            </g>
        </g>
    </g>
</svg>
