<svg xmlns="http://www.w3.org/2000/svg" width="69" height="69" viewBox="0 0 69 69">
    <g fill="none" fill-rule="evenodd">
        <g>
            <g transform="translate(-536 -1365) translate(536 1365)">
                <circle cx="34.5" cy="34.5" r="34.5" fill="#04F" fill-opacity=".1"/>
                <g fill-rule="nonzero">
                    <path fill="#ED5176" d="M3.546 11.038L.733 36.829c-.326 2.986 2.012 5.593 5.015 5.593h24.37c3.003 0 5.341-2.607 5.016-5.593L32.32 11.038c-.114-1.046-.998-1.839-2.05-1.839H5.596c-1.053 0-1.936.793-2.05 1.839z" transform="translate(15 11)"/>
                    <path fill="#BA365F" d="M35.134 36.83L32.32 11.037c-.114-1.046-.998-1.84-2.05-1.84h-2.391c1.052 0 1.936.794 2.05 1.84l2.814 25.791c.325 2.986-2.013 5.593-5.016 5.593h2.39c3.004 0 5.342-2.607 5.017-5.593z" transform="translate(15 11)"/>
                    <path fill="#FF76A4" d="M.703 37.42c.02 2.73 2.242 5.002 5.045 5.002h24.37c2.803 0 5.026-2.272 5.045-5.002H.703z" transform="translate(15 11)"/>
                    <path fill="#ED5176" d="M32.772 37.42c-.018 2.73-2.241 5.002-5.044 5.002H30.12c.09 0 .18-.003.268-.007l.09-.007c.059-.004.118-.008.176-.015.036-.003.07-.008.106-.013.053-.007.105-.013.156-.021l.112-.02.146-.028.113-.026.14-.035.113-.032.134-.041c.038-.013.075-.025.112-.039l.129-.046.112-.045.123-.052.11-.05c.04-.019.08-.038.12-.059.036-.017.072-.036.108-.055.038-.02.076-.042.113-.063.036-.02.072-.04.107-.062l.108-.067c.035-.022.07-.044.105-.068l.1-.07.106-.075.089-.07c.036-.028.073-.055.108-.085l.058-.05c.096-.082.19-.167.28-.256l.022-.02c.04-.04.078-.082.117-.123l.054-.058.105-.121.057-.066.098-.125.054-.07c.032-.043.062-.086.092-.13l.05-.073c.03-.044.058-.09.087-.134l.046-.075c.028-.046.054-.093.08-.14l.042-.075c.026-.048.05-.097.075-.146l.036-.075.07-.152.03-.073c.022-.053.044-.106.064-.16l.025-.068c.02-.057.04-.113.058-.17l.018-.06c.019-.061.037-.122.053-.184l.01-.043c.018-.067.035-.136.05-.205.068-.324.104-.658.106-1h-2.39v.001z" transform="translate(15 11)"/>
                    <path fill="#FFCD34" d="M43.156 33.194l-.328-8.081c-.046-1.144-.963-2.06-2.106-2.107l-8.081-.328c-.614-.025-1.21.208-1.643.642L19.237 35.08c-.935.935-.935 2.45 0 3.385l8.132 8.132c.934.935 2.45.935 3.384 0l11.761-11.76c.434-.434.667-1.03.642-1.643zm-5.855-4.66c-.588-.588-.588-1.542 0-2.13.588-.587 1.54-.587 2.129 0 .587.588.587 1.542 0 2.13-.588.587-1.541.587-2.13 0z" transform="translate(15 11)"/>
                    <path fill="#E69012" d="M43.156 33.194l-.328-8.081c-.032-.794-.483-1.477-1.139-1.837.128.257.194.556.183.88l-.263 7.49c-.02.57-.278 1.14-.712 1.574l-11.76 11.76c-.935.935-2.345 1.041-3.148.238l1.38 1.38c.934.934 2.45.934 3.384 0l11.761-11.761c.434-.434.667-1.03.642-1.643z" transform="translate(15 11)"/>
                    <path fill="#000" d="M3.07 15.414c.385.043.732-.236.774-.623l.401-3.677c.076-.69.657-1.212 1.352-1.212h4.885v2.357c0 .388.315.703.704.703.388 0 .703-.315.703-.703V9.902h12.089v2.357c0 .388.315.703.704.703.388 0 .703-.315.703-.703V9.902h4.885c.695 0 1.276.521 1.351 1.213l.964 8.837c.04.36.344.627.698.627.026 0 .052-.001.077-.004.387-.042.665-.39.623-.775l-.964-8.838c-.153-1.406-1.336-2.466-2.75-2.466h-4.885V7.45c0-4.109-3.342-7.451-7.45-7.451-4.11 0-7.452 3.342-7.452 7.45v1.046H5.597c-1.414 0-2.596 1.06-2.75 2.466l-.4 3.677c-.042.386.236.733.622.775zm8.819-7.963c0-3.333 2.711-6.045 6.044-6.045 3.334 0 6.045 2.712 6.045 6.045v1.045h-12.09V7.45zM36.804 25.907c-.861.861-.861 2.262 0 3.123.43.43.996.646 1.561.646.566 0 1.131-.215 1.562-.646.86-.86.86-2.262 0-3.123-.861-.86-2.262-.86-3.123 0zm2.129 2.129c-.313.313-.822.313-1.135 0-.313-.313-.313-.822 0-1.134.313-.313.822-.313 1.135 0 .312.313.312.821 0 1.134z" transform="translate(15 11)"/>
                    <path fill="#000" d="M43.859 33.165l-.328-8.08c-.06-1.5-1.282-2.72-2.78-2.782l-8.082-.327c-.807-.033-1.597.276-2.169.847l-11.76 11.76c-.59.59-.891 1.36-.905 2.134H1.452l2.088-19.14c.042-.387-.236-.734-.622-.776-.387-.042-.734.237-.776.623L.034 36.754C-.143 38.374.38 40 1.469 41.215c1.089 1.214 2.649 1.91 4.28 1.91h17.153l3.97 3.97c.603.603 1.396.905 2.189.905.793 0 1.586-.302 2.19-.906l11.76-11.76c.571-.571.88-1.362.848-2.169zM5.749 41.72c-1.232 0-2.41-.526-3.233-1.443-.548-.61-.906-1.359-1.045-2.152h16.672c.146.303.346.587.597.839l2.756 2.756H5.748zm36.268-7.38L30.257 46.1c-.66.659-1.732.66-2.391 0l-8.132-8.132c-.659-.659-.659-1.731 0-2.39l11.76-11.76c.281-.28.663-.438 1.058-.438h.06l8.081.328c.772.032 1.401.661 1.433 1.433l.327 8.08c.017.417-.142.824-.436 1.119z" transform="translate(15 11)"/>
                    <path fill="#000" d="M28.666 34.01c1.346 0 2.443-1.096 2.443-2.443s-1.097-2.443-2.443-2.443c-1.347 0-2.443 1.096-2.443 2.443s1.096 2.443 2.443 2.443zm0-3.479c.571 0 1.036.465 1.036 1.036 0 .572-.465 1.037-1.036 1.037-.572 0-1.037-.465-1.037-1.037 0-.571.465-1.036 1.037-1.036zM33.028 35.965c-1.347 0-2.442 1.096-2.442 2.442 0 1.347 1.095 2.443 2.442 2.443 1.347 0 2.443-1.096 2.443-2.443 0-1.346-1.096-2.442-2.443-2.442zm0 3.479c-.571 0-1.036-.465-1.036-1.037 0-.57.465-1.036 1.036-1.036.572 0 1.037.465 1.037 1.036 0 .572-.466 1.037-1.037 1.037zM34.93 30.905c-.275-.275-.72-.275-.995 0l-7.17 7.17c-.275.275-.275.72 0 .995.136.137.317.206.496.206.18 0 .36-.069.498-.206l7.17-7.17c.275-.275.275-.72 0-.995z" transform="translate(15 11)"/>
                </g>
            </g>
        </g>
    </g>
</svg>
