<svg xmlns="http://www.w3.org/2000/svg" width="48" height="48" viewBox="0 0 48 48">
    <g fill="none" fill-rule="evenodd">
        <g fill-rule="nonzero">
            <g>
                <g transform="translate(-117 -4915) translate(117 4915) translate(.774 .774)">
                    <path fill="#FF826E" d="M24 5.42v4.645H10.839c-.426 0-.774.348-.774.774v6.967h1.904c.658 0 1.192.535 1.192 1.193 0 .232-.07.456-.201.658L8.942 25.68c-.263.403-.72.643-1.2.643s-.937-.24-1.2-.643l-4.018-6.023c-.132-.202-.201-.426-.201-.658 0-.658.534-1.193 1.192-1.193h1.904V9.29c0-2.136 1.735-3.87 3.871-3.87H24zM43.928 26.795c.131.201.201.426.201.658 0 .658-.534 1.192-1.192 1.192h-1.905v8.516c0 2.137-1.734 3.871-3.87 3.871h-14.71v-4.645h13.16c.427 0 .775-.348.775-.774v-6.968h-1.904c-.658 0-1.193-.534-1.193-1.192 0-.232.07-.457.202-.658l4.018-6.023c.263-.403.72-.643 1.2-.643s.936.24 1.2.643l4.018 6.023z"/>
                    <path fill="#AAB2BD" d="M25.548 28.645v1.549c0 .851-.696 1.548-1.548 1.548h-1.548c-.852 0-1.549-.697-1.549-1.548v-1.549h4.645z"/>
                    <path fill="#FFEAA7" d="M25.548 28.034v.611h-4.645v-.58c0-.775-.356-1.526-1.006-1.944-1.936-1.23-3.136-3.507-2.81-6.03.348-2.78 2.632-5.025 5.419-5.343 3.74-.418 6.913 2.493 6.913 6.155 0 2.191-1.138 4.111-2.849 5.21-.65.419-1.022 1.146-1.022 1.92z"/>
                    <path fill="#FCD770" d="M15.484 37.161v3.097l-1.959.65c-.046.117-.085.225-.14.333l.93 1.85-2.191 2.192-1.85-.93c-.109.055-.217.093-.333.14l-.65 1.959H6.193l-.65-1.96c-.117-.046-.225-.084-.334-.138l-1.85.929-2.191-2.191.93-1.85c-.055-.11-.094-.217-.14-.334L0 40.258v-3.097l1.959-.65c.046-.116.085-.225.14-.333l-.93-1.85 2.191-2.191 1.85.929c.109-.054.217-.093.333-.14l.65-1.958H9.29l.65 1.958c.117.047.225.086.334.14l1.85-.93 2.19 2.192-.928 1.85c.054.108.093.217.14.333l1.958.65zm-4.645 1.549c0-1.711-1.386-3.097-3.097-3.097s-3.097 1.386-3.097 3.097c0 1.71 1.386 3.096 3.097 3.096 1.71 0 3.097-1.385 3.097-3.096zM46.452 6.194V9.29l-1.96.65c-.046.117-.084.225-.138.334l.929 1.85-2.191 2.19-1.85-.928c-.11.054-.217.093-.334.14l-.65 1.958h-3.097l-.65-1.959c-.116-.046-.225-.085-.333-.14l-1.85.93-2.191-2.191.929-1.85c-.054-.109-.093-.217-.14-.333l-1.958-.65V6.193l1.958-.65c.047-.117.086-.225.14-.334l-.93-1.85 2.192-2.191 1.85.93c.108-.055.217-.094.333-.14L37.161 0h3.097l.65 1.959c.117.046.225.085.333.14l1.85-.93 2.192 2.191-.93 1.85c.055.109.093.217.14.333l1.959.65zm-4.646 1.548c0-1.711-1.385-3.097-3.096-3.097s-3.097 1.386-3.097 3.097c0 1.71 1.386 3.097 3.097 3.097 1.71 0 3.096-1.386 3.096-3.097z"/>
                    <circle cx="23.226" cy="20.903" r="1.548" fill="#FCD770"/>
                </g>
                <g fill="#000">
                    <path d="M48 6.41l-1.901-.634.896-1.792-2.979-2.98-1.792.897L41.59 0h-4.212l-.633 1.901-1.792-.896-2.98 2.979.897 1.792-1.902.634v4.212l1.901.633-.896 1.792 2.979 2.98 1.792-.897.633 1.902h4.213l.633-1.901 1.792.896 2.98-2.979-.897-1.792L48 10.623V6.41zm-1.548 3.096l-1.778.593-.13.343c-.038.1-.077.196-.12.292l-.15.335.837 1.674-1.4 1.4-1.674-.836-.335.15c-.096.043-.193.081-.293.12l-.343.13-.592 1.777h-1.981l-.592-1.778-.343-.13c-.1-.038-.197-.077-.293-.119l-.335-.15-1.674.837-1.4-1.4.836-1.675-.15-.335c-.042-.096-.081-.193-.119-.292l-.13-.343-1.777-.593v-1.98l1.778-.593.13-.343c.038-.1.077-.197.119-.293l.15-.335-.837-1.673 1.4-1.4 1.675.836.335-.15c.096-.042.193-.081.292-.119l.343-.13.593-1.778h1.98l.593 1.778.343.13c.1.038.197.077.293.12l.335.15 1.674-.837 1.4 1.4-.837 1.674.15.335c.043.096.082.193.12.293l.13.343 1.777.592v1.98z" transform="translate(-117 -4915) translate(117 4915)"/>
                    <path d="M39.484 4.645c-2.135 0-3.871 1.737-3.871 3.871 0 2.135 1.736 3.871 3.87 3.871 2.135 0 3.872-1.736 3.872-3.87 0-2.135-1.737-3.872-3.871-3.872zm0 6.194c-1.28 0-2.323-1.042-2.323-2.323 0-1.28 1.042-2.322 2.323-2.322 1.28 0 2.322 1.042 2.322 2.322s-1.042 2.323-2.322 2.323zM16.027 34.952l-2.979-2.98-1.792.897-.633-1.901H6.41l-.634 1.901-1.792-.896-2.98 2.979.897 1.792L0 37.377v4.213l1.901.633-.896 1.792 2.979 2.98 1.792-.897L6.41 48h4.212l.633-1.901 1.792.896 2.98-2.979-.897-1.792 1.902-.634v-4.212l-1.901-.633.896-1.793zm-.543 3.542v1.98l-1.778.593-.13.343c-.038.1-.077.197-.119.293l-.15.335.837 1.674-1.4 1.4-1.675-.837-.335.15c-.096.043-.193.082-.292.12l-.343.13-.593 1.777h-1.98l-.593-1.778-.343-.13c-.1-.038-.197-.077-.293-.12l-.335-.15-1.673.837-1.4-1.4.836-1.674-.15-.335c-.042-.096-.081-.193-.119-.293l-.13-.343-1.778-.592v-1.981l1.778-.592.13-.343c.038-.1.077-.197.12-.293l.15-.335-.837-1.673 1.4-1.4 1.674.836.335-.15c.096-.043.193-.081.293-.12l.343-.13.592-1.777h1.981l.592 1.778.343.13c.1.038.197.077.293.119l.335.15 1.674-.837 1.4 1.4-.836 1.675.15.335c.042.096.081.193.119.292l.13.343 1.777.593z" transform="translate(-117 -4915) translate(117 4915)"/>
                    <path d="M8.516 35.613c-2.134 0-3.87 1.736-3.87 3.87 0 2.135 1.736 3.872 3.87 3.872 2.135 0 3.871-1.737 3.871-3.871 0-2.135-1.736-3.871-3.87-3.871zm0 6.193c-1.28 0-2.322-1.042-2.322-2.322s1.042-2.323 2.322-2.323 2.323 1.042 2.323 2.323c0 1.28-1.042 2.322-2.323 2.322zM20.903 28.839v2.129c0 1.28 1.042 2.322 2.323 2.322h1.548c1.28 0 2.323-1.042 2.323-2.322v-2.161c0-.526.25-1.001.667-1.27 2.006-1.29 3.204-3.48 3.204-5.86 0-1.982-.849-3.877-2.327-5.198-1.478-1.32-3.463-1.951-5.45-1.724-3.137.355-5.702 2.883-6.1 6.01-.347 2.717.865 5.316 3.161 6.783.402.256.651.751.651 1.29zm3.871 2.903h-1.548c-.428 0-.774-.347-.774-.774v-.774h3.096v.774c0 .427-.346.774-.774.774zm-1.548-10.065c0-.427.347-.774.774-.774.427 0 .774.347.774.774 0 .428-.347.775-.774.775-.427 0-.774-.347-.774-.775zm-4.599-.716c.309-2.428 2.303-4.392 4.738-4.667.215-.024.43-.037.642-.037 1.335 0 2.596.478 3.602 1.377 1.15 1.028 1.81 2.502 1.81 4.043 0 1.85-.932 3.555-2.492 4.558-.819.527-1.319 1.42-1.369 2.41h-.784v-4.787c.899-.321 1.549-1.173 1.549-2.18 0-1.281-1.042-2.323-2.323-2.323-1.28 0-2.323 1.042-2.323 2.322 0 1.008.65 1.86 1.549 2.18v4.788h-.786c-.057-1-.55-1.888-1.354-2.402-1.787-1.141-2.73-3.165-2.459-5.282zM41.332 21.118c-.414-.619-1.104-.989-1.848-.989s-1.435.37-1.848.989l-4.017 6.024c-.215.324-.329.7-.329 1.089 0 1.082.881 1.963 1.963 1.963h1.134v6.193H23.226v1.548h13.161c.854 0 1.548-.694 1.548-1.548v-7.742h-2.682c-.228 0-.414-.186-.414-.414 0-.082.024-.162.07-.23l4.016-6.024c.25-.375.87-.375 1.119 0l4.016 6.024c.046.068.07.147.07.23-.001.228-.187.414-.415.414h-2.683v9.29c0 1.708-1.389 3.097-3.097 3.097h-14.71v1.549h14.71c2.562 0 4.646-2.084 4.646-4.646v-7.741h1.134c1.081 0 1.962-.881 1.962-1.963 0-.389-.113-.765-.33-1.089l-4.015-6.024zM20.129 41.032L21.677 41.032 21.677 42.581 20.129 42.581z" transform="translate(-117 -4915) translate(117 4915)"/>
                    <path d="M6.668 26.882c.414.619 1.104.989 1.848.989s1.435-.37 1.848-.989l4.017-6.024c.215-.324.329-.7.329-1.089 0-1.082-.881-1.963-1.963-1.963h-1.134v-6.193h13.161v-1.548H11.613c-.854 0-1.548.694-1.548 1.548v7.742h2.682c.228 0 .414.186.414.414 0 .082-.024.162-.07.23l-4.016 6.024c-.25.375-.87.375-1.119 0l-4.015-6.024c-.046-.068-.07-.147-.07-.23 0-.228.186-.414.414-.414h2.683v-9.29c0-1.708 1.389-3.097 3.097-3.097h14.71V5.419h-14.71c-2.562 0-4.646 2.084-4.646 4.646v7.741H4.285c-1.081 0-1.962.881-1.962 1.963 0 .389.113.765.33 1.089l4.015 6.024zM26.323 5.419L27.871 5.419 27.871 6.968 26.323 6.968z" transform="translate(-117 -4915) translate(117 4915)"/>
                </g>
            </g>
        </g>
    </g>
</svg>
