<svg xmlns="http://www.w3.org/2000/svg" width="125" height="95" viewBox="0 0 125 95">
    <g fill="none" fill-rule="evenodd">
        <g>
            <g>
                <path fill="#FFF1F6" d="M88.181 95C124.99 95 125 60.688 125 45.132c0-15.556-10.087-27.787-44.492-27.787C46.102 17.345 61.199 0 34.994 0 8.788 0-5.204 18.48 1.792 46.273c6.996 27.793 38.459 2.844 48.933 15.319C61.199 74.066 71.267 95 88.181 95z" transform="translate(-502 -1209) translate(502 1209)"/>
                <g fill-rule="nonzero">
                    <g fill="#E6E7E8" transform="translate(-502 -1209) translate(502 1209) translate(34 9) translate(2.484 2.484)">
                        <circle cx="27.012" cy="62.973" r="11.488"/>
                        <path d="M50.505 21.99H3.52C1.579 21.99 0 23.567 0 25.507c0 1.94 1.579 3.52 3.519 3.52h3.006l12.104 15.734v4.756c0 .343.278.621.621.621h15.524c.344 0 .621-.278.621-.62v-4.757L47.5 29.027h3.005c1.94 0 3.52-1.579 3.52-3.52 0-1.94-1.58-3.518-3.52-3.518zM32.23 15.42h3.396v2.523c0 .233.13.446.337.552.09.046.187.069.284.069.127 0 .253-.04.36-.116l4.239-3.028h7.817c1.831 0 3.321-1.49 3.321-3.321V3.376c0-1.831-1.49-3.32-3.32-3.32H32.228c-1.83 0-3.32 1.489-3.32 3.32V12.1c0 1.83 1.49 3.32 3.32 3.32zM5.36 17.707h7.818l4.238 3.027c.108.077.234.116.361.116.097 0 .194-.023.284-.069.207-.106.337-.32.337-.552v-2.522h3.397c1.83 0 3.32-1.49 3.32-3.321V5.663c0-1.831-1.489-3.32-3.32-3.32H5.36c-1.83 0-3.321 1.489-3.321 3.32v8.724c0 1.83 1.49 3.32 3.32 3.32z"/>
                    </g>
                    <g>
                        <g transform="translate(-502 -1209) translate(502 1209) translate(34 9) translate(16.145 52.006)">
                            <circle cx="10.867" cy="10.967" r="10.867" fill="#FFD7E5"/>
                            <circle cx="10.867" cy="10.967" r="8.694" fill="#FA759E"/>
                            <path fill="#FFF" d="M14.064 15.328c-.56.554-1.312.902-2.26 1.043v.953c0 .231-.07.42-.211.567-.141.146-.328.219-.56.219-.232 0-.418-.073-.56-.22-.14-.146-.21-.335-.21-.566v-.922c-.575-.05-1.134-.171-1.678-.363-.544-.192-1.013-.443-1.406-.756-.131-.09-.222-.192-.272-.302-.05-.111-.076-.247-.076-.409 0-.211.063-.398.189-.56.126-.16.27-.241.431-.241.1 0 .194.017.28.052.086.036.199.094.34.174.464.303.92.524 1.368.665.449.141.92.212 1.414.212.675 0 1.196-.131 1.564-.393.368-.262.552-.64.552-1.134 0-.292-.1-.529-.303-.71-.201-.182-.453-.326-.755-.431-.303-.106-.726-.23-1.27-.37-.756-.192-1.371-.386-1.844-.582-.474-.197-.882-.496-1.225-.9-.343-.402-.514-.946-.514-1.632 0-.816.292-1.511.877-2.086.584-.575 1.35-.932 2.297-1.073V4.61c0-.232.07-.42.212-.567.141-.146.327-.22.56-.22.231 0 .417.074.559.22.141.147.212.335.212.567v.938c1.018.13 1.894.498 2.63 1.103.242.182.363.419.363.71 0 .212-.063.399-.189.56-.126.162-.275.242-.446.242-.09 0-.18-.015-.264-.045-.085-.03-.199-.09-.34-.181-.414-.292-.804-.511-1.172-.658-.367-.146-.803-.22-1.307-.22-.625 0-1.124.14-1.496.416-.374.278-.56.658-.56 1.142 0 .332.106.602.317.809.212.206.479.365.801.476.323.111.761.237 1.316.378.736.181 1.335.368 1.799.56.463.191.859.48 1.187.869.327.388.491.915.491 1.58-.002.804-.282 1.485-.84 2.039z"/>
                        </g>
                        <path fill="#0089EF" d="M50.505 28.406H3.52c-1.6 0-2.898-1.298-2.898-2.899 0-1.6 1.297-2.898 2.898-2.898h46.987c1.6 0 2.898 1.298 2.898 2.898 0 1.601-1.298 2.899-2.899 2.899z" transform="translate(-502 -1209) translate(502 1209) translate(34 9)"/>
                        <path fill="#FFF" d="M3.519 24.473h46.987c1.272 0 2.341.826 2.73 1.967.101-.294.167-.604.167-.932 0-1.6-1.297-2.898-2.898-2.898H3.52c-1.6 0-2.898 1.297-2.898 2.898 0 .328.066.638.166.932.39-1.142 1.459-1.967 2.732-1.967z" transform="translate(-502 -1209) translate(502 1209) translate(34 9)"/>
                        <path fill="#6DC9F7" d="M47.194 28.406L6.831 28.406 19.25 44.551 19.25 49.518 34.774 49.518 34.774 44.551z" transform="translate(-502 -1209) translate(502 1209) translate(34 9)"/>
                        <g>
                            <g>
                                <path fill="#FA759E" d="M19.167.055H2.733c-1.49 0-2.7 1.21-2.7 2.7v8.724c0 1.49 1.21 2.7 2.7 2.7h4.018v3.143l4.4-3.143h8.016c1.49 0 2.7-1.21 2.7-2.7V2.755c0-1.49-1.209-2.7-2.7-2.7z" transform="translate(-502 -1209) translate(502 1209) translate(34 9) translate(2.64 .621) translate(26.857)"/>
                                <g fill="#FFF" transform="translate(-502 -1209) translate(502 1209) translate(34 9) translate(2.64 .621) translate(26.857) translate(2.95 5.278)">
                                    <circle cx="1.93" cy="1.995" r="1.878"/>
                                    <circle cx="8.001" cy="1.995" r="1.878"/>
                                    <circle cx="14.072" cy="1.995" r="1.878"/>
                                </g>
                            </g>
                            <g>
                                <path fill="#FFD7E5" d="M2.722.014h16.434c1.49 0 2.7 1.209 2.7 2.7v8.723c0 1.49-1.21 2.7-2.7 2.7h-4.017v3.143l-4.4-3.143H2.721c-1.491 0-2.7-1.21-2.7-2.7V2.714c0-1.492 1.209-2.7 2.7-2.7z" transform="translate(-502 -1209) translate(502 1209) translate(34 9) translate(2.64 .621) translate(0 2.329)"/>
                                <g fill="#FFF" transform="translate(-502 -1209) translate(502 1209) translate(34 9) translate(2.64 .621) translate(0 2.329) translate(2.95 5.278)">
                                    <circle cx="14.06" cy="1.953" r="1.878"/>
                                    <circle cx="7.989" cy="1.953" r="1.878"/>
                                    <circle cx="1.918" cy="1.953" r="1.878"/>
                                </g>
                            </g>
                        </g>
                        <g fill="#3A2C60">
                            <path d="M27.012 51.485c-6.334 0-11.488 5.153-11.488 11.488 0 6.334 5.154 11.488 11.488 11.488 6.335 0 11.488-5.154 11.488-11.488 0-6.335-5.153-11.488-11.488-11.488zm0 21.734c-5.65 0-10.246-4.596-10.246-10.246s4.597-10.246 10.246-10.246c5.65 0 10.246 4.596 10.246 10.246s-4.596 10.246-10.246 10.246zM50.505 21.99H3.52C1.579 21.99 0 23.567 0 25.507c0 1.94 1.579 3.52 3.519 3.52h3.006l12.104 15.734v4.756c0 .343.278.621.621.621h15.524c.344 0 .621-.278.621-.62v-4.757l4.32-5.617c.21-.272.16-.662-.113-.871-.272-.21-.662-.158-.871.114l-4.45 5.784c-.082.109-.128.241-.128.379v4.346H19.871v-4.346c0-.138-.045-.27-.129-.38L8.092 29.028h37.841l-1.894 2.461c-.209.272-.158.662.114.87.272.21.661.158.87-.113l2.477-3.22h3.005c1.94 0 3.52-1.578 3.52-3.518 0-1.94-1.58-3.518-3.52-3.518zm0 5.795H3.52c-1.256 0-2.277-1.022-2.277-2.278 0-1.254 1.021-2.277 2.277-2.277h46.986c1.256 0 2.277 1.022 2.277 2.277 0 1.256-1.021 2.278-2.277 2.278zM32.23 15.42h3.396v2.523c0 .233.13.446.337.552.09.046.187.069.284.069.127 0 .253-.04.36-.116l4.239-3.028h7.817c1.831 0 3.321-1.49 3.321-3.321V3.376c0-1.831-1.49-3.32-3.32-3.32H32.228c-1.83 0-3.32 1.489-3.32 3.32V12.1c0 1.83 1.49 3.32 3.32 3.32zM30.15 3.376c0-1.146.933-2.079 2.08-2.079h16.433c1.146 0 2.079.933 2.079 2.08V12.1c0 1.146-.933 2.079-2.079 2.079h-8.017c-.129 0-.256.04-.36.116l-3.419 2.442V14.8c0-.343-.277-.62-.62-.62h-4.019c-1.146 0-2.079-.934-2.079-2.08V3.376h.001zM5.36 17.707h7.818l4.238 3.027c.108.077.234.116.361.116.097 0 .194-.023.284-.069.207-.106.337-.32.337-.552v-2.522h3.397c1.83 0 3.32-1.49 3.32-3.321V5.663c0-1.831-1.489-3.32-3.32-3.32H5.36c-1.83 0-3.321 1.489-3.321 3.32v8.724c0 1.83 1.49 3.32 3.32 3.32zM3.283 5.663c0-1.146.933-2.079 2.079-2.079h16.434c1.146 0 2.079.933 2.079 2.08v8.723c0 1.146-.933 2.079-2.08 2.079h-4.017c-.343 0-.62.278-.62.62v1.937l-3.42-2.441c-.104-.076-.231-.116-.36-.116H5.36c-1.146 0-2.08-.933-2.08-2.08V5.664z" transform="translate(-502 -1209) translate(502 1209) translate(34 9)"/>
                            <path d="M42.672 33.265l-2.464 3.203c-.209.272-.159.662.114.87.113.088.246.13.377.13.187 0 .371-.083.494-.242l2.464-3.204c.209-.272.158-.662-.114-.87-.271-.21-.661-.16-.87.113z" transform="translate(-502 -1209) translate(502 1209) translate(34 9)"/>
                        </g>
                    </g>
                </g>
            </g>
        </g>
    </g>
</svg>
