<svg xmlns="http://www.w3.org/2000/svg" width="125" height="95" viewBox="0 0 125 95">
    <g fill="none" fill-rule="evenodd">
        <g>
            <g>
                <path fill="#FFF1F6" d="M88.181 95C124.99 95 125 60.688 125 45.132c0-15.556-10.087-27.787-44.492-27.787C46.102 17.345 61.199 0 34.994 0 8.788 0-5.204 18.48 1.792 46.273c6.996 27.793 38.459 2.844 48.933 15.319C61.199 74.066 71.267 95 88.181 95z" transform="translate(-190 -1209) translate(190 1209)"/>
                <g fill-rule="nonzero">
                    <path fill="#E6E7E8" d="M77 2.81H8.177c-3.006 0-5.451 2.446-5.451 5.452v48.074c0 3.006 2.445 5.451 5.451 5.451h25.728l-3.527 8.546h-7.38c-1.879 0-3.407 1.528-3.407 3.407v2.494c0 .376.305.682.681.682h44.633c.376 0 .681-.306.681-.682V73.74c0-1.879-1.528-3.407-3.407-3.407H54.8l-3.527-8.546H77c3.006 0 5.451-2.445 5.451-5.45V8.261c0-3.006-2.445-5.451-5.451-5.451z" transform="translate(-190 -1209) translate(190 1209) translate(21 9)"/>
                    <g transform="translate(-190 -1209) translate(190 1209) translate(21 9)">
                        <path fill="#0089EF" d="M5.451 58.38h68.823c2.635 0 4.77-2.135 4.77-4.77V5.537c0-2.635-2.135-4.77-4.77-4.77H5.451c-2.634 0-4.77 2.135-4.77 4.77V53.61c0 2.635 2.136 4.77 4.77 4.77z"/>
                        <path fill="#6DC9F7" d="M32.197 58.38L47.529 58.38 51.617 68.288 28.108 68.288z"/>
                        <path fill="#0089EF" d="M17.546 73.508H62.18v-2.494c0-1.505-1.22-2.726-2.725-2.726H20.272c-1.505 0-2.726 1.22-2.726 2.726v2.494z"/>
                        <path fill="#D4FBFF" d="M9.051 49.872h61.623c1.881 0 3.407-1.526 3.407-3.407V9.137c0-1.881-1.526-3.407-3.407-3.407H9.05c-1.881 0-3.407 1.526-3.407 3.407v37.328c0 1.881 1.526 3.407 3.407 3.407z"/>
                        <g>
                            <path fill="#FA759E" d="M29.128 25.162c.64-.966 1.15-2.021 1.54-3.133h-6.489c-1.488 2.18-3.991 3.613-6.83 3.613-4.566 0-8.267-3.701-8.267-8.266 0-4.565 3.7-8.266 8.266-8.266 2.84 0 5.343 1.433 6.831 3.613h6.489c-.39-1.112-.9-2.167-1.54-3.133l1.73-1.729c.394-.394.394-1.034 0-1.428l-2.566-2.566c-.395-.395-1.035-.395-1.43 0l-1.728 1.729c-1.482-.982-3.159-1.693-4.961-2.059V1.096c0-.558-.453-1.01-1.01-1.01h-3.629c-.558 0-1.01.452-1.01 1.01v2.441c-1.803.366-3.48 1.077-4.962 2.059L7.834 3.867c-.395-.395-1.035-.395-1.43 0L3.84 6.433c-.394.394-.394 1.034 0 1.428l1.729 1.73c-.981 1.481-1.693 3.158-2.059 4.96H1.068c-.558 0-1.01.453-1.01 1.011v3.628c0 .558.452 1.01 1.01 1.01h2.441c.366 1.804 1.077 3.48 2.059 4.962l-1.729 1.729c-.394.394-.394 1.034 0 1.429l2.566 2.565c.394.395 1.034.395 1.429 0l1.728-1.729c1.482.982 3.16 1.693 4.962 2.059v2.441c0 .559.452 1.011 1.01 1.011h3.628c.558 0 1.01-.452 1.01-1.01v-2.442c1.804-.366 3.48-1.077 4.962-2.059l1.729 1.73c.394.394 1.034.394 1.429 0l2.565-2.566c.395-.395.395-1.035 0-1.43l-1.729-1.728z" transform="translate(12.436 10.221)"/>
                            <g>
                                <path fill="#FFD7E5" d="M7.71 9.423L.13 4.771 7.71.117h32.94c.945 0 1.712.767 1.712 1.712v5.883c0 .945-.767 1.712-1.712 1.712H7.71z" transform="translate(12.436 10.221) translate(12.436 12.606)"/>
                                <path fill="#0089EF" d="M7.71 9.423V.117h32.94c.945 0 1.712.767 1.712 1.712v5.883c0 .945-.767 1.712-1.712 1.712H7.71z" transform="translate(12.436 10.221) translate(12.436 12.606)"/>
                                <path fill="#FA759E" d="M38.385 9.423h2.265c.945 0 1.712-.766 1.712-1.711V1.828c0-.945-.767-1.711-1.712-1.711h-2.265v9.306z" transform="translate(12.436 10.221) translate(12.436 12.606)"/>
                            </g>
                        </g>
                        <path fill="#FFF" d="M70.674 49.872H9.051c-1.881 0-3.407-1.526-3.407-3.407v-2.044c0 1.881 1.526 3.407 3.407 3.407h61.623c1.881 0 3.407-1.526 3.407-3.407v2.044c0 1.881-1.525 3.407-3.407 3.407z"/>
                        <circle cx="39.863" cy="53.97" r="2.127" fill="#6DC9F7"/>
                        <g fill="#3A2C60">
                            <path d="M13.503 24.091c-.933 0-1.692.76-1.692 1.692v3.628c0 .933.76 1.692 1.692 1.692h1.895c.358 1.477.941 2.88 1.737 4.184l-1.343 1.343c-.66.66-.66 1.734 0 2.393l2.566 2.566c.639.638 1.753.639 2.392 0l1.343-1.343c1.304.796 2.707 1.378 4.184 1.737v1.895c0 .933.76 1.692 1.692 1.692h3.628c.933 0 1.692-.76 1.692-1.692v-1.896c1.478-.358 2.881-.941 4.185-1.736l1.342 1.342c.66.661 1.734.66 2.393 0l2.565-2.565c.66-.66.66-1.734 0-2.393l-1.342-1.344c.46-.753.844-1.54 1.159-2.355h21.93c1.32 0 2.393-1.073 2.393-2.393v-5.884c0-1.32-1.073-2.393-2.393-2.393H43.59c-.314-.815-.699-1.603-1.159-2.355l1.343-1.344c.66-.66.66-1.732 0-2.392l-2.566-2.566c-.659-.66-1.733-.66-2.392 0l-1.343 1.343c-1.304-.796-2.707-1.378-4.184-1.737v-1.895c0-.933-.76-1.691-1.692-1.691H27.97c-.933 0-1.692.758-1.692 1.69v1.896c-1.477.358-2.88.941-4.184 1.737l-1.343-1.343c-.66-.66-1.733-.66-2.392 0l-2.566 2.566c-.66.66-.66 1.733 0 2.392l1.343 1.344c-.796 1.303-1.378 2.707-1.737 4.184h-1.896v.001zm13.924 2.819l4.474-2.748v6.871l-4.474-2.745V26.91zm5.156-4.647c-.126 0-.25.034-.357.1l-7.58 4.654c-.202.125-.325.345-.325.582s.123.457.325.581l7.58 4.651c.107.066.23.1.357.1h2.574c-1.374 1.386-3.272 2.251-5.373 2.251-4.183 0-7.585-3.402-7.585-7.585 0-4.182 3.403-7.585 7.585-7.585 2.1 0 3.999.865 5.373 2.25h-2.574zm.681 9.306v-7.944h29.311v7.944H33.264zm33.288-6.913v5.883c0 .568-.462 1.03-1.03 1.03h-1.584v-7.944h1.584c.567 0 1.03.462 1.03 1.03zm-49.94.252c.343-1.687 1.002-3.276 1.96-4.721.179-.27.142-.629-.087-.858L16.757 17.6c-.084-.084-.096-.182-.096-.233 0-.05.012-.148.096-.232l2.565-2.566c.084-.083.182-.096.233-.096.051 0 .149.013.233.096l1.728 1.73c.23.229.588.264.858.086 1.446-.958 3.035-1.617 4.721-1.96.318-.064.546-.344.546-.667v-2.442c0-.181.148-.328.33-.328h3.627c.181 0 .33.148.33.328v2.442c0 .324.227.604.545.668 1.686.342 3.275 1.001 4.72 1.959.271.178.63.143.859-.087l1.728-1.729c.084-.083.182-.096.233-.096.05 0 .149.013.233.096l2.565 2.566c.084.084.096.182.096.232 0 .051-.012.15-.096.233l-1.728 1.729c-.23.229-.266.587-.086.858.438.662.804 1.357 1.112 2.076h-5.163c-1.63-2.188-4.228-3.614-7.161-3.614-4.934 0-8.948 4.014-8.948 8.948s4.014 8.948 8.948 8.948c2.933 0 5.53-1.426 7.161-3.614h5.163c-.307.72-.673 1.414-1.112 2.076-.18.27-.143.629.086.858l1.728 1.729c.084.084.096.182.096.233 0 .05-.012.149-.096.233l-2.565 2.565c-.084.084-.182.097-.233.097-.051 0-.149-.013-.233-.097l-1.728-1.728c-.23-.23-.588-.266-.858-.087-1.445.957-3.033 1.616-4.721 1.958-.318.065-.546.345-.546.668v2.442c0 .182-.148.329-.33.329H27.97c-.181 0-.329-.148-.329-.33v-2.44c0-.325-.228-.605-.546-.669-1.688-.342-3.276-1.001-4.72-1.958-.115-.076-.247-.113-.377-.113-.176 0-.35.068-.482.2l-1.729 1.728c-.084.084-.182.097-.232.097-.05 0-.149-.013-.233-.097l-2.565-2.565c-.084-.084-.096-.182-.096-.233 0-.051.012-.15.096-.233l1.728-1.729c.23-.229.266-.587.086-.858-.957-1.445-1.616-3.034-1.959-4.721-.064-.318-.343-.546-.668-.546h-2.441c-.181 0-.33-.148-.33-.329v-3.628c0-.182.149-.329.33-.329h2.441c.325 0 .604-.228.668-.546z"/>
                            <path d="M70.674 5.048H9.051c-2.255 0-4.088 1.834-4.088 4.088v19.582c0 .376.305.681.681.681.376 0 .682-.305.682-.681V9.136c0-1.503 1.222-2.725 2.725-2.725h61.623c1.504 0 2.726 1.222 2.726 2.725v37.328c0 1.504-1.222 2.726-2.726 2.726H9.051c-1.503 0-2.725-1.222-2.725-2.726v-5.736c0-.377-.306-.681-.682-.681-.376 0-.681.304-.681.681v5.737c0 2.255 1.833 4.089 4.088 4.089h61.623c2.255 0 4.089-1.834 4.089-4.089V9.137c0-2.255-1.834-4.09-4.089-4.09z"/>
                            <path d="M5.644 38.684c.376 0 .682-.305.682-.681v-6.56c0-.376-.306-.68-.682-.68-.376 0-.681.304-.681.68v6.56c0 .376.305.681.681.681z"/>
                            <path d="M74.274.085H5.451C2.446.085 0 2.531 0 5.537V53.61c0 3.006 2.446 5.452 5.451 5.452h25.727l-3.526 8.545h-7.38c-1.879 0-3.407 1.528-3.407 3.407v2.494c0 .377.305.681.681.681H62.18c.376 0 .682-.304.682-.681v-2.494c0-1.879-1.529-3.407-3.407-3.407h-7.38l-3.527-8.545h25.727c3.006 0 5.452-2.446 5.452-5.452V5.537c0-3.006-2.446-5.452-5.452-5.452zM61.498 71.014v1.812h-43.27v-1.812c0-1.127.917-2.044 2.044-2.044h39.182c1.127 0 2.044.917 2.044 2.044zm-10.9-3.407h-21.47l3.525-8.545h14.42l3.526 8.545zM78.364 53.61c0 2.255-1.834 4.089-4.089 4.089H5.451c-2.254 0-4.088-1.834-4.088-4.089V5.537c0-2.255 1.834-4.089 4.088-4.089h68.823c2.255 0 4.089 1.834 4.089 4.089V53.61z"/>
                        </g>
                    </g>
                </g>
            </g>
        </g>
    </g>
</svg>
