<svg xmlns="http://www.w3.org/2000/svg" width="125" height="95" viewBox="0 0 125 95">
    <g fill="none" fill-rule="evenodd">
        <g>
            <g>
                <path fill="#FFF1F6" d="M88.181 95C124.99 95 125 60.688 125 45.132c0-15.556-10.087-27.787-44.492-27.787C46.102 17.345 61.199 0 34.994 0 8.788 0-5.204 18.48 1.792 46.273c6.996 27.793 38.459 2.844 48.933 15.319C61.199 74.066 71.267 95 88.181 95z" transform="translate(-814 -1209) translate(814 1209)"/>
                <g fill-rule="nonzero">
                    <path fill="#E6E7E8" d="M58.698 44.178c.588-2.864-.388-5.484-1.311-7.178h-.001c-.743-1.358-8.26-13.547-9.215-15.094V6.958c0-2.407-1.957-4.364-4.364-4.364H6.901c-2.407 0-4.365 1.957-4.365 4.364v62.83c0 2.406 1.958 4.364 4.365 4.364h31.23c.185 1.543 1.488 2.748 3.08 2.748h13.813c1.72 0 3.118-1.399 3.118-3.118V70.06c0-1.72-1.399-3.118-3.118-3.118H54.02v-4.486c.31-1.145 3.802-14.02 4.678-18.277z" transform="translate(-814 -1209) translate(814 1209) translate(33 9)"/>
                    <g transform="translate(-814 -1209) translate(814 1209) translate(33 9)">
                        <g>
                            <path fill="#0089EF" d="M40.69 70.411H3.783c-2.066 0-3.74-1.675-3.74-3.74V3.84C.042 1.774 1.716.1 3.782.1H40.69c2.067 0 3.741 1.674 3.741 3.74v62.83c0 2.066-1.675 3.741-3.74 3.741z" transform="translate(.623 .623)"/>
                            <path fill="#D4FBFF" d="M-4.819 11.628L49.293 11.628 49.293 56.017 -4.819 56.017z" transform="translate(.623 .623) rotate(90 22.237 33.823)"/>
                            <path fill="#FFF" d="M0.042 6.767L44.431 6.767 44.431 8.637 0.042 8.637z" transform="translate(.623 .623)"/>
                            <g>
                                <path fill="#FA759E" d="M35.282 15.283H1.397c-.689 0-1.247-.558-1.247-1.247V1.356C.15.669.708.11 1.397.11h33.885c.689 0 1.247.558 1.247 1.247v12.68c0 .688-.558 1.246-1.247 1.246z" transform="translate(.623 .623) translate(3.897 10.287)"/>
                                <g fill="#6DC9F7">
                                    <path d="M15.162 15.182H1.397c-.689 0-1.247-.558-1.247-1.247V1.255C.15.566.708.008 1.397.008h13.765c.689 0 1.247.558 1.247 1.247v12.68c0 .688-.558 1.247-1.247 1.247zM35.282 15.182H21.518c-.69 0-1.247-.558-1.247-1.247V1.255c0-.689.558-1.247 1.247-1.247h13.764c.69 0 1.247.558 1.247 1.247v12.68c0 .688-.558 1.247-1.247 1.247z" transform="translate(.623 .623) translate(3.897 10.287) translate(0 18.393)"/>
                                </g>
                            </g>
                            <g fill="#6DC9F7" transform="translate(.623 .623) translate(16.055 2.65)">
                                <path d="M11.57 1.576H.794C.395 1.576.07 1.25.07.851.07.452.395.126.794.126H11.57c.399 0 .725.326.725.725 0 .4-.326.725-.725.725z"/>
                                <circle cx="15.196" cy=".851" r="1"/>
                                <path d="M9.705 64.35H2.66c-.969 0-1.761-.792-1.761-1.76 0-.97.792-1.762 1.761-1.762h7.046c.969 0 1.761.793 1.761 1.761 0 .97-.793 1.762-1.76 1.762z"/>
                            </g>
                        </g>
                        <path fill="#FFD7E5" d="M54.345 34.805c-.777-1.42-9.291-15.216-9.291-15.216v11.442c-.965.267-1.754 1.04-1.97 2.088l-1.48 7.197c-.377 1.833-1.013 3.603-1.891 5.257l-.839 1.58c-.75 1.408-1.27 2.932-1.453 4.515-.615 5.258 2.897 8.21 2.897 8.21v5.194h10.583v-5.193s3.773-13.855 4.692-18.32c.557-2.708-.406-5.21-1.248-6.754z"/>
                        <path fill="#6DC9F7" d="M52.53 73.782H38.717c-1.377 0-2.494-1.116-2.494-2.494v-3.723c0-1.377 1.117-2.494 2.494-2.494H52.53c1.377 0 2.494 1.117 2.494 2.494v3.723c0 1.378-1.117 2.494-2.494 2.494z"/>
                        <circle cx="49.516" cy="69.427" r="1.253" fill="#D4FBFF"/>
                        <g fill="#3A2C60">
                            <path d="M5.28 48.53h15.04c.344 0 .623-.279.623-.623s-.279-.623-.623-.623H5.28c-.344 0-.623.279-.623.623s.28.624.623.624zM5.28 52.799h15.04c.344 0 .623-.28.623-.624s-.279-.623-.623-.623H5.28c-.344 0-.623.28-.623.623 0 .345.28.624.623.624zM5.28 57.067h15.04c.344 0 .623-.28.623-.624s-.279-.623-.623-.623H5.28c-.344 0-.623.279-.623.623s.28.624.623.624zM.666 38.474c.344 0 .623-.28.623-.624v-6.052c0-.345-.279-.624-.623-.624s-.624.28-.624.624v6.052c0 .344.28.624.624.624z"/>
                            <path d="M56.204 41.684c.589-2.864-.388-5.484-1.311-7.178l-.001-.001c-.743-1.357-8.26-13.546-9.214-15.093V4.465C45.678 2.058 43.72.1 41.313.1H4.407C2 .1.042 2.058.042 4.465v24.847c0 .344.28.623.624.623s.623-.28.623-.623V8.014h43.142V30.592c-1.002.434-1.734 1.32-1.957 2.402l-1.48 7.197c-.365 1.776-.981 3.488-1.832 5.09l-.838 1.58c-.075.14-.133.282-.202.423H25.4c-.345 0-.624.279-.624.623s.28.624.624.624h12.176c-.381 1-.646 2.01-.767 3.02H25.4c-.344 0-.623.28-.623.624s.28.623.624.623h11.332c-.01 1.127.15 2.136.41 3.021H25.4c-.345 0-.624.28-.624.624s.28.623.624.623h12.195c.712 1.616 1.668 2.667 2.1 3.085v.727H1.288V40.37c0-.344-.279-.624-.623-.624s-.624.28-.624.624v26.924c0 2.406 1.958 4.364 4.365 4.364h31.23c.185 1.543 1.488 2.748 3.08 2.748H52.53c1.72 0 3.118-1.399 3.118-3.118v-3.723c0-1.72-1.399-3.118-3.118-3.118h-1.004v-4.486c.31-1.145 3.802-14.02 4.678-18.277zM1.289 6.766V4.465c0-1.72 1.399-3.118 3.118-3.118h36.907c1.719 0 3.117 1.399 3.117 3.118v2.302H1.29v-.001zm34.31 60.8v2.845H4.408c-1.72 0-3.118-1.398-3.118-3.117v-5.168h38.406v2.322h-.978c-1.719 0-3.117 1.399-3.117 3.117zm18.801 0v3.723c0 1.031-.84 1.87-1.87 1.87H38.717c-1.031 0-1.87-.839-1.87-1.87v-3.724c0-1.03.839-1.87 1.87-1.87H52.53c1.031 0 1.87.839 1.87 1.87zm-13.458-3.118v-4.57c0-.182-.081-.357-.22-.476-.133-.113-3.248-2.82-2.68-7.662.165-1.437.63-2.881 1.383-4.294l.839-1.58c.906-1.707 1.562-3.532 1.951-5.424l1.48-7.197c.16-.78.745-1.398 1.526-1.613.323-.088.655-.099.986-.03 1.15.236 1.894 1.364 1.657 2.514l-2.64 12.837c-.069.337.148.667.485.736.043.009.085.013.127.013.29 0 .55-.203.61-.498l2.64-12.836c.182-.883.009-1.784-.487-2.537-.497-.754-1.256-1.268-2.14-1.45-.256-.053-.519-.075-.78-.067v-8.525c2.352 3.819 7.528 12.234 8.12 13.314.824 1.51 1.698 3.835 1.184 6.33-.904 4.395-4.644 18.143-4.682 18.281-.015.053-.022.108-.022.164v4.57h-9.337z"/>
                            <path d="M50.53 67.85c-.42-.272-.921-.364-1.412-.256-.49.106-.91.397-1.18.818-.27.421-.362.922-.255 1.412.106.49.397.91.818 1.18.306.197.655.3 1.012.3.133 0 .267-.015.4-.044.49-.106.91-.396 1.18-.818.272-.421.363-.923.256-1.413-.106-.49-.396-.909-.818-1.18zm-.485 1.918c-.188.29-.578.376-.87.188-.141-.091-.239-.231-.274-.395-.036-.164-.006-.333.086-.474.091-.142.231-.239.395-.275.045-.01.09-.014.135-.014.119 0 .236.034.34.1.29.188.376.578.188.87z"/>
                        </g>
                    </g>
                </g>
            </g>
        </g>
    </g>
</svg>
