<svg xmlns="http://www.w3.org/2000/svg" width="125" height="95" viewBox="0 0 125 95">
    <g fill="none" fill-rule="evenodd">
        <g>
            <g>
                <path fill="#FFF1F6" d="M88.181 95C124.99 95 125 60.688 125 45.132c0-15.556-10.087-27.787-44.492-27.787C46.102 17.345 61.199 0 34.994 0 8.788 0-5.204 18.48 1.792 46.273c6.996 27.793 38.459 2.844 48.933 15.319C61.199 74.066 71.267 95 88.181 95z" transform="translate(-1126 -1209) translate(1126 1209)"/>
                <g fill-rule="nonzero">
                    <path fill="#E6E7E8" d="M81.087 9.367H40.502c-1.238 0-2.398-.607-3.103-1.625l-1.805-2.607c-.966-1.396-2.555-2.23-4.254-2.23H6.413c-1.93 0-3.5 1.57-3.5 3.5v66.99c0 1.93 1.57 3.5 3.5 3.5h74.674c1.93 0 3.5-1.57 3.5-3.5V12.866c0-1.93-1.57-3.5-3.5-3.5z" transform="translate(-1126 -1209) translate(1126 1209) translate(20 9)"/>
                    <g>
                        <path fill="#D4FBFF" d="M81.086 17.614H.813v52.981c0 1.546 1.254 2.8 2.8 2.8h74.673c1.546 0 2.8-1.254 2.8-2.8v-52.98z" transform="translate(-1126 -1209) translate(1126 1209) translate(20 9)"/>
                        <path fill="#FFD7E5" d="M40.95 73.395h37.336c1.546 0 2.8-1.254 2.8-2.8v-52.98H40.95v55.78z" transform="translate(-1126 -1209) translate(1126 1209) translate(20 9)"/>
                        <g fill="#FA759E">
                            <path d="M21.574 1.4h-4.766c-.387 0-.7-.313-.7-.7 0-.387.313-.7.7-.7h4.766c.386 0 .7.313.7.7 0 .387-.313.7-.7.7zM12.608 1.4H.825c-.386 0-.7-.313-.7-.7 0-.387.314-.7.7-.7h11.783c.387 0 .7.313.7.7 0 .387-.313.7-.7.7zM21.574 16.1h-7.216c-.386 0-.7-.313-.7-.7 0-.387.314-.7.7-.7h7.216c.386 0 .7.313.7.7 0 .387-.313.7-.7.7zM11.558 16.1H.825c-.386 0-.7-.313-.7-.7 0-.387.314-.7.7-.7h10.733c.387 0 .7.313.7.7 0 .387-.313.7-.7.7z" transform="translate(-1126 -1209) translate(1126 1209) translate(20 9) translate(5.95 38.15)"/>
                            <g>
                                <path d="M21.574 1.4h-7.216c-.386 0-.7-.313-.7-.7 0-.387.314-.7.7-.7h7.216c.386 0 .7.313.7.7 0 .387-.313.7-.7.7zM11.558 1.4H.825c-.386 0-.7-.313-.7-.7 0-.387.314-.7.7-.7h10.733c.387 0 .7.313.7.7 0 .387-.313.7-.7.7z" transform="translate(-1126 -1209) translate(1126 1209) translate(20 9) translate(5.95 38.15) translate(0 29.4)"/>
                            </g>
                        </g>
                        <g>
                            <path fill="#FA759E" d="M.017 11.003v-9.52c0-.774.626-1.4 1.4-1.4h26.567c.773 0 1.4.626 1.4 1.4v9.52c0 .773-.627 1.4-1.4 1.4H1.417c-.774 0-1.4-.627-1.4-1.4z" transform="translate(-1126 -1209) translate(1126 1209) translate(20 9) translate(45.85 21.875)"/>
                            <path fill="#0089EF" d="M.017 35.673V18.3c0-.773.626-1.4 1.4-1.4h26.567c.773 0 1.4.627 1.4 1.4v17.372c0 .774-.627 1.4-1.4 1.4H1.417c-.774 0-1.4-.627-1.4-1.4z" transform="translate(-1126 -1209) translate(1126 1209) translate(20 9) translate(45.85 21.875)"/>
                        </g>
                        <path fill="#FFF" d="M78.286 71.295H3.613c-1.546 0-2.8-1.254-2.8-2.8v2.1c0 1.546 1.254 2.8 2.8 2.8h74.673c1.546 0 2.8-1.254 2.8-2.8v-2.1c0 1.546-1.254 2.8-2.8 2.8z" transform="translate(-1126 -1209) translate(1126 1209) translate(20 9)"/>
                        <path fill="#0089EF" d="M34.024 5.34L32.22 2.733C31.383 1.526 30.009.806 28.54.806H3.613c-1.546 0-2.8 1.253-2.8 2.8v14.008h80.273v-7.547c0-1.546-1.254-2.8-2.8-2.8H37.702c-1.468 0-2.843-.72-3.678-1.927z" transform="translate(-1126 -1209) translate(1126 1209) translate(20 9)"/>
                        <g transform="translate(-1126 -1209) translate(1126 1209) translate(20 9) translate(7.525 4.9)">
                            <circle cx="15.905" cy="1.954" r="1.909" fill="#FFF"/>
                            <circle cx="8.97" cy="1.954" r="1.909" fill="#D4FBFF"/>
                            <circle cx="2.036" cy="1.954" r="1.909" fill="#FA759E"/>
                            <path fill="#6DC9F7" d="M66.723 9.304H1.098c-.58 0-1.05-.47-1.05-1.05 0-.58.47-1.05 1.05-1.05h65.625c.58 0 1.05.47 1.05 1.05 0 .58-.47 1.05-1.05 1.05z"/>
                        </g>
                        <g fill="#3A2C60">
                            <path d="M29.291 43.05H11.675c-.386 0-.7.313-.7.7 0 .387.314.7.7.7h17.616c.387 0 .7-.313.7-.7 0-.387-.313-.7-.7-.7zM11.675 59.15h10.616c.387 0 .7-.313.7-.7 0-.387-.313-.7-.7-.7H11.675c-.386 0-.7.313-.7.7 0 .387.314.7.7.7zM10.975 63.35c0 .387.314.7.7.7h15.633c.387 0 .7-.313.7-.7 0-.387-.313-.7-.7-.7H11.675c-.386 0-.7.313-.7.7zM6.845 30.038l5.93 2.419c.169.067.325.1.471.1.258 0 .473-.086.647-.26.173-.173.26-.394.26-.663 0-.157-.042-.3-.126-.429-.084-.128-.204-.226-.36-.294l-5.495-2.2 5.494-2.201c.325-.146.487-.387.487-.723 0-.268-.084-.487-.252-.655-.168-.168-.38-.252-.638-.252-.158 0-.32.034-.487.1l-5.93 2.42c-.28.112-.5.286-.657.52-.156.236-.235.5-.235.79 0 .303.079.569.235.799.158.23.376.406.656.529zM15.934 34.792c.213 0 .405-.059.58-.176.173-.118.294-.294.36-.53l3.866-12.095c.033-.124.05-.241.05-.353 0-.27-.101-.49-.303-.664-.202-.174-.437-.26-.706-.26-.201 0-.39.059-.563.176-.174.118-.3.294-.378.53l-3.847 12.095c-.034.123-.05.241-.05.353 0 .269.1.49.302.664.201.173.43.26.69.26zM21.722 31.205c-.084.13-.127.272-.127.429 0 .268.087.49.26.663.174.175.39.26.647.26.146 0 .303-.033.47-.1l5.932-2.42c.279-.122.498-.299.655-.528.157-.23.235-.496.235-.799 0-.29-.078-.554-.235-.79-.157-.234-.375-.408-.655-.52l-5.931-2.42c-.168-.066-.33-.1-.487-.1-.258 0-.47.084-.638.252-.168.168-.252.386-.252.655 0 .336.162.577.487.723l5.494 2.2-5.494 2.201c-.158.068-.278.166-.361.294zM75.934 23.358c0-1.158-.942-2.1-2.1-2.1H47.267c-1.158 0-2.1.942-2.1 2.1v9.52c0 1.157.942 2.1 2.1 2.1h26.567c1.158 0 2.1-.943 2.1-2.1v-9.52zm-1.4 9.52c0 .386-.314.7-.7.7H47.267c-.387 0-.7-.314-.7-.7v-9.52c0-.387.313-.7.7-.7h26.567c.386 0 .7.313.7.7v9.52zM75.934 57.547V40.175c0-1.158-.942-2.1-2.1-2.1H47.267c-1.158 0-2.1.942-2.1 2.1v17.372c0 1.158.942 2.1 2.1 2.1h26.567c1.158 0 2.1-.942 2.1-2.1zM47.267 39.475h26.567c.386 0 .7.314.7.7v10.729l-3.776-2.706c-.255-.183-.603-.172-.849.026l-3.896 3.158-9.831-7.262c-.25-.184-.594-.182-.841.008l-8.774 6.721V40.175c0-.386.313-.7.7-.7zm26.567 18.772H47.267c-.387 0-.7-.314-.7-.7v-4.934l9.207-7.054 9.843 7.271c.257.189.608.182.857-.02l3.902-3.163 4.157 2.98v4.92c0 .386-.313.7-.7.7z" transform="translate(-1126 -1209) translate(1126 1209) translate(20 9)"/>
                            <path d="M65.625 47.308c1.737 0 3.15-1.413 3.15-3.15 0-1.737-1.413-3.15-3.15-3.15-1.737 0-3.15 1.413-3.15 3.15 0 1.737 1.413 3.15 3.15 3.15zm0-4.9c.965 0 1.75.785 1.75 1.75s-.785 1.75-1.75 1.75-1.75-.785-1.75-1.75.785-1.75 1.75-1.75zM74.053 62.65H47.047c-.387 0-.7.313-.7.7 0 .387.313.7.7.7h27.006c.387 0 .7-.313.7-.7 0-.387-.313-.7-.7-.7zM74.053 67.55H47.047c-.387 0-.7.313-.7.7 0 .387.313.7.7.7h27.006c.387 0 .7-.313.7-.7 0-.387-.313-.7-.7-.7zM81.086 51.275c-.387 0-.7.313-.7.7v6.607c0 .387.313.7.7.7.387 0 .7-.313.7-.7v-6.607c0-.387-.313-.7-.7-.7z" transform="translate(-1126 -1209) translate(1126 1209) translate(20 9)"/>
                            <path d="M78.286 6.567H37.702c-1.238 0-2.398-.607-3.102-1.625l-1.806-2.608C31.828.939 30.238.105 28.54.105H3.614c-1.93 0-3.5 1.57-3.5 3.5v66.99c0 1.93 1.57 3.5 3.5 3.5h74.673c1.93 0 3.5-1.57 3.5-3.5v-9.228c0-.387-.313-.7-.7-.7-.388 0-.7.313-.7.7v9.228c0 1.158-.943 2.1-2.1 2.1H41.65v-54.38h38.736v30.86c0 .387.313.7.7.7.387 0 .7-.313.7-.7V10.067c0-1.93-1.57-3.5-3.5-3.5zM1.514 3.606c0-1.158.942-2.1 2.1-2.1h24.927c1.238 0 2.398.607 3.102 1.625L33.45 5.74c.967 1.395 2.556 2.23 4.254 2.23h40.584c1.157 0 2.1.941 2.1 2.1v6.846H1.514V3.605zM40.25 43.05h-6.643c-.386 0-.7.313-.7.7 0 .387.314.7.7.7h6.643v3.5H11.675c-.386 0-.7.313-.7.7 0 .387.314.7.7.7H40.25v8.4H26.607c-.386 0-.7.313-.7.7 0 .387.314.7.7.7H40.25v3.5h-9.38c-.387 0-.7.313-.7.7 0 .387.313.7.7.7h9.38v8.645H3.613c-1.157 0-2.1-.942-2.1-2.1v-52.28H40.25V43.05z" transform="translate(-1126 -1209) translate(1126 1209) translate(20 9)"/>
                        </g>
                    </g>
                </g>
            </g>
        </g>
    </g>
</svg>
