<?xml version="1.0" encoding="UTF-8"?>
<svg width="91px" height="32px" viewBox="0 0 91 32" version="1.1" xmlns="http://www.w3.org/2000/svg" xmlns:xlink="http://www.w3.org/1999/xlink">
    <title>logo - signifier copy-01 copy</title>
    <defs>
        <linearGradient x1="0.00089711187%" y1="49.9907766%" x2="99.9963751%" y2="49.9907766%" id="linearGradient-1">
            <stop stop-color="#00FFFF" offset="7%"></stop>
            <stop stop-color="#00FFFF" stop-opacity="0.8" offset="53%"></stop>
            <stop stop-color="#4FD5DF" offset="91%"></stop>
        </linearGradient>
        <linearGradient x1="0.0101068221%" y1="49.9909539%" x2="100%" y2="49.9909539%" id="linearGradient-2">
            <stop stop-color="#00FFFF" offset="7%"></stop>
            <stop stop-color="#00AEEF" offset="53%"></stop>
            <stop stop-color="#4FD5DF" offset="91%"></stop>
        </linearGradient>
        <linearGradient x1="-0.0115069593%" y1="49.9909539%" x2="100%" y2="49.9909539%" id="linearGradient-3">
            <stop stop-color="#00FFFF" offset="7%"></stop>
            <stop stop-color="#00AEEF" offset="53%"></stop>
            <stop stop-color="#4FD5DF" offset="91%"></stop>
        </linearGradient>
        <linearGradient x1="0.0717295123%" y1="49.9905997%" x2="100.006298%" y2="49.9905997%" id="linearGradient-4">
            <stop stop-color="#00FFFF" offset="0%"></stop>
            <stop stop-color="#00FFFF" offset="50%"></stop>
            <stop stop-color="#4FD5DF" offset="100%"></stop>
        </linearGradient>
        <linearGradient x1="0.071602856%" y1="49.9905997%" x2="100.012336%" y2="49.9905997%" id="linearGradient-5">
            <stop stop-color="#29ABE2" stop-opacity="0" offset="0%"></stop>
            <stop stop-color="#27ADE2" stop-opacity="0.04" offset="1%"></stop>
            <stop stop-color="#1FB7E3" stop-opacity="0.27" offset="6%"></stop>
            <stop stop-color="#17C0E4" stop-opacity="0.46" offset="11%"></stop>
            <stop stop-color="#11C7E5" stop-opacity="0.63" offset="17%"></stop>
            <stop stop-color="#0BCDE5" stop-opacity="0.76" offset="23%"></stop>
            <stop stop-color="#07D2E5" stop-opacity="0.87" offset="29%"></stop>
            <stop stop-color="#04D5E6" stop-opacity="0.94" offset="35%"></stop>
            <stop stop-color="#03D7E6" stop-opacity="0.99" offset="42%"></stop>
            <stop stop-color="#02D8E6" offset="50%"></stop>
            <stop stop-color="#02D9E6" stop-opacity="0.98" offset="56%"></stop>
            <stop stop-color="#02DBE8" stop-opacity="0.93" offset="63%"></stop>
            <stop stop-color="#02DFEA" stop-opacity="0.83" offset="69%"></stop>
            <stop stop-color="#01E4EE" stop-opacity="0.71" offset="76%"></stop>
            <stop stop-color="#01EBF2" stop-opacity="0.54" offset="82%"></stop>
            <stop stop-color="#01F3F8" stop-opacity="0.34" offset="89%"></stop>
            <stop stop-color="#00FDFE" stop-opacity="0.1" offset="96%"></stop>
            <stop stop-color="#00FFFF" stop-opacity="0.06" offset="97%"></stop>
            <stop stop-color="#9E1F63" stop-opacity="0" offset="100%"></stop>
        </linearGradient>
        <linearGradient x1="2.4258268%" y1="45.5149526%" x2="95.2955924%" y2="52.9729543%" id="linearGradient-6">
            <stop stop-color="#D9E8BC" offset="0%"></stop>
            <stop stop-color="#4FD5DF" offset="100%"></stop>
        </linearGradient>
        <linearGradient x1="19.8613945%" y1="71.9556336%" x2="82.1241156%" y2="24.2279856%" id="linearGradient-7">
            <stop stop-color="#1C75BC" stop-opacity="0" offset="0%"></stop>
            <stop stop-color="#458EC5" stop-opacity="0.18" offset="6%"></stop>
            <stop stop-color="#7DB0D2" stop-opacity="0.43" offset="15%"></stop>
            <stop stop-color="#ABCCDC" stop-opacity="0.63" offset="24%"></stop>
            <stop stop-color="#D0E2E4" stop-opacity="0.79" offset="32%"></stop>
            <stop stop-color="#EAF2EA" stop-opacity="0.91" offset="39%"></stop>
            <stop stop-color="#F9FCEE" stop-opacity="0.98" offset="45%"></stop>
            <stop stop-color="#FFFFEF" offset="50%"></stop>
            <stop stop-color="#FDFFEF" stop-opacity="0.99" offset="59%"></stop>
            <stop stop-color="#F6FDEE" stop-opacity="0.95" offset="66%"></stop>
            <stop stop-color="#ECFAED" stop-opacity="0.89" offset="72%"></stop>
            <stop stop-color="#DCF7EC" stop-opacity="0.8" offset="77%"></stop>
            <stop stop-color="#C8F2EA" stop-opacity="0.69" offset="82%"></stop>
            <stop stop-color="#AFECE8" stop-opacity="0.55" offset="87%"></stop>
            <stop stop-color="#92E5E5" stop-opacity="0.38" offset="92%"></stop>
            <stop stop-color="#71DDE2" stop-opacity="0.19" offset="96%"></stop>
            <stop stop-color="#4FD5DF" stop-opacity="0" offset="100%"></stop>
        </linearGradient>
        <linearGradient x1="0.0270456187%" y1="50.0094003%" x2="99.9957756%" y2="50.0094003%" id="linearGradient-8">
            <stop stop-color="#EE2A7B" stop-opacity="0" offset="0%"></stop>
            <stop stop-color="#EE3C86" stop-opacity="0.09" offset="2%"></stop>
            <stop stop-color="#EF669F" stop-opacity="0.3" offset="7%"></stop>
            <stop stop-color="#F08CB5" stop-opacity="0.49" offset="12%"></stop>
            <stop stop-color="#F1ABC8" stop-opacity="0.65" offset="18%"></stop>
            <stop stop-color="#F1C5D7" stop-opacity="0.77" offset="23%"></stop>
            <stop stop-color="#F1D9E3" stop-opacity="0.87" offset="29%"></stop>
            <stop stop-color="#F2E7EB" stop-opacity="0.94" offset="35%"></stop>
            <stop stop-color="#F2EFF0" stop-opacity="0.99" offset="42%"></stop>
            <stop stop-color="#F2F2F2" offset="50%"></stop>
            <stop stop-color="#F1EEF0" stop-opacity="0.98" offset="56%"></stop>
            <stop stop-color="#ECE3E8" stop-opacity="0.93" offset="63%"></stop>
            <stop stop-color="#E5D1DC" stop-opacity="0.84" offset="69%"></stop>
            <stop stop-color="#DBB7CA" stop-opacity="0.72" offset="76%"></stop>
            <stop stop-color="#CE96B4" stop-opacity="0.57" offset="82%"></stop>
            <stop stop-color="#BD6E99" stop-opacity="0.37" offset="89%"></stop>
            <stop stop-color="#AB3F79" stop-opacity="0.15" offset="96%"></stop>
            <stop stop-color="#9E1F63" stop-opacity="0" offset="100%"></stop>
        </linearGradient>
        <linearGradient x1="3.18782017%" y1="44.8865657%" x2="95.8844357%" y2="55.503441%" id="linearGradient-9">
            <stop stop-color="#EE2A7B" stop-opacity="0" offset="0%"></stop>
            <stop stop-color="#F0478D" stop-opacity="0.14" offset="3%"></stop>
            <stop stop-color="#F472A8" stop-opacity="0.34" offset="8%"></stop>
            <stop stop-color="#F798BF" stop-opacity="0.51" offset="13%"></stop>
            <stop stop-color="#F9B8D3" stop-opacity="0.66" offset="18%"></stop>
            <stop stop-color="#FBD1E3" stop-opacity="0.79" offset="24%"></stop>
            <stop stop-color="#FDE6EF" stop-opacity="0.88" offset="30%"></stop>
            <stop stop-color="#FEF4F8" stop-opacity="0.95" offset="36%"></stop>
            <stop stop-color="#FFFCFD" stop-opacity="0.99" offset="42%"></stop>
            <stop stop-color="#FFFFFF" offset="50%"></stop>
            <stop stop-color="#FDFBFC" stop-opacity="0.98" offset="56%"></stop>
            <stop stop-color="#F9F0F5" stop-opacity="0.93" offset="62%"></stop>
            <stop stop-color="#F1DEE8" stop-opacity="0.85" offset="69%"></stop>
            <stop stop-color="#E5C4D6" stop-opacity="0.74" offset="75%"></stop>
            <stop stop-color="#D7A3BF" stop-opacity="0.59" offset="82%"></stop>
            <stop stop-color="#C57AA2" stop-opacity="0.41" offset="88%"></stop>
            <stop stop-color="#B14B82" stop-opacity="0.2" offset="95%"></stop>
            <stop stop-color="#9E1F63" stop-opacity="0" offset="100%"></stop>
        </linearGradient>
    </defs>
    <g id="Page-1" stroke="none" stroke-width="1" fill="none" fill-rule="evenodd">
        <g id="logo---signifier-copy-01-copy" fill-rule="nonzero">
            <g id="Group" transform="translate(27.826087, 6.173913)" fill="#FFFFFF">
                <g transform="translate(0.000000, 0.408163)">
                    <path d="M1.20816327,2.40204082 C0.892058611,2.41057637 0.584907895,2.29649182 0.351020408,2.08367347 C0.126972989,1.87377807 -0.000156368967,1.58047643 -0.000156368967,1.27346939 C-0.000156368967,0.966462344 0.126972989,0.673160705 0.351020408,0.463265306 C0.849562682,0.0551020408 1.56676385,0.0551020408 2.06530612,0.463265306 C2.28935354,0.673160705 2.4164829,0.966462344 2.4164829,1.27346939 C2.4164829,1.58047643 2.28935354,1.87377807 2.06530612,2.08367347 C1.83141864,2.29649182 1.52426792,2.41057637 1.20816327,2.40204082 L1.20816327,2.40204082 Z M0.324489796,14.8142857 L0.324489796,4.52040816 L2.06122449,4.52040816 L2.06122449,14.8142857 L0.324489796,14.8142857 Z" id="Shape"></path>
                    <path d="M9.00204082,19.5591837 C8.41825981,19.563926 7.83576389,19.5036914 7.26530612,19.3795918 C6.78909922,19.2784697 6.33405025,19.0954834 5.92040816,18.8387755 C5.56816683,18.6196812 5.27132709,18.322143 5.05306122,17.9693878 C4.84179044,17.6106152 4.7350505,17.1999139 4.74489796,16.7836735 C4.7501536,16.335424 4.89259859,15.8995423 5.15306122,15.5346939 C5.45138269,15.1105377 5.82489688,14.7446321 6.25510204,14.455102 L6.25510204,14.3714286 C5.99349855,14.2081054 5.7723122,13.9876168 5.60816327,13.7265306 C5.22490562,13.0433028 5.26207393,12.2018755 5.70408163,11.555102 C5.91439797,11.2600985 6.17234338,11.0021531 6.46734694,10.7918367 L6.46734694,10.6979592 C6.09603402,10.3772177 5.78382539,9.99386422 5.54489796,9.56530612 C5.26570652,9.06721563 5.12478483,8.50352888 5.13673469,7.93265306 C5.12425723,7.41102052 5.22304841,6.89271466 5.42653061,6.4122449 C5.62267402,5.97414697 5.90759178,5.58151639 6.26326531,5.25918367 C6.62462201,4.9361741 7.04632763,4.68786717 7.50408163,4.52857143 C7.98279867,4.35764667 8.48760677,4.27132517 8.99591837,4.27337637 C9.26309642,4.2716351 9.52977027,4.29693493 9.79183673,4.34897959 C10.0177279,4.39236765 10.2401025,4.45239517 10.4571429,4.52857143 L14.0367347,4.52857143 L14.0367347,5.86326531 L11.9265306,5.86326531 C12.4709247,6.43079383 12.7744518,7.18705184 12.7734694,7.97346939 C12.7805565,8.48620451 12.6790103,8.99463082 12.4755102,9.46530612 C12.2909437,9.89271326 12.016733,10.2754947 11.6714286,10.5877551 C11.3214169,10.898164 10.9155681,11.13918 10.4755102,11.2979592 C10.0034203,11.469896 9.50445573,11.5562818 9.00204082,11.5530612 C8.73799312,11.5513907 8.47502345,11.5192043 8.21836735,11.4571429 C7.95587602,11.3961576 7.70067707,11.3072143 7.45714286,11.1918367 C7.27827558,11.3423241 7.12101233,11.5167559 6.98979592,11.7102041 C6.85752536,11.9228894 6.79146231,12.1700931 6.8,12.4204082 C6.79433905,12.7339696 6.93551122,13.0321675 7.18163265,13.2265306 C7.43469388,13.437415 7.91088435,13.5428571 8.61020408,13.5428571 L10.6020408,13.5428571 C11.8020408,13.5428571 12.7020408,13.737415 13.3020408,14.1265306 C13.9020408,14.5156463 14.2020463,15.1401361 14.2020463,16 C14.2029979,16.4792291 14.0792128,16.9504567 13.8428571,17.3673469 C13.5852126,17.8168619 13.2311445,18.2036882 12.8061224,18.5 C12.3082773,18.8460846 11.7566135,19.1074353 11.1734694,19.2734694 C10.4670956,19.4722923 9.73580337,19.568515 9.00204082,19.5591837 Z M9.25714286,18.3510204 C9.71177415,18.3566082 10.1648054,18.2961124 10.6020408,18.1714286 C10.963519,18.0681925 11.3074777,17.9113474 11.622449,17.7061224 C11.8869383,17.5335185 12.1110834,17.3058928 12.2795918,17.0387755 C12.4285975,16.8043087 12.509174,16.5328933 12.5122449,16.255102 C12.5122449,15.7748299 12.3360544,15.4428571 11.9836735,15.2591837 C11.4961575,15.049334 10.9667243,14.9550418 10.4367347,14.9836735 L8.65714286,14.9836735 C8.45306122,14.9836735 8.24897959,14.9734694 8.0122449,14.9510204 C7.77801795,14.9307098 7.54671255,14.8848593 7.32244898,14.8142857 C6.99787223,15.036944 6.72388646,15.3255331 6.51836735,15.6612245 C6.35642429,15.9301676 6.26842004,16.2371265 6.26326531,16.5510204 C6.26385609,17.1029447 6.57035191,17.6090557 7.05918367,17.8653061 C7.59251701,18.1904762 8.32517007,18.352381 9.25714286,18.3510204 Z M9.00204082,10.3918714 C9.28963098,10.3934935 9.57447352,10.3358302 9.83877551,10.222449 C10.3888876,9.98371168 10.814792,9.52675175 11.0142857,8.96122449 C11.1317017,8.63405523 11.1890846,8.28837489 11.1836735,7.94081633 C11.1836735,7.17755102 10.9795918,6.5877551 10.5489796,6.17142857 C9.68637198,5.33920833 8.31975047,5.33920833 7.45714286,6.17142857 C7.03265306,6.5877551 6.82040816,7.17755102 6.82040816,7.94081633 C6.81600988,8.28829858 6.87336315,8.63380019 6.98979592,8.96122449 C7.09345243,9.24945515 7.25610111,9.51289039 7.46734694,9.73469388 C7.66531703,9.94199663 7.90258303,10.1078053 8.16530612,10.222449 C8.42997378,10.3342067 8.71475805,10.3904689 9.00204082,10.3877551 L9.00204082,10.3918714 Z" id="Shape"></path>
                    <path d="M16.2040816,14.8142857 L16.2040816,4.52040816 L17.644898,4.52040816 L17.7938776,6.00204082 L17.8571429,6.00204082 C18.3251614,5.52875129 18.8478916,5.11289649 19.4142857,4.76326531 C19.9875304,4.4239024 20.6441829,4.25143393 21.3102041,4.26530612 C22.3986395,4.26530612 23.192517,4.60544218 23.6918367,5.28571429 C24.1911565,5.96598639 24.4421769,6.96870748 24.444898,8.29387755 L24.444898,14.8244898 L22.7081633,14.8244898 L22.7081633,8.52244898 C22.7081633,7.54965986 22.552381,6.84761905 22.2408163,6.41632653 C21.9292517,5.98503401 21.4353741,5.76938776 20.7591837,5.76938776 C20.2529784,5.76019242 19.7555513,5.90231445 19.3306122,6.17755102 C18.8264587,6.52621948 18.3581748,6.92408994 17.9326531,7.36530612 L17.9326531,14.8204082 L16.2040816,14.8142857 Z" id="Path"></path>
                    <path d="M28.6795918,2.40204082 C28.3634872,2.41057637 28.0563365,2.29649182 27.822449,2.08367347 C27.5995004,1.87316813 27.4731482,1.58009384 27.4731482,1.27346939 C27.4731482,0.966844939 27.5995004,0.673770646 27.822449,0.463265306 C28.3216446,0.0547837061 29.0395799,0.0547837061 29.5387755,0.463265306 C29.7617241,0.673770646 29.8880763,0.966844939 29.8880763,1.27346939 C29.8880763,1.58009384 29.7617241,1.87316813 29.5387755,2.08367347 C29.3043746,2.29698767 28.9963955,2.41110819 28.6795918,2.40204082 L28.6795918,2.40204082 Z M27.7897959,14.8142857 L27.7897959,4.52040816 L29.5285714,4.52040816 L29.5285714,14.8142857 L27.7897959,14.8142857 Z" id="Shape"></path>
                </g>
                <g transform="translate(31.632653, 0.000000)">
                    <path d="M1.6,15.222449 L1.6,6.74897959 L0.202040816,6.74897959 L0.202040816,4.92857143 L1.6,4.82244898 L1.6,3.74285714 C1.595448,3.23847532 1.65999327,2.73584615 1.79183673,2.24897959 C1.9052219,1.81313688 2.11438022,1.40806692 2.40408163,1.06326531 C2.6945666,0.724724366 3.06100313,0.459687263 3.47346939,0.289795918 C3.9754783,0.0929373471 4.512003,-0.000763604212 5.05102041,0.0142857143 C5.70321786,0.0142721078 6.34967914,0.136089222 6.95714286,0.373469388 L6.49183673,2.19591837 C6.1324558,2.03112236 5.74228802,1.94418658 5.34693878,1.94081633 C4.47210884,1.94081633 4.03469388,2.52721088 4.03469388,3.7 L4.03469388,4.82244898 L6.0755102,4.82244898 L6.0755102,6.74897959 L4.03469388,6.74897959 L4.03469388,15.222449 L1.6,15.222449 Z" id="Path"></path>
                    <path d="M9.12040816,3 C8.72477484,3.01519725 8.33814469,2.87951196 8.03877551,2.62040816 C7.75788668,2.36704543 7.60326997,2.00253838 7.61632653,1.6244898 C7.60413942,1.24364175 7.75835484,0.876355737 8.03877551,0.618367347 C8.66442294,0.095810529 9.57435257,0.095810529 10.2,0.618367347 C10.4809472,0.876144519 10.635883,1.24337224 10.6244898,1.6244898 C10.6367481,2.00281122 10.4814106,2.36725709 10.2,2.62040816 C9.90125674,2.87920196 9.51537696,3.01487992 9.12040816,3 Z M7.89591837,15.222449 L7.89591837,4.81428571 L10.3244898,4.81428571 L10.3244898,15.222449 L7.89591837,15.222449 Z" id="Shape"></path>
                    <path d="M17.8877551,15.477551 C17.2001326,15.4830593 16.5178036,15.3569843 15.877551,15.1061224 C15.2657611,14.8653853 14.710028,14.5013801 14.244898,14.0367347 C13.7667819,13.5501265 13.3955887,12.9690076 13.155102,12.3306122 C12.885968,11.5950569 12.7565394,10.8157164 12.7734694,10.0326531 C12.7629255,9.25106078 12.9014517,8.4746214 13.1816327,7.74489796 C13.4234788,7.10888278 13.7866805,6.52595793 14.2510204,6.02857143 C14.6864715,5.57020646 15.2088863,5.20319792 15.7877551,4.94897959 C16.3427586,4.70425833 16.9424198,4.57709959 17.5489796,4.5755102 C18.1893173,4.56241629 18.8251279,4.68554373 19.4142857,4.93673469 C19.9357227,5.16785074 20.3961802,5.51721147 20.7591837,5.95714286 C21.1321207,6.42056094 21.4095689,6.95326145 21.5755102,7.5244898 C21.7646669,8.17130231 21.8575003,8.84245362 21.8510204,9.51632653 C21.8510204,9.75510204 21.8408163,9.98163265 21.8204082,10.1938776 C21.8071733,10.3630077 21.7846907,10.5312866 21.7530612,10.6979592 L15.1346939,10.6979592 C15.2462585,11.629932 15.5748299,12.3462585 16.1204082,12.8469388 C16.6914226,13.3593719 17.4394559,13.6294544 18.2061224,13.6 C18.634982,13.6029406 19.0612996,13.5339572 19.4673469,13.3959184 C19.8722338,13.2543589 20.2592076,13.0660089 20.6204082,12.8346939 L21.4367347,14.3591837 C20.9218622,14.6951576 20.3672838,14.9659344 19.7857143,15.1653061 C19.1751144,15.3753492 18.5334633,15.4809112 17.8877551,15.477551 L17.8877551,15.477551 Z M15.1142857,9.03673469 L19.7306122,9.03673469 C19.7306122,8.23265306 19.5591837,7.60816327 19.2122449,7.14081633 C18.8653061,6.67346939 18.3326531,6.45306122 17.6142857,6.45306122 C17.0046379,6.44789096 16.4177052,6.68413141 15.9816327,7.11020408 C15.5163265,7.54693878 15.2272109,8.18911565 15.1142857,9.03673469 L15.1142857,9.03673469 Z" id="Shape"></path>
                    <path d="M24.1795918,15.222449 L24.1795918,4.81428571 L26.1918367,4.81428571 L26.3612245,6.65102041 L26.4469388,6.65102041 C26.7623883,6.03369534 27.2198154,5.50003031 27.7816327,5.09387755 C28.5965391,4.51458896 29.6505473,4.39072375 30.577551,4.76530612 L30.155102,6.88367347 C29.9883871,6.83140761 29.8186967,6.78915536 29.6469388,6.75714286 C29.4574147,6.72601945 29.2655143,6.71167813 29.0734694,6.71428571 C28.6038112,6.73593621 28.1524438,6.90279241 27.7816327,7.19183673 C27.3312925,7.50884354 26.9435374,8.06258503 26.6183673,8.85306122 L26.6183673,15.2081633 L24.1795918,15.222449 Z" id="Path"></path>
                </g>
            </g>
            <path d="M4.19895652,8.74295652 C4.19895652,8.74295652 5.5346087,10.5210435 14.989913,12.6970435 C17.1046957,13.184 18.4904348,13.5318261 19.5867826,14.2970435 C19.5867826,14.2970435 20.0932174,15.9137391 17.2577391,15.7634783 C14.4222609,15.6132174 9.95617391,16.4146087 9.95617391,16.4146087 C9.95617391,16.4146087 4.63026087,15.3015652 4.20452174,15.04 C3.77878261,14.7784348 1.72243478,14.0688696 1.49982609,11.8121739 C1.27721739,9.55547826 4.19895652,8.74295652 4.19895652,8.74295652 Z" id="Path" fill="#01FAFC"></path>
            <path d="M4.19895652,8.74295652 C4.19895652,8.74295652 5.53182609,10.5238261 14.989913,12.6970435 C17.0907826,13.1812174 18.4904348,13.5318261 19.5867826,14.2970435 C19.5867826,14.2970435 20.0932174,15.9137391 17.2577391,15.7634783 C14.4222609,15.6132174 9.95617391,16.4146087 9.95617391,16.4146087 C9.95617391,16.4146087 4.63026087,15.3015652 4.20452174,15.04 C3.77878261,14.7784348 1.72243478,14.0688696 1.49982609,11.8121739 C1.27721739,9.55547826 4.19895652,8.74295652 4.19895652,8.74295652 Z" id="Path" fill="#00FFFF" opacity="0.43"></path>
            <path d="M8.17530435,13.9909565 C2.5293913,12.7805217 3.264,11.6702609 3.264,11.6702609 C3.264,11.6702609 3.136,10.482087 3.06921739,9.24104348 C2.27617391,9.70295652 1.37182609,10.5210435 1.49982609,11.8149565 C1.72243478,14.0716522 3.77878261,14.7923478 4.20452174,15.0427826 C4.63026087,15.2932174 9.95617391,16.4173913 9.95617391,16.4173913 C12.0560092,16.0500102 14.1785411,15.8268794 16.3088696,15.7495652 C14.3053913,15.2375652 11.3892174,14.6810435 8.17530435,13.9909565 Z" id="Path" fill="#02D8E6" opacity="0.43"></path>
            <path d="M25.8448696,0 C25.8448696,0 27.648,6.60313043 16.6177391,8.61217391 C4.78886957,10.7686957 0.701217391,13.4038261 4.29634783,15.0845217 C4.29634783,15.0845217 -1.29947826,13.8518261 0.281043478,8.68452174 C1.21321739,5.64313043 3.89843478,4.864 7.14852174,4.09321739 C7.14852174,4.10156522 17.9728696,2.34295652 25.8448696,0 Z" id="Path" fill="url(#linearGradient-1)"></path>
            <path d="M9.57773913,22.3109565 C9.57773913,22.3109565 4.53286957,25.650087 7.73843478,31.8441739 C7.75322756,31.8709932 7.74592295,31.9046178 7.72133615,31.9228823 C7.69674934,31.9411468 7.66244796,31.9384295 7.64104348,31.9165217 C6.7529348,31.0060712 5.9422453,30.0231917 5.2173913,28.978087 C2.92730435,25.677913 7.14017391,23.2570435 9.57773913,22.3109565 Z" id="Path" fill="url(#linearGradient-2)"></path>
            <path d="M9.57773913,22.3109565 C9.57773913,22.3109565 4.53286957,25.650087 7.73843478,31.8441739 C7.75322756,31.8709932 7.74592295,31.9046178 7.72133615,31.9228823 C7.69674934,31.9411468 7.66244796,31.9384295 7.64104348,31.9165217 C6.97043478,31.2598261 5.44278261,29.6208696 5.01704348,28.4855652 C3.60626087,24.7206957 7.14017391,23.2570435 9.57773913,22.3109565 Z" id="Path" fill="url(#linearGradient-3)"></path>
            <path d="M21.325913,18.2038261 C22.2386087,15.9248696 19.378087,14.1746087 19.378087,14.1746087 C20.6914783,16.0445217 14.5697391,14.4918261 8.28382609,17.0295652 C3.83165217,18.8271304 3.34469565,22.6838261 3.34469565,22.6838261 L3.34469565,22.6838261 C2.75756522,26.1370435 5.20347826,28.9753043 5.20347826,28.9753043 C3.78156522,19.3836522 19.6424348,22.3916522 21.325913,18.2038261 Z" id="Path" fill="url(#linearGradient-4)"></path>
            <path d="M21.325913,18.2038261 C22.3415652,15.9387826 19.378087,14.1746087 19.378087,14.1746087 C20.6914783,16.0445217 14.5697391,14.4918261 8.28382609,17.0295652 C3.83165217,18.8271304 3.34469565,22.6838261 3.34469565,22.6838261 L3.34469565,22.6838261 C2.75756522,26.1370435 5.20347826,28.9753043 5.20347826,28.9753043 C3.78156522,19.3836522 19.1916522,22.3777391 21.325913,18.2038261 Z" id="Path" fill="url(#linearGradient-5)"></path>
            <path d="M12.3074783,5.76834783 C24.9154783,3.712 25.8448696,0 25.8448696,0 C18.8076522,2.20104348 7.14852174,4.10156522 7.14852174,4.10156522 C3.75652174,4.91130435 1.21321739,5.65147826 0.281043478,8.69286957 C-1.29947826,13.8518261 4.29634783,15.0928696 4.29634783,15.0928696 C-2.048,13.312 -0.717913043,7.89147826 12.3074783,5.76834783 Z" id="Path" fill="url(#linearGradient-6)" style="mix-blend-mode: color-burn;"></path>
            <path d="M25.8448696,0 L25.8448696,0 C25.8448696,0 24.9154783,3.712 12.3074783,5.76834783 C2.34295652,7.3906087 -0.770782609,10.944 1.14643478,13.3203478 C1.75298132,13.9374537 2.48055496,14.4225028 3.28347826,14.7450435 C3.61437861,14.8773515 3.95255003,14.9906946 4.29634783,15.0845217 C0.701217391,13.4149565 4.78886957,10.7686957 16.6177391,8.61217391 C27.648,6.60313043 25.8448696,0 25.8448696,0 Z" id="Path" fill="url(#linearGradient-7)" opacity="0.25"></path>
            <path d="M18.8883478,17.6473043 C21.1450435,17.2438261 20.8,15.8024348 20.7638261,15.6633043 C20.4153269,15.0743398 19.9458656,14.5659938 19.3864348,14.1718261 C20.6998261,16.0417391 14.578087,14.4890435 8.29217391,17.0267826 C3.84,18.8243478 3.35304348,22.6810435 3.35304348,22.6810435 L3.35304348,22.6810435 C2.76591304,26.1342609 5.21182609,28.9725217 5.21182609,28.9725217 C-1.30782609,19.0914783 16.4424348,18.0813913 18.8883478,17.6473043 Z" id="Path" fill="url(#linearGradient-8)" opacity="0.17" style="mix-blend-mode: soft-light;"></path>
            <path d="M19.3864348,14.1690435 C19.9458656,14.5632112 20.4153269,15.0715572 20.7638261,15.6605217 C20.8,15.7996522 21.1450435,17.2410435 18.8883478,17.6445217 C16.4424348,18.0813913 -1.39130435,18.7213913 5.2173913,28.978087 C3.78156522,19.3836522 19.1916522,22.3777391 21.325913,18.2038261 C22.3415652,15.9332174 19.3864348,14.1690435 19.3864348,14.1690435 Z" id="Path" fill="url(#linearGradient-9)" opacity="0.17" style="mix-blend-mode: soft-light;"></path>
        </g>
    </g>
</svg>