<svg xmlns="http://www.w3.org/2000/svg" width="84" height="77" viewBox="0 0 84 77">
    <g fill="none" fill-rule="evenodd">
        <g fill-rule="nonzero">
            <g>
                <path fill="#E6E7E8" d="M83.386 32.268l-5.742-9.352v-8.224c0-.552-.216-1.07-.604-1.458-.389-.39-.907-.605-1.459-.605H17.794V6.54c0-.154-.052-.303-.147-.425-.764-.973-1.75-1.777-2.85-2.326-1.157-.577-2.403-.87-3.705-.87-2.084 0-4.08.773-5.619 2.178-1.527 1.396-2.478 3.294-2.679 5.412v48.669c0 2.755 1.073 5.344 3.02 7.291 1.949 1.948 4.538 3.021 7.293 3.021h57.318v4.505c0 .759.295 1.47.83 2.006.536.536 1.248.83 2.006.83h7.39c.758 0 1.47-.294 2.005-.83.536-.535.831-1.247.831-2.006V32.627c0-.126-.034-.25-.1-.36z" transform="translate(-749 -1436) translate(749 1436)"/>
                <g transform="translate(-749 -1436) translate(749 1436)">
                    <path fill="#D4FBFF" d="M68.362 29.878l5.843-9.52.001.003v-8.42c0-.759-.615-1.374-1.375-1.374H14.356V52.313c-1.4-1.783-3.57-2.933-6.013-2.933-4.001 0-7.275 3.076-7.61 6.99v.057c0 5.316 4.308 9.625 9.624 9.625h58.006V29.878z"/>
                    <path fill="#FFF" d="M72.831 10.567H14.356v2.062h58.476c.76 0 1.375.616 1.375 1.375v-2.062c-.001-.76-.616-1.375-1.376-1.375z"/>
                    <path fill="#6DC9F7" d="M8.342.856c-3.972 0-7.236 3.03-7.61 6.903V56.37c.335-3.914 3.609-6.989 7.61-6.989 2.444 0 4.614 1.15 6.014 2.933V3.789c-1.4-1.784-3.57-2.933-6.014-2.933z"/>
                    <g>
                        <path fill="#FFD7E5" d="M.128 9.597L5.97.077l5.845 9.52v41.367c0 1.187-.962 2.149-2.149 2.149H2.278c-1.188 0-2.15-.963-2.15-2.15V9.598z" transform="translate(68.234 20.281)"/>
                        <path fill="#0089EF" d="M.128 9.597h11.687v41.367c0 1.187-.962 2.149-2.149 2.149H2.278c-1.188 0-2.15-.963-2.15-2.15V9.598z" transform="translate(68.234 20.281)"/>
                        <path fill="#FA759E" d="M.128 48.12v2.844c0 1.187.962 2.149 2.149 2.149h7.389c1.187 0 2.149-.963 2.149-2.15V48.12H.128z" transform="translate(68.234 20.281)"/>
                    </g>
                    <path fill="#FA759E" d="M29.175 27.239L51.519 27.239 51.519 52.848 29.175 52.848z"/>
                    <circle cx="51.519" cy="27.239" r="8.976" fill="#FFD7E5"/>
                    <path fill="#0089EF" d="M18.222 60.73L29.175 40.735 40.128 60.73z"/>
                    <g fill="#3A2C60">
                        <path d="M60.285 65.365h-6.102c-.38 0-.687.308-.687.687 0 .38.307.688.687.688h6.102c.38 0 .687-.308.687-.688 0-.38-.308-.687-.687-.687z"/>
                        <path d="M80.636 29.518l-5.742-9.352v-8.224c0-1.137-.926-2.063-2.063-2.063H15.044V3.79c0-.154-.052-.303-.147-.425C13.302 1.334 10.913.168 8.342.168 4.03.168.462 3.403.044 7.76v48.668c0 5.687 4.626 10.313 10.313 10.313h40.99c.38 0 .688-.308.688-.688 0-.38-.307-.687-.688-.687h-40.99c-4.928 0-8.938-4.01-8.938-8.938v-.018c.316-3.557 3.352-6.341 6.923-6.341 2.146 0 4.14.973 5.474 2.67.181.23.488.32.765.226.277-.097.463-.357.463-.65v-41.06h57.788c.38 0 .687.31.687.688v8.219l-5.743 9.357c-.066.108-.1.233-.1.36v35.487h-4.813c-.38 0-.688.308-.688.687 0 .38.308.688.688.688h4.812v4.505c0 1.564 1.273 2.837 2.837 2.837h7.389c1.564 0 2.837-1.273 2.837-2.837V29.878c0-.127-.035-.252-.102-.36zM13.67 50.62c-1.483-1.24-3.352-1.928-5.327-1.928-2.85 0-5.416 1.48-6.923 3.728L1.416 7.824c.347-3.58 3.324-6.281 6.926-6.281 2.069 0 3.997.904 5.327 2.49V50.62zM69.05 30.565h10.313v37.148H69.05V30.565zm6.218-7.162l3.553 5.788h-9.23l3.552-5.788h2.124zM77.9 72.707h-7.389c-.806 0-1.462-.656-1.462-1.462v-2.157h10.313v2.157c0 .806-.656 1.462-1.462 1.462z"/>
                        <path d="M51.52 17.575c-5.097 0-9.275 3.969-9.63 8.976H29.176c-.38 0-.687.308-.687.688v13.32L17.619 60.4c-.117.214-.112.472.012.681.124.21.349.337.591.337h21.905c.244 0 .468-.128.592-.337.123-.209.128-.467.011-.68l-3.76-6.865h14.55c.38 0 .687-.308.687-.688v-15.98c5.007-.355 8.976-4.532 8.976-9.628-.001-5.33-4.336-9.664-9.664-9.664zm-.688 17.917c-4.022-.333-7.233-3.544-7.566-7.566h7.566v7.566zm-20.97 7.93l4.788 8.739h-4.787v-8.74zm-10.48 16.62l9.106-16.62v9.426c0 .38.307.688.687.688h6.228l3.565 6.507H19.383zm16.835-7.881L29.864 40.56V27.926H41.89c.339 4.78 4.161 8.602 8.94 8.941v15.294H36.218zm15.99-16.669V27.24c0-.38-.308-.688-.688-.688h-8.253c.351-4.248 3.915-7.6 8.253-7.6 4.57 0 8.289 3.717 8.289 8.288-.001 4.338-3.353 7.901-7.601 8.253z"/>
                    </g>
                </g>
            </g>
        </g>
    </g>
</svg>
