<svg xmlns="http://www.w3.org/2000/svg" width="49" height="48" viewBox="0 0 49 48">
    <g fill="none" fill-rule="evenodd">
        <g fill-rule="nonzero">
            <g transform="translate(-116 -5034) translate(116 5034)">
                <path fill="#CF9E76" d="M27.871 33.29v10.065c0 2.137-1.734 3.87-3.871 3.87s-3.871-1.733-3.871-3.87V33.29h7.742z"/>
                <path fill="#FCD770" d="M27.871 30.194L27.871 33.29 20.129 33.29 20.129 30.194 21.677 30.194 26.323 30.194z"/>
                <path fill="#AAB2BD" d="M26.323 27.097L26.323 30.194 21.677 30.194 21.677 27.097 24 27.097z"/>
                <path fill="#FFEAA7" d="M13.959 22.436c2.407 2.85 6.015 4.66 10.041 4.66H0v-4.644h13.935l.024-.016z"/>
                <path fill="#FFEAA7" d="M34.026 22.452h7.006v-2.323l6.194 4.645-6.194 4.645v-2.322H24c-4.026 0-7.634-1.812-10.041-4.66-1.951-2.292-3.12-5.258-3.12-8.502C10.839 6.665 16.73.775 24 .775s13.161 5.89 13.161 13.16c0 3.252-1.184 6.217-3.135 8.517z"/>
                <circle cx="24" cy="13.935" r="8.516" fill="#69D6F4"/>
                <path fill="#000" d="M48.516 24.774l-8.258-6.193v3.096h-4.692c1.53-2.284 2.37-4.977 2.37-7.742C37.935 6.252 31.683 0 24 0S10.065 6.252 10.065 13.935c0 2.863.87 5.527 2.356 7.742H3.097v1.549h10.546c1.132 1.26 2.483 2.314 4.002 3.097H0v1.548h20.903v1.548h-1.548v3.097h-1.549v1.549h1.549v9.29C19.355 45.917 21.438 48 24 48c2.562 0 4.645-2.083 4.645-4.645v-9.29h1.549v-1.549h-1.549V29.42h-1.548v-1.548h13.161v3.097l8.258-6.194zm-21.42 18.58c0 1.709-1.388 3.098-3.096 3.098-1.708 0-3.097-1.39-3.097-3.097v-9.29h6.194v9.29zm-6.193-10.838v-1.548h6.194v1.548h-6.194zm4.645-3.097h-3.096v-1.548h3.096v1.548zM24 26.323c-6.83 0-12.387-5.558-12.387-12.388S17.17 1.548 24 1.548s12.387 5.558 12.387 12.387c0 2.815-.976 5.547-2.74 7.742h-4.523c2.508-1.665 4.166-4.512 4.166-7.742 0-5.122-4.167-9.29-9.29-9.29-5.123 0-9.29 4.168-9.29 9.29 0 5.123 4.167 9.29 9.29 9.29h17.806v-1.548l4.13 3.097-4.13 3.097v-1.548H24zm0-4.646c-4.269 0-7.742-3.473-7.742-7.742 0-4.268 3.473-7.741 7.742-7.741s7.742 3.473 7.742 7.741c0 4.27-3.473 7.742-7.742 7.742z"/>
                <path fill="#000" d="M22.618 9.5c.446-.14.911-.21 1.382-.21V7.742c-.627 0-1.246.094-1.841.279l.46 1.478zM21.548 9.99l-.819-1.314c-1.83 1.14-2.923 3.106-2.923 5.26 0 1.63.63 3.169 1.77 4.333l1.106-1.083c-.856-.873-1.327-2.027-1.327-3.25 0-1.615.82-3.091 2.193-3.947zM0 21.677L1.548 21.677 1.548 23.226 0 23.226zM39.295 11.51l1.53-.242c-.075-.472-.17-.945-.283-1.405l-1.503.37c.103.418.189.847.256 1.277zM40.142 8.487c-.153-.452-.326-.902-.516-1.337l-1.42.617c.172.395.33.804.469 1.215l1.467-.495zM39.484 13.935v.17l1.547.02.001-.19c0-.418-.015-.833-.045-1.244l-1.544.113c.027.374.04.75.04 1.131zM8.517 14.105v-.17c0-.38.013-.757.04-1.131l-1.544-.113c-.03.411-.045.826-.045 1.244v.19l1.549-.02zM8.961 10.233l-1.503-.37c-.113.46-.208.933-.283 1.405l1.53.242c.067-.43.153-.86.256-1.277zM9.793 7.767l-1.42-.617c-.189.436-.362.885-.516 1.337l1.467.497c.14-.412.298-.822.469-1.217z"/>
            </g>
        </g>
    </g>
</svg>
