<svg xmlns="http://www.w3.org/2000/svg" width="69" height="69" viewBox="0 0 69 69">
    <g fill="none" fill-rule="evenodd">
        <g>
            <g transform="translate(-955 -1365) translate(955 1365)">
                <circle cx="34.5" cy="34.5" r="34.5" fill="#04F" fill-opacity=".1"/>
                <g fill-rule="nonzero">
                    <g fill="#E6E7E8">
                        <path d="M44.693 39.086c-.09-2.809-2.403-5.066-5.233-5.066-2.204 0-4.129 1.343-4.897 3.378-2.403.006-4.356 1.963-4.356 4.368 0 2.408 1.959 4.367 4.367 4.367h9.433c1.963 0 3.558-1.596 3.558-3.558 0-1.71-1.23-3.166-2.872-3.489zM52.164 24.322l-4.397-2.535c-2.435-1.402-5.206-2.144-8.016-2.144h-9.559l-10.704-6.566c-.07-.044-.153-.067-.236-.067h-4.707c-.187 0-.355.116-.422.29-.068.175-.02.374.119.5l6.465 5.843h-8.39l-5.85-8.685h7.201c1.777 0 3.223-1.445 3.223-3.222 0-1.535-1.096-2.845-2.563-3.152C14.226 2.07 12.149.056 9.61.056c-1.975 0-3.702 1.197-4.4 3.014-2.156.023-3.902 1.783-3.902 3.944 0 .419.067.822.189 1.201H.823c-.136 0-.264.06-.35.166-.086.104-.12.242-.094.375l2.157 10.887h-.25C1.025 19.643 0 20.668 0 21.928c0 .94.564 1.774 1.436 2.122l.938.375-2.076 2.132c-.127.13-.163.324-.092.491.07.168.235.277.417.277h4.58c.094 0 .186-.029.263-.084l1.422-1.01 4.455 1.782c1.731.691 3.553 1.042 5.416 1.042h1.778l-6.628 7.219c-.122.132-.154.323-.082.488.073.165.235.27.415.27h5.808c.098 0 .193-.03.272-.09l6.326-4.75 7.576.362h1.122c1.047 0 1.9-.851 1.9-1.899v-1.132c0-.162-.027-.317-.066-.467h15.718c1.398 0 2.536-1.138 2.536-2.537 0-.904-.487-1.746-1.27-2.197z" transform="translate(9 11) translate(1.811 1.811)"/>
                    </g>
                    <g>
                        <path fill="#D4FBFF" d="M13.868 4.976c.004-.067.01-.133.01-.2 0-2.357-1.91-4.267-4.267-4.267-1.925 0-3.551 1.275-4.082 3.027-.091-.007-.182-.014-.275-.014-1.928 0-3.492 1.563-3.492 3.492 0 .599.152 1.162.417 1.654h2.199l1.237 1.838h8.053c1.53 0 2.77-1.24 2.77-2.77 0-1.462-1.134-2.657-2.57-2.76zM44.232 39.48c.004-.074.012-.148.012-.224 0-2.642-2.142-4.783-4.784-4.783-2.159 0-3.982 1.43-4.577 3.394-.102-.008-.204-.015-.308-.015-2.162 0-3.914 1.752-3.914 3.914s1.752 3.914 3.914 3.914h9.433c1.715 0 3.105-1.39 3.105-3.105 0-1.64-1.27-2.979-2.88-3.094z" transform="translate(9 11)"/>
                        <path fill="#FFD7E5" d="M51.938 24.714L47.54 22.18c-2.369-1.366-5.055-2.084-7.79-2.084H2.286c-1.012 0-1.832.82-1.832 1.832 0 .75.456 1.424 1.152 1.702l1.566.627-2.548 2.616h4.58l1.624-1.154 4.684 1.874c1.67.667 3.45 1.01 5.248 1.01h2.808l-7.325 7.978h5.808l10.622-7.978h22.225c1.15 0 2.084-.933 2.084-2.084 0-.745-.398-1.433-1.043-1.805z" transform="translate(9 11)"/>
                        <path fill="#D4FBFF" d="M43.517 24.63h8.277l-4.253-2.45c-.164-.095-.332-.179-.499-.267h-7.778l.99 1.19c.808.968 2.003 1.527 3.263 1.527z" transform="translate(9 11)"/>
                        <path fill="#FA759E" d="M29.178 28.223L24.507 31.731 32.245 32.102 32.245 28.076z" transform="translate(9 11)"/>
                        <path fill="#FFD7E5" d="M33.346 32.102h-1.1v-4.026h1.1c.799 0 1.446.648 1.446 1.447v1.132c0 .799-.647 1.447-1.446 1.447z" transform="translate(9 11)"/>
                        <path fill="#FA759E" d="M12.076 20.096L3.087 20.096 0.823 8.668 4.377 8.668z" transform="translate(9 11)"/>
                        <g fill="#D4FBFF">
                            <path d="M16.17 2.781h-2.49V1.31c0-.688.557-1.246 1.244-1.246.688 0 1.246.558 1.246 1.246V2.78zM11.641 2.781h-2.49V1.31c0-.688.557-1.246 1.245-1.246.688 0 1.245.558 1.245 1.246V2.78zM7.113 2.781h-2.49V1.31c0-.688.557-1.246 1.245-1.246.688 0 1.245.558 1.245 1.246V2.78zM2.585 2.781H.095V1.31C.094.622.651.064 1.338.064c.688 0 1.246.558 1.246 1.246V2.78z" transform="translate(9 11) translate(16.981 21.85)"/>
                        </g>
                        <path fill="#FFF" d="M13.489 35.222L12.242 36.581 18.05 36.581 19.859 35.222z" transform="translate(9 11)"/>
                        <path fill="#FFD7E5" d="M19.251 13.463L14.545 13.463 21.883 20.096 30.064 20.096z" transform="translate(9 11)"/>
                        <g fill="#3A2C60">
                            <path d="M44.694 39.086c-.09-2.808-2.404-5.066-5.234-5.066-2.203 0-4.129 1.343-4.896 3.378-2.404.006-4.357 1.963-4.357 4.367 0 2.409 1.96 4.368 4.368 4.368h9.433c1.962 0 3.558-1.596 3.558-3.558 0-1.71-1.231-3.166-2.872-3.489zm-.686 6.141h-9.433c-1.909 0-3.462-1.552-3.462-3.462 0-1.908 1.553-3.461 3.462-3.461.092 0 .182.007.273.014.214.018.407-.116.468-.32.558-1.838 2.223-3.073 4.144-3.073 2.388 0 4.33 1.943 4.33 4.33 0 .04-.002.078-.004.116l-.006.088c-.011.245.175.455.42.473 1.38.099 2.46 1.26 2.46 2.642 0 1.464-1.19 2.653-2.652 2.653zM44.377 29.056c.25 0 .453-.203.453-.453s-.203-.453-.453-.453h-3.679c-.25 0-.453.203-.453.453s.203.453.453.453h3.68z" transform="translate(9 11)"/>
                            <path d="M52.164 24.322l-4.398-2.535c-2.434-1.403-5.206-2.145-8.015-2.145h-9.56l-10.703-6.566c-.071-.043-.153-.066-.237-.066h-4.706c-.187 0-.355.115-.422.29-.068.175-.02.373.119.499l6.466 5.843h-8.391l-5.851-8.684h7.202c1.777 0 3.223-1.445 3.223-3.222 0-1.535-1.096-2.845-2.563-3.152C14.227 2.07 12.15.056 9.61.056c-1.974 0-3.701 1.197-4.4 3.014-2.156.023-3.901 1.783-3.901 3.944 0 .42.07.822.193 1.201h-.68c-.136 0-.264.06-.35.166-.086.104-.12.242-.094.375l2.156 10.886h-.25C1.025 19.642 0 20.668 0 21.928c0 .94.564 1.773 1.437 2.122l.938.375-2.076 2.131c-.127.13-.164.324-.093.492.07.168.236.277.417.277h4.58c.094 0 .186-.03.263-.084l1.422-1.011 4.455 1.782c1.73.692 3.552 1.043 5.416 1.043h1.778l-6.629 7.219c-.122.132-.153.324-.081.489.072.164.235.27.415.27h5.808c.098 0 .193-.031.272-.09l6.326-4.751 7.597.363h1.1c1.048 0 1.9-.852 1.9-1.9v-1.132c0-.162-.027-.317-.065-.468h3.499c.25 0 .453-.202.453-.452s-.203-.453-.453-.453H34.65c-.341-.324-.8-.527-1.305-.527h-1.1l-1.618.077.826-.62c.2-.15.24-.434.09-.634s-.434-.24-.634-.09L17.9 36.128h-4.627l8.36-9.104c.17-.184.157-.47-.027-.64-.184-.17-.471-.157-.64.027l-1.597 1.739H16.76c-1.748 0-3.457-.33-5.08-.979l-3.913-1.565 3.586-2.55c.204-.144.252-.427.107-.63-.145-.204-.427-.253-.632-.107l-5.769 4.1H1.696l3.327-3.415c.174-.18.17-.466-.009-.64-.18-.175-.466-.171-.64.008l-1.316 1.351-1.285-.514c-.527-.21-.867-.713-.867-1.28 0-.761.619-1.38 1.38-1.38H39.75c1.763 0 3.507.316 5.155.912h-5.642c-.176 0-.336.102-.41.26-.075.16-.05.348.062.483l.991 1.188c.896 1.075 2.211 1.691 3.61 1.691h8.155l.04.023c.503.29.816.831.816 1.413 0 .899-.732 1.63-1.631 1.63h-4.332c-.25 0-.452.204-.452.454s.202.452.452.452h4.332c1.399 0 2.537-1.138 2.537-2.536 0-.904-.487-1.746-1.27-2.197zm-17.825 5.201v1.132c0 .548-.446.994-.993.994h-.648v-3.12h.648c.548 0 .993.446.993.994zm-2.547-.972v3.076l-6.01-.288 3.556-2.67 2.454-.118zm-16.07-14.636h3.401l9.336 5.727h-6.401l-6.337-5.727zM2.214 7.014c0-1.676 1.363-3.04 3.039-3.04.08 0 .16.007.24.014.214.015.406-.117.468-.32C6.452 2.047 7.92.96 9.612.96c2.103 0 3.814 1.711 3.814 3.814 0 .034-.002.067-.005.1l-.005.08c-.01.245.175.455.42.472 1.206.087 2.15 1.1 2.15 2.308 0 1.278-1.04 2.317-2.318 2.317H5.856L4.753 8.415c-.084-.125-.225-.2-.376-.2H2.47c-.161-.369-.255-.773-.255-1.201zm-.84 2.107h2.762l7.088 10.522H3.459L1.374 9.12zm42.142 15.057c-1.129 0-2.19-.498-2.914-1.365l-.372-.446h6.699c.128.068.258.132.384.205l2.787 1.606h-6.584z" transform="translate(9 11)"/>
                            <path d="M30.207 23.159v1.471c0 .25.203.453.453.453h2.49c.25 0 .454-.203.454-.453V23.16c0-.936-.762-1.698-1.698-1.698-.937 0-1.699.762-1.699 1.698zm2.491 0v1.019h-1.585v-1.02c0-.436.356-.792.793-.792.436 0 .792.356.792.793zM25.68 23.159v1.471c0 .25.202.453.452.453h2.49c.25 0 .453-.203.453-.453V23.16c0-.936-.761-1.698-1.698-1.698-.936 0-1.698.762-1.698 1.698zm2.49 0v1.019h-1.585v-1.02c0-.436.355-.792.792-.792.437 0 .793.356.793.793zM21.15 23.159v1.471c0 .25.204.453.454.453h2.49c.25 0 .453-.203.453-.453V23.16c0-.936-.762-1.698-1.698-1.698-.937 0-1.698.762-1.698 1.698zm2.491 0v1.019h-1.585v-1.02c0-.436.356-.792.793-.792.437 0 .792.356.792.793zM16.622 23.159v1.471c0 .25.203.453.453.453h2.49c.25 0 .454-.203.454-.453V23.16c0-.936-.762-1.698-1.698-1.698-.937 0-1.699.762-1.699 1.698zm2.491 0v1.019h-1.585v-1.02c0-.436.356-.792.793-.792.437 0 .792.356.792.793z" transform="translate(9 11)"/>
                        </g>
                    </g>
                </g>
            </g>
        </g>
    </g>
</svg>
