<svg xmlns="http://www.w3.org/2000/svg" width="83" height="66" viewBox="0 0 83 66">
    <g fill="none" fill-rule="evenodd">
        <g fill-rule="nonzero">
            <g>
                <path fill="#E6E7E8" d="M79.37 11.969h-5.628V6.342c0-1.94-1.578-3.517-3.517-3.517H6.445c-1.94 0-3.517 1.578-3.517 3.517v46.753c0 1.939 1.577 3.517 3.516 3.517h5.628v5.627c0 1.939 1.577 3.517 3.517 3.517h63.78c1.94 0 3.517-1.578 3.517-3.517V15.486c0-1.939-1.578-3.517-3.517-3.517z" transform="translate(-120 -1436) translate(120 1436)"/>
                <g>
                    <g>
                        <path fill="#D4FBFF" d="M60.377 11.815v28.619c0 1.553-1.26 2.813-2.814 2.813H.113v6.33c0 1.555 1.26 2.814 2.815 2.814h63.78c1.553 0 2.813-1.26 2.813-2.813V11.815h-9.144z" transform="translate(-120 -1436) translate(120 1436) translate(9.847 9.847)"/>
                        <path fill="#0089EF" d="M66.707.011h-6.33v11.804h9.144v-8.99C69.52 1.27 68.26.01 66.707.01z" transform="translate(-120 -1436) translate(120 1436) translate(9.847 9.847)"/>
                    </g>
                    <path fill="#D4FBFF" d="M70.224 12.518H.817v37.763c0 1.554 1.26 2.814 2.814 2.814h63.78c1.554 0 2.813-1.26 2.813-2.814V12.518z" transform="translate(-120 -1436) translate(120 1436)"/>
                    <path fill="#0089EF" d="M30.865 43.727l-.081-.001c-.856-.024-1.66-.414-2.208-1.072l-7.451-8.94c-1.054-1.265-.883-3.145.382-4.198 1.264-1.055 3.143-.884 4.198.38l5.285 6.344L44.78 21.43c1.12-1.204 3.006-1.273 4.212-.15 1.204 1.121 1.272 3.006.15 4.212L33.047 42.777c-.564.607-1.355.95-2.182.95z" transform="translate(-120 -1436) translate(120 1436)"/>
                    <path fill="#FFF" d="M67.41 50.985H3.63c-1.553 0-2.813-1.26-2.813-2.814v2.11c0 1.554 1.26 2.814 2.814 2.814h63.78c1.554 0 2.813-1.26 2.813-2.814v-2.11c0 1.554-1.26 2.814-2.813 2.814z" transform="translate(-120 -1436) translate(120 1436)"/>
                    <path fill="#0089EF" d="M.817 3.528v8.99h69.407v-8.99c0-1.554-1.26-2.813-2.813-2.813H3.63C2.077.715.817 1.975.817 3.528z" transform="translate(-120 -1436) translate(120 1436)"/>
                    <g fill="#3A2C60">
                        <path d="M79.368 35.324c-.389 0-.703.314-.703.703v6.799c0 .389.314.703.703.703.39 0 .704-.314.704-.703v-6.8c0-.388-.315-.702-.704-.702z" transform="translate(-120 -1436) translate(120 1436)"/>
                        <path d="M76.555 9.155h-5.627V3.528c0-1.939-1.578-3.517-3.517-3.517H3.63C1.69.011.114 1.59.114 3.528v46.753c0 1.94 1.578 3.517 3.517 3.517h5.627v5.627c0 1.94 1.578 3.517 3.517 3.517h63.78c1.94 0 3.517-1.578 3.517-3.517V45.991c0-.389-.315-.703-.704-.703-.389 0-.703.314-.703.703v13.434c0 1.164-.947 2.11-2.11 2.11h-63.78c-1.163 0-2.11-.946-2.11-2.11v-5.627H67.41c1.939 0 3.517-1.578 3.517-3.517V22.366h7.737v10.44c0 .39.314.704.703.704.39 0 .704-.314.704-.703V12.672c0-1.939-1.578-3.517-3.517-3.517zM1.52 3.528c0-1.163.946-2.11 2.11-2.11h63.78c1.163 0 2.11.947 2.11 2.11v8.287h-68V3.528zm65.89 48.863H3.63c-1.164 0-2.11-.946-2.11-2.11v-37.06h68v37.06c0 1.164-.947 2.11-2.11 2.11zm3.517-41.829h5.627c1.163 0 2.11.947 2.11 2.11v8.287h-7.737V10.562z" transform="translate(-120 -1436) translate(120 1436)"/>
                        <path d="M46.828 19.778c-.983.035-1.893.451-2.564 1.171L31.02 35.177l-4.774-5.73c-.63-.756-1.517-1.221-2.497-1.31-.984-.089-1.937.209-2.692.838-1.56 1.301-1.773 3.629-.472 5.19l7.452 8.94c.678.814 1.673 1.296 2.73 1.325l.1.001c1.02 0 2.003-.428 2.696-1.173L49.657 25.97c1.383-1.486 1.3-3.823-.185-5.206-.722-.673-1.663-1.02-2.644-.987zm1.799 5.234L32.532 42.298c-.429.461-1.037.726-1.667.726l-.063-.002c-.653-.017-1.267-.315-1.685-.818l-7.452-8.941c-.804-.965-.673-2.403.292-3.208.413-.344.923-.528 1.453-.528.07 0 .14.003.21.01.606.055 1.154.342 1.543.81l5.286 6.343c.13.155.32.248.521.253.198.001.396-.077.534-.224l13.79-14.811c.414-.445.977-.702 1.584-.724.624-.032 1.188.195 1.633.608.92.856.97 2.3.116 3.22z" transform="translate(-120 -1436) translate(120 1436)"/>
                    </g>
                    <g transform="translate(-120 -1436) translate(120 1436) translate(6.155 4.572)">
                        <circle cx="15.982" cy="2.057" r="1.918" fill="#FFF"/>
                        <circle cx="9.014" cy="2.057" r="1.918" fill="#D4FBFF"/>
                        <circle cx="2.045" cy="2.057" r="1.918" fill="#FA759E"/>
                    </g>
                </g>
            </g>
        </g>
    </g>
</svg>
