<svg xmlns="http://www.w3.org/2000/svg" width="48" height="48" viewBox="0 0 48 48">
    <g fill="none" fill-rule="evenodd">
        <g fill-rule="nonzero">
            <g>
                <path fill="#88DBFD" d="M44.6 4.199H26.962c-1.467 0-2.657 1.19-2.657 2.656v9.978c0 1.467 1.19 2.656 2.657 2.656h6.274l-1.014 4.093c-.132.533.482.935.918.6l6.109-4.693H44.6c1.468 0 2.657-1.19 2.657-2.656V6.855c0-1.467-1.19-2.656-2.657-2.656z" transform="translate(-120 -4788) translate(120 4788)"/>
                <path fill="#5ABFE9" d="M33.006 20.416l-.784 3.166c-.132.533.482.935.918.6l6.109-4.693h-5.036l-1.207.927zM44.6 4.199h-5.036c1.468 0 2.657 1.19 2.657 2.656v9.978c0 1.467-1.19 2.656-2.657 2.656H44.6c1.468 0 2.657-1.19 2.657-2.656V6.855c0-1.467-1.19-2.656-2.657-2.656z" transform="translate(-120 -4788) translate(120 4788)"/>
                <path fill="#FCC18B" d="M37.75 35.666c-.132-2.254-1.563-4.09-3.693-5.088-2.607-1.221-9.707-3.068-9.707-3.068-.686-.127-1.184-.726-1.184-1.424v-4.058h-7.718v4.058c0 .698-.498 1.297-1.184 1.424 0 0-7.1 1.847-9.707 3.068-2.13.997-3.561 2.834-3.693 5.088l-.16 9.676c-.014 1.076.855 1.955 1.93 1.955H35.98c1.076 0 1.944-.88 1.932-1.955l-.16-9.676z" transform="translate(-120 -4788) translate(120 4788)"/>
                <path fill="#EAAB65" d="M37.75 35.666c-.132-2.254-1.563-4.09-3.693-5.088-2.607-1.221-9.707-3.068-9.707-3.068-.686-.127-1.184-.726-1.184-1.424v-4.058H18.13v6.493c0 .697.498 1.296 1.184 1.423 0 0 7.1 1.847 9.707 3.068 2.13.997 3.561 2.834 3.693 5.088l.153 9.197h3.112c1.076 0 1.944-.88 1.932-1.955l-.16-9.676zM11.305 11.753h-1.013c-.367 0-.706.124-.975.333-.468.362-.674.97-.568 1.552l.398 2.191c.309 1.624 2.16.882 2.16.882l-.002-4.958z" transform="translate(-120 -4788) translate(120 4788)"/>
                <path fill="#FCC18B" d="M27.309 11.753h1.013c.367 0 .705.124.975.333.468.362.673.97.568 1.552l-.399 2.191c-.308 1.624-2.16.882-2.16.882l.003-4.958z" transform="translate(-120 -4788) translate(120 4788)"/>
                <path fill="#FCC18B" d="M24.923 3.426c-1.317-1.218-3.17-2.281-5.616-2.31-2.447.029-4.299 1.092-5.617 2.31C12.01 4.98 11.1 7.288 11.1 9.67l.002 8.304c0 3.926 5.102 7.991 8.205 7.991 3.103 0 8.205-4.065 8.205-7.99l.003-8.305c0-2.381-.911-4.689-2.592-6.243z" transform="translate(-120 -4788) translate(120 4788)"/>
                <path fill="#EAAB65" d="M24.923 3.426c-1.317-1.218-3.17-2.281-5.616-2.31-.923.01-1.761.169-2.518.427 1.25.426 2.278 1.124 3.098 1.883 1.681 1.554 2.591 3.862 2.591 6.243l-.002 8.304c0 2.97-2.921 6.02-5.687 7.33.89.42 1.763.661 2.518.661 3.103 0 8.205-4.065 8.205-7.99l.002-8.305c0-2.381-.91-4.689-2.59-6.243z" transform="translate(-120 -4788) translate(120 4788)"/>
                <path fill="#426175" d="M24.384.703H14.23c-2.612 0-4.73 2.118-4.73 4.73v6.529s1.302-.03 2.14.799c.174.172.47.046.47-.2V7.447c0-1.155.937-2.091 2.091-2.091h1.9c.499 0 .982.172 1.368.488l.186.152c.466.381 1.05.59 1.653.59.602 0 1.186-.209 1.653-.59l.186-.152c.386-.316.869-.488 1.367-.488h1.9c1.155 0 2.092.936 2.092 2.09v5.117c0 .245.296.371.47.199.837-.829 2.14-.8 2.14-.8V5.435c0-2.613-2.118-4.73-4.73-4.73z" transform="translate(-120 -4788) translate(120 4788)"/>
                <path fill="#2C4456" d="M24.384.703h-1.756c.883 1.04 1.438 2.603 1.452 4.652h.333c1.155 0 2.092.936 2.092 2.09v5.117c0 .245.296.371.47.199.837-.829 2.14-.8 2.14-.8V5.435c0-2.613-2.118-4.73-4.73-4.73z" transform="translate(-120 -4788) translate(120 4788)"/>
                <path fill="#33BCA5" d="M34.057 30.578c-1.517-.71-4.555-1.633-6.831-2.28l-.492.187c-4.786 1.812-10.069 1.812-14.854 0l-.492-.187c-2.276.647-5.314 1.57-6.831 2.28-2.13.997-3.561 2.834-3.693 5.088l-.16 9.676c-.014 1.076.855 1.955 1.93 1.955H35.98c1.076 0 1.944-.88 1.932-1.955l-.16-9.676c-.133-2.254-1.564-4.09-3.694-5.088z" transform="translate(-120 -4788) translate(120 4788)"/>
                <path fill="#F2F2F2" d="M31.145 44.872H7.116c-.73 0-1.337-.565-1.39-1.294L4.745 29.79c-.057-.806.581-1.492 1.39-1.492h25.994c.808 0 1.447.686 1.39 1.492l-.984 13.788c-.052.73-.658 1.294-1.39 1.294z" transform="translate(-120 -4788) translate(120 4788)"/>
                <path fill="#CDD6DF" d="M32.128 28.298h-5.073c.808 0 1.447.686 1.39 1.492L27.37 44.872h3.775c.73 0 1.338-.565 1.39-1.294l.982-13.788c.058-.806-.581-1.492-1.39-1.492z" transform="translate(-120 -4788) translate(120 4788)"/>
                <path fill="#CDD6DF" d="M32.868 47.297H5.745c-.669 0-1.212-.543-1.212-1.212 0-.67.543-1.213 1.212-1.213h27.123c.67 0 1.212.543 1.212 1.213s-.542 1.212-1.212 1.212z" transform="translate(-120 -4788) translate(120 4788)"/>
                <path fill="#FFF" d="M21.247 37.141c0 1.072-.869 1.94-1.94 1.94-1.072 0-1.94-.868-1.94-1.94 0-1.071.868-1.94 1.94-1.94 1.071 0 1.94.869 1.94 1.94z" transform="translate(-120 -4788) translate(120 4788)"/>
                <path fill="#000" d="M34.766 10.973c0-.356-.33-.634-.59-.634-.062 0-.122.009-.166.043l-2.205 1.433c-.2.13-.27.339-.27.486 0 .148.07.356.27.487l2.205 1.432c.044.035.104.044.165.044.26 0 .59-.278.59-.634 0-.148-.06-.278-.156-.339l-1.528-.99 1.528-.99c.096-.06.157-.19.157-.338zM39.134 8.003c-.157 0-.296.07-.365.217l-3.048 6.26c-.026.053-.044.114-.044.166 0 .217.192.46.487.46.165 0 .33-.087.39-.217l3.057-6.26c.026-.053.035-.113.035-.166 0-.277-.27-.46-.512-.46zM43.519 11.815l-2.206-1.433c-.043-.034-.104-.043-.165-.043-.26 0-.59.278-.59.634 0 .147.06.278.156.339l1.528.99-1.528.99c-.095.06-.156.19-.156.338 0 .356.33.634.59.634.061 0 .122-.009.165-.044l2.206-1.432c.2-.13.269-.339.269-.487 0-.147-.07-.356-.27-.486z" transform="translate(-120 -4788) translate(120 4788)"/>
                <path fill="#000" d="M44.6 3.496H29.46C28.68 1.454 26.699 0 24.385 0H14.229c-2.995 0-5.433 2.438-5.433 5.434v6.17c-.606.522-.888 1.338-.739 2.16l.4 2.197c.143.754.544 1.142.854 1.334.348.215.733.286 1.088.288v.39c0 1.98 1.155 4.163 3.17 5.989.379.343.773.66 1.175.947v1.177c0 .36-.256.667-.609.733l-.048.01c-.012.004-1.22.318-2.797.766H6.134c-.58 0-1.14.243-1.534.667-.396.424-.598 1-.557 1.578l.014.198C1.75 31.195.3 33.268.16 35.625v.03L0 45.333c-.01.71.26 1.379.76 1.884.498.505 1.164.783 1.874.783h33.344c.71 0 1.375-.278 1.874-.783.499-.505.77-1.174.76-1.887l-.16-9.675-.001-.03c-.142-2.425-1.674-4.55-4.097-5.684l-.14-.064.003-.037c.041-.578-.161-1.153-.556-1.578-.395-.424-.955-.667-1.534-.667h-4.804c-1.578-.448-2.785-.762-2.797-.765-.016-.005-.032-.008-.049-.011-.353-.066-.609-.374-.609-.733V24.91c.402-.287.797-.604 1.176-.947 1.28-1.16 2.214-2.465 2.724-3.77h4.569l-.798 3.221c-.133.537.08 1.08.543 1.383.217.142.461.213.704.213.275 0 .548-.09.78-.27l5.92-4.547H44.6c1.853 0 3.36-1.507 3.36-3.36V6.856c0-1.852-1.507-3.36-3.36-3.36zm-16.383 9.323c.268-.092.523-.13.689-.144.22.195.325.518.267.837l-.397 2.186c-.058.305-.175.378-.214.401-.081.05-.202.077-.346.078V12.82zM10.202 5.434c0-2.22 1.807-4.028 4.027-4.028h10.155c2.22 0 4.028 1.807 4.028 4.028v5.891c-.348.062-.781.18-1.204.405V7.446c0-1.54-1.254-2.794-2.795-2.794h-1.9c-.659 0-1.302.23-1.812.646l-.186.152c-.34.278-.77.431-1.208.431-.44 0-.868-.153-1.208-.43l-.187-.153c-.51-.417-1.153-.646-1.812-.646h-1.9c-1.54 0-2.794 1.253-2.794 2.794v4.284c-.423-.225-.856-.344-1.204-.405V5.434zm-.15 10.665c-.04-.023-.156-.096-.213-.395l-.398-2.191c-.058-.32.046-.642.266-.838.166.015.42.052.69.143v3.36c-.143-.002-.264-.028-.346-.079zM3.83 46.084c0 .177.024.348.069.51H2.635c-.331 0-.641-.13-.874-.365-.233-.236-.358-.548-.355-.876l.16-9.66c.104-1.688 1.04-3.152 2.601-4.11l.859 12.045c.015.221.066.433.145.63-.776.244-1.34.97-1.34 1.826zm29.405-2.456l.873-12.238c1.764.946 2.828 2.496 2.94 4.303l.16 9.657c.003.331-.123.643-.355.879-.233.235-.543.365-.874.365h-1.264c.045-.162.068-.333.068-.51 0-.971-.726-1.776-1.665-1.898.063-.177.104-.363.117-.558zm.142 2.456c0 .281-.228.51-.509.51H5.745c-.28 0-.509-.229-.509-.51 0-.28.229-.509.51-.509h27.122c.28 0 .51.229.51.51zm-.744-16.863c.132.141.197.326.183.519l-.983 13.789c-.026.359-.328.64-.688.64H7.116c-.36 0-.662-.281-.688-.64L5.446 29.74c-.014-.193.05-.378.183-.52.132-.141.31-.219.505-.219h25.994c.193 0 .372.078.505.22zm-9.552-1.626h-7.548c.384-.391.618-.927.618-1.509v-.314c1.108.574 2.21.895 3.156.895.946 0 2.047-.321 3.156-.895v.314c0 .582.233 1.118.618 1.509zm1.02-4.675c-1.57 1.422-3.452 2.341-4.794 2.341-1.343 0-3.224-.919-4.794-2.341-1.721-1.56-2.708-3.363-2.708-4.947l-.002-4.43h.028c.127 0 .255-.024.378-.076.366-.153.603-.508.603-.905V7.446c0-.766.623-1.388 1.388-1.388h1.9c.336 0 .663.117.922.329l.187.152c.59.483 1.335.749 2.098.749.762 0 1.507-.266 2.098-.749l.186-.152c.26-.212.587-.33.922-.33h1.9c.765 0 1.388.623 1.388 1.389v5.116c0 .397.237.752.604.905.131.055.27.08.405.076l-.001 4.43c0 1.584-.987 3.388-2.708 4.947zm22.452-6.087c0 1.077-.876 1.953-1.953 1.953H39.25c-.155 0-.305.051-.428.146l-5.832 4.48.93-3.754c.051-.21.004-.432-.13-.602-.132-.17-.337-.27-.553-.27h-5.083c.041-.274.062-.545.062-.813v-.39c.354-.002.74-.073 1.087-.288.311-.192.712-.58.856-1.34l.398-2.191c.15-.822-.133-1.638-.738-2.16v-6.17c0-.18-.009-.357-.026-.532H44.6c1.077 0 1.953.876 1.953 1.953v9.978z" transform="translate(-120 -4788) translate(120 4788)"/>
                <path fill="#000" d="M19.307 39.784c1.457 0 2.643-1.185 2.643-2.643 0-1.457-1.186-2.643-2.643-2.643-1.458 0-2.644 1.186-2.644 2.643 0 1.458 1.186 2.643 2.644 2.643zm0-3.88c.682 0 1.237.555 1.237 1.237s-.555 1.237-1.237 1.237-1.237-.555-1.237-1.237.555-1.237 1.237-1.237z" transform="translate(-120 -4788) translate(120 4788)"/>
            </g>
        </g>
    </g>
</svg>
